<?xml version="1.0" encoding="UTF-8"?><svg id="Layer_1" xmlns="http://www.w3.org/2000/svg" viewBox="0 0 22.727 24"><defs><style>.cls-1{fill:#a5a5a5;}.cls-2{fill:#f9c075;}.cls-3{fill:#f7e98e;}.cls-4{fill:#c8bfef;}.cls-5{fill:#a8e2bb;}</style></defs><path class="cls-1" d="M.987,15.081c.616.138,2.128-.078,2.801-.183,6.034-.947,11.635-4.038,15.146-9.461.294-.454,1.237-3.096,1.482-3.583.063.007.066.069.083.119.242.729.074,1.305.318,2.031.235.7,1.341,1.866,1.565,1.152v-.328l-.386-3.812c-.073-.279-.917-.905-1.15-1.015h-.299s-1.879,1.21-4.094,1.246c-.951.036.543,1.563,1.376,1.385.721-.154,1.149-.872,1.854-.983.039-.006.123-.041.138.011-1.513,2.79-4.021,5.364-6.407,7.265-3.077,2.451-6.199,3.528-10.028,3.872-.461.041-2.594.246-3.032.294-.841.093-.003,1.85.633,1.992Z"/><path class="cls-4" d="M21.608,9.295c0-1.071-.876-1.948-1.948-1.948,0,0-2.99,1.433-2.99,2.504l.456,12.256,3.662-.197c-.932-4.666.82-12.615.82-12.615Z"/><path class="cls-5" d="M15.148,15.25c.074-2.455-.177-2.455-1.248-2.455h-1.091c-1.071,0-.856.876-.856,1.948,0,0,.328,5.784.139,7.636l3.553-.191c-.989-3.958-.497-6.937-.497-6.937Z"/><path class="cls-2" d="M10.906,17.198c0-1.071-.876-1.948-1.948-1.948s-2.163-.826-2.163.245c0,0,1.141,5.692.454,7.145l3.455-.186c-.903-2.533.201-5.256.201-5.256Z"/><path class="cls-3" d="M6.09,18.54c0-1.071-2.369-2.599-2.369-2.599-1.071,0-1.948,1.848-1.948,2.919,0,0,.787,1.939.002,4.075l3.875-.209c-.252-2.398.439-4.187.439-4.187Z"/><path class="cls-1" d="M22.035,21.844l-1.247.067-3.662.197-1.481.08-3.553.191-1.387.075-3.455.186-1.599.086-3.875.209-.66.036c-.381,0-.692.312-.692.692,0,0,.415.337.796.337h20.47c.381,0,.692-.312.692-.692l.346-.772c0-.381-.312-.692-.692-.692Z"/></svg>