<?xml version="1.0" encoding="UTF-8"?><svg id="Layer_1" xmlns="http://www.w3.org/2000/svg" viewBox="0 0 23.993 20.927"><defs><style>.cls-1{fill:none;}.cls-2{fill:#f2d3d1;}.cls-3{fill:#a5a5a5;}</style></defs><path class="cls-1" d="M8.445,2.261c-.236.022-.476.076-.638.117-.109.028-.203.076-.309.108l.947-.225Z"/><path class="cls-2" d="M16.201,2.388c-.359-.094-.894-.111-1.133.218-.294.404-1.216,5.138-1.286,5.721,0,0,0,0,0,0,.003.012.007.025.01.038l2.382,2.37c.749.48,2.825.396,3.035,1.243.239.961-.014,1.145-.731.956l-2.357-1.322.834,1.521c0,.055-.13.279-.185.331-.365.343-1.273,1.12-1.336.598-.102-.852.099-1.877-.023-2.747l-1.449-1.721.739,9.374c.034.403.159.641.585.681,1.019.096,2.706.071,3.751,0,5.909-.403,3.932-5.518,3.268-8.54-.668-3.042-2.807-7.854-6.104-8.719Z"/><path class="cls-2" d="M2.009,9.195c-.647,2.981-1.289,9.755,2.884,9.99,1.049.059,2.162.926,3.186.83.426-.04,1.158-.646,1.192-1.049l.786-9.804-1.81,2.15c-.122.87.471,1.828.368,2.681-.063.522-1.107.786-1.472.444-.055-.052-.185-.276-.185-.331l.284-2.323-2.062,1.151c-.718.189-1.025-1.453-.272-1.926.738-.464,1.908.262,2.657-.219l2.552-2.817c-.133-1.035-.718-5.167-.986-5.537-.128-.176-.403-.2-.684-.174l-.947.225c-3.124.946-4.848,3.754-5.49,6.71Z"/><path class="cls-3" d="M23.976,13.776c-.194-4.101-2.321-9.99-6.104-12.077-.926-.511-2.707-1.114-3.653-.453-1.136.793-.807,5.248-.836,6.712l-.869-.865-.034-5.661c-.102-.863-1.613-1.971-1.702-1.136l1.066,5.768-1.291,1.425c.022-.206.03-.422.007-.623-.063-.55.033-3.744-.025-4.291-.123-1.155-2.36-1.063-3.445-.967C2.303,2.028.678,8.117.142,12.256c-.449,3.47-.051,7.867,4.362,8.131,1.202.072,3.18.623,4.368.529.897-.071,1.45-.694,1.65-1.539l.065-10.844,1.241-1.474,1.576,1.872.357,10.398c.186.86,1.604,1.316,1.874,1.306,1.156-.044,2.57.356,3.773.278,3.123-.202,4.399-2.989,4.567-5.776.025-.414.02-.945,0-1.362ZM8.445,2.261c.281-.026.556-.002.684.174.269.369.854,4.501.986,5.537l-2.552,2.817c-.749.48-1.919-.245-2.657.219-.753.474-.445,2.115.272,1.926l2.062-1.151-.284,2.323c0,.055.13.28.185.331.365.342,1.409.079,1.472-.444.102-.852-.49-1.81-.368-2.681l1.81-2.15-.786,9.804c-.034.403-.766,1.009-1.192,1.049-1.024.096-2.137-.771-3.186-.83-4.173-.236-3.531-7.009-2.884-9.99.641-2.956,2.366-5.764,5.49-6.71.106-.032.2-.08.309-.108.161-.041.402-.096.638-.117ZM19.037,19.648c-1.044.071-2.732.096-3.751,0-.426-.04-.551-.278-.585-.681l-.739-9.374,1.449,1.721c.122.87-.079,1.895.023,2.747.063.522.971-.255,1.336-.598.055-.052.185-.276.185-.331l-.834-1.521,2.357,1.322c.718.189.97.005.731-.956-.21-.846-2.286-.762-3.035-1.243l-2.382-2.37c-.003-.012-.007-.026-.01-.038,0,0,0,0,0,0,.07-.582.992-5.317,1.286-5.721.239-.329.775-.312,1.133-.218,3.297.865,5.436,5.678,6.104,8.719.664,3.023,2.641,8.137-3.268,8.54Z"/></svg>