<?xml version="1.0" encoding="UTF-8"?><svg id="Layer_1" xmlns="http://www.w3.org/2000/svg" viewBox="0 0 23.768 24.015"><defs><style>.cls-1{fill:none;}.cls-2{fill:#a5a5a5;}.cls-3{fill:#f9c075;}.cls-4{fill:#a8e2bb;}</style></defs><path class="cls-1" d="M15.188,5.904v.004s0-.003,0-.004Z"/><path class="cls-1" d="M15.28,6.317c.03.197.051.392.051.576.002-.194-.019-.386-.051-.576Z"/><polygon class="cls-1" points="8.489 6.89 8.489 6.893 8.489 6.893 8.489 6.89"/><path class="cls-4" d="M5.854,9.178c-2.603,4.628-.259,11.668,4.499,12.909l1.586-13.359-5.034-.693c-.39,0-.88.837-1.052,1.142Z"/><path class="cls-4" d="M17.586,9.749c-.176-.31-.662-1.142-1.052-1.142l-3.307.284-.771,14.072c5.546-1.089,7.741-8.609,5.129-13.214Z"/><path class="cls-3" d="M15.331,6.893c0-.184-.021-.379-.051-.576-.023-.138-.051-.275-.091-.408v-.004c-.291-.954-.997-1.774-1.923-2.164-2.289-.962-4.776-.873-4.777,3.15,0,0,0,.002,0,.002h6.842Z"/><path class="cls-2" d="M23.252,13.084c-.338-.276-2.647.741-2.781.658-.085-.588-.127-1.176-.248-1.761-.145-.704-.649-1.228-1.023-1.933.804-.581,2.142-1.168,2.859-1.85.4-.854-.97-1.112-1.833-.677-.3.151-1.624,1.488-1.745,1.467-.452-.654-.634-1.781-1.431-1.995.028-1.541-1.598-3.142-2.713-4.174.159-.782,2.482-1.988,1.474-2.645-1.178-.767-1.54,1.22-1.982,1.812-.126.169-.544-.061-.742-.102-1.051-.218-2.553.057-3.57.404-.163-.047-.151-1.829-.52-2.091-.653-.464-2.109-.024-1.986.742.061.379,1.976,1.642,1.928,1.831-1.103,1.033-2.199,2.683-2.167,4.222-.783.217-1.289.748-1.737,1.393-.123.024-1.982-1.985-2.312-1.904-.884.215-1.545,1.225-.755,1.939.609.55,1.836.376,2.49.905-.23.678-.714,1.952-.859,2.656-.12.584-.212,1.864-.297,2.452-.134.084-2.253-.744-2.683-.671-.88.148-.787,2.054.081,2.262l2.716-.537c.153,1.014.376,2.023.791,2.963l-.042.149-2.935,2.534c-.428.819.903,1.501,1.72,1.072l1.827-2.566c1.079,3.325,3.838,4.035,6.26,4.334,2.971.368,6.555-1.7,8.031-4.291.078-.021.089.021.134.052.64.443.97,2.002,1.619,2.416.807.515,1.641-1.552,1.228-2.367l-2.389-1.184c-.047-.045-.051-.087-.042-.149.031-.213.321-.809.405-1.1.176-.61.429-1.795.533-2.422l2.693.512c.868-.208.498-1.954.006-2.355ZM8.489,6.89c.001-4.024,2.488-4.113,4.777-3.15.927.39,1.633,1.21,1.922,2.164,0,.001,0,.003.001.004.04.133.068.27.091.408.032.19.053.382.051.576h-6.843s0-.002,0-.002ZM10.353,22.088c-4.758-1.242-7.103-8.281-4.499-12.909.172-.306.662-1.142,1.052-1.142l5.034.693-1.586,13.359ZM13.227,8.891l3.307-.284c.389,0,.876.833,1.052,1.142,2.612,4.605.417,12.124-5.129,13.214l.771-14.072Z"/></svg>