<?xml version="1.0" encoding="UTF-8"?><svg id="Layer_1" xmlns="http://www.w3.org/2000/svg" viewBox="0 0 23.784 24"><defs><style>.cls-1{fill:#f4b7ae;}.cls-2{fill:#f9c075;}.cls-3{fill:#fce0c3;}.cls-4{fill:#f7e98e;}.cls-5{fill:#c8bfef;}.cls-6{fill:#98e1ea;}.cls-7{fill:#a8e2bb;}.cls-8{fill:#cae9ef;}</style></defs><path class="cls-3" d="M15.025,12c.307,2.279-1.448,3.234-3.234,3.234s-2.862-1.718-3.234-3.234c-.426-1.735,1.133-3.234,3.234-3.234,1.786,0,2.996,1.464,3.234,3.234Z"/><path class="cls-3" d="M20.097,9.716l2.879,2.876s1.678-1.985.197-3.169c-.9-.805-3.077.293-3.077.293Z"/><path class="cls-3" d="M.601,12.58l2.911-2.844s-1.857-2.309-3.166-.236c-.905,1.704.256,3.08.256,3.08Z"/><path class="cls-7" d="M20.097,9.716s-4.615,4.998-5.949,5.2c-1.838.881-5.08.351-5.542.179-2.149-.625-5.094-5.359-5.094-5.359l-2.911,2.844s3.029,2.892,3.869,3.873c2.401,2.416,2.473,5.867,2.513,6.634s.548.913.548.913h7.939s.586-.231.589-.768.746-2.979,2.417-5.954c1.001-2.04,4.5-4.687,4.5-4.687l-2.879-2.876Z"/><path class="cls-6" d="M6.634,4.964c.011-.032.317-1.253,1.133,0s1.043.203,1.681.683c.784.286.61,1.007.314,1.062s-.561.382-.828-.118-.783-.243-1.196-.23-.996-.474-1.112-.817.007-.582.007-.582Z"/><path class="cls-2" d="M17.881,4.362c.026.022,1.046.759-.421,1.052s-.576.893-1.259,1.307c-.557.622-1.162.193-1.103-.103s-.146-.662.417-.725.517-.637.658-1.025.81-.749,1.171-.729.537.223.537.223Z"/><path class="cls-1" d="M12.949,2.804c-.031-.013-1.209-.421.12-.937s.312-.837.856-1.303c.367-.612.558,1.162.528,1.505s-.575.764-.928.816-.576-.08-.576-.08Z"/><path class="cls-2" d="M7.991,1.399c-.009.032-.264,1.253-.945,0s-.87-.203-1.401-.683C4.991.429,6.726.014,7.07,0s.83.474.927.817-.006.582-.006.582Z"/><path class="cls-8" d="M22.144,5.903c.026-.02.953-.855.763.558s.582.678.727,1.379c.359.617-1.287-.073-1.573-.265s-.39-.873-.265-1.207.348-.466.348-.466Z"/><path class="cls-4" d="M22.105,2.461c-.015.025-.464.991-1.03-.175s-.92-.33-1.431-.827c-.673-.358-.413-.93-.136-.93s.563-.23.736.225.678.323,1.055.375.839.547.895.85-.088.482-.088.482Z"/><path class="cls-5" d="M.331,5.382c-.021-.02-.864-.672.398-.966s.525-.824,1.123-1.213c.498-.577.999-.197.937.073s.1.6-.383.668-.465.589-.599.945-.719.697-1.027.685-.45-.193-.45-.193Z"/></svg>