<?xml version="1.0" encoding="UTF-8"?><svg id="Layer_1" xmlns="http://www.w3.org/2000/svg" viewBox="0 0 24 24"><defs><style>.cls-1{fill:#fff;}.cls-2{fill:#a8e2bb;}</style></defs><path class="cls-2" d="M16.825,5.487l-2.059.23-.149.615h0c0,.015-.082.241-.106.266-.173.176-.225.132-.405-.032-.035-.031-.157-.249-.157-.272l-.118-.578h-2.337l-.137.562c0,.015-.082.284-.106.309-.173.176-.214.121-.394-.042-.035-.031-.157-.249-.157-.272l-.139-.556h-2.368l-.127.626c0,.015-.082.252-.106.277-.173.176-.227.252-.406.088-.034-.031-.147-.341-.147-.365l-.147-.626h-1.578l-.292,2.454,11.278-.4.158-2.283Z"/><path class="cls-2" d="M18.848,15.981l-.795-1.368c-.886-1.783-1.303-3.79-1.386-5.818H5.388c.112,2.606,1.21,5.753,2.874,7.66l10.585-.474Z"/><path class="cls-2" d="M7.616,17.007c-.35,0-1.595-1.953-1.766-2.372l-.554-2.497.092,5.896,11.63.446-.351-1.473H7.616Z"/><path class="cls-2" d="M20.591,20.37c2.107-2.162,3.409-5.112,3.409-8.37C24,5.373,18.627,0,12,0S0,5.373,0,12s5.373,12,12,12c2.076,0,4.029-.528,5.732-1.456l5.229.732-2.371-2.906ZM4.873,19.061c-.224-.04-.321-.175-.42-.378V5.066c.098-.197.18-.319.391-.374l2.413-.002-.251-.66c0-.015.115-.233.139-.258.173-.176.71-.152.89.012.035.031.157.249.157.272v.633l2.344.085-.056-.725c0-.015.115-.233.139-.258.173-.176.653-.174.833-.01.034.031.129.321.129.345l-.027.7,2.277-.136s-.12-.517-.079-.691c.041-.174.143-.246.228-.282.228-.095.388.034.629.068.09.013.309.155.305.342s-.148.564-.148.564l2.444.002c.232.065.369.228.393.493.103,1.148-.469,2.428-.422,3.612.093,2.296,1.294,4.774,2.721,6.493.252.303.738,1.045.405,1.525-.035.05-.223.193-.26.193h-2.446v1.66c0,.143-.299.425-.45.395H4.873Z"/><path class="cls-1" d="M17.601,18.666v-1.66h2.446c.037,0,.226-.143.26-.193.333-.48-.153-1.222-.405-1.525-1.427-1.719-2.628-4.197-2.721-6.493-.048-1.184.525-2.464.422-3.612-.024-.264-.161-.428-.393-.493l-2.444-.002s.143-.376.148-.564-.215-.329-.305-.342c-.241-.033-.401-.163-.629-.068-.086.036-.188.108-.228.282-.04.174.079.691.079.691l-2.277.136.027-.7c0-.023-.094-.313-.129-.345-.18-.164-.661-.166-.833.01-.025.025-.139.242-.139.258l.056.725-2.344-.085v-.633c0-.023-.122-.241-.157-.272-.18-.164-.717-.188-.89-.012-.025.025-.139.242-.139.258l.251.66-2.413.002c-.211.055-.293.178-.391.374v13.618c.098.203.196.338.42.378h12.278c.151.03.45-.252.45-.395ZM5.68,5.716h1.578l.147.626c0,.023.113.333.147.365.179.164.234.088.406-.088.024-.025.106-.262.106-.277l.127-.626h2.368l.139.556c0,.023.122.241.157.272.18.164.222.218.394.042.024-.025.106-.293.106-.309l.137-.562h2.337l.118.578c0,.023.122.241.157.272.18.164.232.208.405.032.024-.025.106-.251.106-.266h0s.149-.615.149-.615l2.059-.23-.158,2.283-11.278.4.292-2.454ZM16.667,8.795c.083,2.028.5,4.035,1.386,5.818l.795,1.368-10.585.474c-1.664-1.907-2.763-5.054-2.874-7.66h11.278ZM5.388,18.034l-.092-5.896.554,2.497c.171.42,1.416,2.372,1.766,2.372h9.051l.351,1.473-11.63-.446Z"/></svg>