<?xml version="1.0" encoding="UTF-8"?><svg id="white" xmlns="http://www.w3.org/2000/svg" viewBox="0 0 24 24"><defs><style>.cls-1{fill:#fff;}</style></defs><path class="cls-1" d="M20.75,13.157c-.167-.081-.229-.165-.228-.354.008-1.669.003-3.338.005-5.007,0-.755-.241-1.418-.747-1.978-1.453-1.607-2.911-3.21-4.364-4.817C14.805.327,14.051,0,13.144,0,9.742.004,6.34,0,2.937.005c-.247,0-.5.023-.74.08C.878.401.005,1.527.002,2.916-.002,5.942,0,8.968,0,11.993h0C.002,14.993,0,17.991.002,20.99c0,1.786,1.22,3.008,3.003,3.008,4.845,0,9.69.004,14.535-.004.576,0,1.162-.007,1.728-.104,2.39-.407,4.269-2.361,4.618-4.757.361-2.468-.912-4.902-3.135-5.976ZM14.915,2.072c.044.074.075.16.132.223,1.28,1.416,2.562,2.83,3.847,4.24.075.083.142.169.201.258-.743.004-2.965.068-3.613.065-.425-.002-.657-.216-.659-.634-.006-1.339-.002-2.678,0-4.017,0-.024.012-.047.093-.136ZM18.174,23.39c-2.992,0-5.428-2.44-5.428-5.438,0-1.105.333-2.132.9-2.991-.472.664-.826,1.437-.984,2.344-.115-.104-.287-.163-.514-.163-.633-.002-1.898.124-1.898.124-.632,0-1.248.073-1.879.088-.151.003-.323.049-.443.136-.208.15-.275.178-.183.419.101.265.313.372.59.372,1.274,0,2.548,0,3.822,0,.168,0,.301-.043.409-.108-.013.288-.011.584.011.892h0s.077.371.077.371c.306,1.364.943,2.226,2.085,3.131-.112.012-.174.025-.236.025-3.866.001-7.675.274-11.541.271-1.1,0-1.439-.755-1.439-1.86-.002-6.016-.387-12.007-.385-18.023,0-1.106.673-1.504,1.773-1.505,3.411-.33,6.819-.332,10.203-.33.177,0,.649.019.866.036v.323c0,1.553-.297,3.114-.296,4.667,0,1.112.707,1.823,1.818,1.827.729.003,3.132-.401,3.868-.414.005.054.016.106.016.162.005,1.607.001,3.214.001,4.82,0,.021-.008.051-.016.088,2.417.549,4.229,2.715,4.229,5.3,0,2.998-2.435,5.438-5.427,5.438Z"/><path class="cls-1" d="M6.062,15.717c-.601-.02-1.204-.022-1.804-.001-.612.021-1.101.506-1.115,1.118-.006.281-.002.563-.002.845h0s0,0,0,0c0,.303-.007.607.001.911.017.611.501,1.113,1.111,1.122.574.009,1.149.007,1.723,0,.617-.008,1.128-.504,1.14-1.121.012-.608.011-1.217,0-1.824-.01-.576-.481-1.031-1.056-1.05ZM5.974,18.558l-1.73-.105.046-1.574,1.685-.108v1.787Z"/><path class="cls-1" d="M4.097,8.277c.662.03,1.328.031,1.99.003.562-.023,1.019-.467,1.03-1.03.012-.66.015-1.32-.005-1.979-.016-.535-.46-.968-.995-.98-.646-.014-1.293-.013-1.939,0-.553.011-1.006.455-1.031,1.007-.015.328-.005.657-.005.986h-.002c0,.346-.007.692.006,1.039.019.512.439.931.95.954ZM4.294,5.448l1.742-.116-.067,1.795-1.755.057.079-1.735Z"/><path class="cls-1" d="M4.188,10.01c-.567.023-1.025.486-1.04,1.053-.016.617-.017,1.234,0,1.851.015.583.493,1.06,1.077,1.075.604.016,1.209.017,1.813,0,.586-.016,1.064-.497,1.079-1.083.015-.6.016-1.201,0-1.801-.015-.588-.493-1.073-1.081-1.095-.302-.011-.605-.002-.908-.002h0c-.314-.001-.627-.01-.94.002ZM5.972,11.161l-.062,1.6-1.614.084-.046-1.781,1.721.097Z"/><path class="cls-1" d="M12.501,5.636c-1.274-.005-2.568-.187-3.842-.186-.41,0-.67.219-.677.561-.007.348.26.575.685.577.623.002,1.247,0,1.87,0h0c.65,0,1.301-.001,1.951.001.231,0,.421-.074.542-.278.237-.398-.032-.673-.53-.675Z"/><path class="cls-1" d="M12.428,11.432c-.633-.002-1.265,0-1.898,0h0c-.632,0-1.265-.009-1.897.006-.151.003-.323.049-.443.136-.208.15-.258.383-.166.624.101.265.295.234.573.234,1.274,0,2.552.012,3.839.137.416,0,.665-.213.67-.562.005-.365-.239-.574-.678-.576Z"/><path class="cls-1" d="M20.125,16.174c-.075.075-.141.16-.21.242-.751.903-1.502,1.805-2.282,2.742h0c-.527-.318-.964-.601-1.361-.984-.104-.1-.243-.19-.381-.222-.249-.059-.26-.073-.414.066-.132.225-.101.477.104.685.523.534,1.054,1.062,1.583,1.59.392.391.468.113.825-.314.776-.93,1.621-1.741,2.547-2.528.153-.185.316-.363.455-.559.185-.258.137-.575-.095-.767-.227-.189-.552-.17-.772.049Z"/><path class="cls-1" d="M19.372,12.652c-.386-.088-.786-.138-1.199-.138-1.694,0-3.209.783-4.205,2.005-.06.073-.114.151-.169.227-.052.071-.105.141-.154.215-.567.859-.9,1.886-.9,2.991,0,2.998,2.435,5.438,5.428,5.438s5.427-2.44,5.427-5.438c0-2.585-1.812-4.751-4.229-5.3ZM22.605,17.952c0,2.449-1.988,4.44-4.432,4.44s-4.432-1.992-4.432-4.44c0-.204.033-.399.06-.597.294-2.165,2.132-3.844,4.372-3.844,1.558,0,2.925.814,3.715,2.036.449.694.716,1.517.716,2.405Z"/></svg>