<?xml version="1.0" encoding="UTF-8"?><svg id="white" xmlns="http://www.w3.org/2000/svg" viewBox="0 0 24.014 24"><defs><style>.cls-1{fill:#fff;}</style></defs><path class="cls-1" d="M0,11.953v.283c.1.221.241.548.486.581.424.058,1.557-.159,1.995-.204.319-.032.557-.189.546-.541-.011-.358-.343-.212-.659-.238-.472-.04-1.405-.31-1.866-.254C.229,11.613.119,11.711,0,11.953Z"/><path class="cls-1" d="M11.911,0c-.221.1-.341.255-.374.5-.056.414.259,1.54.304,1.965.079.731.655.757.731.015.047-.46.266-1.569.211-2.023C12.75.184,12.436.119,12.195,0h-.284Z"/><path class="cls-1" d="M17.811,16.172c-.962,1.34-2.58,1.978-2.732,3.836-.102,1.249.548,3.597-1.31,3.823-.708.086-3.317.226-4.029.143-1.904-.222-.606-2.571-.713-3.872-.175-2.133-1.943-2.641-2.949-4.233-3.116-4.932.918-11.607,6.73-11.132,5.302.433,8.146,7.06,5.003,11.434ZM14.041,20.153c.066-.388.105-.77.221-1.149.559-1.833,2.231-1.572,3.106-3.084,2.536-4.383-1.211-10.482-6.183-9.819-4.568.609-7.109,6.222-4.256,9.847.454.577,1.372.773,1.841,1.296.698.781,1.106,1.523,1.137,2.577l4.135.332ZM10.021,22.748c0,.233.285.415.5.445.595.081,2.414.074,3.021.004.153-.017.283-.062.38-.187.059-.075.163-.374.163-.451v-1.694l-4.065.301v1.583Z"/><path class="cls-1" d="M23.692,11.587c-.327-.051-2.292.247-2.568.331-.514.154-.114.608.505.692.326.044,1.529.414,1.799.333.499-.15.848-1.264.264-1.355Z"/><path class="cls-1" d="M19.224,5.75l1.899-1.8c.154-.501-.624-.699-1.108-.503l-1.041,1.319c-.262.451-.172,1.326.251.984Z"/><path class="cls-1" d="M3.602,20.73c.083.048.561.013.67-.043.126-.065,1.215-1.169,1.354-1.339.156-.192.271-.322.204-.582-.09-.352-.196-.39-.5-.184-.22.149-1.719.796-1.887,1.023-.107.144-.138.213-.119.403.007.073.235.698.278.723Z"/><path class="cls-1" d="M18.918,18.387c-.373-.045-.538.149-.279.475l1.819,2.133c.511.148.775-.614.544-1.15-.525-.405-1.341-.982-1.857-1.35-.069-.049-.14-.097-.227-.108Z"/><path class="cls-1" d="M4.187,2.979c-.476-.11-.921.861-.664,1.271.085.135,1.348,1.396,1.489,1.488.504.329.706-.142.386-.627-.125-.19-.83-1.873-1.035-2.025-.059-.044-.096-.089-.176-.107Z"/><path class="cls-1" d="M8.399,12.458c.15-.161.124-.7.169-.942.27-1.47,1.669-3.018,3.141-3.289.404-.074.86.082.86-.167,0-.508-1.199-.476-1.67-.356-1.611.411-3.161,1.375-3.531,2.995-.074.323-.164.826-.107,1.147.071.394.877.892,1.138.612Z"/></svg>