<?xml version="1.0" encoding="UTF-8"?><svg id="Layer_1" xmlns="http://www.w3.org/2000/svg" viewBox="0 0 24.064 24.036"><defs><style>.cls-1{fill:#c8bfef;}.cls-2{fill:#fff;}</style></defs><path class="cls-1" d="M20.649,20.4c2.11-2.165,3.415-5.12,3.415-8.382C24.064,5.381,18.683,0,12.045,0S.027,5.381.027,12.018s5.381,12.018,12.018,12.018c2.079,0,4.035-.529,5.741-1.458l5.236.733-2.374-2.911ZM9.118,9.802l.197-.533c.27-.27.711-.27.981,0l1.039,1.39c.189-.067.419-.107.707-.107.81,0,1.615.67,1.466,1.466-.319,1.701-1.118,1.606-1.928,1.606s-1.004-.796-1.004-1.606c0-.065.005-.128.009-.19l-1.466-1.045c-.27-.27-.27-.711,0-.981ZM12.514,20.089h-.946c-.041-.009-.081-.022-.122-.025-1.021-.075-1.998-.324-2.912-.784-2.439-1.228-3.916-3.193-4.438-5.872-.059-.302-.084-.611-.125-.917v-.946c.04-.3.069-.603.123-.9.412-2.25,1.329-4.694,3.212-5.992.177-.122.363-.232.55-.338.418-.237.672.537.906.938.238.408.116.902-.307,1.145-.88.506-1.138,1.189-1.709,2.03-2.523,3.717-2.236,8.258,3.859,9.834,3.563.921,7.119-1.525,7.747-5.16.591-3.421-2.324-7.402-5.731-8.06-.122-.024-.246-.043-.394-.069v.201c0,.725.653,2.151.65,2.876-.002.457-.251.786-.656.886-.455.112-1.173-.29-1.236-.755-.012-.088-.012-.178-.012-.267,0-.993.252-1.908.231-2.901-.011-.527.164-.895.682-1.064h.662c.103.013.206.027.309.039,1.95.22,3.623,1.017,4.99,2.429,1.149,1.186,2.071,2.888,2.352,4.517.051.299.082.601.123.901v.946c-.009.041-.452,2.484-1.072,3.535-1.276,2.162-3.361,3.192-5.832,3.651-.298.055-.601.084-.902.125Z"/><path class="cls-2" d="M19.248,16.313c.62-1.05,1.063-3.494,1.072-3.535v-.946c-.04-.3-.072-.603-.123-.901-.281-1.629-1.203-3.331-2.352-4.517-1.367-1.412-3.04-2.208-4.99-2.429-.103-.012-.206-.026-.309-.039h-.662c-.517.169-.692.538-.682,1.064.021.993-.232,1.907-.231,2.901,0,.089,0,.179.012.267.063.465.781.867,1.236.755.406-.1.654-.429.656-.886.004-.725-.65-2.151-.65-2.876v-.201c.149.026.272.046.394.069,3.407.658,6.322,4.639,5.731,8.06-.628,3.635-4.185,6.082-7.747,5.16-6.094-1.576-6.382-6.116-3.859-9.834.571-.841.829-1.524,1.709-2.03.423-.243.544-.737.307-1.145-.234-.401-.488-1.175-.906-.938-.187.106-.373.216-.55.338-1.883,1.298-2.8,3.742-3.212,5.992-.055.298-.083.6-.123.9v.946c.041.306.066.615.125.917.523,2.679,1.999,4.644,4.438,5.872.914.46,1.891.709,2.912.784.041.003.081.016.122.025h.946c.301-.041.604-.069.902-.125,2.471-.459,4.556-1.49,5.832-3.651Z"/><path class="cls-2" d="M10.584,11.828c-.004.063-.009.125-.009.19,0,.81.194,1.606,1.004,1.606s1.609.095,1.928-1.606c.149-.796-.656-1.466-1.466-1.466-.288,0-.518.039-.707.107l-1.039-1.39c-.27-.27-.711-.27-.981,0l-.197.533c-.27.27-.27.711,0,.981l1.466,1.045Z"/></svg>