<?xml version="1.0" encoding="UTF-8"?><svg id="Layer_1" xmlns="http://www.w3.org/2000/svg" viewBox="0 0 24.014 24"><defs><style>.cls-1{fill:#fff;}.cls-2{fill:#efc7c2;}</style></defs><path class="cls-2" d="M10.418,20.521c0,.186.228.332.4.355.475.064,1.929.059,2.414.003.122-.014.226-.049.304-.149.047-.06.13-.299.13-.36v-1.354l-3.248.24v1.265Z"/><path class="cls-2" d="M11.348,7.218c-3.65.486-5.681,4.972-3.401,7.868.363.461,1.096.617,1.471,1.036.558.624.883,1.217.909,2.06l3.304.265c.053-.31.084-.615.177-.918.447-1.465,1.783-1.256,2.482-2.464,2.026-3.502-.967-8.375-4.941-7.846ZM11.767,8.918c-1.177.216-2.294,1.453-2.51,2.628-.036.193-.015.624-.135.753-.208.224-.852-.174-.909-.489-.046-.256.026-.658.085-.916.296-1.294,1.534-2.065,2.821-2.393.377-.096,1.335-.122,1.335.284,0,.199-.365.074-.687.133Z"/><path class="cls-2" d="M20.604,20.37c2.107-2.162,3.409-5.112,3.409-8.37C24.014,5.373,18.641,0,12.014,0S.014,5.373.014,12s5.373,12,12,12c2.076,0,4.029-.528,5.732-1.456l5.229.732-2.371-2.906ZM17.527,17.036c.069.008.126.046.182.086.412.294,1.065.755,1.484,1.079.185.429-.027,1.037-.435.919l-1.454-1.705c-.207-.26-.075-.416.223-.379ZM21.342,11.603c.467.073.188.963-.211,1.083-.216.065-1.177-.23-1.438-.266-.495-.067-.814-.43-.404-.553.221-.066,1.791-.305,2.052-.264ZM17.572,6.151l.832-1.054c.387-.156,1.009.002.886.402l-1.518,1.438c-.338.273-.41-.427-.2-.787ZM11.929,2.344h.227c.193.095.443.147.47.365.044.362-.131,1.249-.168,1.616-.06.593-.521.572-.584-.012-.036-.339-.288-1.239-.243-1.57.027-.196.122-.32.299-.4ZM5.757,4.724c.064.015.094.05.141.086.164.122.727,1.466.827,1.618.255.388.094.764-.309.501-.113-.074-1.122-1.081-1.19-1.189-.206-.327.15-1.103.53-1.015ZM4.393,12.423c-.35.035-1.255.209-1.594.163-.196-.027-.308-.288-.388-.464v-.227c.095-.193.183-.271.401-.298.368-.045,1.114.171,1.491.203.252.021.518-.096.527.19.009.281-.181.406-.436.432ZM6.907,17.804c-.111.137-.982,1.019-1.082,1.07-.087.045-.469.073-.535.035-.034-.02-.217-.519-.222-.578-.015-.152.01-.207.095-.322.135-.181,1.332-.698,1.508-.817.243-.165.327-.134.399.147.053.208-.039.312-.163.465ZM14.46,18.332c-.082.998.438,2.874-1.047,3.055-.566.069-2.651.18-3.219.114-1.522-.177-.484-2.055-.57-3.094-.14-1.704-1.553-2.11-2.357-3.383-2.49-3.941.734-9.275,5.377-8.895,4.237.346,6.509,5.642,3.998,9.137-.769,1.07-2.062,1.581-2.183,3.065Z"/><path class="cls-1" d="M4.303,11.8c-.377-.032-1.123-.248-1.491-.203-.218.027-.306.105-.401.298v.227c.08.177.192.438.388.464.339.046,1.244-.127,1.594-.163.255-.026.445-.151.436-.432-.009-.286-.274-.169-.527-.19Z"/><path class="cls-1" d="M12.457,4.325c.037-.367.212-1.254.168-1.616-.027-.218-.277-.27-.47-.365h-.227c-.177.08-.272.204-.299.4-.045.331.207,1.231.243,1.57.063.584.524.605.584.012Z"/><path class="cls-1" d="M12.645,6.13c-4.644-.38-7.868,4.954-5.377,8.895.804,1.272,2.217,1.678,2.357,3.383.085,1.039-.952,2.916.57,3.094.569.066,2.653-.045,3.219-.114,1.485-.181.965-2.057,1.047-3.055.121-1.485,1.414-1.995,2.183-3.065,2.511-3.495.239-8.791-3.998-9.137ZM13.666,20.37c0,.061-.084.3-.13.36-.078.1-.182.135-.304.149-.485.055-1.939.061-2.414-.003-.172-.023-.4-.169-.4-.355v-1.265l3.248-.24v1.354ZM16.289,15.064c-.699,1.208-2.035,1-2.482,2.464-.092.303-.124.608-.177.918l-3.304-.265c-.025-.842-.351-1.436-.909-2.06-.374-.419-1.108-.575-1.471-1.036-2.279-2.896-.249-7.382,3.401-7.868,3.974-.529,6.967,4.344,4.941,7.846Z"/><path class="cls-1" d="M19.694,12.42c.26.035,1.221.331,1.438.266.399-.12.677-1.01.211-1.083-.261-.041-1.831.198-2.052.264-.411.123-.091.486.404.553Z"/><path class="cls-1" d="M17.772,6.938l1.518-1.438c.123-.401-.498-.558-.886-.402l-.832,1.054c-.21.36-.138,1.06.2.787Z"/><path class="cls-1" d="M6.67,17.191c-.176.119-1.373.636-1.508.817-.085.115-.11.17-.095.322.006.058.188.558.222.578.066.039.448.01.535-.035.1-.052.971-.934,1.082-1.07.124-.153.216-.258.163-.465-.072-.281-.156-.311-.399-.147Z"/><path class="cls-1" d="M19.193,18.2c-.419-.324-1.072-.785-1.484-1.079-.055-.039-.112-.077-.182-.086-.298-.036-.43.119-.223.379l1.454,1.705c.408.118.619-.49.435-.919Z"/><path class="cls-1" d="M6.417,6.929c.403.263.564-.113.309-.501-.1-.152-.663-1.496-.827-1.618-.047-.035-.077-.071-.141-.086-.381-.088-.736.688-.53,1.015.068.108,1.077,1.115,1.19,1.189Z"/><path class="cls-1" d="M11.12,8.5c-1.287.328-2.526,1.099-2.821,2.393-.059.258-.131.66-.085.916.057.314.701.713.909.489.119-.129.099-.559.135-.753.216-1.175,1.333-2.412,2.51-2.628.323-.059.687.066.687-.133,0-.406-.958-.381-1.335-.284Z"/></svg>