<?xml version="1.0" encoding="UTF-8"?><svg id="Layer_1" xmlns="http://www.w3.org/2000/svg" viewBox="0 0 22.415 24"><defs><style>.cls-1{fill:#fff;}</style></defs><g id="Thought_Bubble"><path class="cls-1" d="M22.392,8.721c-.028-.335-.119-.685-.154-1.023l-.42-1.198c-.579-1.291-2.289-1.506-4.053-1.739C17.02,2.615,14.957.128,13.011.011c-.266-.016-.533.016-.797-.011l-.935.183c-.232.067-.56.215-.789.322-1.086.508-2.672,2.341-2.633,4.954-.781-.701-2.484-1.089-3.312-.932C-3.701,6.085.669,14.186,6.639,13.83c.348-.021,1.41-.501,1.756-.492,2.445,3.413,6.792,5.15,7.843.644.29-.01.763.488,1.071.638,2.814,1.372,5.379-2.342,5.084-5.899ZM8.612,12.818c-.282-.193-3.026.071-3.745-.154-.991-.311-2.592-1.475-2.89-2.643-.34-1.329-.138-2.38.733-3.287.857-.891,3.613-1.059,4.95-.582,0,0,.246.137.558-.017s.753-2.12,1.219-2.727c1.119-1.459,2.15-1.558,3.173-1.725.965-.156,2.333.551,3.156,1.2,1.003.791.776,2.714,1.156,2.698l.38-.015c1.218-.052,2.84.697,3.464,1.488,2.099,2.66.171,7.906-3.114,6.796-.35-.118-1.545-1.065-1.789-1.04s-1.158,2.729-1.924,2.955c-2.518.743-5.044-2.755-5.326-2.947Z"/><path class="cls-1" d="M7.17,21.205c-1.145,0-2.037-.853-2.21-2.157-.165-1.238.17-2.799,1.299-3.181s2.136.434,2.634,1.073c.595.762.252,2.177-.14,3.11-.328.78-.501,1.048-1.319,1.14-.089.009-.177.014-.263.014ZM6.006,18.909c.029.227.19,1.62,1.268,1.499.555-.062.865-.699.991-.999.247-.587.332-1.474-.033-1.941-.261-.333-.71-.559-1.257-.271s-1.052,1.098-.97,1.713Z"/><path class="cls-1" d="M3.447,24c-.554,0-1.507-.015-1.509-1.069-.004-1.935,2.397-3.023,2.796-2.514.485.617,1.09,2.242.771,2.995-.266.627-1.503.589-2.057.589ZM2.767,22.345c.077,1.695,1.324,1.29,1.9.43.926-1.382-1.988-2.36-1.9-.43Z"/><path class="cls-1" d="M11.107,12.322l.995-6.537c-.497.037-1.042.135-1.456.126l.063-.647c1.998-.772,1.109-1.307,1.843-1.736l2.216.35v8.818l-3.661-.374Z"/></g></svg>