<?xml version="1.0" encoding="UTF-8"?><svg id="white" xmlns="http://www.w3.org/2000/svg" viewBox="0 0 23.842 23.842"><defs><style>.cls-1{fill:#fff;}</style></defs><path class="cls-1" d="M18.523,9.072c.327-.721-1.535-1.998-2.226-1.825-.69.173-3.821,5.614-6.04,7.836-1.093-1.095-3.28-3.953-3.679-3.93-.399.023-1.238.549-1.238,1.235s3.303,3.302,4.934,4.934c2.486-3.732,7.922-7.529,8.249-8.249Z"/><path class="cls-1" d="M21.471,22.059c-.076-1.029-1.807-.845-1.938-1.653.497-.587,1.795-2.11,2.244-2.718,1.315-1.782,1.822-2.547,2.006-4.762.084-1.013.04-2.014-.139-3.003-.403-2.237-1.367-4.212-2.908-5.892C19.042,2.183,14.053-.088,13.333.214s.002,0,.002,0c0,0-.447,1.381.311,1.639,4.29,1.856,7.475,4.935,7.883,9.481.215,2.386-1.513,7.433-3.29,8.34-.893-.894-.734-2.352-1.592-2.333-.859.019-1.255,5.681-1.054,5.85.353.288,5.772-.55,5.879-1.13Z"/><path class="cls-1" d="M10.178,21.86c-4.29-1.856-7.475-4.935-7.883-9.481-.215-2.386,1.513-7.433,3.29-8.34.893.894.734,2.352,1.592,2.333.859-.019,1.255-5.681,1.054-5.85-.353-.288-5.772.55-5.879,1.13.076,1.029,1.807.845,1.938,1.653-.497.587-1.795,2.11-2.244,2.718C.733,7.806.226,8.571.041,10.786c-.084,1.013-.04,2.014.139,3.003.403,2.237,1.367,4.212,2.908,5.892,1.695,1.848,6.683,4.12,7.404,3.818s-.002,0-.002,0c0,0,.447-1.381-.311-1.639Z"/></svg>