<?xml version="1.0" encoding="UTF-8"?><svg id="Layer_1" xmlns="http://www.w3.org/2000/svg" viewBox="0 0 23.336 23.766"><defs><style>.cls-1{fill:#fff;}.cls-2{fill:#428bc1;}.cls-3{fill:#ed4c5c;}.cls-4{fill:#b0b8b8;}</style></defs><path class="cls-1" d="M11.807,5.065c-4.198,0-6.627,2.26-7.682,8.32-1.055,6.059,3.403,7.786,7.602,7.786s9.244-2.301,7.602-7.786c-1.643-5.485-3.323-8.32-7.521-8.32ZM14.902,14.544c-.323.142-1.262-.078-1.88-.249-.15.303-.493.442-1.203.573-.276.051-.516-.022-.721-.167-1.034,1.164-3.021,3.357-3.378,3.418-.486.083-.881-.271-.683-.698.147-.318,2.42-2.319,3.574-3.323-.112-.222-.195-.467-.24-.715-.154-.848.111-1.11.535-1.192-.09-1.704-.175-4.21.095-4.368.411-.241,1.616.545,1.448,1.012-.308.858-.263,2.343-.169,3.458.187.09.349.221.483.381.675.063,2.241.182,2.582-.031.438-.273.051,1.683-.444,1.9Z"/><path class="cls-2" d="M16.955,5.262c-1.435-1.004-3.199-1.666-5.229-1.888-2.376-.259-4.406.401-5.993,1.58l-.62-.422-1.066.816.581.599c-1.932,2.016-2.924,4.873-2.676,7.437.166,1.707.77,3.456,1.712,5.009l-.099-.051-.889,4.237.724,1.186c.453,0,.619-.542.914-1.216.21-.481.599-1.398.905-2.12,1.687,1.769,3.924,2.965,6.507,2.965,3.081,0,5.333-.485,6.877-2.093.205.483.405.951.535,1.248.295.674.461,1.216.913,1.216l1.414-.371-1.399-4.478c.375-.948.664-2.072.863-3.428.535-3.658-.461-6.845-2.587-9.044l.873-.901-1.545-1.477-.716,1.196ZM19.328,13.385c1.643,5.485-3.403,7.786-7.602,7.786s-8.657-1.726-7.602-7.786c1.055-6.059,3.484-8.32,7.682-8.32s5.879,2.835,7.521,8.32Z"/><path class="cls-4" d="M7.984,2.337C7.106,1.427,8.75.025,4.904.025S.576,2.229.057,5.023c-.253,1.361.365,1.521,1.247,2.426l2.743-2.1,1.066-.816,2.87-2.197Z"/><path class="cls-4" d="M18.459.052c-1.9-.272-2.574.559-3.457,1.464l2.669,2.551,1.545,1.477,2.167,2.071c1.008-.161,1.953,1.407,1.953-2.595S20.359.324,18.459.052Z"/><path class="cls-3" d="M10.612,14.099c-1.155,1.004-3.427,3.005-3.574,3.323-.198.427.198.781.683.698.357-.061,2.344-2.254,3.378-3.418-.2-.141-.363-.354-.487-.602Z"/><path class="cls-2" d="M15.346,12.644c-.341.213-1.908.094-2.582.031-.133-.16-.295-.291-.483-.381-.094-1.115-.139-2.6.169-3.458.168-.467-1.037-1.254-1.448-1.012-.27.159-.185,2.665-.095,4.368-.424.082-.69.344-.535,1.192.045.247.129.493.24.715.125.248.287.461.487.602.205.145.445.217.721.167.71-.131,1.053-.27,1.203-.573.618.171,1.557.391,1.88.249.495-.217.881-2.173.444-1.9Z"/></svg>