<?xml version="1.0" encoding="UTF-8"?><svg id="Layer_1" xmlns="http://www.w3.org/2000/svg" viewBox="0 0 24 22.713"><defs><style>.cls-1{fill:none;}.cls-2{fill:#f4b7ae;}.cls-3{fill:#e2e2e2;}.cls-4{fill:#a5a5a5;}.cls-5{fill:#f9c075;}.cls-6{fill:#fce0c3;}.cls-7{fill:#f7e98e;}.cls-8{fill:#c8bfef;}.cls-9{fill:#fff;}.cls-10{fill:#98e1ea;}.cls-11{fill:#a8e2bb;}.cls-12{fill:#cae9ef;}</style></defs><path class="cls-1" d="M15.158,15.643c.002-.006.004-.012.006-.018-.002.006-.004.012-.006.018Z"/><path class="cls-1" d="M17.402,17.909c-.086-.014-.164-.038-.244-.06.087.036.17.061.244.06Z"/><path class="cls-1" d="M16.932,14.013c.39-.137.728-.179,1.033-.17-.309-.034-.654.012-1.033.17Z"/><path class="cls-1" d="M6.122,14.232c.201-.023.414-.035.653-.023-.234-.023-.449-.008-.653.023Z"/><path class="cls-1" d="M15.272,15.41c.031-.058.058-.117.094-.174-.037.057-.063.116-.094.174Z"/><path class="cls-1" d="M19.015,17.825c.409-.39.611-.947.636-1.527-.069.551-.288,1.093-.636,1.527Z"/><path class="cls-6" d="M8.625,11.896c-.153.106-.046.425.005.587.136.435,1.288.466,1.675.706.113.07.295.201.42.139,2.291-.907,4.409-2.478,6.461-3.98l.046-.1-1.485-2.188c-2.223,1.331-5.066,3.296-7.122,4.835Z"/><path class="cls-4" d="M23.879,3.259c-.312-.384-2.814-2.085-3.868.677-.636,1.668.654,3.77,2.049,2.61.618-.514,1.111-2.022,1.596-2.579.174-.2.532-.328.223-.709Z"/><path class="cls-3" d="M19.967,6.581c.018-.099-.175-.167-.24-.239-.319-.346-.363-.949-.422-1.42l-1.522.881.785,1.804,1.4-1.027Z"/><path class="cls-6" d="M.818,18.545c-.31.263-.672.477-.783.802-.022.066-.071.1.009.159.126.08.455.124.605.069.591-.219,1.203-.798,1.767-1.073l-.569-1.166c-.043-.031-.979,1.165-1.03,1.209Z"/><path class="cls-3" d="M16.307,6.718l1.052,2.359.834-.976-.588-2.138c-.046-.046-1.296.64-1.298.755Z"/><path class="cls-9" d="M11.853,1.487c-3.265-.287-2.435,5.66.474,4.683,3.347-1.124,2.703-4.404-.474-4.683ZM12.323,5.383c-2.055.226-1.954-1.901-.422-3.113,1.671-1.322,2.424,2.893.422,3.113Z"/><path class="cls-9" d="M7.249,8.91c3.347.343,2.636-5.39-.474-4.683-3.602.818-2.579,4.37.474,4.683ZM6.822,5.009c2.111-.286,3.283,3.406.422,3.113-2.056-.21-2.377-2.848-.422-3.113Z"/><path class="cls-9" d="M4.905,13.999c3.315-.004,2.637-5.384-.474-4.683-3.932.886-2.588,4.687.474,4.683ZM3.92,10.632c2.108-1.334,2.982,2.359.98,2.579-2.055.226-2.647-1.524-.98-2.579Z"/><path class="cls-9" d="M17.965,13.844c-.305-.01-.643.033-1.033.17-.751.312-1.263.747-1.567,1.223-.035.057-.063.116-.094.174-.037.071-.079.142-.108.215-.003.006-.004.012-.006.018-.524,1.37.533,2.872,2.625,2.71.531-.041.933-.241,1.232-.527.349-.434.568-.976.636-1.527.049-1.134-.575-2.332-1.687-2.454ZM17.402,17.909c-.074.001-.157-.024-.244-.06-1.818-.501-2.069-3.027-.178-3.054,1.311-.018,3.259,3.569.422,3.113Z"/><path class="cls-9" d="M6.774,14.209c-.239-.012-.452,0-.653.023-2.387.365-2.628,4.174,1.127,4.66,3.048.394,2.352-4.4-.474-4.683ZM6.552,17.921c-1.704-1.17-1.685-2.664.27-2.929,2.111-.286,1.766,4.327-.27,2.929Z"/><path class="cls-9" d="M12.327,21.045c4.133-.543,2.314-5.369-.862-5.017-2.972.329-2.174,5.416.862,5.017ZM11.901,17.144c2.313-1.059,2.424,2.893.422,3.113-2.055.226-3.087-1.893-.422-3.113Z"/><path class="cls-10" d="M11.901,2.269c-1.532,1.212-1.633,3.339.422,3.113,2.002-.22,1.249-4.435-.422-3.113Z"/><path class="cls-7" d="M7.244,8.123c2.861.293,1.689-3.4-.422-3.113-1.955.265-1.634,2.903.422,3.113Z"/><path class="cls-2" d="M4.9,13.212c2.002-.22,1.129-3.914-.98-2.579-1.667,1.055-1.075,2.805.98,2.579Z"/><path class="cls-12" d="M16.98,14.795c-1.89.026-1.64,2.553.178,3.054.08.022.158.046.244.06,2.837.456.889-3.132-.422-3.113Z"/><path class="cls-11" d="M6.822,14.991c-1.955.265-1.974,1.76-.27,2.929,2.036,1.397,2.381-3.216.27-2.929Z"/><path class="cls-8" d="M12.323,20.257c2.002-.22,1.891-4.173-.422-3.113-2.665,1.221-1.633,3.339.422,3.113Z"/><path class="cls-5" d="M21.437,14.121c-1.034-.657-1.609-.844-2.622-1.287-1.056-.462-2.055-1.29-2.605-2.308l-2.145,1.495c-.694,3.318-6.48,2.466-6.284-.906.101-1.744,2.573-2.015,4.219-1.862l3.455-2.933c.255-.754.543-1.464,1.028-2.102.574-.754,1.288-1.142,1.032-2.266-.232-1.022-1.191-1.364-2.098-1.568C6.552-1.607-2.192,4.27.981,14.973c2.13,7.184,10.927,9.913,17.276,5.848,1.951-1.249,7.421-4.004,3.18-6.7ZM11.465,16.028c3.176-.352,4.995,4.474.862,5.017-3.036.399-3.834-4.688-.862-5.017ZM6.122,14.232c.204-.031.418-.046.653-.023,2.826.283,3.522,5.077.474,4.683-3.755-.486-3.513-4.295-1.127-4.66ZM6.774,4.227c3.11-.707,3.821,5.026.474,4.683-3.053-.313-4.076-3.864-.474-4.683ZM4.43,9.316c3.111-.701,3.789,4.679.474,4.683-3.062.004-4.406-3.797-.474-4.683ZM12.327,6.17c-2.909.977-3.739-4.969-.474-4.683,3.177.279,3.821,3.559.474,4.683ZM19.015,17.825c-.3.286-.702.486-1.232.527-2.092.162-3.149-1.34-2.625-2.71.002-.006.004-.012.006-.018.029-.072.07-.143.108-.215.031-.058.057-.117.094-.174.304-.475.816-.911,1.567-1.223.379-.157.724-.204,1.033-.17,1.112.123,1.736,1.321,1.687,2.454-.025.58-.227,1.137-.636,1.527Z"/></svg>