<?xml version="1.0" encoding="UTF-8"?><svg id="Layer_1" xmlns="http://www.w3.org/2000/svg" viewBox="0 0 21.518 24"><defs><style>.cls-1{fill:#a5a5a5;}.cls-2{fill:#fff;}.cls-3{fill:#cae9ef;}</style></defs><path class="cls-3" d="M17.2,8.577c-1.935-.148-3.023-1.575-5.17-.903-1.407.44-2.175.983-3.785.859-1.463-.113-2.695-1.22-4.211-1.074-.372.036-.741.196-1.102.28l1.799,14.676,11.834.92,2.814-15.039c-.711.178-1.437.337-2.179.28Z"/><path class="cls-2" d="M2.74,6.702c.698-.184,1.556-.914,2.289-.849,1.282.113,2.172,1.577,3.45,1.649,1.908.107,3.313-1.7,5.265-1.551,1.279.097,2.278,1.463,3.55,1.548.783.053,1.475.25,2.205.007l1.4-6.63L2.036,1.697l.703,5.005Z"/><path class="cls-1" d="M21.16,0H.404C.15.131.006.215,0,.531l4.11,23.011c.084.331.281.46.619.459h12.94c.327-.029.49-.132.573-.459L21.518.53c-.027-.266-.146-.397-.359-.53ZM16.565,23.335l-11.834-.92-1.799-14.676c.361-.084.73-.245,1.102-.28,1.516-.146,2.748.961,4.211,1.074,1.61.124,2.378-.419,3.785-.859,2.147-.671,3.234.755,5.17.903.742.057,1.467-.102,2.179-.28l-2.814,15.039ZM19.499,7.506c-.73.242-1.422.045-2.205-.007-1.272-.086-2.272-1.451-3.55-1.548-1.951-.149-3.357,1.659-5.265,1.551-1.278-.072-2.168-1.535-3.45-1.649-.734-.065-1.591.666-2.289.849l-.703-5.005,18.862-.821-1.4,6.63Z"/></svg>