<?xml version="1.0" encoding="UTF-8"?><svg id="Layer_1" xmlns="http://www.w3.org/2000/svg" viewBox="0 0 23.863 24"><defs><style>.cls-1{fill:#fef7d6;}.cls-2{fill:#a5a5a5;}.cls-3{fill:#fff;}.cls-4{fill:#cae9ef;}</style></defs><path class="cls-3" d="M9.356,16.01l5.195-.004,4.165-3.28.468-8.883H5.148l.461,9.243,3.746,2.924ZM8.585,6.046c5.237-1.435,10.428,1.052,7.94,5.752-.69,1.303-1.544,2.626-3.297-.173-1.545.764-2.714,1.274-3.479.147-1.091-1.608-1.102-3.871.963-4.309.584-.124,2.34.772,2.895.935.19-.772.967-1.239,1.042-.464.124,1.286-.57,2.17-.47,3.478.21.586.854.141,1.075-.23,1.421-2.392-.98-5.151-3.536-4.996-4.305.262-4.731,6.564-.529,7.424.491.101,1.586.41,1.719,1.056.129.628-.406.887-.948.856-4.503-.255-8.017-8.205-3.375-9.477Z"/><polygon class="cls-1" points="14.391 17.435 10.008 17.455 2.762 22.594 20.119 22.594 14.551 17.462 14.391 17.435"/><polygon class="cls-1" points="1.405 11.625 .864 22.594 7.955 16.711 1.405 11.625"/><polygon class="cls-1" points="22.458 21.844 22.751 10.728 15.55 17.408 22.458 21.844"/><polygon class="cls-4" points="20.119 8.578 20.119 11.625 22.036 10.148 20.119 8.578"/><polygon class="cls-4" points="3.745 8.578 1.101 10.102 3.745 11.625 3.745 8.578"/><path class="cls-4" d="M11.683.827c-.059-.01-1.823,1.501-1.913,1.61h3.05l-1.137-1.61Z"/><path class="cls-2" d="M11.961,15.522c.542.031,1.077-.228.948-.856-.132-.646-1.227-.956-1.719-1.056-4.202-.86-3.776-7.163.529-7.424,2.556-.155,4.956,2.604,3.536,4.996-.221.371-.865.816-1.075.23-.1-1.308.594-2.192.47-3.478-.075-.775-.853-.308-1.042.464-.555-.162-2.31-1.059-2.895-.935-2.065.438-2.054,2.701-.963,4.309.765,1.127,1.933.617,3.479-.147,1.753,2.798,2.607,1.475,3.297.173,2.488-4.7-2.703-7.187-7.94-5.752-4.642,1.272-1.127,9.222,3.375,9.477ZM12.162,11.317c-.366.247-.716.165-.991-.061-.574-.297-1.122-.914-1.212-1.329-.163-.753.825-1.456,1.728-1.527,1.262-.098,1.411,2.286.475,2.917Z"/><path class="cls-3" d="M11.688,8.4c-.903.07-1.891.774-1.728,1.527.09.414.638,1.032,1.212,1.329.275.226.624.308.991.061.936-.631.787-3.015-.475-2.917Z"/><path class="cls-2" d="M23.65,9.657l-3.508-2.907-.024-3.127c-.059-.35-.283-.574-.632-.633l-4.482-.562c-.981-.785-1.867-1.7-2.887-2.428h-.374c-.083.091-.204.112-.304.188-.882.668-1.685,1.574-2.582,2.241l-4.178-.704c-.349.059-.573.283-.632.633l-.328,4.393L.213,9.657C.091,9.791-.001,9.959,0,10.147v13.222c.054.337.238.483.516.632h22.83c.278-.149.463-.295.516-.632v-13.222c.002-.187-.09-.356-.212-.49ZM20.119,8.578l1.917,1.57-1.917,1.477v-3.047ZM19.183,3.844l-.468,8.883-4.165,3.28-5.195.004-3.746-2.924-.461-9.243h14.035ZM11.683.827l1.137,1.61h-3.05c.09-.109,1.854-1.621,1.913-1.61ZM3.745,8.578v3.047l-2.643-1.523,2.643-1.523ZM1.405,11.625l6.55,5.086L.864,22.594l.541-10.969ZM2.762,22.594l7.246-5.139,4.383-.021.16.027,5.568,5.132H2.762ZM22.458,21.844l-6.908-4.436,7.201-6.68-.293,11.115Z"/></svg>