<?xml version="1.0" encoding="UTF-8"?>
<svg id="Layer_1" xmlns="http://www.w3.org/2000/svg" version="1.1" viewBox="0 0 24 23.79">
  <!-- Generator: Adobe Illustrator 29.5.1, SVG Export Plug-In . SVG Version: 2.1.0 Build 141)  -->
  <defs>
    <style>
      .st0 {
        fill: #fff;
      }
    </style>
  </defs>
  <g id="Layer_2">
    <path class="st0" d="M12,0C5.37,0,0,5.37,0,12s3.29,9.06,12,11.5c6.38,1.79,12-4.87,12-11.5S21.21,0,12,0ZM12.95,18.2v1.6l-2.86.59.78-2.19c-2.25-.33-4.83-1.72-4.99-3.6h3.72c.23,1.14,1.1,1.84,2.37,1.84,1.52,0,2.15-.72,2.15-1.68,0-1.06-.53-1.6-2.48-2.17-3.13-.9-4.43-.69-4.43-2.59s1.69-4.49,3.56-4.8v-1.29l2.74-.6-.69,1.89c2.44.33,4.26,1.44,4.39,2.87l-3.38.44c-.18-.68-.55-1.57-2.11-1.57-1.39,0-1.84.8-1.84,1.51,0,.98.68.96,2.64,1.99,2.7,1.42,4.98,2.05,5.07,3.88.11,2.17-2.47,3.6-4.66,3.89h0Z"/>
  </g>
</svg>