<?xml version="1.0" encoding="UTF-8"?><svg id="Layer_2" xmlns="http://www.w3.org/2000/svg" viewBox="0 0 23.849 24"><defs><style>.cls-1{fill:#a5a5a5;}.cls-2{fill:#fff;}</style></defs><path class="cls-1" d="M23.849,12.442c0,6.496-5.506,13.02-11.762,11.27C3.546,21.322.325,18.938.325,12.442S5.591.68,12.087.68c9.024,0,11.762,5.266,11.762,11.762Z"/><path class="cls-2" d="M10.214,20.676l.77-2.152c-2.205-.325-4.737-1.688-4.89-3.528h3.644c.23,1.112,1.074,1.802,2.32,1.802,1.495,0,2.109-.709,2.109-1.648,0-1.036-.517-1.573-2.435-2.129-3.068-.882-4.337-.678-4.337-2.538,0-1.898,1.652-4.403,3.493-4.71v-1.265l2.687-.585-.674,1.85c2.396.326,4.172,1.413,4.306,2.812l-3.309.428c-.172-.671-.537-1.534-2.071-1.534-1.361,0-1.802.786-1.802,1.476,0,.959.665.945,2.589,1.956,2.642,1.388,4.878,2.005,4.974,3.8.113,2.126-2.424,3.525-4.571,3.812v1.573l-2.802.579h0Z"/><path class="cls-2" d="M11.762,0C5.266,0,0,5.266,0,11.762s3.22,8.88,11.762,11.27c6.256,1.75,11.762-4.774,11.762-11.27S20.786,0,11.762,0ZM12.691,17.844v1.573l-2.802.579.77-2.152c-2.205-.325-4.737-1.688-4.89-3.528h3.644c.23,1.112,1.074,1.802,2.32,1.802,1.495,0,2.109-.709,2.109-1.648,0-1.036-.517-1.573-2.435-2.129-3.068-.882-4.337-.678-4.337-2.538,0-1.898,1.652-4.403,3.493-4.71v-1.265l2.687-.585-.674,1.85c2.396.326,4.172,1.413,4.306,2.812l-3.309.428c-.172-.671-.537-1.534-2.071-1.534-1.361,0-1.802.786-1.802,1.476,0,.959.665.945,2.589,1.956,2.642,1.388,4.878,2.005,4.974,3.8.113,2.126-2.424,3.525-4.571,3.812h-.001Z"/></svg>