<?xml version="1.0" encoding="UTF-8"?><svg id="Layer_1" xmlns="http://www.w3.org/2000/svg" viewBox="0 0 24.089 23.688"><defs><style>.cls-1{fill:none;}.cls-2{fill:#fff;}.cls-3{fill:#98e1ea;}.cls-4{fill:#4c4c4c;}</style></defs><path class="cls-1" d="M15.591,13.871c.079.059.123.118.157.177-.013-.048-.062-.106-.157-.177Z"/><path class="cls-1" d="M11.808,5.746c-.325.046-.626.277-.686.707.046-.329.332-.567.686-.707Z"/><path class="cls-2" d="M20.67,17.05c4.515-6.632-1.496-15.477-9.458-14.952C3.467,2.609-1.716,10.525,3.711,17.91c4.354,5.924,12.927,5.061,16.959-.86ZM4.859,16.662C1.423,11.306,1.395,6.041,10.389,3.259c5.415-1.675,12.349,4.206,8.783,13.092-2.325,5.793-10.942,5.566-14.313.312Z"/><path class="cls-3" d="M10.389,3.259C1.395,6.041,1.423,11.306,4.859,16.662c3.371,5.254,11.988,5.481,14.313-.312C22.738,7.464,15.804,1.583,10.389,3.259ZM14.113,14.732l-2.716-2.011c-.178-.173-.254-.324-.277-.572-.169-1.802.131-3.866.002-5.696.06-.43.361-.661.686-.707.658-.26,1.565-.162,1.685.444l-1.293,5.18,3.39,2.502c.095.071.144.129.157.177.288.494-.859.958-1.635.683Z"/><path class="cls-2" d="M15.591,13.871l-3.39-2.502,1.293-5.18c-.121-.606-1.027-.704-1.685-.444-.354.14-.64.378-.686.707.129,1.83-.171,3.894-.002,5.696.023.248.099.399.277.572l2.716,2.011c.776.275,1.923-.19,1.635-.683-.034-.059-.079-.118-.157-.177Z"/><path class="cls-4" d="M11.212.15C2.437,1.459-2.844,9.545,1.617,17.265c4.524,7.829,15.768,8.842,20.514,1.145C27.22,10.155,21.975-1.455,11.212.15ZM3.711,17.91c-5.427-7.385-.244-15.301,7.501-15.812,7.962-.525,13.973,8.32,9.458,14.952-4.031,5.921-12.605,6.784-16.959.86Z"/></svg>