<?xml version="1.0" encoding="UTF-8"?><svg id="Layer_1" xmlns="http://www.w3.org/2000/svg" viewBox="0 0 23.519 23.991"><defs><style>.cls-1{fill:none;}.cls-2{fill:#f4b7ae;}.cls-3{fill:#fff;}.cls-4{fill:#a8e2bb;}</style></defs><path class="cls-1" d="M12.196,19.853c.001.054.006.108.015.163-.005-.054-.014-.11-.015-.163Z"/><path class="cls-1" d="M9.931,16.814c.085.011.155.033.233.049-.094-.037-.176-.06-.233-.049Z"/><path class="cls-1" d="M10.81,19.692c-.235-.06-.515-.143-.804-.238.271.092.546.172.804.238Z"/><path class="cls-1" d="M9.345,8.37c-.015.029-.031.059-.043.089.017-.03.024-.058.043-.089Z"/><path class="cls-1" d="M11.74,11.387h0s-.043-.023-.115-.053c.038.018.077.037.115.053Z"/><path class="cls-1" d="M9.647,7.99c-.138.118-.231.244-.298.374.078-.122.176-.247.298-.374Z"/><path class="cls-1" d="M11.552,21.57c.203.033.346.024.463,0-.127.012-.276.014-.463,0Z"/><path class="cls-1" d="M12.846,17.59c-.284.097-.577.095-.863.042.247.066.517.076.863-.042Z"/><path class="cls-2" d="M10.642.024C-1.085.776-.943,11.22.974,16.988c3.082,9.268,17.388,8.483,21.067,2.605C26.244,12.879,21.18-.651,10.642.024ZM5.697,4.284c1.395-1.028,3.266-1.801,5.006-1.943,2.174-.178,4.216.221,6.109,1.291.179.101,1.18.694,1.153.847l-6.225,6.908s.002,0,.002,0c-.086.102-.532.592-.598.66h0l-6.888,7.644C.72,15.205,1.126,7.653,5.697,4.284ZM21.149,16.506c-2.648,6.222-10.637,8.21-15.857,3.884l7.776-7.8.193-.194h0l6.331-6.351c.101-.018.452.497.534.612,2.006,2.794,2.366,6.693,1.023,9.848Z"/><path class="cls-3" d="M19.592,6.045l-6.331,6.351c1.827.953,3.821,2.992,2.767,4.902-.691,1.253-2.468,2.251-3.833,2.555.001.053.01.109.015.163.111.716.769,1.465-.195,1.553-.118.025-.26.034-.463,0-1.785-.123-.662-1.208-.742-1.878-.258-.066-.533-.147-.804-.238-.91-.299-1.911-.726-1.911-1.008,0-.371.45-1.557,1.836-1.631.057-.011.139.012.233.049.833.175,1.271.622,1.819.769.287.052.579.055.863-.042,1.535-.523,2.458-2.102,1.039-3.351l-1.299-1.166.482-.484-7.776,7.8c5.219,4.326,13.209,2.338,15.857-3.884,1.343-3.156.983-7.055-1.023-9.848-.082-.115-.433-.63-.534-.612Z"/><path class="cls-3" d="M11.35,5.429c-.017-.853-1.419-2.26.6-1.994.948.125.662,1.208.743,1.878.92.119,2.477.689,2.471,1.063-.006.374-.626,1.704-1.318,1.301-.693-.403-3.064-.662-4.199.313-.122.128-.221.252-.298.374,0,.002-.002.004-.003.005-.019.03-.026.059-.043.089-.404,1.03,1.11,2.318,2.323,2.875.072.03.118.049.115.053l6.225-6.908c.027-.152-.973-.745-1.153-.847-1.893-1.07-3.935-1.469-6.109-1.291-1.74.142-3.611.915-5.006,1.943C1.126,7.653.72,15.205,4.256,19.693l6.888-7.644c-5.505-2.161-3.453-5.986.206-6.619Z"/><polygon class="cls-3" points="11.741 11.388 11.74 11.387 11.74 11.387 11.741 11.388"/><path class="cls-4" d="M13.885,14.239c1.419,1.249.495,2.828-1.039,3.351-.346.118-.616.109-.863.042-.547-.147-.986-.594-1.819-.769-.078-.016-.148-.038-.233-.049-1.386.074-1.836,1.26-1.836,1.631,0,.282,1.002.709,1.911,1.008.289.095.569.178.804.238.081.671-1.042,1.755.742,1.878.188.013.337.011.463,0,.964-.088.306-.838.195-1.553-.008-.055-.014-.109-.015-.163,1.365-.304,3.141-1.303,3.833-2.555,1.054-1.911-.941-3.949-2.767-4.902h0l-.193.194-.482.484,1.299,1.166Z"/><path class="cls-4" d="M11.625,11.334c-1.213-.557-2.726-1.845-2.323-2.875.012-.03.028-.059.043-.089,0-.002.002-.004.003-.005.067-.13.161-.256.298-.374,1.135-.975,3.506-.716,4.199-.313.693.403,1.312-.926,1.318-1.301.006-.374-1.551-.945-2.471-1.063-.081-.67.206-1.753-.743-1.878-2.019-.266-.617,1.142-.6,1.994-3.658.634-5.71,4.458-.206,6.619h0c.065-.068.512-.559.598-.66,0,0-.001,0-.002,0-.037-.016-.076-.036-.115-.053Z"/></svg>