<?xml version="1.0" encoding="UTF-8"?><svg id="Layer_1" xmlns="http://www.w3.org/2000/svg" viewBox="0 0 24 23.842"><defs><style>.cls-1{fill:#4c4c4c;}</style></defs><path class="cls-1" d="M10.616,23.842c-.398-.079-.797-.151-1.194-.236-2.483-.541-4.582-1.757-6.297-3.627-1.559-1.699-2.534-3.698-2.942-5.962C.001,13.015-.044,12.002.042,10.979c.187-2.241.935-4.266,2.265-6.069.454-.615.984-1.174,1.487-1.768-.815-.811-.571-.568-1.413-1.405.013-.021-.013.021,0,0,2.535-.286,3.917-.351,6.287-.516-.789,2.106-.87,2.83-1.405,5.291-.915-.917-.766-.767-1.669-1.671-1.798.918-3.489,5.334-3.272,7.749.413,4.6,3.487,8.975,7.976,9.593.112.489.255,1.042.427,1.659h-.112.002Z"/><path class="cls-1" d="M6.549,11.069c1.118,1.119,2.617,2.869,3.723,3.977,2.246-2.248,4.483-5.498,6.712-7.728.586.584,1.127,1.122,1.652,1.646-2.77,2.77-5.569,5.569-8.347,8.347-1.65-1.651-3.323-3.324-4.992-4.992.503-.5.674-.673,1.252-1.248h.001Z"/><path class="cls-1" d="M13.384,0c.398.079.797.151,1.194.236,2.483.541,4.582,1.757,6.297,3.627,1.559,1.699,2.534,3.698,2.942,5.962.181,1.001.226,2.014.141,3.039-.187,2.241-.935,4.266-2.265,6.069-.454.615-.984,1.174-1.487,1.768.815.811.571.568,1.413,1.405-.013.021.013-.021,0,0-2.48.67-3.444.718-5.948,1.144.367-2.283.531-3.457,1.066-5.919.915.917.766.767,1.669,1.671,1.798-.918,3.489-5.334,3.272-7.749-.413-4.6-3.487-8.975-7.976-9.593-.112-.489-.255-1.042-.427-1.659h.112-.002Z"/></svg>