<?xml version="1.0" encoding="UTF-8"?><svg id="Layer_1" xmlns="http://www.w3.org/2000/svg" viewBox="0 0 23.936 23.905"><defs><style>.cls-1{fill:#a5a5a5;}.cls-2{fill:#f9c075;}.cls-3{fill:#fff;}.cls-4{fill:#98e1ea;}</style></defs><path class="cls-3" d="M23.905,11.952c.51,5.112-5.351,11.952-11.952,11.952C8.336,23.905.014,18.553,0,11.952-.017,3.679,3.287,0,11.952,0c8.95,0,11.297,5.384,11.952,11.952Z"/><path class="cls-2" d="M10.89,21.102c-.306-.06-.612-.116-.917-.181-1.906-.415-3.516-1.348-4.833-2.784-1.196-1.304-1.945-2.838-2.258-4.576-.607-2.81,1.272-5.177,2.293-6.56.349-.472.849-1.273,1.235-1.729-.626-.622-2.442-.299-1.812-1.139.531-.347,4.349-.567,4.796-.393s-.579,3.923-1.078,4.061-.423-1.045-1.117-1.739c-1.38.704-3.974,4.296-3.161,7.161s6.167,5.889,6.495,6.248.881,1.359.44,1.63-.086,0-.086,0h.002Z"/><path class="cls-1" d="M8.019,11.293c.689-.132,1.858,3.092,2.707,3.942,1.724-1.725,4.393-6.817,5.051-6.817s1.246,1.621.986,1.881-5.742,5.821-6.124,5.789-3.965-3.299-3.832-3.832.694-.864,1.212-.964Z"/><path class="cls-4" d="M13.108,2.923c.306.06.612.116.917.181,1.906.415,3.516,1.348,4.833,2.784,1.196,1.304,1.945,2.838,2.258,4.576.607,2.81-1.272,5.177-2.293,6.56-.349.472-.849,1.273-1.235,1.729.626.622,2.442.299,1.812,1.139-.531.347-4.349.567-4.796.393s.579-3.923,1.078-4.061.423,1.045,1.117,1.739c1.38-.704,3.974-4.296,3.161-7.161s-6.167-5.889-6.495-6.248-.881-1.359-.44-1.63.086,0,.086,0h-.002Z"/></svg>