<?xml version="1.0" encoding="UTF-8"?><svg id="Layer_1" xmlns="http://www.w3.org/2000/svg" viewBox="0 0 24 22.381"><defs><style>.cls-1{fill:#f9c075;}.cls-2{fill:#f7e98e;}.cls-3{fill:#fff;}.cls-4{fill:#98e1ea;}.cls-5{fill:#4c4c4c;}</style></defs><path class="cls-4" d="M20.582,4.349c-2.036-1.012-4.068-2.034-6.106-3.042-.131-.064-.323-.083-.463-.042-3.545,1.053-7.087,2.119-10.632,3.173-.226.068-.293.162-.293.396.008,5.348.006,10.695.006,16.042v.306h11.217c-.003-1.828-.003-5.594,0-6.961,0-.469.208-.676.674-.678,1.115-.003,2.23-.003,3.345,0,.481.002.694.215.695.691.002.756,0,1.511,0,2.267,0,.638.001,3.418,0,4.682h1.762c.003-.079.008-.133.008-.187v-.002c0-5.439,0-10.879.004-16.318,0-.177-.067-.252-.217-.327ZM6.039,6.005c0-.441.121-.604.548-.747,1.684-.562,3.367-1.123,5.051-1.682h-.001c.554-.183.899.07.9.662.002,1.133,0,2.267,0,3.4,0,1.124.002,2.248,0,3.372-.001.543-.213.761-.749.761-1.667.002-3.335.002-5.002,0-.523,0-.747-.219-.747-.735-.002-1.677-.002-3.354,0-5.031ZM12.538,18.728c0,.494-.216.703-.713.705-.847.002-1.695,0-2.543,0-.839,0-1.677.002-2.516,0-.514-.002-.725-.209-.725-.721-.003-1.484-.003-2.968,0-4.452.001-.512.21-.718.727-.718,1.686-.002,3.373-.002,5.059,0,.496,0,.711.211.711.706.003,1.494.003,2.987,0,4.48ZM19.025,11.094c0,.436-.226.671-.663.674-1.125.006-2.249.005-3.374,0-.46-.002-.675-.224-.677-.685-.003-1.152,0-2.305,0-3.457,0-1.134-.003-2.268,0-3.402,0-.629.407-.877.972-.595,1.111.555,2.22,1.117,3.334,1.667h.002c.281.137.41.341.41.653-.003,1.715,0,3.43-.003,5.145Z"/><path class="cls-5" d="M21.988,5.06c.513.255.995.493,1.493.741.18-.364.35-.704.519-1.046-.054-.032-.076-.047-.101-.059C20.814,3.151,17.729,1.603,14.636.072c-.175-.087-.438-.091-.631-.035-1.793.521-3.58,1.064-5.37,1.599-2.16.646-4.317,1.298-6.481,1.931-.705.206-1.424.361-2.154.544.1.395.193.765.289,1.141.552-.136,1.075-.265,1.612-.398v16.349H.17v1.178h23.555v-1.173h-1.737V5.06ZM20.795,20.996c0,.054-.005.108-.008.187h-1.762c.001-1.264,0-4.044,0-4.682,0-.756.002-1.511,0-2.267,0-.476-.214-.689-.695-.691-1.115-.003-2.23-.003-3.345,0-.466.002-.673.209-.674.678-.003,1.367-.003,5.133,0,6.961H3.094v-.306c0-5.347.002-10.694-.006-16.042,0-.234.067-.328.293-.396,3.545-1.054,7.087-2.12,10.632-3.173.14-.041.332-.022.463.042,2.038,1.008,4.07,2.03,6.106,3.042.15.075.217.15.217.327-.005,5.439-.004,10.879-.005,16.318v.002ZM14.72,14.512l3.745-.391v7.476l-3.45.258-.295-7.343Z"/><polygon class="cls-1" points="18.464 14.12 14.72 14.512 15.015 21.854 18.464 21.596 18.464 14.12"/><path class="cls-5" d="M6.786,11.771c1.667.002,3.335.002,5.002,0,.536,0,.748-.218.749-.761.002-1.124,0-2.248,0-3.372,0-1.133.002-2.267,0-3.4-.001-.592-.346-.845-.9-.661h.001c-1.684.558-3.367,1.119-5.051,1.681-.427.143-.547.306-.548.747-.002,1.677-.002,3.354,0,5.031,0,.516.224.734.747.735ZM6.669,5.975l5.257-1.615-.367,6.831-4.89-.273v-4.942Z"/><path class="cls-5" d="M11.827,13.542c-1.686-.002-3.373-.002-5.059,0-.517,0-.726.206-.727.718-.003,1.484-.003,2.968,0,4.452,0,.512.211.719.725.721.839.002,1.677,0,2.516,0,.848,0,1.696.002,2.543,0,.497-.002.712-.211.713-.705.003-1.493.003-2.986,0-4.48,0-.495-.215-.706-.711-.706ZM12.001,18.722l-5.332-.477.214-4.113,5.117.272v4.318Z"/><path class="cls-5" d="M18.618,5.295h-.002c-1.114-.549-2.223-1.111-3.334-1.666-.565-.282-.971-.034-.972.595-.003,1.134,0,2.268,0,3.402,0,1.152-.002,2.305,0,3.457.002.461.217.683.677.685,1.125.005,2.249.006,3.374,0,.437-.003.662-.238.663-.674.003-1.715,0-3.43.003-5.145,0-.312-.129-.516-.41-.654ZM18.464,10.899l-3.45.292v-6.831l3.704,1.99-.255,4.548Z"/><polygon class="cls-2" points="15.015 11.191 18.464 10.899 18.719 6.35 15.015 4.36 15.015 11.191"/><polygon class="cls-3" points="11.926 4.36 6.669 5.975 6.669 10.918 11.56 11.191 11.926 4.36"/><polygon class="cls-3" points="6.669 18.245 12.001 18.722 12.001 14.403 6.884 14.132 6.669 18.245"/></svg>