<?xml version="1.0" encoding="UTF-8"?><svg id="Layer_1" xmlns="http://www.w3.org/2000/svg" viewBox="0 0 23.878 22.265"><defs><style>.cls-1{fill:#2847ef;}.cls-2{fill:#fff;}</style></defs><path class="cls-1" d="M21.877,5.034c.509.251.989.489,1.485.737.179-.364.347-.701.516-1.042-.053-.03-.076-.046-.099-.06C20.706,3.136,17.638,1.595,14.563.071c-.175-.086-.436-.089-.628-.033-1.786.516-3.565,1.058-5.344,1.59-2.149.642-4.295,1.29-6.448,1.921-.701.205-1.415.36-2.143.542.099.39.192.761.288,1.134.549-.136,1.068-.265,1.604-.397v16.266H.169v1.171h23.434v-1.167h-1.726V5.034ZM11.269,14.663v3.489h-4.064v-3.489h4.064ZM7.192,10.265c0-1.253-.003-2.51.003-3.763.003-.096.06-.255.129-.278,1.303-.45,2.612-.886,3.948-1.329v5.618h-4.064c-.007-.089-.017-.169-.017-.248ZM17.754,10.407c0,.026-.01.053-.023.109h-2.308v-5.476c.255.122.489.235.721.354.476.235.952.466,1.422.718.086.046.182.165.185.251.01,1.349.007,2.695.003,4.044ZM15.426,21.075v-6.415h2.318v6.415h-2.318Z"/><path class="cls-2" d="M17.565,6.112c-.47-.251-.946-.483-1.422-.718-.231-.119-.466-.232-.721-.354v5.476h2.308c.013-.056.023-.083.023-.109.003-1.349.007-2.695-.003-4.044-.003-.086-.099-.205-.185-.251Z"/><path class="cls-2" d="M17.744,14.66h-2.318v6.415h2.318v-6.415Z"/><path class="cls-2" d="M11.272,4.895c-1.336.443-2.645.88-3.948,1.329-.069.023-.126.182-.129.278-.007,1.253-.003,2.51-.003,3.763,0,.079.01.159.017.248h4.064v-5.618Z"/><path class="cls-2" d="M11.269,18.152v-3.489h-4.064v3.489h4.064Z"/></svg>