<?xml version="1.0" encoding="UTF-8"?><svg id="Layer_1" xmlns="http://www.w3.org/2000/svg" viewBox="0 0 100 31.628"><defs><style>.cls-1{fill:none;}.cls-2{letter-spacing:.027em;}.cls-2,.cls-3,.cls-4,.cls-5,.cls-6,.cls-7,.cls-8,.cls-9,.cls-10{isolation:isolate;}.cls-2,.cls-3,.cls-4,.cls-5,.cls-6,.cls-7,.cls-9,.cls-10{fill:#fe904f;font-family:AdobeClean-Bold, 'Adobe Clean';font-size:3.894px;font-weight:700;}.cls-3{letter-spacing:.007em;}.cls-4{letter-spacing:.004em;}.cls-5{letter-spacing:.006em;}.cls-6{letter-spacing:.006em;}.cls-7{letter-spacing:.006em;}.cls-11{fill:#a5a5a5;}.cls-12{fill:#fff;}.cls-13{fill:#ff904f;}.cls-9{letter-spacing:.003em;}</style></defs><g id="joidu"><g id="shaddow"><path class="cls-1" d="M15.994,15.074c.208.114.415.207.595.279,1.211.302,2.003.801,2.003,1.366,0,.923-2.111,1.671-4.714,1.671s-4.714-.748-4.714-1.671c0-.458.521-.873,1.364-1.175h-.038s.61-.151,1.207-.473c-3.718.252-6.468,1.151-6.468,2.221,0,1.266,3.849,2.292,8.597,2.292s8.597-1.026,8.597-2.292c0-1.066-2.73-1.962-6.428-2.218h0Z"/><path class="cls-1" d="M15.994,15.074c.208.114.415.207.595.279,1.211.302,2.003.801,2.003,1.366,0,.923-2.111,1.671-4.714,1.671s-4.714-.748-4.714-1.671c0-.458.521-.873,1.364-1.175h-.038s.61-.151,1.207-.473c-3.718.252-6.468,1.151-6.468,2.221,0,1.266,3.849,2.292,8.597,2.292s9.911-.991,9.911-2.257c0-1.066-4.043-1.997-7.741-2.254h0Z"/><path class="cls-1" d="M15.994,15.074c.208.114.415.207.595.279,1.211.302,2.003.801,2.003,1.366,0,.923-2.111,1.671-4.714,1.671s-4.714-.748-4.714-1.671c0-.458.521-.873,1.364-1.175h-.038s.61-.151,1.207-.473c-3.718.252-6.468,1.151-6.468,2.221,0,1.266,3.849,2.292,8.597,2.292s9.911-.991,9.911-2.257c0-1.066-4.043-1.997-7.741-2.254h0Z"/><path class="cls-1" d="M15.994,15.074c.208.114.415.207.595.279,1.211.302,2.003.801,2.003,1.366,0,.923-2.111,1.671-4.714,1.671s-4.714-.748-4.714-1.671c0-.458.521-.873,1.364-1.175h-.038s.61-.151,1.207-.473c-3.718.252-6.468,1.151-6.468,2.221,0,1.266,3.849,2.292,8.597,2.292s9.911-.991,9.911-2.257c0-1.066-4.043-1.997-7.741-2.254h0Z"/><path class="cls-1" d="M15.994,15.074c.208.114.415.207.595.279,1.211.302,2.003.801,2.003,1.366,0,.923-2.111,1.671-4.714,1.671s-4.714-.748-4.714-1.671c0-.458.521-.873,1.364-1.175h-.038s.61-.151,1.207-.473c-3.718.252-6.468,1.151-6.468,2.221,0,1.266,3.849,2.292,8.597,2.292s9.911-.991,9.911-2.257c0-1.066-4.043-1.997-7.741-2.254h0Z"/><path class="cls-11" d="M15.706,14.967c-.326-.052-1.171-.867-.438-1.895.104-.308,2.152-2.363,2.152-2.363,0,0,3.015-2.946,2.209-7.533-.598-3.402-4.058-2.817-6.756-1.514-4.884,2.36-4.292,5.369-2.7,7.523l1.905,2.152c.995,1.085.522.578,1.471,1.665.98,1.122-.109,1.904-.309,1.965s-12.445.374-12.603,3.631c-.11,2.273,6.193,3.483,13.823,3.093,7.644-.39,13.845-2.078,13.845-3.093,0-1.904-12.276-3.579-12.602-3.631h0ZM14.463,20.222c-4.748,0-8.597-1.026-8.597-2.292,0-1.07,2.75-1.968,6.468-2.221-.597.322-1.207.473-1.207.473h.038c-.843.302-1.364.717-1.364,1.175,0,.923,2.111,1.671,4.714,1.671s4.714-.748,4.714-1.671c0-.565-.792-1.064-2.003-1.366-.18-.071-.387-.165-.595-.279,3.698.256,7.741,1.188,7.741,2.254,0,1.266-5.162,2.257-9.911,2.257h0Z"/><path class="cls-11" d="M15.357,24.444c-1.448-1.069-2.888.555-4.029,2.238-1.01,1.49-.896,3.134,2.238,4.029,1.731.495,3.764.484,3.844-1.59.074-1.909-.56-3.576-2.053-4.677h0Z"/><path class="cls-13" d="M15.069,14.329c-.326-.052-1.171-.867-.438-1.895.104-.308,2.152-2.363,2.152-2.363,0,0,3.015-2.946,2.209-7.533-.598-3.402-4.058-2.817-6.756-1.514-4.884,2.36-4.292,5.369-2.7,7.523l1.905,2.152c.995,1.085.522.578,1.471,1.665.98,1.122-.109,1.904-.309,1.965S.159,14.703.001,17.96c-.11,2.273,6.193,3.483,13.823,3.093,7.644-.39,13.845-2.078,13.845-3.093,0-1.904-12.276-3.579-12.602-3.631h0ZM13.825,19.584c-4.748,0-8.597-1.026-8.597-2.292,0-1.07,2.75-1.968,6.468-2.221-.597.322-1.207.473-1.207.473h.038c-.843.302-1.364.717-1.364,1.175,0,.923,2.111,1.671,4.714,1.671s4.714-.748,4.714-1.671c0-.565-.792-1.064-2.003-1.366-.18-.071-.387-.165-.595-.279,3.698.256,7.741,1.188,7.741,2.254,0,1.266-5.162,2.257-9.911,2.257h0Z"/><path class="cls-13" d="M14.72,23.807c-1.448-1.069-2.888.555-4.029,2.238-1.01,1.49-.896,3.134,2.238,4.029,1.731.495,3.764.484,3.844-1.59.074-1.909-.56-3.576-2.053-4.677h0Z"/></g><path class="cls-11" d="M31.781,31.108c-.295,0,0,0-1.844-.075-2.109-.086-1.187-3.562-.734-4.371s1.198.777,2.296.655c.41-.046.751-.054,1.017-.161.265-.108,1.179-.789,1.315-.947,5.095-5.882-2.689-15.447-1.228-16.854s5.878.209,6.359,2.086-.214,14.251-.214,14.251c0,.644-.086,1.283-.258,1.917-.172.634-.506,1.215-1.002,1.741-.496.527-1.225.949-2.188,1.266-.963.317-1.948.492-3.519.492h0ZM35.707,6.641c-2.798-.334-3.807-3.236-3.433-3.888.815-1.42,3.306-1.814,4.102-1.814,1.534,0,2.004,2.122,1.919,3.444-.104,1.633-1.236,2.419-2.588,2.258h0Z"/><path class="cls-11" d="M49.352,21.641c-1.559-.263-7.464-2.371-8.081-6.124-.206-1.251,1.838-9.814,8.554-9.216,2.557.227,6.35,4.403,6.967,6.753.322,1.225,1.411,10.081-7.44,8.587h0ZM50.298,17.318c1.272,0,1.804-2.288,1.804-2.935,0-.655.332-3.945-3.141-3.201-.622.133-3.395,1.488-3.141,3.201.095.642,1.091,2.934,4.478,2.935Z"/><path class="cls-11" d="M58.607,9.251c1.46-1.135,5.878.168,6.359,1.684.481,1.515.006,12.411.006,12.411-.068,1.456-2.187.938-3.31.646-.358-.076-4.515-13.606-3.055-14.741h0ZM61.925,6.799c-2.798-.334-3.807-3.236-3.433-3.888.815-1.42,3.306-1.814,4.102-1.814,1.534,0,2.004,2.122,1.919,3.444-.104,1.633-1.236,2.419-2.588,2.258h0Z"/><path class="cls-1" d="M73.651,15.644c-.607.133-3.315,1.488-3.067,3.201.093.642,1.066,2.934,4.372,2.935,1.242,0,1.762-2.288,1.762-2.935,0-.655.325-3.945-3.067-3.201h0Z"/><path class="cls-11" d="M82.602,22.986c-1.059-5.802.581-17.994-.608-19-1.557-1.317-6.284-3.41-5.26,0,.439,1.462.814,4.91,1.118,8.631-.558-.76-1.077-1.067-2.72-1.216-6.557-.597-8.553,7.965-8.353,9.216.603,3.752,6.348,6.206,7.891,6.124,1.212-.065,2.181-.54,2.941-1.271.033.198.125.414.302.653.82,1.108,4.726,1.018,5.047,0,.427-1.355-.009-1.222-.359-3.137h0ZM77.356,19.483c0,.647-.52,2.936-1.762,2.935-3.306-.001-4.279-2.293-4.372-2.935-.248-1.713,2.46-3.068,3.067-3.201,3.392-.743,3.067,2.547,3.067,3.201h0Z"/><path class="cls-11" d="M99.732,21.754c-3.246-3.024-1.123-8.911-.998-11.572h0c.055-.295.066-.523.021-.666-.481-1.515-3.938-2.648-5.398-1.513-.938.729,1.612,5.204,1.641,7.605-.108,1.837-.674,2.313-1.116,2.672-.442.359-.992.538-1.65.538s-3.103-.859-3.242-3.392c-.028-.51,1.514-5.911.976-6.672s-4.685-2.415-5.312-.601,1.856,6.691,1.207,10.823c-.294,1.872,1.792,3.035,2.505,3.379.712.344,1.623.517,2.733.517.992,0,1.421.041,2.207-.274.302-.121.903-.246,1.453-.849.044-.048.081-.101.123-.15.022.574.013.339.013.339.068,1.456,3.599,1.018,4.722.727.358-.076.593-.519.116-.91h0Z"/><path class="cls-12" d="M31.143,30.47c-.295,0,0,0-1.844-.075-2.109-.086-1.187-3.562-.734-4.371s1.198.777,2.296.655c.41-.046.751-.054,1.017-.161.265-.108,1.179-.789,1.315-.947,5.095-5.882-2.689-15.447-1.228-16.854s5.878.209,6.359,2.086-.214,14.251-.214,14.251c0,.644-.086,1.283-.258,1.917-.172.634-.506,1.215-1.002,1.741-.496.527-1.225.949-2.188,1.266-.963.317-1.948.492-3.519.492h0ZM35.069,6.004c-2.798-.334-3.807-3.236-3.433-3.888.815-1.42,3.306-1.814,4.102-1.814,1.534,0,2.004,2.122,1.919,3.444-.104,1.633-1.236,2.419-2.588,2.258h0Z"/><path class="cls-12" d="M48.714,21.003c-1.559-.263-7.464-2.371-8.081-6.124-.206-1.251,1.838-9.814,8.554-9.216,2.557.227,6.35,4.403,6.967,6.753.322,1.225,1.411,10.081-7.44,8.587h0ZM49.66,16.68c1.272,0,1.804-2.288,1.804-2.935,0-.655.332-3.945-3.141-3.201-.622.133-3.395,1.488-3.141,3.201.095.642,1.091,2.934,4.478,2.935Z"/><path class="cls-12" d="M57.969,8.614c1.46-1.135,5.878.168,6.359,1.684.481,1.515.006,12.411.006,12.411-.068,1.456-2.187.938-3.31.646-.358-.076-4.515-13.606-3.055-14.741h0ZM61.287,6.162c-2.798-.334-3.807-3.236-3.433-3.888.815-1.42,3.306-1.814,4.102-1.814,1.534,0,2.004,2.122,1.919,3.444-.104,1.633-1.236,2.419-2.588,2.258h0Z"/><path class="cls-1" d="M73.651,15.644c-.607.133-3.315,1.488-3.067,3.201.093.642,1.066,2.934,4.372,2.935,1.242,0,1.762-2.288,1.762-2.935,0-.655.325-3.945-3.067-3.201h0Z"/><path class="cls-12" d="M81.964,22.349c-1.059-5.802.581-17.994-.608-19-1.557-1.317-6.284-3.41-5.26,0,.439,1.462.814,4.91,1.118,8.631-.558-.76-1.077-1.067-2.72-1.216-6.557-.597-8.553,7.965-8.353,9.216.603,3.752,6.348,6.206,7.891,6.124,1.212-.065,2.181-.54,2.941-1.271.033.198.125.414.302.653.82,1.108,4.726,1.018,5.047,0,.427-1.355-.009-1.222-.359-3.137h0ZM76.718,18.845c0,.647-.52,2.936-1.762,2.935-3.306-.001-4.279-2.293-4.372-2.935-.248-1.713,2.46-3.068,3.067-3.201,3.392-.743,3.067,2.547,3.067,3.201h0Z"/><path class="cls-12" d="M99.094,21.117c-3.246-3.024-1.123-8.911-.998-11.572h0c.055-.295.066-.523.021-.666-.481-1.515-3.938-2.648-5.398-1.513-.938.729,1.612,5.204,1.641,7.605-.108,1.837-.674,2.313-1.116,2.672-.442.359-.992.538-1.65.538s-3.103-.859-3.242-3.392c-.028-.51,1.514-5.911.976-6.672s-4.685-2.415-5.312-.601,1.856,6.691,1.207,10.823c-.294,1.872,1.792,3.035,2.505,3.379.712.344,1.623.517,2.733.517.992,0,1.421.041,2.207-.274.302-.121.903-.246,1.453-.849.044-.048.081-.101.123-.15.022.574.013.339.013.339.068,1.456,3.599,1.018,4.722.727.358-.076.593-.519.116-.91h0Z"/><g class="cls-8"><text class="cls-10" transform="translate(41.412 30.689) scale(1.56 1)"><tspan x="0" y="0">a</tspan></text><text class="cls-2" transform="translate(44.402 30.689) scale(1.56 1)"><tspan x="0" y="0">c</tspan></text><text class="cls-6" transform="translate(47.184 30.689) scale(1.56 1)"><tspan x="0" y="0">t</tspan></text><text class="cls-9" transform="translate(49.134 30.689) scale(1.56 1)"><tspan x="0" y="0">i</tspan></text><text class="cls-10" transform="translate(50.659 30.689) scale(1.56 1)"><tspan x="0" y="0">v</tspan></text><text class="cls-10" transform="translate(53.508 30.689) scale(1.56 1)"><tspan x="0" y="0">a</tspan></text><text class="cls-10" transform="translate(56.492 30.689) scale(1.56 1)"><tspan x="0" y="0">te </tspan></text><text class="cls-5" transform="translate(62.846 30.689) scale(1.56 1)"><tspan x="0" y="0">y</tspan></text><text class="cls-10" transform="translate(65.785 30.689) scale(1.56 1)"><tspan x="0" y="0">our </tspan></text><text class="cls-7" transform="translate(75.908 30.689) scale(1.56 1)"><tspan x="0" y="0">p</tspan></text><text class="cls-3" transform="translate(79.256 30.689) scale(1.56 1)"><tspan x="0" y="0">o</tspan></text><text class="cls-10" transform="translate(82.602 30.689) scale(1.56 1)"><tspan x="0" y="0">ten</tspan></text><text class="cls-5" transform="translate(90.914 30.689) scale(1.56 1)"><tspan x="0" y="0">t</tspan></text><text class="cls-4" transform="translate(92.863 30.689) scale(1.56 1)"><tspan x="0" y="0">i</tspan></text><text class="cls-10" transform="translate(94.395 30.689) scale(1.56 1)"><tspan x="0" y="0">al</tspan></text></g></g></svg>