<?xml version="1.0" encoding="UTF-8"?><svg id="Layer_1" xmlns="http://www.w3.org/2000/svg" viewBox="0 0 21.996 24"><defs><style>.cls-1{fill:none;}.cls-2{fill:#a5a5a5;}.cls-3{fill:#ff8f46;}</style></defs><path class="cls-1" d="M4.563,13.863c0,.106.041.209.108.31,1.055.613,3.372,1.04,6.068,1.04,3.688,0,7.698-.77,7.698-1.753,0-.058-.019-.115-.049-.172-.903-.492-2.789-.891-4.691-1.082.317.148.544.321.658.509.37.203.589.443.589.702,0,.717-1.64,1.298-3.662,1.298-1.765,0-3.237-.443-3.583-1.032-.364-.202-.581-.44-.581-.697,0-.222.172-.428.45-.611-1.81.318-3.005.865-3.005,1.486Z"/><path class="cls-2" d="M12.424,11.709c.162.089.323.161.462.216.311.078.581.173.811.281,1.903.19,3.789.59,4.691,1.082-.393-.755-3.294-1.393-5.965-1.579Z"/><path class="cls-2" d="M4.563,13.863c0-.621,1.195-1.168,3.005-1.486.167-.11.363-.214.609-.302h-.03s.474-.117.937-.367c-2.888.196-5.024.894-5.024,1.725,0,.264.222.515.61.74-.067-.101-.108-.204-.108-.31Z"/><path class="cls-2" d="M11.283,14.715c2.023,0,3.662-.581,3.662-1.298,0-.259-.219-.5-.589-.702.053.088.087.179.087.272,0,.717-1.64,1.298-3.662,1.298-1.297,0-2.431-.241-3.081-.601.347.589,1.819,1.032,3.583,1.032Z"/><path class="cls-2" d="M13.037,7.824s-1.591,1.596-1.672,1.835c-.57.798.087,1.432.34,1.472.004,0,.031.005.04.006-.137-.266-.174-.633.122-1.048.081-.239,1.672-1.835,1.672-1.835,0,0,2.342-2.289,1.716-5.851-.148-.842-.523-1.367-1.031-1.662.249.301.435.702.528,1.232.626,3.563-1.716,5.851-1.716,5.851Z"/><path class="cls-2" d="M21.412,13.74c.042.07.082.14.082.211,0,.788-4.817,2.099-10.755,2.402-4.481.229-8.368-.253-9.964-1.264,1.085,1.3,5.392,1.954,10.466,1.695,5.938-.303,10.755-1.614,10.755-2.402,0-.219-.227-.433-.584-.641Z"/><path class="cls-2" d="M11.936,18.923c-.011-.008-.022-.009-.034-.017.82.835,1.175,1.958,1.126,3.22-.062,1.611-1.642,1.619-2.986,1.235-.572-.163-1.004-.361-1.336-.58.328.395.911.745,1.838,1.01,1.344.384,2.924.376,2.986-1.235.057-1.483-.435-2.778-1.595-3.633Z"/><path class="cls-3" d="M10.739,16.354c5.938-.303,10.755-1.614,10.755-2.402,0-.071-.04-.141-.082-.211-.814-1.365-9.145-2.527-9.666-2.604-.009-.001-.036-.005-.04-.006-.253-.04-.91-.673-.34-1.472.081-.239,1.672-1.835,1.672-1.835,0,0,2.342-2.289,1.716-5.851-.093-.53-.279-.931-.528-1.232-.994-1.201-3.044-.753-4.719.056-3.794,1.833-3.334,4.17-2.097,5.843l1.48,1.671c.773.843.405.449,1.143,1.293.761.872-.084,1.479-.24,1.526-.156.048-9.667.29-9.789,2.82-.021.431.259.812.774,1.138,1.596,1.011,5.483,1.493,9.964,1.264ZM4.061,13.433c0-.831,2.136-1.529,5.024-1.725-.464.25-.937.367-.937.367h.03c-.246.088-.442.192-.609.302-.278.183-.45.389-.45.611,0,.257.217.495.581.697.651.361,1.784.601,3.081.601,2.022,0,3.662-.581,3.662-1.298,0-.094-.033-.184-.087-.272-.114-.188-.342-.36-.658-.509-.229-.107-.5-.203-.811-.281-.14-.055-.301-.128-.462-.216,2.671.185,5.571.824,5.965,1.579.03.057.049.114.049.172,0,.983-4.01,1.753-7.698,1.753-2.696,0-5.014-.427-6.068-1.04-.388-.226-.61-.476-.61-.74Z"/><path class="cls-3" d="M13.029,22.126c.049-1.262-.306-2.385-1.126-3.22-.143-.146-.296-.286-.469-.413-1.125-.83-2.244.431-3.13,1.739-.6.886-.679,1.839.402,2.55.332.219.764.416,1.336.58,1.344.384,2.924.376,2.986-1.235Z"/></svg>