<?xml version="1.0" encoding="UTF-8"?><svg id="Layer_1" xmlns="http://www.w3.org/2000/svg" viewBox="0 0 24 24"><defs><style>.cls-1{fill:#fa772c;}.cls-2{fill:#fabe60;}.cls-3{opacity:.8;}</style></defs><g class="cls-3"><circle class="cls-1" cx="12" cy="12" r="12"/><path class="cls-2" d="M8.498,14.216h-2.367c-.663,0-1.191-.337-1.418-.918-.24-.611-.111-1.161.344-1.629,1.661-1.711,3.327-3.419,4.988-5.132.735-.758,1.466-1.517,2.196-2.28.401-.421.943-.517,1.423-.243.465.265.654.79.475,1.357-.433,1.369-.866,2.74-1.312,4.104-.082.253-.042.312.228.312,1.587-.012,3.174,0,4.763-.007.681,0,1.178.285,1.461.906.257.569.114,1.178-.369,1.676-2.275,2.339-4.548,4.679-6.823,7.021-.124.126-.238.265-.364.389-.421.413-.96.483-1.428.191-.433-.27-.611-.785-.443-1.322.436-1.379.871-2.758,1.322-4.132.082-.25.027-.297-.218-.295-.817.012-1.636.005-2.456.005l-.002-.002ZM6.152,12.669l.05.067h.295c1.587,0,3.174.017,4.76-.007.899-.012,1.748.98,1.421,1.919-.3.854-.555,1.723-.824,2.584-.027.087-.089.168-.045.297.75-.797,1.52-1.54,2.255-2.317,1.159-1.223,2.354-2.411,3.533-3.614.094-.094.188-.188.22-.342h-.317c-1.587,0-3.174-.017-4.76.007-.901.012-1.758-.988-1.418-1.919.178-.49.322-.99.48-1.488.141-.451.28-.904.418-1.354l-.052-.025c-2.005,2.065-4.01,4.127-6.015,6.191Z"/></g></svg>