<?xml version="1.0" encoding="UTF-8"?><svg id="Layer_1" xmlns="http://www.w3.org/2000/svg" viewBox="0 0 24.005 21.624"><defs><style>.cls-1{fill:#4c4c4c;}</style></defs><path class="cls-1" d="M.007,21.609c.556-.882,1.491-1.153,1.999-1.96-.337-.588-1.103-1.392-1.365-1.974-1.982-4.382.841-9.756,5.607-10.397,4.034-.54,8.106,2.364,8.496,6.42.369,3.874-2.752,7.362-6.599,7.864-1.443.187-2.821-.043-4.131-.679-.123-.059-.289-.075-.422-.048-1.106.235-2.212.486-3.313.732-.069.016-.144.021-.267.043h-.005ZM8.498,14.422l-.011-.112c-.176-.064-.358-.112-.529-.198-.358-.176-.917-.231-1.238-.46-.518-.374-.584-1.052-.777-1.65-.043-.128-.102-.638-.155-.761-.027,0-.053,0-.08.005-.043.102-.102.59-.134.697-.187.566-.278,1.091-.727,1.513-.411.379-1.063.587-1.576.763-.096.032-.316.21-.407.253v.08c.214.08.562.041.775.116.55.192,1.063.304,1.379.795.24.374.374.979.566,1.385.043.091.091.176.134.267h.08c.24-.625.73-1.259,1.227-1.75.492-.492.846-.687,1.466-.938l.005-.005ZM10.32,11.355c-.727-.203-.993-.445-1.347-1.379-.198.331-.161.757-.38.976-.224.224-.705.237-.977.403.267.166.74.261.964.486.224.23.2.578.409.914.42-.755.24-1.389,1.331-1.405v.005ZM8.952,18.761c.198-.737.265-1.303,1.379-1.379-.743-.198-.963-.668-1.187-1.384-.198.732-.865,1.165-1.586,1.4.737.187,1.28.378,1.389,1.363h.005Z"/><path class="cls-1" d="M9.754,7.038c-.059-.032-.113-.354-.108-.429.08-1.122.411-2.17.989-3.137C12.18.892,15.178-.444,18.133.133c4.252.819,5.713,4.286,5.771,5.899.315,1.95-.107,3.741-1.24,5.354-.107.15-.096.251,0,.39.297.689.743,1.574,1.149,2.216.118.182.187.363.037.55-.134.176-.24-.115-.449-.164-1.031-.235-2.063-.465-3.094-.684-.15-.032-.337-.011-.476.048-1.427.631-2.902.828-4.441.524-.144-.027-.214-.08-.214-.24,0-.198.006-.014-.01-.233.363.053.705.118,1.047.155,1.208.139,2.324-.472,3.409-1.007.224-.107.427-.139.668-.085.791.187,1.857.771,2.69.958-.037-.08-.059-.134-.091-.187-.283-.449-.841-1.311-1.125-1.765-.187-.294-.176-.395.037-.673,2.95-3.799.967-9.239-3.735-10.254-3.484-.753-7.496,1.659-8.041,5.186-.048.294-.08,1.014-.273.917Z"/><path class="cls-1" d="M16.749,5.215h-3.147c-.321,0-.502-.144-.502-.39,0-.256.172-.148.509-.148,2.095,0,4.204-.259,6.299-.259.31,0,.497.155.492.406,0,.246-.187.395-.502.395h-3.147v-.005Z"/><path class="cls-1" d="M16.828,7.619h-3.147c-.321,0-.497-.144-.502-.395,0-.246.182-.401.492-.401,2.105,0,4.208.235,6.313.235.31,0,.5-.074.489.172-.005.24-.187.39-.481.39h-3.169.005Z"/><path class="cls-1" d="M17.577,9.223h2.319c.315,0,.497.15.497.395,0,.251-.182.401-.497.401-1.555,0-3.037-.254-4.592-.254-.305,0-.564.094-.559-.157.005-.24.187-.39.481-.39h2.346l.005.005Z"/></svg>