<?xml version="1.0" encoding="UTF-8"?><svg id="Layer_1" xmlns="http://www.w3.org/2000/svg" viewBox="0 0 24 24"><defs><style>.cls-1{fill:#f4b7ae;}.cls-2{fill:#f7e98e;}.cls-3{fill:#fff;}.cls-4{fill:#4c4c4c;}</style></defs><circle class="cls-2" cx="12" cy="12" r="12"/><path class="cls-4" d="M3.895,9.521c-.688-.181,1.242-2.178,2.919-2.421s3.809,2.003,3.489,2.25c-2.682-2.491-5.72.352-6.408.171Z"/><path class="cls-4" d="M19.872,9.229c.688-.181-1.242-2.178-2.919-2.421s-3.809,2.003-3.489,2.25c2.682-2.491,5.72.352,6.408.171Z"/><path class="cls-4" d="M4.232,13.201c-.507-.01-.543.249-.479.87.516,2.972,1.617,4.851,7.806,6.256,3.754.596,7.153-2.553,8.23-6.089.138-.57.107-1.223-.602-1.037-5.152,1.076-10.135,1.065-14.955,0Z"/><path class="cls-1" d="M7.112,18.854c1.016-1.581,2.652-1.394,4.456-.628.187.103.329.083.536,0,2.206-1,3.921.16,4.552.624-2.915,2.256-5.631,1.893-9.544.004Z"/><path class="cls-3" d="M4.232,13.201c5.12,1.011,9.403,1.104,15.141-.031-.158.35-.272.694-1.04.982-3.62,1.102-7.771,1.277-12.752,0-.665-.186-1.202-.438-1.349-.95Z"/></svg>