<?xml version="1.0" encoding="UTF-8"?><svg id="Layer_1" xmlns="http://www.w3.org/2000/svg" viewBox="0 0 23.999 23.973"><defs><style>.cls-1{fill:none;}.cls-2{fill:#a5a5a5;}.cls-3{fill:#fce0c3;}.cls-4{fill:#c8bfef;}.cls-5{fill:#cae9ef;}</style></defs><path class="cls-1" d="M5.605,4.591c-.037-.055-.045-.139-.065-.21.008.079.026.151.065.21Z"/><path class="cls-1" d="M22.594,5.273c.02-.217,0-.479,0-.703,0,.224-.072.498,0,.703Z"/><path class="cls-1" d="M5.308,18.155c-.881-.351-1.544.816-.879,1.44.663.623,3.107-.553.879-1.44Z"/><path class="cls-1" d="M4.082,17.136c.193-.069.401-.125.643-.154-.245.023-.453.081-.643.154Z"/><path class="cls-2" d="M23.599,18.659l-7.342-6.568,1.775-2.916c3.57.553,6.578.248,5.793-5.555-.09-.662-.154-1.167-1.295-1.13l-2.022,2.683h-1.483l-.148-1.88,2.593-1.77c-.023-1.524-.489-1.205-1.162-1.37-.269-.066-.542-.082-.807-.154h-.891c-.271.082-.559.102-.833.174-2.444.644-3.983,3.159-3.548,5.637l-1.729,1.685c-.395-.351-.184-.783-1.406-.647-.483.054-.432.5-.593.582-.055.028-.078.022-.118-.023l-3.466-3.472c-.082-.56.028-1.146-.03-1.704-.028-.27-.269-.806-.494-.968L1.828,0h-.281c-.095.068-.184.084-.283.163-.238.19-.949.89-1.124,1.126-.065.087-.073.181-.14.259v.328l1.62,4.684c.162.225.342.297.612.325.558.058,1.321-.233,1.881-.151l3.296,3.648c.046.04.052.063.023.118-.083.16-.525.383-.583.593-.43,1.557.669,1.304,1.021,1.7l-2.059,1.436c-2.451-.424-5.184.158-5.6,3.444-.042.335-.138.656-.211.984v.891c.081.323.127.653.222.973.411,1.391,1.519,2.605,2.873,3.128,3.661,1.413,8.701-2.001,6.145-6.031l2.76-1.415,5.549,7.293c.6.415,2.41.609,3.102.366.607-.213,2.217-1.865,2.695-2.415.736-.846.893-1.821.254-2.787ZM15.602,6.391c.23-.389-.01-.811-.039-1.213-.156-2.184.595-4.653,3.984-3.725-.292.534-1.456,1.275-1.573,1.825-.071.333-.066,1.773-.022,2.137.04.331.302.592.633.633.364.044,1.803.049,2.137-.022.152-.032.3-.142.42-.237.473-.375.877-.97,1.383-1.336.014-.006.07.11.07.117,0,.224.02.487,0,.703.865,2.487-1.899,3.271-3.728,3.166-.408-.023-.836-.26-1.226-.058l-2.625,2.581c-.488-.127-.937-.602-1.128-1.059-.179-.425-.163-.917-.425-1.311l2.142-2.201ZM4.591,5.605c-.266-.274-1.719.514-1.857.347L.849,1.606l1.04-.683,3.952,1.754c.103.436-.349,1.223-.302,1.703.02.072.028.155.065.21l4.293,3.423c.022.058-.01.09-.039.133-.054.081-1.697,1.663-1.777,1.716-.031.02-.054.048-.096.046l-3.396-4.304ZM8.06,17.355c-.177.563.418,1.355.372,1.975-.239,3.213-3.921,5.292-6.382,2.032-1.816-2.406.687-6.871,3.13-5.798.369.162.824.269,1.213.039l2.17-2.142c.367.219.779.232,1.167.366.552.19,1.031.599,1.24,1.151l-2.908,2.377ZM22.51,20.236c-.037.072-.339.447-.374.416l-6.813-5.689c-.754-.644-1.533-.221-.862.506l6.378,6.375c.031.035.019.057,0,.093-.023.044-.514.522-.572.556-.255.149-1.302.389-1.539.217l-6.002-7.006c-.235-.309-.256-.78-.396-1.151-.35-.926-1.154-1.709-2.085-2.04-.279-.099-.713-.139-.949-.269-.079-.044-1.212-.747-1.243-.807-.095-.186,3.143-2.469,3.397-2.825.09-.016.799.651.855.81.147.417.173.823.39,1.25.634,1.247,1.735,1.645,2.985,2.031l6.814,6.827c.127.23.138.47.016.705Z"/><path class="cls-4" d="M15.68,12.703c-1.249-.386-2.35-.784-2.985-2.031-.218-.428-.244-.833-.39-1.25-.056-.159-.765-.826-.855-.81-.254.356-3.492,2.638-3.397,2.825.031.061,1.164.764,1.243.807.236.13.67.17.949.269.931.331,1.735,1.114,2.085,2.04.14.37.161.842.396,1.151l6.002,7.006c.238.172,1.285-.068,1.539-.217.058-.034.55-.512.572-.556.019-.036.031-.058,0-.093l-6.378-6.375c-.671-.727.108-1.15.862-.506l6.813,5.689c.035.031.337-.344.374-.416.122-.235.11-.475-.016-.705l-6.814-6.827Z"/><path class="cls-5" d="M9.728,13.827c-.388-.134-.799-.147-1.167-.366l-2.17,2.142c-.389.23-.844.123-1.213-.039-2.443-1.073-4.946,3.392-3.13,5.798,2.461,3.26,6.143,1.181,6.382-2.032.046-.62-.548-1.412-.372-1.975l2.908-2.377c-.209-.552-.687-.961-1.24-1.151ZM5.439,21.119c-2.736-.177-3.514-3.218-1.357-3.982.19-.072.397-.131.643-.154,3.27-.382,3.246,4.3.714,4.136Z"/><path class="cls-5" d="M15.014,10.963l2.625-2.581c.39-.202.818.035,1.226.058,1.83.105,4.594-.678,3.728-3.166-.072-.205,0-.479,0-.703,0-.007-.057-.123-.07-.117-.505.366-.91.961-1.383,1.336-.119.095-.268.204-.42.237-.333.071-1.773.066-2.137.022-.331-.04-.592-.302-.633-.633-.044-.364-.049-1.803.022-2.137.117-.55,1.281-1.291,1.573-1.825-3.389-.928-4.14,1.542-3.984,3.725.029.402.269.824.039,1.213l-2.142,2.201c.262.394.246.885.425,1.311.192.457.641.932,1.128,1.059Z"/><path class="cls-3" d="M8.082,9.863c.08-.053,1.722-1.635,1.777-1.716.029-.044.061-.075.039-.133l-4.293-3.423c-.04-.059-.058-.132-.065-.21-.047-.48.405-1.267.302-1.703L1.89.923l-1.04.683,1.884,4.346c.138.166,1.591-.622,1.857-.347l3.396,4.304c.041.003.065-.025.096-.046Z"/><path class="cls-2" d="M4.725,16.983c-.241.028-.449.085-.643.154-2.157.765-1.379,3.806,1.357,3.982,2.532.164,2.555-4.518-.714-4.136ZM5.308,18.155c2.228.887-.216,2.063-.879,1.44-.664-.624-.002-1.791.879-1.44Z"/></svg>