<?xml version="1.0" encoding="UTF-8"?><svg id="Layer_1" xmlns="http://www.w3.org/2000/svg" viewBox="0 0 24.012 21.771"><defs><style>.cls-1{fill:none;}.cls-2{fill:#a5a5a5;}.cls-3{fill:#a8e2bb;}</style></defs><path class="cls-1" d="M19.485,7.337c.018-.037.035-.07.044-.109-.014.038-.028.075-.044.109Z"/><path class="cls-1" d="M4.887,4.383c.067,0,.131.004.183.016-.063-.014-.124-.019-.183-.016Z"/><path class="cls-3" d="M14.193,8.808c.045.359.15.708.229,1.059,1.033-1.13,2.446-2.965,3.809-3.682.276-.145.751-.428,1.055-.399.382.036.43.922.243,1.442-.009.039-.026.072-.044.109-.043.088-.091.164-.15.21-.323.248-1.021.522-1.426.774-.945.589-2.186,1.03-2.878,1.904-.095.12-.242.237-.145.376.106.152.878.905,1.068.987,1.8.776,4.279.51,5.435-1.192,1.346-1.981,1.375-4.824,1.507-7.132-1.534.011-3.131.106-4.627.454-2.752.639-4.457,2.03-4.076,5.089Z"/><path class="cls-3" d="M8.967,3.218c-.698-.808-2.095-1.363-3.114-1.615-1.54-.381-3.194-.475-4.776-.492.134,2.373.183,5.787,1.896,7.633,1.257,1.354,4.177.968,5.723.14-.543-1.063-1.715-1.673-2.633-2.434-.349-.289-2.332-1.016-2.5-1.312-.221-.389.763-.76,1.325-.755.059-.003.12.001.183.016.116.027,1.078.731,1.247.86,1.16.892,2.085,1.93,2.884,3.156.852-1.416.875-3.913-.234-5.197Z"/><path class="cls-2" d="M23.976,3.852c.011-.464.125-1.14-.481-1.212-.482-.057-1.32-.019-1.827.002-2.702.109-7.641.894-8.856,3.698-.7,1.614.131,2.941.851,4.526-.687,1.041-1.259,2.152-1.677,3.331l-.682,2.093c-.333-2.058-.609-4.897-1.516-6.776,1.235-1.617,1.825-2.914,1.02-4.771C9.587,1.93,4.937.138,2.226.032c-.433-.017-1.447-.065-1.826.004-.216.04-.315.247-.4.419v1.451l.049.113c.07,2.892-.467,7.469,2.681,8.621,1.585.58,4.727-.236,6.197-1.064,1.151,2.367,1.629,5.74,1.842,8.367.084,1.034-1.55,2.262-1.433,3.23.037.303.151.557.485.592.861.089,2.135-1.122,2.166-1.668.087-1.535.306-3.088.725-4.566.371-1.307.929-2.532,1.616-3.699.066-.046.262.202.331.253,1.511,1.129,5.439,1.155,7.124.358,2.858-1.351,2.124-5.801,2.193-8.593ZM6.317,5.259c-.168-.129-1.131-.834-1.247-.86-.052-.012-.117-.015-.183-.016-.562-.005-1.546.366-1.325.755.168.296,2.151,1.023,2.5,1.312.918.761,2.09,1.371,2.633,2.434-1.546.828-4.466,1.214-5.723-.14C1.259,6.898,1.211,3.484,1.077,1.111c1.583.017,3.236.111,4.776.492,1.019.252,2.416.807,3.114,1.615,1.109,1.284,1.086,3.781.234,5.197-.799-1.226-1.724-2.264-2.884-3.156ZM21.389,10.397c-1.156,1.702-3.635,1.968-5.435,1.192-.19-.082-.963-.835-1.068-.987-.096-.139.05-.256.145-.376.691-.875,1.933-1.316,2.878-1.904.405-.253,1.103-.526,1.426-.774.059-.045.107-.122.15-.21.016-.034.03-.071.044-.109.187-.52.139-1.406-.243-1.442-.304-.029-.779.254-1.055.399-1.363.717-2.776,2.552-3.809,3.682-.079-.351-.184-.7-.229-1.059-.38-3.059,1.324-4.451,4.076-5.089,1.496-.347,3.093-.442,4.627-.454-.132,2.308-.161,5.151-1.507,7.132Z"/></svg>