<?xml version="1.0" encoding="UTF-8"?><svg id="Layer_1_copy" xmlns="http://www.w3.org/2000/svg" viewBox="0 0 23.981 22.258"><defs><style>.cls-1{fill:#a5a5a5;}</style></defs><path class="cls-1" d="M.542,4.315l17.709.504,1.195-4.532,4.535.32v1.051l-3.8.506-4.53,15.023c1.89.479,3.356,2.887,1.95,4.28-1.931,1.913-5.141-.219-4.124-2.729l-.049-.093-6.034.026c1.616,2.277-.698,4.315-2.778,3.338-1.438-.676-2.074-4.13.635-4.329l9.589-.543.72-2.676-12.364.522L.542,4.406v-.092ZM16.931,8.892l.732-3.067h-3.312l.481,2.753,2.098.314ZM10.842,8.892h2.22s-.16-3.067-.16-3.067h.526s-2.587,0-2.587,0v3.067ZM7.042,8.892h2.22s.069-.069.069-.069l.452-2.999h-.521s-2.587,0-2.587,0l.366,3.067ZM3.243,8.892h2.243s0-3.23,0-3.23l-3.221-.211.978,3.441ZM14.093,13.425h1.671s.801-3.021.801-3.021l-2.472-.279v3.3ZM10.311,13.425h2.225l.366-3.021h-1.748l-.843,3.021ZM7.592,13.425h1.74s0-2.953,0-2.953l-.069-.069h-2.587l.916,3.021ZM4.092,13.602l1.989-.178-.366-3.021h-2.06s.437,3.199.437,3.199ZM15.329,20.945c1.335.062,1.838-2.245.519-2.285-1.28-.039-1.829,2.224-.519,2.285ZM6.235,20.664c1.144-.108.631-1.994-.681-1.995-1.343,0-.765,2.131.681,1.995Z"/></svg>