<?xml version="1.0" encoding="UTF-8"?><svg id="Layer_1" xmlns="http://www.w3.org/2000/svg" viewBox="0 0 24.05 23.217"><defs><style>.cls-1{fill:#a5a5a5;}</style></defs><path class="cls-1" d="M0,2.132c.147-.296.271-.481.589-.564l3.634-.003-.378-.994c0-.023.173-.351.21-.388.26-.265,1.069-.229,1.34.018.052.047.236.375.236.41v.953s3.531.128,3.531.128l-.085-1.092c0-.023.173-.351.21-.388.26-.265.984-.262,1.255-.015.052.047.194.484.194.519l-.04,1.054,3.429-.205s-.18-.779-.119-1.041.215-.371.344-.425c.343-.143.584.052.947.102.135.019.466.233.459.515s-.223.849-.223.849l3.681.003c.35.098.556.344.592.742.155,1.729-.707,3.657-.635,5.44.14,3.459,1.949,7.191,4.098,9.78.379.457,1.111,1.574.61,2.297-.052.075-.336.291-.392.291h-3.684s0,2.5,0,2.5c0,.215-.45.64-.678.595H.632c-.337-.06-.484-.263-.632-.569V2.132ZM15.309,4.039c0,.023-.124.364-.16.401-.26.265-.339.199-.61-.048-.052-.047-.236-.375-.236-.41l-.177-.87h-3.52s-.207.847-.207.847c0,.023-.124.428-.16.465-.26.265-.323.183-.594-.064-.052-.047-.236-.375-.236-.41l-.21-.838h-3.567s-.191.943-.191.943c0,.023-.124.38-.16.417-.26.265-.342.379-.612.132-.052-.047-.222-.514-.222-.549l-.222-.943H1.848l-.44,3.696,16.988-.603.238-3.438-3.101.346-.225.927ZM5.737,19.287l15.944-.714-1.198-2.06c-1.334-2.686-1.962-5.708-2.087-8.763H1.408c.168,3.925,1.822,8.665,4.329,11.537ZM18.925,22.337l-.529-2.218H4.763c-.527,0-2.402-2.941-2.66-3.573l-.835-3.761.139,8.88,17.518.672Z"/></svg>