<?xml version="1.0" encoding="UTF-8"?><svg id="Layer_1" xmlns="http://www.w3.org/2000/svg" viewBox="0 0 20.8 23.739"><defs><style>.cls-1{fill:none;}.cls-2{fill:#f7e98e;}.cls-3{fill:#98e1ea;}.cls-4{fill:#4c4c4c;}</style></defs><path class="cls-1" d="M10.436,13.965c-.204-.034-.347-.098-.462-.172.104.115.255.191.462.172Z"/><path class="cls-1" d="M10.205,4.947c.521.056.955.15,1.34.266-.44-.183-.901-.287-1.34-.266Z"/><path class="cls-1" d="M10.558.999c.099-.01,4.991,3.359,9.02,3.574-4.032-.24-8.921-3.584-9.02-3.574Z"/><path class="cls-4" d="M20.707,4.031c.011-.246-.289-.864-.522-.919-.4-.096-1.139.329-1.616.287-2.888-.255-5.185-1.562-7.423-3.373-.124-.07-.74.025-.88.048-.233.039-.935.652-1.195.827-2.042,1.375-4.426,2.282-6.897,2.498-.512.045-.94-.28-1.413-.213-.215.031-.612.446-.693.644.024,2.354-.138,4.808-.033,7.158.238,5.337,3.59,10.123,8.505,12.163.376.156,1.5.598,1.853.589.246-.006.867-.238,1.13-.329,4.082-1.414,7.461-5.316,8.712-9.441,1.014-3.342.323-6.487.472-9.937ZM11.11,22.861c-.701.242-1.65.066-2.37-.165-3.846-1.235-6.001-4.945-7.091-8.812-.844-2.993-.738-6.263-.872-9.342,3.315-.053,7.153-1.558,9.782-3.543.099-.01,4.988,3.334,9.02,3.574l.002,6.414c-.231,5.038-3.698,10.226-8.471,11.874Z"/><path class="cls-3" d="M10.558.999c-2.629,1.985-6.467,3.49-9.782,3.543.134,3.079.028,6.348.872,9.342,1.09,3.866,3.246,7.577,7.091,8.812.72.231,1.669.407,2.37.165,4.772-1.649,8.24-6.836,8.471-11.874l-.002-6.414c-4.029-.215-8.921-3.584-9.02-3.574ZM5.66,10.538c.021-.219.597-.704.836-.704h1.248l-.567-2.043c0-1.463.611-3.106,3.027-2.844.439-.021.9.083,1.34.266,1.468.442,2.021,1.306,2.021,2.578l-.634,2.043h1.315c.163,0,.889.557.858.748-.116,1.823-.257,3.63-.41,5.43-.034.4-.25.56-.634.587-2.404.168-5.001-.131-7.425,0-.323.002-.589-.263-.587-.587.129-1.798-.554-3.704-.388-5.475Z"/><path class="cls-4" d="M6.048,16.013c-.002.324.265.589.587.587,2.424-.131,5.021.168,7.425,0,.384-.027.6-.187.634-.587.153-1.8.293-3.607.41-5.43.031-.191-.694-.748-.858-.748h-1.315l.634-2.043c0-1.273-.553-2.136-2.021-2.578-.385-.116-.819-.21-1.34-.266-2.416-.262-3.027,1.381-3.027,2.844l.567,2.043h-1.248c-.239,0-.816.484-.836.704-.166,1.771.517,3.677.388,5.475ZM10.577,6.082c.831.075,1.861.928,1.861,1.803l-.57,1.949h-3.104l-.459-1.949c0-1.055,1.278-1.893,2.273-1.803ZM7.178,15.471v-4.509h6.388v4.509l-6.388.432v-.432Z"/><path class="cls-2" d="M13.566,10.961h-6.388v4.942l6.388-.432v-4.509ZM10.266,12.85c1.026-.177.891,1.237.17,1.115-.206.02-.358-.057-.462-.172-.471-.303-.251-.849.292-.943Z"/><path class="cls-3" d="M8.305,7.885l.459,1.949h3.104l.57-1.949c0-.875-1.03-1.727-1.861-1.803-.994-.09-2.273.747-2.273,1.803Z"/><path class="cls-4" d="M9.974,13.793c.115.074.258.138.462.172.721.122.855-1.292-.17-1.115-.542.094-.763.64-.292.943Z"/></svg>