<?xml version="1.0" encoding="UTF-8"?><svg id="Layer_1" xmlns="http://www.w3.org/2000/svg" viewBox="0 0 24 24.286"><defs><style>.cls-1{fill:none;}.cls-2{fill:#f4b7ae;}.cls-3{fill:#fff;}.cls-4{fill:#4c4c4c;}</style></defs><path class="cls-1" d="M13.937,12.846c.129-.205.107-.293.013-.322.078.054.097.148-.013.322Z"/><path class="cls-1" d="M9.84,11.74c-.062-.025-.09-.063-.124-.098.018.035.053.07.124.098Z"/><path class="cls-1" d="M13.986,11.449c-.018.085-.053.17-.113.246.068-.086.101-.169.113-.246Z"/><path class="cls-1" d="M13.86,10.459c-.029.016-.049.04-.088.047.047-.009.072-.027.088-.047Z"/><path class="cls-1" d="M15.764,8.632c.985.22,1.743.902,2.171,1.745-.398-.849-1.091-1.533-1.941-1.745-.273-.068-.902-.183-1.129,0,.286.025.624-.061.898,0Z"/><path class="cls-1" d="M12.484,12.884c-.036.03-.063.059-.121.09.058-.031.094-.06.121-.09Z"/><path class="cls-1" d="M11.453,15.106c-.027-.049-.05-.09-.063-.106.015.018.039.064.063.106Z"/><path class="cls-1" d="M9.705,12.879c-.017-.021-.034-.042-.047-.069.012.027.027.047.047.069Z"/><path class="cls-1" d="M9.393,8.078c1.322-1.011,2.564-1.293,3.995-.492l4.125-3.036c-.954-.617-2.345-1.159-3.453-1.44C7.783,1.517,1.962,6.836,2.876,13.338c.207,1.474,1.034,3.106,1.826,4.337l1.562-2.62c-4.029-2.277-1.361-8.141,3.13-6.977Z"/><path class="cls-1" d="M15.192,20.887c5.251-1.478,7.092-7.528,4.864-12.617-.256-.584-.61-1.582-.917-1.66-.307-.077-1.892,1.85-1.892,1.85,2.647,1.737,2.376,5.36-.519,6.697-.154.071-.771.327-.864.395-.158.114-.107.754-.269.95-.553.667-.953-1.006-1.271-1.326l-.849.03c-.165.105-.608.159-.731.25-.276.205-.468,1.674-1,.885-.161-.24-.491-.907-.636-1.015-.038-.028-.355-.075-.599.313l-4.284,3.727c2.283,1.598,6.274,2.279,8.968,1.521Z"/><path class="cls-4" d="M11.181.012C.882.49-2.959,11.363,2.441,19.009c4.928,6.977,15.66,7.17,19.955-.227C27.209,10.495,20.523-.421,11.181.012ZM21.248,17.953c-4.446,7.229-14.853,7.058-19.067-.308C-1.982,10.369,2.954,1.178,11.164.703c8.938-.517,14.859,9.485,10.084,17.25Z"/><path class="cls-2" d="M11.164.703C2.954,1.178-1.982,10.369,2.181,17.645c4.214,7.366,14.621,7.537,19.067.308C26.024,10.188,20.102.186,11.164.703ZM15.91,21.367c-3.015,1.334-6.981.671-9.656-1.297-.283-.208-.837-.502-.519-.904l2.425-2.474-.939-1.429-2.368,3.088c-.441.311-1.07-.808-1.275-1.138-1.888-3.041-1.954-6.909-.231-10.045C6.031,2.282,12.297.63,16.979,3.648c.328.211,1.268.715.897,1.161l-3.06,3.133h.996c.19,0,.653.24.799.174l2.107-2.392c.44-.312,1.11.707,1.315,1.037,3.156,5.103,1.264,12.22-4.124,14.605Z"/><path class="cls-4" d="M20.034,6.762c-.204-.33-.875-1.349-1.315-1.037l-2.107,2.392c-.147.066-.61-.174-.799-.174h-.996l3.06-3.133c.371-.445-.57-.949-.897-1.161C12.297.63,6.031,2.282,3.346,7.168c-1.723,3.135-1.657,7.003.231,10.045.205.33.834,1.45,1.275,1.138l2.368-3.088.939,1.429-2.425,2.474c-.318.402.236.695.519.904,2.675,1.968,6.641,2.631,9.656,1.297,5.388-2.385,7.28-9.503,4.124-14.605ZM15.995,8.632c.85.212,1.543.896,1.941,1.745.713,1.405.509,3.261-1.095,4.184-.301.173-.937.298-1.098.414-.157.114-.386,1.03-.551,1.177-.249,0-.253-1.06-.341-1.141-.126-.116-.452-.143-.617-.213.438-.422.825-.803,1.125-1.348.88-1.599.626-3.425-.494-4.819.227-.183.856-.068,1.129,0ZM13.067,14.626c-.216.09-.552.127-.726.25-.201.142-.068.995-.256,1.089-.159.079-.486-.588-.634-.859-.023-.042-.048-.087-.063-.106-.21-.258-.551-.251-.846-.374-3.389-1.416-2.513-6.487,1.106-6.67,3.752-.189,4.984,5.179,1.417,6.67ZM4.702,17.675c-.793-1.231-1.619-2.864-1.826-4.337C1.962,6.836,7.783,1.517,14.06,3.11c1.108.281,2.499.823,3.453,1.44l-4.125,3.036c-1.431-.801-2.672-.519-3.995.492-4.49-1.164-7.159,4.7-3.13,6.977l-1.562,2.62ZM7.884,14.996c-.135-.104-.558-.175-.754-.257-2.136-.888-2.613-3.842-.836-5.365.303-.26,1.169-.742,1.553-.742h.898c-1.146,1.409-1.651,3.122-.718,4.721.29.497.951,1.049,1.349,1.446-.164.07-.49.097-.617.213-.088.081-.286,1.141-.344,1.141-.164-.147-.379-1.04-.533-1.157ZM6.224,19.366l4.284-3.727c.244-.388.562-.341.599-.313.144.107.474.775.636,1.015.531.789.724-.68,1-.885.123-.091.565-.145.731-.25l.849-.03c.318.32.719,1.993,1.271,1.326.163-.197.111-.836.269-.95.094-.068.71-.323.864-.395,2.894-1.337,3.165-4.96.519-6.697,0,0,1.586-1.927,1.892-1.85.306.077.661,1.076.917,1.66,2.228,5.09.388,11.14-4.864,12.617-2.694.758-6.685.077-8.968-1.521Z"/><path class="cls-3" d="M11.65,7.956c-3.619.182-4.495,5.253-1.106,6.67.295.123.636.116.846.374.013.016.036.056.063.106.148.271.475.938.634.859.188-.094.055-.947.256-1.089.173-.122.51-.159.726-.25,3.567-1.491,2.334-6.859-1.417-6.67ZM10.021,9.559c.349-.064,1.232-.215,1,.339-.083.198-1.025.391-1.182.315-.258-.125-.179-.589.182-.654ZM12.484,12.884c-.027.029-.064.059-.121.09h-2.523c-.055-.011-.098-.048-.134-.094-.019-.022-.034-.041-.047-.069-.113-.235-.056-.643.257-.7.366-.066,1.916.37,2.297.424.361.052.465.189.271.349ZM13.937,12.846c-.108.171-.854.174-1.014.103-.279-.125-.17-.342.2-.41.215-.039.663-.128.826-.014.094.029.117.117-.013.322ZM13.873,11.695l-4.034.045c-.071-.029-.106-.063-.124-.098-.16-.17-.033-.422.27-.46,1.147.074,2.496-.45,3.618-.322.293.033.439.316.382.59-.011.077-.044.159-.113.246ZM13.86,10.459c-.016.021-.042.038-.088.047l-2.329-.193c-.227-.266-.419-.707-.07-.77.366-.067,1.848.422,2.231.477.415.059.453.328.256.439Z"/><path class="cls-3" d="M8.76,15.012c.126-.116.452-.143.617-.213-.399-.397-1.059-.949-1.349-1.446-.933-1.598-.428-3.312.718-4.721h-.898c-.383,0-1.25.482-1.553.742-1.777,1.522-1.3,4.477.836,5.365.196.081.619.153.754.257.154.117.368,1.011.533,1.157.058,0,.255-1.06.344-1.141Z"/><path class="cls-3" d="M15.359,13.451c-.3.545-.687.926-1.125,1.348.164.07.49.097.617.213.088.081.092,1.141.341,1.141.165-.147.395-1.064.551-1.177.161-.117.797-.241,1.098-.414,1.604-.923,1.808-2.778,1.095-4.184-.428-.844-1.187-1.525-2.171-1.745-.275-.061-.612.025-.898,0,1.12,1.394,1.374,3.22.494,4.819Z"/><path class="cls-4" d="M13.604,10.859c-1.122-.128-2.471.396-3.618.322-.304.038-.43.29-.27.46.034.036.062.073.124.098l4.034-.045c.06-.076.095-.161.113-.246.058-.274-.088-.557-.382-.59Z"/><path class="cls-4" d="M13.604,10.019c-.383-.054-1.865-.544-2.231-.477-.349.064-.156.505.07.77l2.329.193c.04-.008.059-.031.088-.047.197-.111.159-.38-.256-.439Z"/><path class="cls-4" d="M9.916,12.11c-.313.057-.37.465-.257.7.013.027.03.047.047.069.037.046.08.084.134.094h2.523c.058-.031.086-.06.121-.09.194-.16.09-.297-.271-.349-.381-.055-1.931-.491-2.297-.424Z"/><path class="cls-4" d="M11.021,9.898c.232-.554-.651-.403-1-.339-.36.066-.44.53-.182.654.157.076,1.099-.117,1.182-.315Z"/><path class="cls-4" d="M13.95,12.524c-.164-.113-.612-.025-.826.014-.37.068-.479.285-.2.41.159.071.906.068,1.014-.103.11-.174.09-.268.013-.322Z"/></svg>