<?xml version="1.0" encoding="UTF-8"?><svg id="Layer_1" xmlns="http://www.w3.org/2000/svg" viewBox="0 0 24.006 23.544"><defs><style>.cls-1{fill:none;}.cls-2{fill:#f2d3d1;}.cls-3{fill:#f4b7ae;}.cls-4{fill:#e2e2e2;}.cls-5{fill:#a5a5a5;}.cls-6{fill:#f9c075;}.cls-7{fill:#f7e98e;}.cls-8{fill:#c8bfef;}.cls-9{fill:#fff;}.cls-10{fill:#98e1ea;}.cls-11{fill:#a8e2bb;}.cls-12{fill:#cae9ef;}</style></defs><path class="cls-1" d="M8.689,7.336c-.236-.229-.574-.358-1.007-.29.416-.054.756.072,1.007.29Z"/><path class="cls-1" d="M7.597,16.125c.476.088.839-.031,1.087-.255-.271.219-.636.339-1.087.255Z"/><path class="cls-1" d="M2.856,7.359c.173-.146.387-.261.653-.314-.282.044-.493.161-.653.314Z"/><path class="cls-1" d="M4.226,9.408c-.233.078-.439.111-.628.119.19.011.4-.022.628-.119Z"/><path class="cls-1" d="M16.319,3.343c-.271.005-.549,0-.746-.011.221.018.496.025.746.011Z"/><polygon class="cls-1" points="7.459 2.478 7.676 2.478 7.459 1.456 7.459 2.478"/><path class="cls-1" d="M16.619,1.059c-.021-.099-.066-.151-.144-.173.03.015.108.076.144.173Z"/><path class="cls-1" d="M6.667,8.813c.25.402.715.711,1.283.71-.572-.021-1.029-.323-1.283-.71Z"/><path class="cls-1" d="M19.816,14.636c.038-.121.042-.243-.012-.345.029.122.034.241.012.345Z"/><path class="cls-1" d="M11.576,19.231c-.411-.725-.657-1.492-.754-2.263.097.769.342,1.536.754,2.263Z"/><path class="cls-1" d="M12.427,16.146h.005c0-.02.001-.038,0-.057,0,.019-.006.038-.006.057Z"/><path class="cls-5" d="M23.963,15.555c-.154-2.529-1.831-4.769-4.084-5.828V2.502c-.118-1.437-.617-1.528-2.476-1.299.798-1.637-2.751-1.576-2.517.008l-1.661-.002c.204-1.949-2.585-1.047-2.57.172l-1.554-.173c-.107-1.63-2.933-1.582-2.491-.006l-1.442.138c.512-1.585-2.55-1.766-2.677-.132C1.483,1.194.088.658.01,2.319L.003,19.835c-.026.125.14.444.26.444h1.383l-.283,1.142c0,.236.596.569.82.551l11.036.297c4.486,3.042,10.341.424,10.787-5.559v-1.08l-.043-.075ZM15.776,1.043c.136-.221.48-.262.698-.159,0,0,0,0,.001,0,.077.022.123.074.144.173.016.044.026.093.014.151-.007.038-.023.118-.041.213-.046.241-.115.602-.16.835l-.017.089c-.015.077-.025.131-.025.131l-.604.133-.078-1.377c0-.079.026-.141.067-.191ZM11.673.989c.169-.214.544-.408.734-.3.061.035.208.248.208.308l-.187,1.482-.632.194-.212-1.486c0-.075.037-.14.089-.197ZM7.547.717c.208-.098.535.081.68.304.045.061.075.132.075.213v1.174l-.07.07h-.773v-1.022l-.11-.516c0-.015.155-.203.198-.224ZM3.333,1.093v-.229c0-.333,1.058-.06,1.058.273l-.299,1.535-.759-.194v-1.386ZM.849,2.314c0-.013.158-.166.19-.186.285-.18,1.089-.016,1.451-.073l.213,1.058c0,.024.227.099.268.127.105.07.332.091.462.101.304.022.695.041.888-.122.025-.021.142-.22.142-.234l.512-.929h1.641l.225.617c0,.266.147.635.36.653.057.005.127.008.196.01.038.001.079.003.122.004.291.004.618-.02.786-.121.048-.029.352-.096.352-.134l.445-1.029c.482.043,1.056-.058,1.526-.002.068.008.121.006.162.073l.349.887c0,.013.157.166.191.184.206.11,1.114.155,1.405.125.24-.024.54-.161.54-.446v-.822l1.768-.163.143,1.02c0,.173.085.389.227.406.045.005.108.009.163.013.197.012.475.016.746.011.154-.009.297-.023.393-.052.146-.045.307-.193.307-.349l.377-.886c.365.055,1.195-.112,1.478.093.038.028.163.184.163.212v2.184L.849,4.19v-1.876ZM1.175,19.161l-.326-13.366,17.836-.405.353,4.039c-3.435-1.105-7.716.337-9.094,3.633-.831,1.988-.14,4.5.797,6.418l-9.565-.32ZM2.301,21.391l.188-1.112h8.789l.68.845-9.657.266ZM22.47,19.481c-2.277,4.287-8.501,3.967-10.894-.25-.412-.726-.657-1.493-.754-2.263-.423-3.34,1.928-6.738,5.534-7.008.322-.028.636-.03.944-.012,5.12.205,7.385,5.363,5.17,9.532Z"/><path class="cls-9" d="M9.943,13.063c1.378-3.297,5.659-4.738,9.094-3.633l-.353-4.039L.849,5.795l.326,13.366,9.565.32c-.937-1.918-1.628-4.43-.797-6.418ZM11.806,7.046c.109-.017.211-.019.307-.011,1.777.051,1.573,2.666.053,2.485-.176-.017-.338-.066-.484-.138-1.155-.505-1.273-2.163.124-2.336ZM7.682,7.047c.433-.068.771.061,1.007.29.776.674.689,2.24-.739,2.187-.568,0-1.033-.309-1.283-.71-.441-.672-.266-1.6,1.015-1.767ZM2.856,7.359c.159-.153.371-.269.653-.314,1.786-.357,2.088,1.901.717,2.362-.229.097-.438.131-.628.119-1.342.059-1.578-1.464-.742-2.168ZM4.739,10.862c1.239.916-.881,2.685-1.905,1.604-1.219-1.287-.006-3.015,1.905-1.604ZM4.388,16.003c-.015.008-.034.012-.05.019-.144.063-.298.108-.466.123-1.718.146-2.65-2.634-.224-2.629,2.137.005,1.894,1.935.739,2.487ZM8.684,15.869c-.248.225-.611.343-1.087.255-1.229-.227-1.863-1.781-.296-2.331.003-.002.007-.002.011-.004.14-.048.291-.092.467-.122,1.65-.289,1.78,1.495.906,2.202ZM7.082,12.554c-1.345-1.102.065-2.383,1.672-1.84,1.57.531-.463,2.83-1.672,1.84Z"/><path class="cls-3" d="M19.037,2.361c0-.028-.125-.185-.163-.212-.283-.205-1.113-.038-1.478-.093l-.377.886c0,.156-.161.304-.307.349-.096.03-.24.044-.393.052-.25.014-.525.007-.746-.011-.056-.004-.118-.008-.163-.013-.142-.017-.227-.233-.227-.406l-.143-1.02-1.768.163v.822c0,.285-.299.421-.54.446-.291.029-1.199-.016-1.405-.125-.034-.018-.191-.171-.191-.184l-.349-.887c-.041-.067-.093-.065-.162-.073-.469-.055-1.044.046-1.526.002l-.445,1.029c0,.038-.305.105-.352.134-.168.1-.495.124-.786.121-.043-.001-.084-.002-.122-.004-.068-.003-.138-.005-.196-.01-.213-.018-.36-.387-.36-.653l-.225-.617h-1.641l-.512.929c0,.014-.117.212-.142.234-.193.164-.584.145-.888.122-.13-.01-.357-.03-.462-.101-.041-.027-.268-.103-.268-.127l-.213-1.058c-.363.056-1.166-.107-1.451.073-.031.02-.19.172-.19.186v1.876l18.188.355v-2.184Z"/><path class="cls-8" d="M17.3,9.948c-.308-.018-.623-.016-.944.012-3.606.27-5.957,3.668-5.534,7.008.098.77.343,1.538.754,2.263,2.393,4.217,8.617,4.537,10.894.25,2.215-4.169-.05-9.328-5.17-9.532ZM21.735,18.663c-1.967,2.92-6.404,3.589-8.726,1.129-.153-.162-.298-.339-.433-.531-2.5-3.562.056-8.483,4.382-8.498,4.289-.016,7.183,4.327,4.776,7.9Z"/><polygon class="cls-4" points="2.49 20.279 2.301 21.391 11.959 21.125 11.279 20.279 2.49 20.279"/><path class="cls-9" d="M7.676,2.478h.556l.07-.07v-1.174c0-.081-.03-.152-.075-.213-.145-.223-.472-.403-.68-.304-.043.02-.198.209-.198.224l.11.516.217,1.022Z"/><path class="cls-9" d="M16.391,2.478s.01-.055.025-.131l.017-.089c.045-.233.114-.594.16-.835.018-.094.034-.175.041-.213.011-.059.002-.107-.014-.151-.035-.097-.113-.159-.144-.173,0,0,0,0-.001,0-.219-.103-.562-.063-.698.159-.041.05-.067.112-.067.191l.078,1.377.604-.133Z"/><path class="cls-9" d="M12.427,2.478l.187-1.482c0-.06-.147-.273-.208-.308-.19-.108-.565.087-.734.3-.052.057-.089.122-.089.197l.212,1.486.632-.194Z"/><path class="cls-9" d="M4.392,1.138c0-.333-1.058-.607-1.058-.273v1.614l.759.194.299-1.535Z"/><path class="cls-5" d="M3.648,13.517c-2.426-.005-1.494,2.775.224,2.629.168-.014.322-.06.466-.123.016-.007.035-.012.05-.019,1.155-.552,1.397-2.482-.739-2.487ZM3.4,15.398c-.457-.306-.201-1.782.797-.91.356.311-.377,1.191-.797.91Z"/><path class="cls-5" d="M3.597,9.527c.189-.008.395-.041.628-.119,1.371-.461,1.069-2.719-.717-2.362-.265.053-.479.168-.653.314-.836.704-.6,2.227.742,2.168ZM3.601,7.889c.916-.268.672,1.054-.036.767-.539-.218-.31-.666.036-.767Z"/><path class="cls-5" d="M7.95,9.524c1.427.052,1.515-1.514.739-2.187-.251-.218-.591-.344-1.007-.29-1.281.166-1.456,1.095-1.015,1.767.254.387.711.689,1.283.71ZM8.052,7.905c.058.028.113.07.158.137.296.343-.091.834-.5.625-.051-.02-.099-.05-.143-.097-.394-.375.005-1.005.485-.664Z"/><path class="cls-5" d="M7.778,13.668c-.176.031-.327.074-.467.122-.003.002-.007.002-.011.004-1.567.55-.932,2.104.296,2.331.45.083.815-.036,1.087-.255.874-.707.744-2.491-.906-2.202ZM7.639,15.452c-.361-.114-.622-.924.297-1.03.675-.078.458,1.267-.297,1.03Z"/><path class="cls-5" d="M8.754,10.714c-1.608-.544-3.017.738-1.672,1.84,1.209.991,3.243-1.309,1.672-1.84ZM7.901,12.011c-.487.032-.781-.619-.225-.788.053-.025.115-.04.189-.041,1.02-.078.548.794.036.828Z"/><path class="cls-5" d="M4.739,10.862c-1.911-1.412-3.124.316-1.905,1.604,1.024,1.081,3.145-.688,1.905-1.604ZM4.146,11.287c.233,1.022-.568.924-.969.557-.362-.331.845-1.1.969-.557Z"/><path class="cls-5" d="M11.682,9.382c.146.072.308.121.484.138,1.521.181,1.724-2.434-.053-2.485-.097-.008-.199-.006-.307.011-1.397.173-1.279,1.831-.124,2.336ZM11.851,7.89c.078-.023.147-.028.209-.02.657-.019.495.716.1.799-.083.025-.154.026-.219.017-.587-.014-.479-.709-.09-.795Z"/><path class="cls-5" d="M16.959,10.762c-4.326.016-6.882,4.936-4.382,8.498.135.193.28.369.433.531,2.321,2.459,6.759,1.791,8.726-1.129,2.407-3.574-.487-7.916-4.776-7.9ZM20.654,16.991l.867-.264c-.325,1.992-2.436,3.773-4.421,3.975l.296-.869c0-.45-.844-.45-.844,0v.869c-1.983-.199-3.72-1.717-4.031-3.711h.773c.26,0,.448-.387.307-.637-.035-.061-.247-.209-.307-.209l-.888.248c-.001-.083.022-.165.026-.248h-.005c0-.019.006-.038.006-.057-.082-2.837,2.319-4.314,4.504-4.451l-.385.869c0,.014.116.21.142.233.24.211.702.023.702-.28v-.822c2.297.155,4.144,2.213,4.125,4.509h-.867c-.06,0-.272.148-.307.209-.141.25.022.637.307.637Z"/><path class="cls-2" d="M3.4,15.398c.42.281,1.153-.599.797-.91-.998-.872-1.254.604-.797.91Z"/><path class="cls-7" d="M3.565,8.657c.708.286.952-1.036.036-.767-.346.101-.575.549-.036.767Z"/><path class="cls-6" d="M7.71,8.667c.409.209.797-.282.5-.625-.045-.068-.1-.109-.158-.137-.481-.34-.879.29-.485.664.043.047.092.077.143.097Z"/><path class="cls-10" d="M7.935,14.422c-.918.106-.658.916-.297,1.03.755.237.971-1.108.297-1.03Z"/><path class="cls-8" d="M7.865,11.183c-.074.001-.136.016-.189.041-.556.169-.263.82.225.788.513-.034.984-.907-.036-.828Z"/><path class="cls-12" d="M4.146,11.287c-.124-.542-1.331.226-.969.557.4.366,1.202.465.969-.557Z"/><path class="cls-11" d="M11.941,8.685c.065.01.137.008.219-.017.395-.083.557-.818-.1-.799-.062-.007-.131-.003-.209.02-.389.086-.497.781.09.795Z"/><path class="cls-9" d="M20.654,16.146h.867c.019-2.296-1.828-4.354-4.125-4.509v.822c0,.303-.462.491-.702.28-.026-.023-.142-.22-.142-.233l.385-.869c-2.185.137-4.586,1.614-4.504,4.451,0,.02-.002.038,0,.057-.005.083-.028.165-.026.248l.888-.248c.06,0,.272.148.307.209.141.25-.047.637-.307.637h-.773c.311,1.994,2.049,3.512,4.031,3.711v-.869c0-.45.844-.45.844,0l-.296.869c1.985-.202,4.097-1.982,4.421-3.975l-.867.264c-.285,0-.448-.387-.307-.637.035-.061.247-.209.307-.209ZM19.816,14.636c-.014.066-.036.126-.075.172l-2.641,1.828c-.176.132-.239.383-.41.241-.078-.065-1.121-1.105-1.155-1.21-.066-.199.117-.514.344-.66.047-.041.107-.071.186-.081.503-.065.67.703.934.938.044.039.066.067.131.042.639-.49,1.095-1.54,1.738-2.014.085-.063.249-.21.338-.228.266-.055.517.287.598.628.054.102.05.224.012.345Z"/><path class="cls-5" d="M19.206,13.664c-.089.018-.252.165-.338.228-.643.474-1.099,1.524-1.738,2.014-.066.025-.088-.004-.131-.042-.264-.234-.431-1.002-.934-.938-.079.01-.139.04-.186.081-.227.146-.409.461-.344.66.035.105,1.077,1.145,1.155,1.21.171.142.234-.108.41-.241l2.641-1.828c.039-.046.061-.107.075-.172.021-.103.017-.223-.012-.345-.081-.341-.332-.683-.598-.628Z"/></svg>