<?xml version="1.0" encoding="UTF-8"?><svg id="Layer_1" xmlns="http://www.w3.org/2000/svg" viewBox="0 0 23.477 23.366"><defs><style>.cls-1{fill:none;}.cls-2{fill:#dfe9ef;}.cls-3{fill:#575b5e;}.cls-4{fill:#b0bdc6;}.cls-5{fill:#a6aeb0;}.cls-6{fill:#333;}</style></defs><path class="cls-1" d="M3.584,14.692c-.67-.788-1.197-1.57-1.596-2.341.385.846.911,1.643,1.596,2.341Z"/><path class="cls-1" d="M21.349,20.703c.025-.022.049-.044.074-.065.14-.133.281-.276.417-.394-.142.123-.313.285-.492.459Z"/><path class="cls-1" d="M10.815,16.934c-.036.007-.072.012-.108.018.036-.007.072-.011.108-.018Z"/><path class="cls-1" d="M10.085,17.044c-.068.007-.136.01-.204.015.068-.005.136-.008.204-.015Z"/><path class="cls-1" d="M14.514,14.264c2.902-2.959,3.505-8.783-.285-10.459-3.648-1.614-7.322-3.217-10.223-.258-2.903,2.959-2.902,7.757,0,10.717,2.902,2.959,7.607,2.96,10.508,0ZM2.916,8.411c.312.841.795,1.631,1.458,2.308,2.509,2.558,5.444,4.297,7.953,1.738,1.102-1.123,3.422-4.654,3.556-6.122.869,2.336-.302,5.329-2.031,7.317-2.996,3.446-7.149,1.887-9.657-.671-1.406-1.434-1.45-2.697-1.279-4.57Z"/><path class="cls-1" d="M20.379,21.734c.115-.138.254-.28.383-.422.031-.037.062-.075.095-.112-.175.183-.338.358-.487.525l.009.009Z"/><path class="cls-4" d="M15.193,15.932l.971-.762.464.473.349-.356-.443-.617-.215-.219c-.024.031-.045.062-.07.093-.212.273-.438.54-.685.792-.248.253-.509.482-.777.699l.85.867.351-.358-.796-.611Z"/><polygon class="cls-2" points="15.193 15.932 15.989 16.543 16.628 15.642 16.164 15.169 15.193 15.932"/><path class="cls-2" d="M16.25,14.543c.024-.031.046-.062.07-.093,2.72-3.534,3.697-6.825-.755-11.975C12.312-1.288,5.911-.492,2.428,3.059s-3.142,8.918.526,12.276c2.498,2.287,8.334,3.529,11.834.699.268-.217.529-.446.777-.699.248-.253.473-.519.685-.792ZM15.403,14.543c-1.231,1.256-2.873,2.067-4.588,2.391-.036.007-.072.012-.108.018-.207.037-.414.07-.623.092-.068.007-.136.01-.204.015-2.36.196-4.743-.539-6.297-2.367-.685-.698-1.21-1.495-1.596-2.341C.219,8.931,1.027,5.726,3.584,3.117,6.718-.078,11.241.121,15.403,3.292c3.716,2.831,3.134,8.055,0,11.251Z"/><path class="cls-4" d="M15.403,3.292C11.241.121,6.718-.078,3.584,3.117,1.027,5.726.219,8.931,1.988,12.351c.399.771.926,1.552,1.596,2.341,1.554,1.828,3.937,2.562,6.297,2.367.068-.006.136-.008.204-.015.208-.022.415-.055.623-.092.036-.006.072-.011.108-.018,1.714-.324,3.356-1.135,4.588-2.391,3.134-3.196,3.716-8.421,0-11.251ZM4.006,3.547c2.901-2.959,6.575-1.356,10.223.258,3.79,1.676,3.187,7.5.285,10.459-2.902,2.96-7.606,2.959-10.508,0-2.902-2.96-2.903-7.757,0-10.717Z"/><path class="cls-5" d="M13.852,13.653c1.729-1.989,2.9-4.982,2.031-7.317-.134,1.468-2.455,4.999-3.556,6.122-2.509,2.559-5.444.82-7.953-1.738-.663-.677-1.146-1.467-1.458-2.308-.171,1.874-.128,3.136,1.279,4.57,2.509,2.558,6.662,4.117,9.657.671Z"/><path class="cls-6" d="M20.37,21.725c-.101.113-.203.227-.281.32l-4.458-5.137-.773.762,5,4.769c.129-.208.308-.449.521-.705l-.009-.009Z"/><path class="cls-6" d="M22.531,19.713l-5.101-5.202-.451.775,4.862,4.957c.25-.217.486-.4.69-.531Z"/><path class="cls-3" d="M20.37,21.725c.15-.167.312-.342.487-.525.153-.174.321-.343.492-.497.179-.175.35-.336.492-.459l-4.862-4.957h0s0,0,0,0l-.349.356-.639.901-.351.358-.122-.124.114.131,4.458,5.137c.078-.093.18-.208.281-.32Z"/><path class="cls-4" d="M20.529,22.746l-.271-.276c-.177-.181.092-.668.503-1.158-.13.142-.268.284-.383.422-.213.256-.392.496-.521.705-.182.294-.156.37-.065.463l.162.429c.217.221,1.032-.665,1.885-1.528-.567.569-1.096,1.163-1.311.943Z"/><path class="cls-4" d="M23.444,20.17l-.309-.633c-.091-.093-.315-.009-.604.176-.204.131-.44.314-.69.531-.137.119-.277.261-.417.394.481-.42.961-.696,1.138-.516l.271.276c.215.219-.357.748-.914,1.327.846-.87,1.743-1.334,1.527-1.555Z"/><path class="cls-2" d="M22.832,20.398l-.271-.276c-.177-.181-.657.095-1.138.516-.025.022-.049.043-.074.065-.17.154-.339.323-.492.497-.033.037-.064.075-.095.112-.411.489-.68.977-.503,1.158l.271.276c.215.22.744-.374,1.311-.943.026-.026.051-.052.076-.078.557-.578,1.13-1.107.914-1.327Z"/></svg>