<?xml version="1.0" encoding="UTF-8"?><svg id="Layer_1" xmlns="http://www.w3.org/2000/svg" viewBox="0 0 20.928 23.927"><defs><style>.cls-1{fill:none;}.cls-2{fill:#f4b7ae;}.cls-3{fill:#98e1ea;}.cls-4{fill:#4c4c4c;}</style></defs><path class="cls-1" d="M11.069,22.274c-.141.049-.245.093-.346.135.101-.042.218-.059.346-.135Z"/><path class="cls-3" d="M10.723,22.409c.101-.042.205-.086.346-.135,4.46-2.651,7.869-6.368,8.102-11.46l1.133-6.2c-5.92-.573-9.742-3.298-9.842-3.288.095-.01.222,18.291.262,21.083Z"/><path class="cls-2" d="M1.177,4.557c.135,3.112-.364,6.385.488,9.41.135.48.305.951.501,1.411.004.011.008.021.012.032,1.409,3.265,4.292,5.939,7.649,7.153.333.12.488.017.894-.153-.039-2.792-.166-21.092-.262-21.083-2.657,2.007-5.933,3.177-9.284,3.231Z"/><path class="cls-4" d="M20.161,2.971c-.404-.097-1.253-.026-1.736-.068-2.918-.258-5.402-.997-7.664-2.827-.125-.071-.245-.09-.387-.066-.236.039-.945.659-1.207.836-2.063,1.39-3.773,2.048-6.27,2.265-.518.045-2.096-.583-2.574-.515-.217.031-.173,1.009-.254,1.21.024,2.379-.139,4.859-.034,7.234.24,5.394,3.253,10.231,8.221,12.292.38.158,1.516.604,1.872.596.248-.006.907-.178,1.142-.333,3.984-2.626,7.167-5.134,8.432-9.304,1.024-3.377,1.075-6.794,1.225-10.281.011-.249-.531-.981-.766-1.038ZM19.17,10.814c-.233,5.092-3.642,8.809-8.102,11.46-.128.076-.245.093-.346.135-.407.17-.561.273-.894.153-3.356-1.213-6.24-3.888-7.649-7.153-.005-.011-.008-.021-.012-.032-.197-.46-.366-.93-.501-1.411-.853-3.025-.353-6.298-.488-9.41,3.35-.053,6.627-1.224,9.284-3.231.1-.01,3.922,2.715,9.842,3.288l-1.133,6.2Z"/></svg>