<?xml version="1.0" encoding="UTF-8"?><svg id="sidebar_popout_habits" xmlns="http://www.w3.org/2000/svg" viewBox="0 0 22.603 24"><defs><style>.cls-1{fill:#fff;}</style></defs><g id="Layer_1_copy"><path class="cls-1" d="M10.335,24c-.365-.079-.731-.152-1.095-.238-2.276-.545-4.769-1.686-6.341-3.568-1.429-1.711-2.358-2.856-2.732-5.135C.001,14.05-.04,13.03.038,12c.171-2.256.805-3.459,2.025-5.274.416-.619,2.224-2.571,2.685-3.169-.747-.816-2.16-1.232-1.96-1.808s-.012.022,0,0c2.324-.288,4.943-.735,5.762-.52s-.666,5.64-1.288,5.326-.975-1.34-1.803-2.251c-8.423,7.713-1.9,17.033,4.585,18.025.709.108.234,1.049.392,1.67h-.103.002Z"/><path class="cls-1" d="M6.608,11.142c.957-.279,2.188,3.756,3.202,4.871,2.059-2.263,5.683-8.647,6.363-8.647s1.85,1.288,1.514,1.657-5.105,5.606-7.651,8.402c-1.512-1.662-4.576-4.327-4.576-5.025s.617-.677,1.147-1.257c0,0-.956.278.001-.001Z"/><path class="cls-1" d="M12.873,0c.365.079.731.152,1.095.238,2.276.545,4.2,1.768,5.772,3.651,1.429,1.711,2.322,3.722,2.697,6.001.166,1.008.207,2.028.129,3.059-.171,2.256-.797,3.45-2.017,5.265-.416.619-1.388,1.427-1.849,2.025.747.816,1.814,1.341,1.721,2.013s.012-.022,0,0c-2.273.675-4.826,1.851-5.452,1.151s.468-5.939.977-5.958.702.772,1.53,1.682c2.589.143,8.222-14.733-4.457-18.111-.789-.21-.089-.394-.247-1.015h.103-.002Z"/></g></svg>