<?xml version="1.0" encoding="UTF-8"?><svg id="sidebar_popout_ideas" xmlns="http://www.w3.org/2000/svg" viewBox="0 0 24.003 24.006"><defs><style>.cls-1{fill:#fff;}</style></defs><g id="Layer_1_copy"><path class="cls-1" d="M0,11.956v.284c.1.221.241.548.486.581.424.058,1.558-.159,1.996-.204.319-.032.557-.189.546-.541-.011-.358-.344-.212-.659-.238-.473-.04-1.406-.31-1.867-.254C.229,11.616.119,11.714,0,11.956Z"/><path class="cls-1" d="M11.915,0c-.221.1-.341.255-.374.5-.056.414.259,1.541.304,1.965.079.731.656.758.731.015.047-.46.266-1.57.211-2.023C12.753.184,12.44.119,12.198,0h-.284Z"/><path class="cls-1" d="M17.815,16.177c-.963,1.34-2.581,1.979-2.733,3.837-.102,1.249.549,3.598-1.31,3.824-.709.086-3.318.226-4.03.143-1.905-.222-.606-2.572-.713-3.873-.175-2.134-1.944-2.641-2.95-4.234-3.117-4.933.918-11.61,6.731-11.135,5.303.433,8.148,7.062,5.004,11.437ZM14.045,20.158c.066-.389.105-.77.221-1.149.559-1.833,2.232-1.573,3.107-3.085,2.537-4.384-1.211-10.484-6.185-9.822-4.569.609-7.111,6.224-4.258,9.849.454.577,1.373.773,1.841,1.297.698.781,1.106,1.523,1.137,2.578l4.136.332ZM10.023,22.754c0,.233.285.416.501.445.595.081,2.414.074,3.022.004.153-.017.283-.062.38-.187.059-.075.163-.374.163-.451v-1.695l-4.066.301v1.583Z"/><path class="cls-1" d="M23.698,11.59c-.327-.051-2.292.247-2.569.331-.514.154-.114.608.506.692.326.044,1.529.414,1.8.333.499-.15.848-1.265.264-1.356Z"/><path class="cls-1" d="M19.229,5.751l1.9-1.801c.154-.501-.624-.699-1.109-.504l-1.042,1.319c-.262.451-.172,1.326.251.985Z"/><path class="cls-1" d="M3.603,20.735c.083.048.561.013.67-.043.126-.065,1.216-1.169,1.354-1.34.156-.192.271-.322.204-.583-.09-.352-.196-.39-.5-.184-.22.149-1.719.796-1.888,1.023-.107.144-.138.213-.119.403.007.073.236.698.278.723Z"/><path class="cls-1" d="M18.923,18.391c-.373-.045-.538.149-.279.475l1.82,2.134c.511.148.775-.614.544-1.151-.525-.405-1.342-.982-1.858-1.35-.069-.049-.14-.097-.227-.108Z"/><path class="cls-1" d="M4.189,2.98c-.476-.11-.921.862-.664,1.271.085.135,1.348,1.396,1.489,1.489.504.329.706-.142.386-.627-.125-.19-.83-1.873-1.036-2.026-.059-.044-.096-.089-.176-.107Z"/><path class="cls-1" d="M8.401,12.461c.15-.161.124-.7.169-.942.27-1.47,1.669-3.019,3.142-3.29.404-.074.861.082.861-.167,0-.508-1.199-.476-1.671-.356-1.612.411-3.162,1.376-3.532,2.996-.074.323-.164.827-.107,1.147.071.394.878.892,1.138.612Z"/></g></svg>