<?xml version="1.0" encoding="UTF-8"?><svg id="Layer_1" xmlns="http://www.w3.org/2000/svg" viewBox="0 0 24.075 24.075"><defs><style>.cls-1{fill:none;}.cls-2{fill:#a5a5a5;}</style></defs><path class="cls-1" d="M15.793,1H3c-1.103,0-2,.897-2,2v18.075c0,1.103.897,2,2,2h12.793V1Z"/><path class="cls-1" d="M21.075,1h-4.264v22.075h4.264c1.103,0,2-.897,2-2V3c0-1.103-.897-2-2-2Z"/><path class="cls-2" d="M21.075,0H3C1.35,0,0,1.35,0,3v18.075c0,1.65,1.35,3,3,3h18.075c1.65,0,3-1.35,3-3V3c0-1.65-1.35-3-3-3ZM1,21.075V3c0-1.103.897-2,2-2h12.793v22.075H3c-1.103,0-2-.897-2-2ZM23.075,21.075c0,1.103-.897,2-2,2h-4.264V1h4.264c1.103,0,2,.897,2,2v18.075Z"/></svg>