<?xml version="1.0" encoding="UTF-8"?><svg id="Layer_1" xmlns="http://www.w3.org/2000/svg" viewBox="0 0 24 24"><defs><style>.cls-1{fill:#a5a5a5;}</style></defs><path class="cls-1" d="M23.561,11.057H5.357L13.253,1.555c.109-.132-.189-.565-.666-.97-.477-.405-.952-.625-1.061-.494L2.398,11.075V.48c0-.265-.536-.48-1.199-.48S0,.215,0,.48v23.04c0,.265.536.48,1.199.48s1.199-.215,1.199-.48v-10.595l9.127,10.984c.109.132.569-.077,1.028-.466.459-.389.742-.81.633-.942l-7.943-9.558h18.317c.243,0,.439-.422.439-.943s-.197-.943-.439-.943Z"/></svg>