<?xml version="1.0" encoding="UTF-8"?><svg id="sidebar_popout_focus" xmlns="http://www.w3.org/2000/svg" viewBox="0 0 24 24"><defs><style>.cls-1{fill:#fff;}</style></defs><g id="gray"><path class="cls-1" d="M23.817,9.957c-.417-2.422-1.405-3.161-3.188-6.289C19.182,1.13,16.109.385,13.209.057c-.153-.017-.306-.038-.459-.057h-.984c-.769.252-1.03.799-1.013,1.583.031,1.476.008,2.953.01,4.429,0,.133,0,.266.018.397.093.691.807,1.172,1.484,1.005.604-.148,1.408-.781,1.412-1.461.005-1.078-.434-2.013-.434-3.091v-.299c.221.039.404.068.586.103,5.066.979,7.107,6.049,7.554,10.942.499,5.462-6.358,9.122-11.39,6.974C1.731,17.058.375,12.188,4.127,6.661c.849-1.25,2.557-1.639,3.866-2.391.629-.361.195-1.686-.158-2.292-.348-.597-.894-.286-1.71-.437-.314-.058-.554.322-.817.503C2.508,3.974.797,6.613.183,9.958c-.081.443-.123.892-.183,1.339v1.406c.061.455.099.914.186,1.363.777,3.983,3.233,6.27,6.86,8.096,1.359.684,2.552,1.689,4.07,1.801.061.005.121.024.181.037h1.406c.447-.061.898-.103,1.341-.186,3.674-.683,6.466-2.642,8.363-5.856.922-1.562,1.427-3.263,1.555-5.075.004-.061.025-.121.038-.181v-1.406c-.06-.447-.106-.896-.183-1.34Z"/><path class="cls-1" d="M8.098,11.111l1.831,1.242c-.064.206-.109.42-.109.646,0,1.204.976,1.637,2.18,1.637s1.993-.448,2.18-1.637c.339-2.152-.976-2.18-2.18-2.18-.208,0-.405.038-.595.093l-1.728-2.591c-.401-.401-1.33.189-1.731.59s-.249,1.798.152,2.199Z"/></g></svg>