<?xml version="1.0" encoding="UTF-8"?><svg id="Layer_1" xmlns="http://www.w3.org/2000/svg" viewBox="0 0 23.28 24"><defs><style>.cls-1{fill:none;}.cls-2{fill:#f7e98e;}.cls-3{fill:#4c4c4c;}</style></defs><path class="cls-1" d="M14.656,2.823l.522.557c-.162-.269-.343-.488-.522-.557Z"/><path class="cls-1" d="M2.267,16.412c1.562.178,3.109.312,4.648.424l-4.648-.424Z"/><path class="cls-1" d="M8.63,2.78l1.435-.448c-.507.067-.989.21-1.435.448Z"/><path class="cls-1" d="M9.288,22.838c.392.219.748.41,1.189.233-.441.177-.77-.075-1.189-.233Z"/><path class="cls-2" d="M13.343,15.833c.845.108.778-1.496.963-2.326.267-1.202.341-2.782.464-4.024.183-1.852,1.432-2.973.964-4.799-.075-.292-.29-.866-.555-1.305l-.522-.557c-.255-.099-.801-.207-1.085-.256-1.16-.2-2.386-.383-3.507-.235l-1.435.448c-.353.189-.688.422-.984.754-.137.154-.983,1.823-1.401,2.568-.078.412-.324,1.049-.388,1.3-.468,1.828-.528,3.732-.911,5.574-.121.585-.294,1.159-.504,1.716l8.901,1.14Z"/><path class="cls-3" d="M21.36,17.037c-.475-.197-1.552.466-1.914.036-.428-.509-.786-2.807-.738-3.454.209-2.81,2.277-5.274,1.371-8.023-.615-1.868-2.943-2.719-4.783-3.351-.017-.743.164-1.389-.411-1.887-.413-.357-1.722-.357-1.722-.357-1.036.044-1.845.701-2.116,1.7-1.389.124-3.125.138-4.04,1.206-.632.737-1.474,2.789-1.53,3.193-.302.77-.564,2.136-.677,2.822-.224,1.354-.46,5.027-1.355,5.925-.457.459-.818-.008-1.363.007-2.609.072-2.818,4.34-.322,4.879l5.167.034c0,1.536.898,3.232,2.319,3.863.234.104.48.17.714.269.259.015.539.094.794.102.201.006.551-.045.759-.08,1.531-.258,2.703-1.429,3.089-2.919.131-.07,1.25.19,1.523.173.253-.015.968.079,1.355.176.563.141,3.299.747,3.83.634,1.948-.416,1.896-4.181.051-4.946ZM5.856,7.402c.064-.251.311-.889.388-1.3.418-.745,1.264-2.414,1.401-2.568.296-.332.632-.565.984-.754.446-.239.928-.381,1.435-.448,1.121-.148,2.348.035,3.507.235.284.049.83.157,1.085.256.178.069.359.288.522.557.264.438.48,1.013.555,1.305.468,1.826-.78,2.948-.964,4.799-.123,1.241-.197,2.821-.464,4.024-.185.83-.118,2.434-.963,2.326l-8.901-1.14c.21-.557.383-1.131.504-1.716.382-1.842.442-3.746.911-5.574ZM10.477,23.071c-.441.177-.798-.015-1.189-.233-.82-.31-2.026-2.277-1.786-2.648s3.674,1.063,3.674,1.063c.019.002.275.195.304.228.565.647-.472,1.378-1.003,1.59ZM16.994,20.56c-4.097-1.091-9.129-1.708-14.983-1.907-1.796-.336-1.63-2.316.256-2.242l4.648.424c3.677.266,7.291.348,10.825.202.821.749.334,3.13-.745,3.524Z"/><path class="cls-3" d="M3.805,6.876c.535.092.252-.942.329-1.278.378-1.649,1.406-2.848,2.814-3.807.148-.101.527-.244.61-.354.133-.176.082-.797-.143-.879-.297-.109-.556.094-.805.242-1.768,1.052-2.842,3.581-3.104,5.583-.03.231.049.45.298.493Z"/><path class="cls-3" d="M2.716,4.234c.181-1.037.374-1.846,1.18-2.567.139-.124.939-.384.983-.483.078-.175-.043-.801-.243-.874-.322-.119-.737.248-.976.457-.726.633-1.201,2.042-1.38,2.991-.099.525-.268.916.436.476Z"/><path class="cls-2" d="M6.915,16.835c-1.539-.111-3.086-.246-4.648-.424-1.886-.074-2.052,1.906-.256,2.242,5.854.199,10.886.816,14.983,1.907,1.08-.394,1.566-2.775.745-3.524-3.535.147-7.148.064-10.825-.202Z"/><path class="cls-2" d="M11.176,21.253s-3.434-1.434-3.674-1.063.966,2.338,1.786,2.648c.42.159.748.41,1.189.233.531-.213,1.567-.944,1.003-1.59-.029-.033-.285-.226-.304-.228Z"/><path class="cls-3" d="M19.238,3.365c1.141,1.306,1.733,2.116,1.686,3.832-.009.319-.445,1.795.03,1.875.236.04.382-.088.44-.309.191-1.85-.084-3.812-1.189-5.346-.143-.199-.498-1.218-.688-1.287-.321-.116-.869.317-.803.671.031.168.393.412.525.563Z"/><path class="cls-3" d="M22.787,3.563c-.105-.195-.612-.921-.782-.995-.32-.14-.67.381-.612.732.018.107.674.438.773.58.625.895.712,1.931.608,2.991.174.383.332.466.428.043.197-.875.008-2.566-.415-3.351Z"/></svg>