<?xml version="1.0" encoding="UTF-8"?><svg id="Layer_1" xmlns="http://www.w3.org/2000/svg" viewBox="0 0 23.882 23.884"><defs><style>.cls-1{fill:#f4b7ae;}.cls-2{fill:#a5a5a5;}.cls-3{fill:#f7e98e;}.cls-4{fill:#fff;}.cls-5{fill:#98e1ea;}.cls-6{fill:#a8e2bb;}</style></defs><polygon class="cls-4" points="5.963 16.519 5.778 16.55 5.963 16.55 5.963 16.519"/><path class="cls-4" d="M12.623,19.34l-.077-.367h0c-.024-.335-.029-.661-.024-.983-.104-.01-.218-.022-.343-.022-1.27.001-2.449.367-3.719.368-.276,0-.487-.107-.588-.37-.092-.24-.048-.952.16-1.101.12-.086.292-.132.442-.135.63-.014,1.267.473,1.897.473h0c.631,0,1.261-.001,1.892,0,.112,0,.211.015.297.042.15-1.598.703-2.971,1.722-3.803,1.376-1.125,3.539-.933,5.28-.641.011-.057.019-.083.019-.108,0-1.599-.24-3.387-.245-4.986-.728.011-3.509.557-4.237.554-1.108-.004-1.448-1.014-1.449-2.121-.001-1.545,0-3.091,0-4.637v-.322c-.216-.017-.392-.043-.569-.043-3.375-.002-6.359.568-9.734.572-1.096.001-2.347,1.648-2.348,2.749-.002,5.987.627,10.51.629,16.497,0,1.1.266,2.131,1.363,2.132,3.854.004,7.675-.336,11.53-.338.062,0,.124-.013.236-.025-1.139-.9-1.829-2.028-2.135-3.385ZM8.689,5.053c1.27-.001,2.492.367,3.762.372.497.002.777.379.22.817-.121.203-2.62-.185-4.022.314-.424-.001-.69-.228-.683-.574.007-.34.315-.928.724-.928ZM7.965,11.666c.12-.086.499-.281.649-.284.63-.014,1.261-.006,1.891-.006h0c.631,0,1.326-.244,1.956-.241.438.001.617.452.612.815-.005.347-.253.558-.668.559-1.27.001-2.465-.331-3.735-.331-.276,0-.562.224-.663-.039-.092-.24-.249-.324-.042-.473ZM3.139,6.254h0c0-.293-.008-.587.001-.879.02-.621.525-1.428,1.142-1.44.586-.011,1.135.323,1.721.334.606.012.712.548.728,1.153.016.586.383,1.102.373,1.688-.011.642-.456,1.109-1.105,1.133-.585.022-1.173.023-1.758,0-.658-.026-1.091-.499-1.103-1.163-.005-.275,0-.551,0-.826h.001ZM2.897,11.215c.015-.609.728-1.236,1.343-1.256.293-.009.586-.001.879-.001h0c.302.001.604-.008.905.004.599.023,1.061.474,1.077,1.071.016.604.217,1.029.202,1.633-.015.599-.675,1.241-1.271,1.257-.604.016-1.208.016-1.811,0-.599-.015-1.062-.474-1.077-1.07-.016-.604-.262-1.032-.247-1.636ZM7.104,18.489c-.013.651-.488,1.119-1.138,1.128-.568.007-1.358.282-1.926.273-.632-.01-.881-.755-.9-1.39-.009-.302-.001-.604-.001-.906h0c0-.267-.004-.534,0-.8.013-.66.456-1.131,1.113-1.154.577-.02,1.155-.018,1.732,0,.66.021,1.421.254,1.432.911.009.568-.3,1.371-.311,1.939Z"/><path class="cls-4" d="M15.03,2.23c-.08.088-.093.112-.093.135-.001,1.333-.158,2.497-.152,3.829.002.416.233.629.657.631.666.003,1.333,0,1.998,0,.071,0,1.563.037,1.633.042.013.001.023.008.036.009-.074-.131-.158-.257-.266-.374-1.281-1.404-2.407-2.643-3.683-4.052-.057-.063-.088-.148-.132-.222Z"/><path class="cls-6" d="M17.95,13.654c-2.466.104-4.404,2.259-4.296,4.777.105,2.427,2.245,4.411,4.658,4.315h0c2.546-.101,4.967-1.476,4.433-4.678-.112-2.59-2.212-4.524-4.796-4.414ZM21.255,16.73c-.139.194-.62.453-.773.636-.772.927-1.543,1.855-2.316,2.78-.357.426-.594.232-.985-.157-.527-.526-1.119-.846-1.64-1.377-.204-.207-.235-.458-.103-.682.13-.221.364-.517.612-.458.137.032.245.304.349.403.396.381,1.195,1.749,1.195,1.749.777-.932,1.52-2.391,2.268-3.289.068-.082.135-.166.209-.241.219-.218.543-.236.769-.048.231.191.598.426.413.683Z"/><polygon class="cls-1" points="4.287 5.422 4.287 7.093 5.958 7.43 5.958 5.422 4.287 5.422"/><polygon class="cls-3" points="4.29 10.891 4.29 12.782 6.206 12.782 5.961 11.107 4.29 10.891"/><polygon class="cls-5" points="5.963 18.468 5.963 16.55 5.778 16.55 4.04 16.837 4.283 18.468 5.963 18.468"/><path class="cls-2" d="M20.696,13.093c-.167-.08-.229-.164-.228-.352.008-1.661.004-3.322.005-4.983,0-.752-.016-1.779-.521-2.336-1.449-1.599-3.145-2.401-4.594-3.999C14.75.752,14.016,0,13.112,0,9.719.004,6.327,0,2.935.005c-.246,0-.499.023-.738.08C.237.352.011,1.52.009,2.902c-.004,3.011-.001,6.022-.001,9.033h0C.008,14.92.006,17.904.008,20.889c-.123,2.513,1.216,2.994,2.994,2.994,4.831,0,9.662.004,14.493-.004.574,0,1.158-.007,1.723-.103,4.063-1.806,4.256-2.35,4.605-4.734.359-2.456-.91-4.878-3.126-5.947ZM18.312,22.746h0c-2.413.096-4.554-1.887-4.658-4.314-.108-2.518,1.83-4.673,4.296-4.777,2.584-.11,4.683,1.824,4.796,4.414.534,3.202-1.887,4.577-4.433,4.677ZM14.522,22.75c-3.854.001-7.675.341-11.53.338-1.097,0-1.363-1.032-1.363-2.132-.002-5.987-.631-10.51-.629-16.497,0-1.101,1.252-2.748,2.348-2.749,3.375-.004,6.359-.575,9.734-.572.177,0,.352.026.569.043v.322c0,1.545-.001,3.091,0,4.637,0,1.107.341,2.117,1.449,2.121.728.003,3.509-.543,4.237-.554.005,1.599.245,3.387.245,4.986,0,.026-.009.051-.019.108-1.742-.292-3.904-.484-5.28.641-1.019.832-1.572,2.205-1.722,3.803-.086-.027-.184-.042-.297-.042-.631-.002-1.261,0-1.892,0h0c-.63,0-1.267-.488-1.897-.473-.15.003-.323.049-.442.135-.207.149-.251.861-.16,1.101.101.263.312.37.588.37,1.27,0,2.449-.366,3.719-.368.125,0,.238.012.343.022-.005.322,0,.648.024.982h0s.077.369.077.369c.305,1.357.996,2.485,2.135,3.385-.112.012-.174.025-.236.025ZM19.11,6.878c-.013-.002-.023-.008-.036-.009-.07-.006-1.562-.042-1.633-.042-.666,0-1.332.002-1.998,0-.424-.002-.655-.215-.657-.631-.006-1.333.15-2.497.152-3.829,0-.023.012-.047.093-.135.043.074.075.159.132.222,1.276,1.409,2.402,2.648,3.683,4.052.107.117.192.244.266.374Z"/><path class="cls-2" d="M5.984,15.639c-.577-.018-1.155-.019-1.732,0-.657.023-1.099.494-1.113,1.154-.005.266,0,.533,0,.799h0s0,0,0,0c0,.302-.007.604.001.906.018.635.268,1.38.9,1.39.568.008,1.358-.266,1.926-.273.65-.008,1.125-.476,1.138-1.128.011-.568.32-1.371.311-1.939-.011-.657-.772-.89-1.432-.911ZM5.778,16.55l.185-.031v1.949h-1.68l-.243-1.63,1.738-.288Z"/><path class="cls-2" d="M4.242,8.244c.585.023,1.173.022,1.758,0,.648-.024,1.094-.491,1.105-1.133.01-.587-.357-1.103-.373-1.688-.016-.605-.122-1.141-.728-1.153-.586-.011-1.135-.345-1.721-.334-.617.012-1.122.819-1.142,1.44-.009.293-.001.586-.001.879h-.002c0,.275-.004.551,0,.826.012.664.446,1.138,1.103,1.163ZM4.287,7.093v-1.671h1.671v2.008l-1.671-.337Z"/><path class="cls-2" d="M4.221,13.921c.603.016,1.207.016,1.811,0,.596-.016,1.256-.658,1.271-1.257.016-.604-.185-1.029-.202-1.633-.016-.596-.478-1.048-1.077-1.071-.301-.011-.604-.002-.905-.002h0c-.293-.001-.587-.009-.879,0-.614.02-1.328.647-1.343,1.256-.015.604.232,1.032.247,1.636.015.596.478,1.055,1.077,1.07ZM4.29,12.782v-1.891l1.671.216.245,1.676h-1.916Z"/><path class="cls-2" d="M8.649,6.555c1.402-.499,3.901-.111,4.022-.314.557-.437.277-.815-.22-.817-1.27-.005-2.492-.373-3.762-.372-.409,0-.717.588-.724.928-.007.346.259.572.683.574Z"/><path class="cls-2" d="M8.671,12.178c1.27,0,2.465.332,3.735.331.415,0,.663-.211.668-.559.005-.363-.174-.814-.612-.815-.631-.002-1.326.242-1.956.242h0c-.63,0-1.261-.009-1.891.006-.15.003-.53.198-.649.284-.207.149-.05.233.042.473.101.263.387.039.663.039Z"/><path class="cls-4" d="M20.842,16.047c-.226-.188-.55-.169-.769.048-.075.075-.141.159-.209.241-.749.898-1.491,2.356-2.268,3.289,0,0-.8-1.368-1.195-1.749-.104-.1-.212-.371-.349-.403-.248-.058-.482.238-.612.458-.132.224-.1.475.103.682.522.532,1.113.851,1.64,1.377.391.389.628.583.985.157.774-.925,1.545-1.854,2.316-2.78.153-.184.634-.442.773-.636.184-.257-.182-.492-.413-.683Z"/></svg>