<?xml version="1.0" encoding="UTF-8"?>
<svg id="Layer_1" xmlns="http://www.w3.org/2000/svg" version="1.1" viewBox="0 0 23.99 24">
  <!-- Generator: Adobe Illustrator 29.5.1, SVG Export Plug-In . SVG Version: 2.1.0 Build 141)  -->
  <defs>
    <style>
      .st0 {
        fill: none;
      }

      .st1 {
        fill: #fff;
      }

      .st2 {
        fill: #4c4c4c;
      }
    </style>
  </defs>
  <rect class="st0" x="4.31" y="11.16" width="1.68" height="1.68"/>
  <rect class="st0" x="4.3" y="5.45" width="1.68" height="1.68"/>
  <rect class="st0" x="4.3" y="16.88" width="1.69" height="1.68"/>
  <path class="st0" d="M12.68,19.43l-.08-.37h0c-.02-.31-.02-.61-.01-.89-.11.07-.24.11-.41.11h-3.83c-.28,0-.49-.11-.59-.37-.09-.24-.04-.48.17-.62.12-.09.29-.13.44-.14.63-.01,1.27,0,1.9,0h1.9c.23,0,.4.06.52.16.26-1.46.98-2.62,1.98-3.44,1.38-1.13,2.98-1.48,4.73-1.19.01-.06.02-.08.02-.11,0-1.52,0-3.05,0-4.57-.88,0-3.2,0-3.89,0-1.11,0-1.82-.72-1.82-1.83,0-1.55,0-3.11,0-4.66v-.32c-.22-.02-.39-.04-.57-.04-3.39,0-6.78,0-10.17,0-1.1,0-1.83.73-1.83,1.83,0,6.02,0,12.03,0,18.05,0,1.1.73,1.83,1.83,1.83,3.87,0,7.75,0,11.62,0,.06,0,.12-.01.24-.02-1.14-.91-1.84-2.04-2.15-3.4h0ZM8.68,5.45c1.28,0,2.55,0,3.83,0,.5,0,.79.46.55.86-.12.2-.31.28-.54.28-.65,0-1.3,0-1.95,0h-1.87c-.43,0-.69-.23-.69-.58,0-.34.27-.56.68-.56h0ZM8.21,11.57c.12-.09.29-.13.44-.14.63-.01,1.27,0,1.9,0h0c.63,0,1.27,0,1.9,0,.44,0,.69.21.68.58,0,.35-.26.56-.67.56-1.28,0-2.55,0-3.83,0-.28,0-.49-.11-.59-.37-.09-.24-.04-.48.17-.62h0ZM3.15,6.28h0c0-.3,0-.59,0-.88.02-.62.49-1.1,1.11-1.11.59-.01,1.18-.01,1.77,0,.61.01,1.09.48,1.1,1.09.02.59.01,1.18,0,1.77-.01.64-.46,1.11-1.11,1.14-.59.02-1.18.02-1.77,0-.66-.03-1.1-.5-1.11-1.17,0-.28,0-.55,0-.83h0ZM6.05,10.01c.6.02,1.07.48,1.08,1.08.02.61.02,1.21,0,1.82-.01.6-.48,1.07-1.07,1.08-.61.02-1.21.02-1.82,0-.6-.02-1.07-.48-1.08-1.07-.02-.61-.02-1.21,0-1.82.02-.61.48-1.07,1.1-1.09.29,0,.59,0,.88,0h0c.3,0,.61,0,.91,0h0ZM7.13,18.58c-.01.65-.49,1.12-1.14,1.13-.57,0-1.14,0-1.71,0-.63-.01-1.11-.48-1.13-1.12,0-.3,0-.61,0-.91h0c0-.27,0-.54,0-.8.01-.66.46-1.14,1.12-1.16.58-.02,1.16-.02,1.74,0,.66.02,1.12.49,1.13,1.15,0,.57.01,1.14,0,1.71h0Z"/>
  <path class="st0" d="M15.51,6.86c.62,0,2.79,0,3.66,0-.07-.11-.15-.22-.24-.32-1.29-1.41-2.57-2.83-3.85-4.24-.06-.06-.09-.15-.13-.22-.08.09-.09.11-.09.14,0,1.34,0,2.68,0,4.02,0,.42.23.63.66.63Z"/>
  <path class="st2" d="M6.01,15.72c-.58-.02-1.16-.02-1.74,0-.66.02-1.1.5-1.12,1.16,0,.27,0,.54,0,.8h0c0,.3,0,.61,0,.91.02.64.49,1.11,1.13,1.12.57,0,1.14,0,1.71,0,.65,0,1.13-.48,1.14-1.13.01-.57.01-1.14,0-1.71-.01-.66-.46-1.13-1.13-1.15h0s0,0,0,0ZM5.99,18.56h-1.69v-1.68h1.69s0,1.68,0,1.68Z"/>
  <path class="st2" d="M4.26,8.28c.59.02,1.18.02,1.77,0,.65-.02,1.1-.49,1.11-1.14.01-.59.01-1.18,0-1.77-.02-.61-.49-1.08-1.1-1.09-.59-.01-1.18-.01-1.77,0-.62.01-1.09.49-1.11,1.11,0,.29,0,.59,0,.88h0c0,.28,0,.55,0,.83.01.67.45,1.14,1.11,1.17h0ZM4.3,5.45h1.68v1.68h-1.68v-1.68Z"/>
  <path class="st2" d="M4.26,10.01c-.62.02-1.09.47-1.1,1.09-.02.61-.02,1.21,0,1.82.02.6.48,1.06,1.08,1.07.61.02,1.21.02,1.82,0,.6-.02,1.06-.48,1.07-1.08.02-.61.02-1.21,0-1.82-.02-.6-.48-1.05-1.08-1.08-.3-.01-.61,0-.91,0h0c-.3,0-.59,0-.88,0ZM5.99,11.16v1.68h-1.68v-1.68h1.68Z"/>
  <path class="st2" d="M8.69,6.59c.62,0,1.25,0,1.87,0h1.95c.23,0,.42-.07.54-.28.24-.4-.05-.86-.55-.86-1.28,0-2.55,0-3.83,0-.41,0-.67.22-.68.56,0,.35.26.57.69.58h0Z"/>
  <path class="st2" d="M8.63,12.57h3.83c.42,0,.67-.21.67-.56,0-.36-.24-.57-.68-.58-.63,0-1.27,0-1.9,0h0c-.63,0-1.27,0-1.9,0-.15,0-.32.05-.44.14-.21.15-.26.38-.17.62.1.27.31.37.59.37h0Z"/>
  <path class="st0" d="M15.51,6.86c.62,0,2.79,0,3.66,0-.07-.11-.15-.22-.24-.32-1.29-1.41-2.57-2.83-3.85-4.24-.06-.06-.09-.15-.13-.22-.08.09-.09.11-.09.14,0,1.34,0,2.68,0,4.02,0,.42.23.63.66.63Z"/>
  <path class="st0" d="M12.68,19.43l-.08-.37h0c-.02-.31-.02-.61-.01-.89-.11.07-.24.11-.41.11h-3.83c-.28,0-.49-.11-.59-.37-.09-.24-.04-.48.17-.62.12-.09.29-.13.44-.14.63-.01,1.27,0,1.9,0h1.9c.23,0,.4.06.52.16.26-1.46.98-2.62,1.98-3.44,1.38-1.13,2.98-1.48,4.73-1.19.01-.06.02-.08.02-.11,0-1.52,0-3.05,0-4.57-.88,0-3.2,0-3.89,0-1.11,0-1.82-.72-1.82-1.83,0-1.55,0-3.11,0-4.66v-.32c-.22-.02-.39-.04-.57-.04-3.39,0-6.78,0-10.17,0-1.1,0-1.83.73-1.83,1.83,0,6.02,0,12.03,0,18.05,0,1.1.73,1.83,1.83,1.83,3.87,0,7.75,0,11.62,0,.06,0,.12-.01.24-.02-1.14-.91-1.84-2.04-2.15-3.4h0Z"/>
  <path class="st0" d="M20.17,16.17c-.08.08-.14.16-.21.24-.75.9-1.5,1.81-2.29,2.74h0c-.41-.42-.8-.81-1.19-1.19-.1-.1-.24-.19-.38-.22-.25-.06-.45.06-.58.28-.13.23-.1.48.1.68.52.53,1.06,1.06,1.59,1.59.39.39.69.38,1.05-.05.78-.93,1.55-1.86,2.33-2.79.15-.18.32-.36.46-.56.18-.26.14-.58-.09-.77-.23-.19-.55-.17-.77.05h0Z"/>
  <path class="st0" d="M15.51,6.86c.62,0,2.8,0,3.66,0-.07-.11-.15-.22-.24-.32-1.29-1.41-2.57-2.82-3.85-4.24-.06-.06-.09-.15-.13-.22-.08.09-.09.11-.09.14,0,1.34,0,2.68,0,4.02,0,.42.23.63.66.63Z"/>
  <path class="st0" d="M20.94,16.12c-.23-.19-.55-.17-.77.05-.08.08-.14.16-.21.24-.75.9-1.5,1.81-2.29,2.74-.41-.42-.8-.81-1.19-1.2-.1-.1-.24-.19-.38-.22-.25-.06-.45.06-.58.28-.13.22-.1.48.1.68.52.53,1.06,1.06,1.59,1.59.39.39.69.38,1.05-.05.78-.93,1.55-1.86,2.33-2.79.15-.18.32-.36.46-.56h0c.18-.26.14-.58-.1-.77Z"/>
  <path class="st0" d="M12.68,19.43l-.08-.37c-.02-.31-.02-.6-.01-.89-.11.07-.24.11-.41.11h-3.83c-.28,0-.49-.11-.59-.37-.09-.24-.04-.47.17-.62.12-.09.29-.13.44-.14.63-.01,1.27,0,1.9,0s1.27,0,1.9,0c.23,0,.4.06.52.16.26-1.46.98-2.62,1.98-3.44,1.38-1.13,2.98-1.48,4.73-1.19.01-.06.02-.08.02-.11,0-1.52,0-3.05,0-4.57-.88,0-3.2,0-3.89,0-1.11,0-1.82-.72-1.82-1.83,0-1.55,0-3.11,0-4.66v-.32c-.22-.02-.39-.04-.57-.04-3.39,0-6.78,0-10.17,0-1.1,0-1.83.73-1.83,1.83,0,6.02,0,12.03,0,18.05,0,1.1.73,1.83,1.83,1.83,3.87,0,7.75,0,11.62,0h0c.06,0,.12-.01.24-.02-1.14-.91-1.84-2.04-2.14-3.4h0Z"/>
  <path class="st2" d="M20.79,13.16h0c-.17-.08-.23-.17-.23-.35,0-1.67,0-3.34,0-5.01,0-.76-.24-1.42-.75-1.98-1.46-1.61-2.92-3.21-4.37-4.82C14.83.33,14.08,0,13.17,0,9.76,0,6.35,0,2.94,0c-.25,0-.5.02-.74.08C.88.4,0,1.53,0,2.92c0,3.03,0,6.05,0,9.08,0,3,0,6,0,9,0,1.79,1.22,3.01,3.01,3.01,4.86,0,9.71,0,14.56,0,.58,0,1.16,0,1.73-.1,2.4-.41,4.28-2.36,4.63-4.76.36-2.47-.91-4.9-3.14-5.98h0ZM21.03,16.89c-.14.19-.3.37-.46.56-.77.93-1.55,1.86-2.33,2.79-.36.43-.66.44-1.05.05-.53-.53-1.06-1.06-1.59-1.59-.2-.21-.24-.46-.1-.68.13-.22.34-.33.58-.28.14.03.28.12.38.22.4.38.78.78,1.19,1.2.78-.94,1.53-1.84,2.29-2.74.07-.08.14-.17.21-.24.22-.22.55-.24.77-.05.23.19.28.51.09.77,0,0,0,0,0,0ZM14.85,2.21s.01-.05.09-.14c.04.07.07.16.13.22,1.28,1.42,2.57,2.83,3.85,4.24.09.1.17.21.24.32-.86,0-3.04,0-3.66,0-.43,0-.66-.22-.66-.63,0-1.34,0-2.68,0-4.02ZM14.59,22.86h0c-3.87,0-7.75,0-11.62,0-1.1,0-1.83-.73-1.83-1.83,0-6.02,0-12.03,0-18.05,0-1.11.72-1.83,1.83-1.84,3.39,0,6.78,0,10.17,0,.18,0,.35.03.57.04v.32c0,1.55,0,3.11,0,4.66,0,1.11.71,1.82,1.82,1.83.69,0,3.02,0,3.89,0,0,1.52,0,3.05,0,4.57,0,.03,0,.05-.02.11-1.75-.29-3.35.06-4.74,1.19-1.01.82-1.73,1.98-1.98,3.44-.11-.1-.29-.16-.52-.16-.63,0-1.27,0-1.9,0s-1.27,0-1.9,0c-.15,0-.32.05-.44.14-.21.15-.26.38-.17.62.1.26.31.37.59.37h3.83c.17,0,.3-.04.41-.11-.01.29-.01.58.01.89l.08.37c.31,1.36,1,2.5,2.15,3.4-.11.01-.18.02-.24.02h0Z"/>
  <path class="st1" d="M20.17,16.17c-.08.08-.14.16-.21.24-.75.9-1.5,1.81-2.29,2.74h0c-.41-.42-.8-.81-1.19-1.19-.1-.1-.24-.19-.38-.22-.25-.06-.45.06-.58.28-.13.23-.1.48.1.68.52.53,1.06,1.06,1.59,1.59.39.39.69.38,1.05-.05.78-.93,1.55-1.86,2.33-2.79.15-.18.32-.36.46-.56.18-.26.14-.58-.09-.77-.23-.19-.55-.17-.77.05h0Z"/>
</svg>