<?xml version="1.0" encoding="UTF-8"?><svg id="Layer_2" xmlns="http://www.w3.org/2000/svg" viewBox="0 0 14.824 24"><defs><style>.cls-1{fill:#fef7d6;}.cls-2{fill:#f4b7ae;}.cls-3{fill:#fefbf7;}.cls-4{fill:#e6e1f4;}.cls-5{fill:#f7e98e;}.cls-6{fill:#c8bfef;}.cls-7{fill:#ddede3;}.cls-8{fill:#98e1ea;}.cls-9{fill:#a8e2bb;}.cls-10{fill:#efc7c2;}.cls-11{fill:#cae9ef;}.cls-12{fill:#4c4c4c;}</style></defs><path class="cls-12" d="M.526.364c.26-.214.613-.364.974-.364h11.824c.825,0,1.5.675,1.5,1.5v21c0,.348-.129.679-.33.934L.526.364Z"/><path class="cls-3" d="M14.494,23.434c-.276.339-.702.566-1.17.566H1.5C.675,24,0,23.325,0,22.5V1.5C0,1.056.217.64.526.364l13.968,23.069Z"/><path class="cls-8" d="M4.068,6.358h8.971c.456.011.655.232.636.632v1.519c-.009.457-.228.672-.676.672h-7.239s-1.691-2.822-1.691-2.822Z"/><path class="cls-5" d="M5.953,9.537h7.085c.456.011.655.232.636.632v1.519c-.009.457-.228.672-.676.672h-5.353s-1.691-2.822-1.691-2.822Z"/><path class="cls-6" d="M7.885,12.715h5.153c.456.011.655.232.636.632v1.519c-.009.457-.228.672-.676.672h-3.421s-1.691-2.822-1.691-2.822Z"/><path class="cls-9" d="M9.814,15.894h3.224c.456.011.655.232.636.632v1.519c-.009.457-.228.672-.676.672h-1.492s-1.691-2.822-1.691-2.822Z"/><path class="cls-2" d="M11.745,19.073h1.293c.456.011.655.232.636.632v1.519c-.009.457-.238.672-.238.672l-1.691-2.822Z"/><path class="cls-10" d="M13.436,21.895H1.89c-.456-.011-.655-.232-.636-.632v-1.519c.023-.361.226-.676.633-.672,1.826.02,9.465,0,9.858,0l1.691,2.822Z"/><path class="cls-7" d="M11.506,18.716H1.89c-.456-.011-.655-.232-.636-.632v-1.519c.009-.457.228-.672.676-.672h7.883s1.691,2.822,1.691,2.822Z"/><path class="cls-4" d="M9.576,15.538H1.89c-.456-.011-.655-.232-.636-.632v-1.519c.009-.457.228-.672.676-.672h5.954s1.691,2.822,1.691,2.822Z"/><path class="cls-1" d="M7.644,12.359H1.89c-.456-.011-.655-.232-.636-.632v-1.519c.009-.457.228-.672.676-.672h4.022s1.691,2.822,1.691,2.822Z"/><path class="cls-11" d="M5.759,9.18H1.89c-.456-.011-.655-.232-.636-.632v-1.519c.009-.457.228-.672.676-.672h2.137s1.691,2.822,1.691,2.822Z"/></svg>