<?xml version="1.0" encoding="UTF-8"?><svg id="Layer_1" xmlns="http://www.w3.org/2000/svg" viewBox="0 0 24.008 24.095"><defs><style>.cls-1{fill:#2847ef;}.cls-2{fill:#fff;}</style></defs><path class="cls-2" d="M8.992,23.97c-3.215,0-5.31-1.517-6.5-2.788C.731,19.302.039,17.003.134,15.559.578,8.819,4.647,2.931,10.501.558c.709-.288,1.447-.433,2.192-.433,5.162,0,10.168,6.955,11.03,12.938.42,2.91,0,5.101-1.285,6.698-1.924,2.392-5.837,3.682-12.688,4.181-.257.02-.511.028-.758.028Z"/><path class="cls-1" d="M12.694.25h0c2.383,0,4.897,1.516,7.079,4.267,1.985,2.503,3.415,5.704,3.828,8.563.42,2.914.02,5.012-1.26,6.603-1.9,2.362-5.786,3.637-12.6,4.134-.254.019-.505.028-.749.028-3.17,0-5.236-1.495-6.41-2.749C.848,19.243.165,16.984.259,15.568.7,8.875,4.739,3.029,10.549.674c.695-.281,1.416-.424,2.146-.424M12.694,0c-.742,0-1.492.14-2.239.443C4.776,2.744.477,8.453.009,15.551c-.202,3.068,2.881,8.543,8.983,8.543.25,0,.507-.009.767-.028,11.153-.814,15.133-3.778,14.089-11.022C23.017,7.283,18.052,0,12.694,0h0Z"/><path class="cls-1" d="M14.463,12.162l.009-.009-.018-.192c-.216-.321-.572-.425-.865-.572-.614-.302-1.287-.344-1.837-.738-.888-.641-1.328-1.621-1.658-2.647-.073-.22-.174-.421-.266-.632-.046,0-.092,0-.137.009-.073.174-.174.339-.229.522-.321.971-.002,2.009-.771,2.732-.705.65-2.298.867-3.177,1.17-.165.055-.311.147-.467.22v.137c.366.137.733.284,1.099.412.943.33,1.649.002,2.189.845.412.641.815,2.196,1.145,2.892.073.156.156.302.229.458h.137c.412-1.072.044-2.047.896-2.89.843-.843,2.658-1.287,3.721-1.717"/><path class="cls-1" d="M15.181,19.57c.618-2.537,2.167-2.05,2.432-2.342-2.016-.458-2.226-2.643-2.391-2.372-.316,1.914-2.603,2.241-2.363,2.4.446.296,1.336-.276,2.08,2.302,0,0,.22.101.242.013Z"/><path class="cls-1" d="M15.231,4.563c.618,2.537,2.167,2.05,2.432,2.342-2.016.458-2.226,2.643-2.391,2.372-.316-1.914-2.603-2.241-2.363-2.4.446-.296,1.336.276,2.08-2.302,0,0,.22-.101.242-.013Z"/></svg>