<?xml version="1.0" encoding="UTF-8"?><svg id="Layer_1" xmlns="http://www.w3.org/2000/svg" viewBox="0 0 20.109 24.033"><defs><style>.cls-1{fill:#f7e98e;}</style></defs><path class="cls-1" d="M15.007,12.169l.015-.015-.029-.307c-.345-.511-.912-.678-1.379-.911-.978-.482-2.052-.549-2.927-1.176-1.416-1.022-2.117-2.584-2.642-4.219-.117-.35-.277-.672-.423-1.007-.073,0-.146,0-.219.015-.117.277-.277.54-.365.832-.511,1.547-.002,3.202-1.229,4.355-1.124,1.036-3.662,1.382-5.063,1.864-.263.088-.496.234-.745.35v.219c.584.219,1.168.453,1.752.657,1.504.526,2.628.003,3.489,1.346.657,1.022,1.299,3.5,1.825,4.61.117.248.248.482.365.73h.219c.657-1.708.07-3.263,1.427-4.606,1.343-1.343,4.237-2.051,5.93-2.737"/><path class="cls-1" d="M16.153,23.975c.985-4.043,3.453-3.267,3.876-3.733-3.213-.73-3.548-4.212-3.81-3.781-.504,3.051-4.148,3.571-3.766,3.825.711.472,2.13-.44,3.316,3.669,0,0,.351.161.385.02Z"/><path class="cls-1" d="M16.233.058c.985,4.043,3.453,3.267,3.876,3.733-3.213.73-3.548,4.212-3.81,3.781-.504-3.051-4.148-3.571-3.766-3.825.711-.472,2.13.44,3.316-3.669,0,0,.351-.161.385-.02Z"/></svg>