<?xml version="1.0" encoding="UTF-8"?><svg id="Layer_1" xmlns="http://www.w3.org/2000/svg" viewBox="0 0 13.789 24"><defs><style>.cls-1{fill:none;}.cls-2{fill:#a5a5a5;}.cls-3{fill:#f9c075;}.cls-4{fill:#fce0c3;}.cls-5{fill:#c8bfef;}.cls-6{fill:#98e1ea;}</style></defs><path class="cls-1" d="M9.587,14.529c-.003-.007-.007-.013-.01-.02l.009.024s0-.002.001-.004Z"/><path class="cls-1" d="M5.894,6.29l.191-.082c-.066.024-.13.048-.191.082Z"/><rect class="cls-1" x="1.741" y="20.607" height="2.284" transform="translate(-16.103 9.192) rotate(-50.288)"/><rect class="cls-1" x="10.523" y="21.684" width="2.337" height="0" transform="translate(-11.764 14.152) rotate(-43.864)"/><path class="cls-4" d="M2.415,11.464c-.094.067-.199.13-.278.201-.771.694.028,1.881.997,1.433.061-.028.177-.111.313-.212l-1.031-1.422Z"/><path class="cls-4" d="M12.123,14.707c.237-.384.21-.664.089-1.079l-2.067,1.075c.44.722,1.529.73,1.977.004Z"/><path class="cls-6" d="M7.854,16.439c-.051.385-.772.736-.96,1.159.02.494.291,1.187.605,1.566.956,1.154,2.28,2.204,3.349,3.33l1.685-1.62c-.963-1.057-2.174-2.025-3.111-3.098-.066-.286-.026-2.451.164-3.243l-.009-.024s0,0,0,0c-.19-.485-.429-.971-.669-1.458l-2.593-.035.087.435L.862,21.02l1.757,1.46,4.932-6.469c.216-.387.359.008.303.429Z"/><path class="cls-6" d="M9.826,17.526v-.284c-.005.128-.006.234,0,.284Z"/><path class="cls-3" d="M11.239,22.901c1.23.933,2.611-.506,1.555-1.749-.08-.095-.175-.184-.26-.278l-1.685,1.62c.129.136.269.269.39.407Z"/><path class="cls-3" d="M.452,21.58c-.453,1.15.886,2.138,1.829,1.343l.339-.444-1.757-1.46-.41.561Z"/><polygon class="cls-3" points="2.878 22.694 2.878 22.694 2.878 22.694 2.878 22.694"/><path class="cls-5" d="M5.379,11.422c.011-.003.02.002.031,0l-.471-2.683-.42,1.425c-.57.479-1.471.851-2.103,1.301l1.031,1.422c.587-.439,1.701-1.394,1.933-1.464Z"/><path class="cls-5" d="M8.191,11.485l-1.44-1.424c-.249-.399.291-.287.702-.088l1.295.638c.541,1.06.817,3.044,1.365,4.049.009.017.023.028.033.044l2.067-1.075c-.379-1.309-.98-2.695-1.467-3.97-1.032-.999-2.143-2.308-3.27-3.187-.467-.364-.973-.415-1.391-.264l-.191.082c-.405.226-.687.666-.676,1.23l1.097,5.496,2.593.035c-.257-.521-.515-1.043-.718-1.566Z"/><path class="cls-2" d="M7.662,3.425c.425-1.354-.716-3.725-2.588-3.394-1.223.217-3.222,2.734-2.018,4.235,1.175,1.465,4.041.959,4.606-.841ZM6.642,1.181c1.93,1.544-.526,4.773-2.619,2.851-1.867-1.714.908-4.219,2.619-2.851Z"/><path class="cls-4" d="M6.642,1.181c-1.711-1.369-4.486,1.137-2.619,2.851,2.094,1.922,4.55-1.307,2.619-2.851Z"/><path class="cls-2" d="M12.891,20.133c-.873-.935-2.183-1.68-3.065-2.606-.006-.05-.005-.156,0-.284.018-.49.097-1.435.114-2.091,1.144,1.462,3.129-.474,2.835-1.683-.242-.998-1.105-2.494-1.51-3.462-.256-.611-.523-.935-.982-1.396-.804-.806-1.461-1.947-2.273-2.72-.557-.529-2.759-.609-3.107.919-.061.266-.046.551-.117.805-.068.241-.595,1.986-.718,2.14-.301.379-1.927.881-2.415,1.28-1.498,1.225.648,2.902,1.931,2.707.179-.027,1.386-.963,1.977-1.463l.184,1.05L.179,20.816c-.279.978-.421,2.985,1.059,3.176.18.023.397-.017.583,0,.449-.13.729-.956,1.057-1.298,0,0,0,0,0,0h0c1.182-1.229,2.484-2.829,3.636-4.138.026-.029.05-.064.144-.123h0c.096.452.226,1.201.527,1.531.959,1.053,2.387,2.132,3.456,3.036.319.27.677.889,1.084.992h.583c.764-.099,1.363-1.469,1.455-2.243.128-1.084-.205-.904-.871-1.617ZM2.137,11.666c.079-.071.184-.134.278-.201.632-.45,1.533-.822,2.103-1.301l.42-1.425.471,2.683c-.011.003-.02-.002-.031,0-.232.071-1.346,1.025-1.933,1.464-.135.101-.252.184-.313.212-.968.448-1.768-.74-.997-1.433ZM2.619,22.479h0l-.339.444c-.943.795-2.282-.193-1.829-1.343l.41-.561h0l5.54-7.57-.087-.435-1.097-5.496c-.011-.563.271-1.003.676-1.23.061-.034.125-.058.191-.082.418-.15.924-.1,1.391.264,1.126.878,2.237,2.188,3.27,3.187.487,1.274,1.087,2.661,1.467,3.97.12.415.148.694-.089,1.079-.448.726-1.538.718-1.977-.004-.01-.016-.024-.027-.033-.044-.547-1.006-.823-2.989-1.365-4.049l-1.295-.638c-.411-.199-.951-.311-.702.088l1.44,1.424c.203.523.461,1.045.718,1.566.24.487.479.973.669,1.458,0,0,0,0,0,0,.003.008.007.013.01.02,0,.001,0,.002-.001.004-.189.792-.229,2.957-.164,3.243.937,1.074,2.148,2.041,3.111,3.098h0c.085.093.18.183.26.278,1.056,1.243-.325,2.682-1.555,1.749-.12-.139-.26-.271-.39-.407h0c-1.07-1.125-2.394-2.176-3.349-3.33-.314-.379-.585-1.072-.605-1.566.188-.423.909-.774.96-1.159.056-.422-.087-.817-.303-.429l-4.932,6.469Z"/></svg>