<?xml version="1.0" encoding="UTF-8"?><svg id="Layer_1" xmlns="http://www.w3.org/2000/svg" viewBox="0 0 23.695 23.945"><defs><style>.cls-1{fill:none;}.cls-2{fill:#f4b7ae;}.cls-3{fill:#a5a5a5;}.cls-4{fill:#fff;}</style></defs><path class="cls-1" d="M14.454,8.378c-.188.332-.152.705.022.985-.141-.337-.178-.709-.022-.985Z"/><path class="cls-1" d="M18.734,9.688c.384.205.835.079,1.102-.228-.391.243-.832.372-1.102.228Z"/><path class="cls-1" d="M14.352,4.783c.022-.213.112-.438.245-.632-.153.17-.238.391-.245.632Z"/><path class="cls-1" d="M19.909,5.302c.183-.321.175-.65.052-.912.094.311.103.64-.052.912Z"/><path class="cls-1" d="M17.131,1.79c.683.026,1.354.169,1.98.412-.598-.268-1.264-.419-1.98-.412Z"/><path class="cls-1" d="M17.241,6.098c-.014.012-.036.038-.044.037.01.002.026-.013.044-.037Z"/><path class="cls-3" d="M11.767,2.811c-3.939.066-8.205.926-11.148,3.675-.511.477-.875,1.568-.394,2.407,1.121,1.957,2.422-.324,3-.771,2.512-1.939,4.614-3.783,7.783-3.94-.431,1.302-.54,3.241-.24,4.566-.516.097-1.036.148-1.55.259-1.704.37-4.303.715-5.568,1.964-.874.863-.094,2.748,1.039,2.417,1.565-1.339,6.11-3.301,6.32-3.145.083.062.898,1.301,1.021,1.444,4.562,5.305,11.865,2.38,11.661-6.37-.132-5.675-8.613-7.273-11.924-2.507ZM13.298,9.846c-2.362-3.284-.967-8.236,3.832-8.055.716-.007,1.382.144,1.98.412,2.774,1.078,4.629,4.149,2.432,7.95-2.184,3.779-6.159,2.593-8.244-.307Z"/><path class="cls-3" d="M11.397,18.348c-3.043.449-3.339,4.272.482,5.482,3.51,1.111,4.626-6.236-.482-5.482ZM11.428,22.686c-1.125-.413-1.966-2.712-.474-3.056,4.144-.955,2.5,3.799.474,3.056Z"/><path class="cls-3" d="M16.341,15.171c-1.236-.939-3.072-1.263-4.604-1.238-1.449.024-3.108.559-4.279,1.448-.139.106-.664.505-.756.647-.284.439.137.879.612,1.108.755.363,1.579-1.066,2.21-1.394,1.642-.854,3.337-.144,4.98.701.328.169.997.739,1.265.783.652.107,1.228-.539,1.173-1.222-.036-.44-.293-.598-.601-.832Z"/><path class="cls-2" d="M19.11,2.203c-.625-.243-1.297-.387-1.98-.412-4.799-.181-6.194,4.771-3.832,8.055,2.086,2.9,6.06,4.086,8.244.307,2.197-3.801.341-6.872-2.432-7.95ZM17.197,6.135c.008.002.03-.025.044-.037.233-.3,1.068-2.511,1.337-2.655.549-.293,1.181.282,1.382.947.123.263.131.591-.052.912-.175.308-1.391,1.378-1.413,1.506.349.619,2.221.887,2.149,1.667-.031.336-.392.725-.81.985-.267.307-.719.433-1.102.228-.32-.171-1.088-1.707-1.238-1.734-.56.334-1.343,2.177-1.999,2.237-.421.039-.824-.36-1.02-.828-.174-.28-.211-.653-.022-.985.17-.3,1.915-1.074,1.94-1.218-.275-.526-1.924-1.581-2.035-2.128-.016-.078-.015-.163-.006-.249.007-.242.093-.462.245-.632.166-.242.396-.432.64-.473.852-.143,1.335,1.998,1.959,2.457Z"/><path class="cls-4" d="M10.954,19.631c-1.492.344-.651,2.643.474,3.056,2.026.743,3.67-4.011-.474-3.056Z"/><path class="cls-4" d="M15.238,3.677c-.244.041-.474.232-.64.473-.134.194-.223.419-.245.632-.009.086-.01.171.006.249.112.547,1.76,1.602,2.035,2.128-.025.144-1.769.917-1.94,1.218-.156.276-.119.648.022.985.196.468.6.867,1.02.828.656-.061,1.439-1.903,1.999-2.237.15.027.918,1.563,1.238,1.734.27.144.711.015,1.102-.228.418-.259.778-.648.81-.985.072-.779-1.801-1.047-2.149-1.667.022-.129,1.238-1.199,1.413-1.506.155-.272.146-.601.052-.912-.202-.665-.834-1.24-1.382-.947-.269.144-1.104,2.354-1.337,2.655-.018.024-.034.039-.044.037-.624-.46-1.107-2.601-1.959-2.457Z"/></svg>