<?xml version="1.0" encoding="UTF-8"?><svg id="Layer_1" xmlns="http://www.w3.org/2000/svg" viewBox="0 0 24.004 23.034"><defs><style>.cls-1{fill:#a5a5a5;}.cls-2{fill:#fff;}</style></defs><path class="cls-1" d="M15.553,15.211c-1.351-.227-1.399,1.493-.095,1.546,1.18.048,1.265-1.35.095-1.546Z"/><path class="cls-1" d="M.417,20.994c.101-.258.166-.509.367-.716.104-.107.542-.39.67-.39h.806c.12-1.956-.317-4.159.413-6.012.76-1.927,2.51-3.339,4.561-3.661l-.531-.413c-2.579-2.23-2.479-6.338.259-8.403,2.431-1.834,5.935-1.267,7.68,1.202,1.81,2.562,1.111,5.905-1.419,7.66.59.035,1.132.274,1.68.462,2.169.14,4.585-.192,6.725,0,.781.07,1.3.62,1.317,1.405-.31,2.366-.352,4.773-.648,7.138-.027.212-.077.419-.138.622h.76c.217,0,.696.372.826.556.641.902.023,2.506-1.037,2.59l-20.977-.428c-.666-.082-1.143-.509-1.313-1.151v-.461ZM6.754,8.461c2.33,3.075,7.361,1.734,7.89-2.097.326-2.359-2.157-4.548-4.579-4.783-3.989-.386-5.736,3.68-3.311,6.88ZM5.161,19.842c-.102-.383-.336-1.113-.319-1.494.011-.241.241-.487.48-.487h3.017s.557-6.053.557-6.053c.055-.279.181-.506.364-.718-1.937-.155-4.279.081-5.477,1.671-1.523,2.022-.43,4.72-.557,7.08h1.935ZM21.719,19.022v-6.716c-.017-.254-.238-.394-.483-.392l-11.329-.557c-.122.029-.21.087-.252.209l.034,7.74.06.104,11.4.285c.345-.049.562-.334.57-.673ZM6.222,19.679c.038.03.32.163.344.163h1.589s.046-.967.046-.967l-2.719-.306c.012.26.523.94.74,1.11ZM1.768,20.466c-.348.164-.439,1.004-.11,1.152l20.939.023c.439-.009.612-.542.219-.776l-21.048-.399Z"/><path class="cls-2" d="M15.136,14.893c-1.351-.227-1.399,1.493-.095,1.546,1.18.048,1.265-1.35.095-1.546Z"/><path class="cls-2" d="M0,20.675c.101-.258.166-.509.367-.716.104-.107.542-.39.67-.39h.806c.12-1.956-.317-4.159.413-6.012.76-1.927,2.51-3.339,4.561-3.661l-.531-.413c-2.579-2.23-2.479-6.338.259-8.403,2.431-1.834,5.935-1.267,7.68,1.202,1.81,2.562,1.111,5.905-1.419,7.66.59.035,1.132.274,1.68.462,2.169.14,4.585-.192,6.725,0,.781.07,1.3.62,1.317,1.405-.31,2.366-.352,4.773-.648,7.138-.027.212-.077.419-.138.622h.76c.217,0,.696.372.826.556.641.902.023,2.506-1.037,2.59l-20.977-.428c-.666-.082-1.143-.509-1.313-1.151v-.461ZM6.337,8.143c2.33,3.075,7.361,1.734,7.89-2.097.326-2.359-2.157-4.548-4.579-4.783-3.989-.386-5.736,3.68-3.311,6.88ZM4.744,19.524c-.102-.383-.336-1.113-.319-1.494.011-.241.241-.487.48-.487h3.017s.557-6.053.557-6.053c.055-.279.181-.506.364-.718-1.937-.155-4.279.081-5.477,1.671-1.523,2.022-.43,4.72-.557,7.08h1.935ZM21.303,18.703v-6.716c-.017-.254-.238-.394-.483-.392l-11.329-.557c-.122.029-.21.087-.252.209l.034,7.74.06.104,11.4.285c.345-.049.562-.334.57-.673ZM5.806,19.361c.038.03.32.163.344.163h1.589s.046-.967.046-.967l-2.719-.306c.012.26.523.94.74,1.11ZM1.352,20.147c-.348.164-.439,1.004-.11,1.152l20.939.023c.439-.009.612-.542.219-.776l-21.048-.399Z"/></svg>