<?xml version="1.0" encoding="UTF-8"?><svg id="Layer_1" xmlns="http://www.w3.org/2000/svg" viewBox="0 0 23.908 24"><defs><style>.cls-1{fill:#a5a5a5;}.cls-2{fill:#fff;}.cls-3{fill:#a8e2bb;}.cls-4{fill:#c2c2c2;}</style></defs><path class="cls-3" d="M18.356,1.254l-1.596.335v5.027c0,.127-.155.45-.224.576-.278.511-.776.762-1.345.802-2.129.147-5.039-.079-7.187.022-.573.006-1.428-.756-1.428-1.319l.607-5.108-4.974.326c-.184,0-1.181.599-1.205.805l.616,19.081c.016.22.403.597.601.597h2.193l-.423-5.928c0-.909,1.211-2.046,2.126-2.07l11.993-.656c.969-.047,2.267,1.124,2.267,2.078l-.426,6.575h1.771c.184,0,.565-.354.589-.559l-.331-15.879-3.625-4.705Z"/><path class="cls-2" d="M17.633,15.995l-10.531.341c-.219.016-.596.404-.596.603l-.918,5.459h12.768v-5.777c0-.241-.454-.651-.723-.625Z"/><polygon class="cls-4" points="15.164 1.254 8.78 1.589 8.78 6.9 15.164 6.391 15.164 1.254"/><path class="cls-1" d="M23.792,5.115L18.856.162l-.337-.162L2.086.002C.978.165.132,1.048.003,2.165l-.003,19.609c.109,1.187,1.038,1.678,2.219,1.787l19.506.439c1.183-.109,1.438-.928,1.547-2.112l.637-16.538-.115-.235ZM8.78,1.589l6.384-.335v5.137l-6.384.51V1.589ZM18.356,22.398H5.588l.918-5.459c0-.199.377-.587.596-.603l10.531-.341c.269-.026.723.384.723.625v5.777ZM21.722,22.398h-1.771l.426-6.575c0-.955-1.298-2.125-2.267-2.078l-11.993.656c-.915.023-2.126,1.16-2.126,2.07l.423,5.928h-2.193c-.198,0-.585-.378-.601-.597L1.004,2.719c.024-.206,1.021-.805,1.205-.805l4.974-.326-.607,5.108c0,.563.855,1.326,1.428,1.319,2.147-.101,5.057.126,7.187-.022.569-.039,1.067-.291,1.345-.802.069-.126.224-.449.224-.576V1.589l1.596-.335,3.625,4.705.331,15.879c-.024.206-.406.559-.589.559Z"/></svg>