<?xml version="1.0" encoding="UTF-8"?><svg id="Layer_1" xmlns="http://www.w3.org/2000/svg" viewBox="0 0 23.951 19.361"><defs><style>.cls-1{fill:none;}.cls-2{fill:#fff;}.cls-3{fill:#98e1ea;}</style></defs><path class="cls-1" d="M6.52,10.206c.037-.01.068-.026.11-.031-.048.005-.082.016-.11.031Z"/><polygon class="cls-1" points="1.026 15.374 1.026 15.405 1.026 15.4 1.026 15.374"/><path class="cls-1" d="M22.949,16.298v-.168c-.017.236-.043.447-.075.642.045-.153.075-.31.075-.474Z"/><path class="cls-1" d="M20.449,1.297h-.279c.549.015,1.092.094,1.553.295-.374-.183-.807-.295-1.274-.295Z"/><path class="cls-2" d="M15.82,8.838c1.748-.15,1.433-3.232-.283-2.671-2.356.771-1.458,2.82.283,2.671Z"/><path class="cls-2" d="M8.433,8.838c2.264-.376,1.511-2.876-.283-2.671-1.701.194-1.842,3.024.283,2.671Z"/><polygon class="cls-2" points="10.602 13.523 13.406 13.523 11.752 11.181 10.602 13.523"/><path class="cls-2" d="M22.719,2.497c-.164-.294-.413-.545-.718-.745-.085-.051-.165-.109-.257-.15-.007-.004-.015-.006-.022-.01-.461-.201-1.004-.28-1.553-.295H3.5c-1.379,0-2.128.894-2.128,2.021l-.345,12.056v.027s0,.003,0,.004l-.026.894c0,1.127.556,2.329,1.935,2.329l17.514-.285c1.178,0,2.162-.671,2.425-1.57.032-.195.057-.406.075-.642V3.341c0-.263-.066-.512-.177-.743-.016-.035-.034-.068-.052-.1ZM6.308,7.276c0-1.788,1.576-2.138,2.789-1.626,1.516.641,1.621,3.977-.212,4.03-1.424.041-2.434-.539-2.577-1.958-.011-.112,0-.333,0-.446ZM17.622,10.734c-.02.025-.162.112-.177.112h-4.84l1.545,3.029c.054.206.086.314-.131.319l-4.133.106c-.151-.051-.254-.379-.207-.532l1.505-2.847-4.431-.141c-.009,0-.444-.179-.444-.358,0-.135.096-.186.212-.216.028-.015.062-.026.11-.031l10.358-.125c.269.037.809.473.635.683ZM17.421,8.524c-1.306,1.652-2.933,1.271-3.566-.236-.521-1.239-.448-2.791,1.639-2.79,1.637,0,3.288,1.305,1.928,3.026Z"/><path class="cls-3" d="M16.987,10.05l-10.358.125c-.042.004-.072.021-.11.031-.116.03-.212.081-.212.216,0,.179.435.358.444.358l4.431.141-1.505,2.847c-.047.153.056.481.207.532l4.133-.106c.217-.005.185-.113.131-.319l-1.545-3.029h4.84c.015,0,.157-.088.177-.112.175-.211-.366-.646-.635-.683ZM13.406,13.523h-2.804l1.15-2.343,1.654,2.343Z"/><path class="cls-3" d="M8.885,9.68c1.833-.053,1.728-3.389.212-4.03-1.213-.513-2.789-.163-2.789,1.626,0,.113-.011.334,0,.446.143,1.419,1.153,1.999,2.577,1.958ZM8.15,6.167c1.794-.205,2.547,2.295.283,2.671-2.125.353-1.984-2.477-.283-2.671Z"/><path class="cls-3" d="M15.493,5.498c-2.087,0-2.16,1.552-1.639,2.79.633,1.506,2.26,1.888,3.566.236,1.361-1.721-.291-3.026-1.928-3.026ZM15.82,8.838c-1.741.149-2.639-1.9-.283-2.671,1.716-.562,2.031,2.521.283,2.671Z"/><path class="cls-3" d="M20.601.011L3.5.48C1.57.48,0,1.764,0,3.341v12.957c0,1.577,1.57,2.861,3.5,2.861l16.551.202c1.93,0,3.897-1.486,3.897-3.063V3.341c0-1.577.206-3.501-3.348-3.33ZM22.949,16.13v.168c0,.164-.03.321-.075.474-.263.898-1.247,1.57-2.425,1.57l-17.514.285c-1.379,0-1.935-1.202-1.935-2.329l.026-.894v-.031s.346-12.056.346-12.056c0-1.127.749-2.021,2.128-2.021h16.949c.467,0,.9.112,1.274.295.007.003.015.006.022.01.092.041.172.099.257.15.305.199.554.451.718.745.018.033.036.066.052.1.111.231.177.481.177.743v12.789Z"/></svg>