<?xml version="1.0" encoding="UTF-8"?><svg id="Layer_1" xmlns="http://www.w3.org/2000/svg" viewBox="0 0 23.876 21.226"><defs><style>.cls-1{fill:none;}.cls-2{fill:#efc7c2;}.cls-3{fill:#4c4c4c;}</style></defs><path class="cls-1" d="M6.48,5.668c.105.166.118.336-.065.489.209-.138.187-.312.065-.489Z"/><path class="cls-2" d="M8.873,18.628h.011s.005-.012.006-.015c-.005.006-.012.01-.017.015Z"/><path class="cls-2" d="M22.509,7.946c-.031-.233.584-.857.606-1.103.076-.832-.551-1.227-1.289-1.693-.292-.184-.759-.235-.873-.566-.179-.518-.182-.973-.822-1.174-.483-.152-.647.019-1.037.006-.47-.016-.449-.474-.673-.757-.292-.368-.825-.557-1.281-.622-.199-.029-.495-.088-.622.064-.303.362-.556,1.153-.505,1.62.039.353.481.988-.095,1.168-.675.211-.805-.718-.859-1.188-.334-.15-.719-.25-1.065-.086-.392.186-.311.775-.924.635-.608-.139-.197-.916.081-1.199.499-.506,1.357-.586,1.999-.329.152-.351.32-.709.486-1.061-.223-.093-1.631-.636-2.072-.622s-3.232.612-3.619.664c-.406.054-.885-.079-1.323-.017l-.345.101c-.089.043-.175.097-.256.173-.22.207-.203.535-.522.639-.285.093-.709.009-1.027.041-.95.096-1.834.634-2.026,1.619.55.071.762.338,1.205.69.209.166.65.438.827.719.122.177.144.351-.065.489-1.145.957-.712-.359-1.051-.608-.67-.492-1.625-.401-2.218.171-.321.311-.149.544-.304.81-.088.152-.356.276-.483.445-.161.215-.313.663-.226.922.026.079.601.205.753.268.614.255,1.175.863,1.236,1.549.07.792-1.231.713-1.43.215-.189-.474.51-.954-.083-1.196-.473-.193-.692.243-.992.611-1.171,1.436-.584,5.237,1.119,6.075.138.068.624.237.751.207.046-.011.629-.445.774-.527.448-.252,1.677-.793,2.161-.769.472.024,1.053.647.702.93-.882.274-2.401.178-3.124.779.178,1.969,2.674,2.572,4.245,2.161.572-.149,1.393-.778,1.495.243.052.519-.363,1.102-.363,1.436s1.029.723,1.477.352c.448-.372.535-3.454,1.66-4.806-.956-.247-1.479.098-2.456-.039-.393-.215-.488-1.228-.018-1.284.253-.03.573.025.83.054,1.868.209,3.774,1.101,5.657.584,1.007-.276,1.833-.948,1.889-2.058.012-.236-.146-.524.145-.737.256-.186.528.005.765.014.793.03,2.818-.516,3.232-1.247.292-.516-.296-.841-.17-1.254.069-.225.792-.305.824-.666.03-.341-.669-.585-.703-.844ZM4.417,12.156c.126.562.563,1.491.334,2.031-.168.397-1.032,1.175-1.458.628-.383-.493.659-.827.748-1.268.037-.183.047-.694-.035-.852-.052-.101-.657-.446-.814-.511-.383-.159-1.278-.157-.984-.669.567-.987.886.059,1.238.175.445.147.857.086,1.209-.235.225-.205.323-.602.654-.648.27-.037.76.109.818.374.099.454-1.261.887-1.711.974ZM7.899,14.875c-.478-.478-.144-1.484.748-.586.404.407-.367.967-.748.586ZM7.381,9.749c.134.347,1.03,1.192.547,1.495-.479.3-.759-.312-.902-.672-.454-1.14-.3-2.229.509-3.157.215-.247.766-.762,1.104-.687.247.055.684.415.684.669,0,.362-2.317,1.38-1.942,2.351ZM8.794,4.717c-.399-.203-.228-.652-.098-.968.383-.933,1.3-1.671,2.3-1.551.314.038.674.423.637.82-.06.641-.778.368-1.176.404-.299.027-.964.133-1.135.377-.232.329.119,1.248-.528.918ZM9.325,8.974c.073-.978.617-.363.944-.402.62-.076,1.173-.498,1.475-1.032.161-.285.295-.937.517-1.062.386-.217,1.231.204,1.172.627-.086.617-1.039,1.191-1.41,1.672.089.488.598.885.826,1.111.23.229.349.337.037.464-.511.208-1.462-.896-1.707-1.329-.474.13-1.925.91-1.854-.049ZM14.056,13.102c-.53.434-1.895.325-2.49.033-.39-.191-.934-.975-.881-1.437.044-.381.215-.529.479-.273.089.086.195.308.296.424.422.482.957.643,1.595.576.295-.031.727-.619.998-.476.281.149.252.951.004,1.153ZM19.687,11.026c-.241.358-.544.237-.823.24-.687.006-1.53.016-1.626.725-.019.138.318.609.302.742-.077.662-.905.652-.975,0-.054-.509.371-1.29.582-1.742-.586-.555-1.697-.542-1.094-1.834.135-.29.319-.453.618-.384.396.091-.115.573-.074.853.048.322.733.736,1.02.896.161.09.226-.026.387-.065.457-.111,2.941-1.304,1.683.569ZM20.027,7.453c-.62.463-1.568,1-2.184.557-.264-.19-.618-.949-.347-1.172.355-.293.632.039.974.136.358.102,1.114.269,1.335-.063-.153-.448-1.141-1.906.254-1.807.634.045.287.831.313,1.223.018.279.145.574.35.764.283.262.975.325.896.801-.212,1.272-1.277-.083-1.589-.439Z"/><path class="cls-3" d="M23.492,7.8c-.086.067.118-.604.129-.779.079-1.275.12-2.251-2.003-2.483.329-1.91-1.066-2.251-2.26-2.143-.35-.755-1.244-1.167-2.033-1.286-.256-.039-.591-.017-.819-.063-.158-.032-.484-.236-.671-.304-.201-.073-1.642-.413-2.349-.616-1.701-.489-3.35.609-3.733.642-.289.025-.792-.448-1.127-.421-.644.05-1.227.755-1.565,1.314-1.748-.019-4.084,1.232-3.193,2.845-.479.24-1.534.549-1.765,1.054-.204.447-.145.372-.44.767-.465.623-.044,1.049.132,1.81-.472.425-1.647,2.11-1.758,2.762-.115.675.074,2.442.074,2.442.332,1.409,1.659,2.51,3.214,2.699.399,2.593,3.776,4.48,5.548,2.589.005-.006.012-.01.017-.015-.001.004-.004.011-.006.016-.07.211-.452.998-.476,1.181-.094.727-.51,1.104.461,1.314.41.089,2.078.134,2.423.079.088-.014.152-.048.212-.112.254-.27.156-1.251.292-1.712.334-1.126,1.21-2.771,2.049-3.608l.096-.044c2.203.413,6.46-1.037,5.194-3.179,1.51-.112,3.878-.407,4.148-2.148.025-.161-.017-.353.022-.489.027-.095.268-.354.353-.483.523-.786-.054-1.716-.168-1.627ZM22.389,9.457c-.127.413.462.738.17,1.254-.414.731-2.44,1.277-3.232,1.247-.236-.009-.509-.2-.765-.014-.292.212-.133.501-.145.737-.056,1.11-.882,1.782-1.889,2.058-1.883.517-3.789-.374-5.657-.584-.257-.029-.578-.084-.83-.054-.471.056-.375,1.07.018,1.284.977.137,1.5-.207,2.456.039-1.125,1.352-1.213,4.434-1.66,4.806-.448.372-1.477-.018-1.477-.352s.414-.917.363-1.436c-.102-1.02-.923-.392-1.495-.243-1.571.411-4.067-.193-4.245-2.161.723-.601,2.242-.505,3.124-.779.352-.282-.23-.905-.702-.93-.483-.025-1.712.516-2.161.769-.145.082-.729.516-.774.527-.127.03-.612-.139-.751-.207-1.703-.838-2.29-4.638-1.119-6.075.3-.368.518-.804.992-.611.594.242-.105.723.083,1.196.198.498,1.5.577,1.43-.215-.061-.686-.622-1.294-1.236-1.549-.152-.063-.727-.19-.753-.268-.087-.259.064-.707.226-.922.127-.169.395-.293.483-.445.155-.267-.017-.499.304-.81.592-.573,1.547-.664,2.218-.171.339.249-.094,1.565,1.051.608.183-.153.17-.322.065-.489-.177-.281-.618-.553-.827-.719-.444-.352-.655-.62-1.205-.69.191-.985,1.076-1.523,2.026-1.619.317-.032.741.051,1.027-.041.319-.104.302-.432.522-.639.081-.076.167-.13.256-.173l.345-.101c.439-.062.917.071,1.323.017.387-.052,3.179-.651,3.619-.664s1.848.529,2.072.622c-.166.353-.334.71-.486,1.061-.642-.257-1.5-.177-1.999.329-.279.283-.69,1.06-.081,1.199.613.14.532-.449.924-.635.346-.164.73-.065,1.065.086.054.47.184,1.399.859,1.188.577-.18.134-.815.095-1.168-.051-.468.202-1.258.505-1.62.127-.152.423-.093.622-.064.456.066.989.254,1.281.622.224.283.203.741.673.757.389.013.553-.158,1.037-.006.64.201.644.656.822,1.174.114.331.582.381.873.566.738.466,1.365.861,1.289,1.693-.022.246-.637.87-.606,1.103.035.26.733.504.703.844-.031.361-.755.441-.824.666Z"/><path class="cls-3" d="M18.004,10.457c-.16.039-.226.155-.387.065-.287-.16-.972-.574-1.02-.896-.041-.279.47-.761.074-.853-.299-.069-.483.094-.618.384-.603,1.292.507,1.278,1.094,1.834-.211.453-.636,1.234-.582,1.742.07.652.897.662.975,0,.016-.133-.321-.604-.302-.742.096-.709.939-.718,1.626-.725.28-.003.583.118.823-.24,1.258-1.873-1.226-.68-1.683-.569Z"/><path class="cls-3" d="M12.885,10.352c.311-.127.193-.236-.037-.464-.227-.226-.736-.623-.826-1.111.371-.481,1.324-1.054,1.41-1.672.059-.423-.786-.844-1.172-.627-.222.125-.355.777-.517,1.062-.302.534-.855.956-1.475,1.032-.327.04-.871-.576-.944.402-.071.958,1.38.178,1.854.049.245.433,1.196,1.538,1.707,1.329Z"/><path class="cls-3" d="M5.31,10.808c-.331.046-.429.443-.654.648-.352.32-.764.382-1.209.235-.353-.116-.671-1.162-1.238-.175-.294.512.601.51.984.669.157.065.761.41.814.511.082.158.072.669.035.852-.089.442-1.132.775-.748,1.268.426.547,1.289-.231,1.458-.628.229-.54-.208-1.469-.334-2.031.45-.087,1.811-.52,1.711-.974-.058-.265-.548-.412-.818-.374Z"/><path class="cls-3" d="M20.72,7.091c-.205-.19-.332-.486-.35-.764-.025-.393.322-1.178-.313-1.223-1.394-.099-.407,1.359-.254,1.807-.221.332-.976.165-1.335.063-.342-.097-.619-.429-.974-.136-.271.223.083.982.347,1.172.616.443,1.564-.094,2.184-.557.312.357,1.377,1.711,1.589.439.079-.477-.613-.54-.896-.801Z"/><path class="cls-3" d="M8.639,6.729c-.339-.075-.89.44-1.104.687-.809.928-.964,2.017-.509,3.157.143.36.424.972.902.672.483-.303-.413-1.148-.547-1.495-.375-.972,1.942-1.989,1.942-2.351,0-.254-.437-.614-.684-.669Z"/><path class="cls-3" d="M14.051,11.949c-.27-.143-.703.445-.998.476-.638.067-1.172-.094-1.595-.576-.101-.115-.207-.338-.296-.424-.264-.255-.435-.108-.479.273-.053.462.491,1.246.881,1.437.595.291,1.96.4,2.49-.033.247-.202.276-1.004-.004-1.153Z"/><path class="cls-3" d="M11.634,3.018c.037-.397-.324-.782-.637-.82-1-.12-1.917.618-2.3,1.551-.13.316-.301.765.098.968.647.329.296-.589.528-.918.172-.244.837-.35,1.135-.377.398-.036,1.116.237,1.176-.404Z"/><path class="cls-3" d="M7.899,14.875c.381.381,1.152-.179.748-.586-.892-.899-1.226.108-.748.586Z"/></svg>