<?xml version="1.0" encoding="UTF-8"?><svg id="Layer_1" xmlns="http://www.w3.org/2000/svg" viewBox="0 0 22.974 24.035"><defs><style>.cls-1{fill:#fce0c3;}.cls-2{fill:#f7e98e;}.cls-3{fill:#c8bfef;}</style></defs><path class="cls-1" d="M14.304,14.734c-.095.024-.078.07-.075.143.011.263.111.605.126.883.077,1.41-.234,2.904.332,4.235,0,0-1.564.637-3.61.954s-3.218-.858-3.218-.858c.63-1.351.301-2.888.38-4.331.015-.272.093-.576.116-.845.007-.077.052-.119-.042-.181-.48,1.327-1.023,2.678-2.124,3.612-.491.417-1.893,1.192-2.52,1.206-.915.02-1.865-1.232-1.269-1.954.258-.313,1.385.077,1.739-.095.86-.418,1.802-1.328,2.213-2.181.645-1.339.401-4.491,2.201-4.032,4.153,1.06,3.687.116,5.444-.002,2.683.568,1.661,4.72,3.704,6.31.504.392,1.855-.194,2.135.23.41.62.14,1.435-.565,1.666-.568.186-1.653-.353-2.163-.654-1.537-.909-2.281-2.455-2.803-4.105Z"/><path class="cls-3" d="M16.341,19.558c2.414-.329,3.801,4.24,1.045,4.458h-9.361c-.764-.121-.57-1.753,1.097-1.653l7.219-2.806Z"/><path class="cls-1" d="M10.904,5.276c4.614-.165,4.017,5.592.696,5.29-3.67-.334-4.209-5.164-.696-5.29Z"/><path class="cls-3" d="M4.588,24.015c-1.936-.189.663-6.369,2.269-4.281.767.998,2.224,1.609,3.412,2.006.06.02.121.015.16.078-.639.227-1.805.012-2.434.265-.842.339-1.64,1.127-1.186,1.931-.702-.061-1.533.067-2.22,0Z"/><path class="cls-2" d="M5.649,1.54c.161-.035.589-.147.689-.013.307.673.277,1.37.55,2.034.213.518.049.962-.245.645l-1.399-2.005c-.012-.174.23-.624.405-.662Z"/><path class="cls-2" d="M11.093.008c.255-.052.462.154.491.397.055.462.058,1.888-.005,2.341-.073.523-.487-.216-.54-.67-.053-.462-.647-1.109-.578-1.549.022-.14.491-.49.632-.519Z"/><path class="cls-2" d="M19.686,10.821l2.566-.007c.421.066,1.032,1.13.539,1.206-.38.058-1.821-.935-3.043-.78-.403.051-.405-.251-.062-.42Z"/><path class="cls-2" d="M16.627,1.401c.254-.014.828.818.693,1.054-.424.592-1.091,1.045-1.537,1.587-.318.387-.54.196-.297-.354.185-.419.537-1.695.812-2.049.089-.115.161-.229.328-.238Z"/><path class="cls-2" d="M20.261,4.984c.385-.076.943.798.656,1.043l-2.171,1.271c-.445.119-.225-.512.156-.772l1.359-1.542Z"/><path class="cls-2" d="M1.812,4.962c.12-.025.168.003.271.045.278.112,1.382,1.694,1.581,1.875.325.296.504.709.089.609l-2.097-1.203c-.338-.171-.194-1.253.157-1.325Z"/><path class="cls-2" d="M.344,10.599c.376-.068,1.511.876,1.992.642.499-.243.921.463.53.524l-2.574.002c-.406-.173-.388-1.088.052-1.168Z"/></svg>