<?xml version="1.0" encoding="UTF-8"?><svg id="Layer_1" xmlns="http://www.w3.org/2000/svg" viewBox="0 0 24 24"><defs><style>.cls-1{fill:#fff;}.cls-2{fill:#98e1ea;}</style></defs><polygon class="cls-2" points="8.454 7.239 7.231 7.321 7.175 8.539 8.407 8.499 8.454 7.239"/><path class="cls-2" d="M15.084,8.31c.455.002,2.014-.043,2.536-.046-.042-.063-.088-.123-.141-.181-.902-.99-1.801-1.983-2.7-2.976-.04-.044-.062-.104-.093-.157-.057.062-.065.079-.065.095,0,.94-.004,1.88,0,2.82.002.293.164.443.463.445Z"/><polygon class="cls-2" points="7.233 12.512 8.366 12.453 8.409 11.33 7.201 11.262 7.233 12.512"/><polygon class="cls-2" points="7.196 16.449 8.411 16.522 8.411 15.268 7.228 15.344 7.196 16.449"/><path class="cls-2" d="M16.973,12.98c-1.572,0-2.862,1.179-3.068,2.698-.019.138-.042.275-.042.419,0,1.719,1.395,3.117,3.111,3.117s3.11-1.398,3.11-3.117c0-.623-.188-1.201-.503-1.688-.555-.857-1.514-1.429-2.608-1.429ZM18.951,15.353c-.098.137-.212.263-.32.392-.65.552-1.243,1.121-1.788,1.774-.251.3-.304.495-.579.221-.371-.371-.744-.741-1.111-1.116-.143-.146-.165-.323-.073-.481.108-.097.115-.087.29-.046.097.023.194.085.268.156.279.269.586.467.955.692h0c.547-.659,1.074-1.292,1.602-1.926.048-.058.095-.117.147-.17.154-.154.382-.167.542-.034.163.135.196.357.067.539Z"/><path class="cls-2" d="M14.022,13.688c.699-.858,1.762-1.408,2.951-1.408.289,0,.57.035.841.097.005-.026.011-.047.011-.062,0-1.128.003-2.256,0-3.383,0-.039-.008-.076-.011-.113-.517.009-2.204.293-2.715.291-.78-.003-1.276-.502-1.276-1.282,0-1.09.208-2.186.208-3.276v-.227c-.152-.012-.484-.025-.608-.025-2.376-.002-4.767,0-7.162.231-.772.001-1.244.28-1.244,1.056-.001,4.223.268,8.427.27,12.65,0,.776.238,1.305,1.01,1.306,2.713.003,5.387-.189,8.101-.19.044,0,.087-.009.166-.018-.802-.635-1.248-1.24-1.463-2.198l-.054-.259h0c-.016-.217-.017-.425-.008-.627-.076.045-.169.075-.287.076-.894,0-1.788,0-2.682,0-.194,0-.343-.075-.414-.261-.065-.169-.017-.189.128-.294.084-.061.205-.093.311-.095.443-.01.876-.061,1.319-.061,0,0,.888-.088,1.332-.087.159,0,.28.041.361.115.111-.636.36-1.179.691-1.645.034-.052.071-.101.108-.151.039-.053.077-.108.119-.159ZM6.423,7.908h0c0-.231-.007-.462.004-.692.018-.388.336-.699.724-.707.453-.009.907-.009,1.361,0,.375.008.687.312.698.688.014.463.012.926.003,1.389-.007.395-.328.707-.723.723-.465.019-.932.019-1.397-.002-.359-.016-.653-.31-.667-.67-.009-.243-.005-.486-.005-.729h.001ZM8.454,10.523c.413.016.748.356.758.769.011.421.011.843,0,1.264-.011.411-.346.749-.757.76-.424.011-.849.011-1.273,0-.409-.011-.745-.345-.756-.754-.011-.433-.01-.866,0-1.299.01-.398.332-.723.73-.739.219-.009.44-.002.66-.002h0c.212,0,.425-.006.637.003ZM9.214,16.546c-.009.433-.367.781-.8.787-.403.005-.806.006-1.209,0-.429-.007-.768-.359-.78-.788-.006-.213,0-.426,0-.639h0c0-.198-.003-.396.001-.593.01-.43.353-.77.783-.785.422-.015.844-.013,1.266.001.404.013.734.333.741.737.008.426.009.854,0,1.28ZM12.946,12.319c-.903-.088-1.8-.097-2.694-.096-.194,0-.331.021-.402-.164-.065-.169-.03-.333.116-.438.084-.061.205-.093.311-.095.443-.01.888-.005,1.331-.005h0c.444,0,.888,0,1.332,0,.309.001.48.148.476.404-.004.245-.178.394-.471.394ZM13.364,7.926c-.085.143-.218.196-.38.195-.456-.002-.913,0-1.369,0h0c-.437,0-.875,0-1.313,0-.299-.001-.486-.161-.481-.405.005-.24.187-.393.475-.394.894,0,1.803.127,2.697.13.35.002.538.194.372.474Z"/><path class="cls-2" d="M24,12C24,5.373,18.627,0,12,0S0,5.373,0,12s5.373,12,12,12c2.076,0,4.029-.528,5.732-1.456l5.229.732-2.371-2.906c2.107-2.162,3.409-5.112,3.409-8.37ZM17.741,20.265c-.397.068-.808.072-1.213.073-3.401.006-6.801.004-10.202.003-1.251,0-2.107-.858-2.108-2.112-.001-2.105,0-4.21,0-6.315h0c0-2.124-.002-4.247.001-6.371.002-.975.615-1.766,1.54-1.987.168-.04.346-.056.52-.056,2.388-.004,4.776-.001,7.164-.004.636,0,1.166.229,1.594.702,1.02,1.128,2.043,2.253,3.063,3.381.355.393.525.859.525,1.389-.001,1.171.002,2.343-.003,3.514,0,.133.043.192.16.248,1.56.754,2.454,2.463,2.201,4.195-.246,1.682-1.564,3.054-3.242,3.339Z"/><path class="cls-1" d="M18.782,12.732c-.117-.057-.161-.116-.16-.248.005-1.171.002-2.343.003-3.514,0-.53-.169-.996-.525-1.389-1.02-1.128-2.043-2.253-3.063-3.381-.428-.473-.958-.703-1.594-.702-2.388.003-4.776,0-7.164.004-.173,0-.351.016-.52.056-.926.221-1.539,1.012-1.54,1.987-.003,2.124-.001,4.247-.001,6.371h0c0,2.105-.001,4.21,0,6.315,0,1.254.856,2.112,2.108,2.112,3.401,0,6.801.003,10.202-.003.404,0,.815-.005,1.213-.073,1.678-.286,2.996-1.657,3.242-3.339.253-1.732-.64-3.441-2.201-4.195ZM14.686,4.951c.031.052.053.112.093.157.898.994,1.798,1.986,2.7,2.976.053.058.1.119.141.181-.522.003-2.081.048-2.536.046-.298-.001-.461-.152-.463-.445-.005-.94-.001-1.88,0-2.82,0-.017.008-.033.065-.095ZM16.973,19.914c-2.1,0-3.81-1.713-3.81-3.817,0-.775.233-1.497.632-2.099-.331.466-.579,1.009-.691,1.645-.081-.073-.202-.114-.361-.115-.444-.001-1.332.087-1.332.087-.443,0-.876.051-1.319.061-.106.002-.227.035-.311.095-.146.105-.193.125-.128.294.071.186.22.261.414.261.894,0,1.788,0,2.682,0,.118,0,.211-.03.287-.076-.009.202-.008.41.008.626h0s.054.26.054.26c.215.957.662,1.563,1.463,2.198-.079.009-.122.018-.166.018-2.713,0-5.387.192-8.101.19-.772,0-1.01-.53-1.01-1.306-.001-4.223-.271-8.427-.27-12.65,0-.776.473-1.055,1.244-1.056,2.394-.231,4.786-.233,7.162-.231.124,0,.456.013.608.025v.227c0,1.09-.209,2.186-.208,3.276,0,.781.497,1.279,1.276,1.282.511.002,2.198-.281,2.715-.291.004.038.011.074.011.113.003,1.128,0,2.256,0,3.383,0,.015-.005.035-.011.062,1.696.385,2.968,1.905,2.968,3.72,0,2.104-1.709,3.817-3.809,3.817Z"/><path class="cls-1" d="M8.472,14.528c-.422-.014-.845-.016-1.266-.001-.429.015-.773.355-.783.785-.004.197-.001.395-.001.593h0s0,0,0,0c0,.213-.005.426,0,.639.012.429.351.781.78.788.403.006.806.005,1.209,0,.433-.005.792-.354.8-.787.009-.426.008-.854,0-1.28-.007-.404-.338-.723-.741-.737ZM8.411,16.522l-1.215-.073.032-1.105,1.183-.076v1.254Z"/><path class="cls-1" d="M7.093,9.307c.465.021.932.021,1.397.002.395-.016.715-.328.723-.723.009-.463.011-.927-.003-1.389-.011-.375-.323-.679-.698-.688-.453-.01-.907-.009-1.361,0-.388.008-.706.319-.724.707-.011.23-.004.461-.004.692h-.002c0,.243-.005.486.005.729.014.359.308.653.667.67ZM7.231,7.321l1.223-.082-.047,1.26-1.232.04.056-1.218Z"/><path class="cls-1" d="M7.157,10.522c-.398.016-.72.341-.73.739-.011.433-.012.866,0,1.299.011.409.346.744.756.754.424.011.849.012,1.273,0,.411-.011.747-.349.757-.76.011-.421.011-.843,0-1.264-.011-.413-.346-.753-.758-.769-.212-.008-.425-.002-.637-.002h0c-.22,0-.44-.007-.66.001ZM8.409,11.33l-.043,1.123-1.133.059-.032-1.25,1.208.068Z"/><path class="cls-1" d="M12.992,7.452c-.894-.003-1.803-.131-2.697-.13-.288,0-.47.154-.475.394-.005.244.182.404.481.405.437.001.875,0,1.313,0h0c.456,0,.913-.001,1.369,0,.162,0,.295-.052.38-.195.166-.28-.022-.472-.372-.474Z"/><path class="cls-1" d="M12.94,11.521c-.444-.001-.888,0-1.332,0h0c-.443,0-.888-.006-1.331.004-.106.002-.227.035-.311.095-.146.105-.181.269-.116.438.071.186.207.164.402.164.894,0,1.791.008,2.694.096.292,0,.467-.149.471-.394.003-.256-.167-.403-.476-.404Z"/><path class="cls-1" d="M18.343,14.849c-.053.053-.099.112-.147.17-.527.634-1.054,1.267-1.602,1.925h0c-.37-.223-.677-.422-.955-.691-.073-.07-.171-.133-.268-.156-.175-.041-.182-.051-.29.046-.093.158-.071.335.073.481.367.375.74.745,1.111,1.116.275.275.328.08.579-.221.545-.653,1.138-1.222,1.788-1.774.108-.13.222-.255.32-.392.13-.181.096-.404-.067-.539-.159-.133-.387-.12-.542.034Z"/><path class="cls-1" d="M17.815,12.377c-.271-.062-.552-.097-.841-.097-1.189,0-2.252.549-2.951,1.408-.042.051-.08.106-.119.159-.036.05-.074.099-.108.151-.398.603-.632,1.324-.632,2.099,0,2.104,1.709,3.817,3.81,3.817s3.809-1.713,3.809-3.817c0-1.814-1.272-3.335-2.968-3.72ZM20.084,16.097c0,1.719-1.395,3.117-3.11,3.117s-3.111-1.398-3.111-3.117c0-.143.023-.28.042-.419.206-1.519,1.496-2.698,3.068-2.698,1.094,0,2.053.571,2.608,1.429.315.487.503,1.065.503,1.688Z"/></svg>