<?xml version="1.0" encoding="UTF-8"?><svg id="Layer_1" xmlns="http://www.w3.org/2000/svg" viewBox="0 0 24 24.025"><defs><style>.cls-1{fill:#f7e98e;}.cls-2{fill:#fff;}</style></defs><path class="cls-1" d="M20.591,20.394c2.107-2.162,3.409-5.112,3.409-8.37C24,5.397,18.627.025,12,.025S0,5.397,0,12.025s5.373,12,12,12c2.076,0,4.029-.528,5.733-1.456l5.229.732-2.371-2.906ZM4.577,12.913c.298-.03.643-.004.957-.03,2.602-.215,5.211-1.74,7.302-3.273,1.621-1.189,3.064-2.679,4.092-4.424-.01-.033-.067-.011-.094-.007-.479.069-.548.045-1.037.141-.566.111-1.328-.136-.897-.513l3.191-.779h.203c.158.069.223.158.272.333l.362,2.687v.205c-.152.447-.97.219-1.129-.219-.165-.454.045-.804-.119-1.26-.011-.031-.014-.07-.056-.074-.167.305-.357.605-.557.889-2.385,3.392-6.673,6.167-10.772,6.759-.457.066-1.484.201-1.903.115-.432-.089-.386-.491.185-.549ZM4.471,19.04c-.35-.049-.516-.455-.288-.733.027-.032.211-.148.231-.148h.872l-.307-3.123c.033-.209.18-.37.391-.396.361-.045,1.736.487,2.097.532.071.009.211.07.261.117.023.021.13.208.13.221l-.269,2.649h1.159l-.414-3.685c0-.013.107-.199.13-.221.039-.036.181-.106.234-.115.585.041,1.377-.612,1.952-.555.089.009.224.056.289.118.023.021.13.208.13.221v4.237h.87l-.424-5.825c0-.013.107-.199.13-.221.039-.036.181-.106.234-.115.585.041,1.676-.084,2.25-.027.089.009.224.056.289.118.023.021.13.208.13.221l-.286,5.849h1.156v-8.781c0-.013.107-.199.13-.221.039-.036.181-.106.234-.115.584.041,1.622-.078,2.197-.021.214.021.349.139.412.345l-.866,8.792h1.068c.012,0,.186.1.204.117.062.058.066.151.13.206v.235c-.1.19-.196.302-.419.324H4.471Z"/><path class="cls-2" d="M18.929,18.717v-.235c-.064-.055-.068-.147-.13-.206-.018-.017-.192-.117-.204-.117h-1.068l.866-8.792c-.064-.207-.199-.324-.412-.345-.574-.057-1.612.062-2.197.021-.053.008-.196.078-.234.115-.023.021-.13.208-.13.221v8.781h-1.156l.286-5.849c0-.013-.107-.199-.13-.221-.066-.062-.201-.109-.289-.118-.574-.057-1.666.068-2.25.027-.053.008-.196.078-.234.115-.023.021-.13.208-.13.221l.424,5.825h-.87v-4.237c0-.013-.107-.199-.13-.221-.066-.062-.201-.109-.289-.118-.574-.057-1.367.596-1.952.555-.053.008-.196.078-.234.115-.023.021-.13.208-.13.221l.414,3.685h-1.159l.269-2.649c0-.013-.107-.199-.13-.221-.05-.047-.19-.109-.261-.117-.361-.045-1.736-.576-2.097-.532-.212.026-.359.187-.391.396l.307,3.123h-.872c-.02,0-.204.115-.231.148-.228.277-.062.684.288.733h14.038c.224-.021.32-.134.419-.323Z"/><path class="cls-2" d="M4.392,13.462c.419.086,1.446-.049,1.903-.115,4.1-.593,8.387-3.367,10.772-6.759.2-.284.39-.583.557-.889.043.004.045.043.056.074.164.456-.046.806.119,1.26.16.438.978.666,1.129.219v-.205l-.362-2.687c-.049-.174-.114-.264-.272-.333h-.203l-3.191.779c-.431.377.331.624.897.513.49-.096.558-.072,1.037-.141.027-.004.084-.026.094.007-1.028,1.745-2.471,3.235-4.092,4.424-2.091,1.533-4.7,3.058-7.302,3.273-.314.026-.659,0-.957.03-.571.058-.618.46-.185.549Z"/></svg>