<?xml version="1.0" encoding="UTF-8"?><svg id="Layer_1" xmlns="http://www.w3.org/2000/svg" viewBox="0 0 23.842 23.842"><defs><style>.cls-1{fill:#f9c075;}.cls-2{fill:#fff;}</style></defs><path class="cls-1" d="M20.455,20.235c2.093-2.148,3.387-5.078,3.387-8.314C23.842,5.337,18.505,0,11.921,0S0,5.337,0,11.921s5.337,11.921,11.921,11.921c2.063,0,4.003-.524,5.695-1.446l5.194.727-2.355-2.887ZM10.974,19.31c-.463.194-3.667-1.265-4.755-2.452-.989-1.079-1.608-2.347-1.867-3.784-.115-.635-.143-1.279-.089-1.929.118-1.423.444-1.914,1.289-3.059.288-.39,1.122-1.369,1.441-1.746-.084-.519-1.196-.401-1.245-1.061.068-.372,3.549-.911,3.776-.726.129.108-.125,3.745-.677,3.757-.552.012-.449-.925-1.023-1.499-1.141.583-2.251,3.824-2.113,5.356.262,2.92,2.307,4.897,5.063,6.089.487.166.2,1.053.2,1.053,0,0,.464-.194.001,0ZM10.834,15.342c-1.047-1.048-3.169-2.728-3.169-3.169s.539-.779.795-.793c.257-.014,1.661,1.821,2.363,2.524,1.426-1.427,3.436-4.922,3.88-5.033.443-.111,1.64.709,1.429,1.172s-3.702,2.902-5.298,5.298ZM14.251,19.111c-.129-.108.125-3.745.677-3.757.552-.012.449.925,1.023,1.499,1.141-.583,2.251-3.824,2.113-5.356-.262-2.92-2.307-4.898-5.063-6.089-.487-.166-.2-1.053-.2-1.053,0,0-.464.194-.001,0s3.667,1.265,4.755,2.452c.989,1.079,1.608,2.347,1.867,3.784.115.635.143,1.279.089,1.929-.118,1.423-.444,1.914-1.289,3.059-.288.391-1.122,1.369-1.441,1.746.084.519,1.196.401,1.245,1.061-.068.372-3.549.911-3.776.726Z"/><path class="cls-2" d="M16.133,10.043c.21-.463-.986-1.283-1.429-1.172-.443.111-2.454,3.606-3.88,5.033-.702-.703-2.106-2.539-2.363-2.524-.257.015-.795.353-.795.793s2.122,2.121,3.169,3.169c1.596-2.397,5.088-4.836,5.298-5.298Z"/><path class="cls-2" d="M18.027,18.385c-.049-.661-1.161-.543-1.245-1.061.319-.377,1.153-1.355,1.441-1.746.845-1.144,1.17-1.636,1.289-3.059.054-.65.026-1.294-.089-1.929-.259-1.437-.878-2.706-1.867-3.784-1.089-1.187-4.293-2.646-4.755-2.452s.001,0,.001,0c0,0-.287.887.2,1.053,2.755,1.192,4.801,3.17,5.063,6.089.138,1.533-.972,4.774-2.113,5.356-.573-.574-.471-1.511-1.023-1.499-.552.012-.806,3.649-.677,3.757.227.185,3.707-.354,3.776-.726Z"/><path class="cls-2" d="M10.773,18.257c-2.755-1.192-4.801-3.17-5.063-6.089-.138-1.533.972-4.774,2.113-5.356.573.574.471,1.511,1.023,1.499.552-.012.806-3.649.677-3.757-.227-.185-3.707.354-3.776.726.049.661,1.161.543,1.245,1.061-.319.377-1.153,1.355-1.441,1.746-.845,1.144-1.17,1.636-1.289,3.059-.054.65-.026,1.294.089,1.929.259,1.437.878,2.706,1.867,3.784,1.089,1.187,4.293,2.646,4.755,2.452s-.001,0-.001,0c0,0,.287-.887-.2-1.053Z"/></svg>