<?xml version="1.0" encoding="UTF-8"?><svg id="white" xmlns="http://www.w3.org/2000/svg" viewBox="0 0 24.064 24.036"><defs><style>.cls-1{fill:#fff;}</style></defs><path class="cls-1" d="M22.478,18.337c.912-1.545,1.564-5.141,1.577-5.201v-1.392c-.06-.442-.105-.887-.181-1.326-.413-2.397-1.77-4.9-3.46-6.646C18.403,1.696,15.941.524,13.072.2c-.152-.017-.303-.038-.455-.057h-.974c-.761.249-1.019.791-1.003,1.566.03,1.46-.341,2.806-.34,4.268,0,.131,0,.264.018.393.092.683,1.149,1.275,1.818,1.11.597-.147.962-.631.966-1.303.005-1.067-.956-3.165-.956-4.231v-.296c.219.038.4.067.58.102,5.013.968,9.302,6.826,8.433,11.859-.924,5.348-6.157,8.948-11.399,7.593C.795,18.885.371,12.204,4.084,6.735c.84-1.237,1.219-2.242,2.514-2.986.622-.358.801-1.084.451-1.685-.344-.59-.718-1.729-1.333-1.38-.275.156-.548.318-.809.498C2.137,3.092.788,6.687.181,9.998c-.08.438-.122.883-.181,1.325v1.392c.06.45.098.904.185,1.349.769,3.942,2.941,6.832,6.53,8.639,1.345.677,2.783,1.044,4.285,1.154.06.004.12.024.179.037h1.392c.442-.06.888-.102,1.327-.184,3.636-.676,6.703-2.192,8.58-5.372Z"/><path class="cls-1" d="M11.091,11.738c-.005.093-.013.184-.013.28,0,1.191.286,2.363,1.477,2.363s2.368.139,2.837-2.363c.219-1.171-.966-2.157-2.157-2.157-.423,0-.762.058-1.04.157l-1.528-2.045c-.397-.397-1.046-.397-1.443,0l-.29.784c-.397.397-.397,1.046,0,1.443l2.157,1.538Z"/></svg>