<?xml version="1.0" encoding="UTF-8"?><svg id="white" xmlns="http://www.w3.org/2000/svg" viewBox="0 0 24 24"><defs><style>.cls-1{fill:#fff;}</style></defs><path class="cls-1" d="M0,2.128c.147-.295.27-.48.588-.563l3.627-.003-.377-.992c0-.023.173-.35.21-.387.259-.264,1.067-.229,1.337.018.052.047.236.374.236.409v.951l3.524.128-.085-1.09c0-.023.173-.35.21-.387.259-.264.982-.261,1.252-.015.052.047.194.483.194.518l-.04,1.052,3.422-.205s-.18-.777-.119-1.039.215-.37.343-.424c.342-.143.583.052.945.102.135.019.465.233.458.514s-.223.847-.223.847l3.674.003c.349.098.555.343.591.741.155,1.726-.706,3.65-.634,5.429.14,3.452,1.945,7.176,4.09,9.76.378.456,1.109,1.571.609,2.292-.052.075-.335.29-.391.29h-3.677v2.495c0,.215-.449.639-.677.594H.631c-.336-.06-.483-.262-.631-.568V2.128ZM15.278,4.031c0,.023-.124.363-.16.4-.259.264-.338.199-.609-.048-.052-.047-.236-.374-.236-.409l-.177-.868h-3.513l-.207.845c0,.023-.124.427-.16.464-.259.264-.322.183-.593-.064-.052-.047-.236-.374-.236-.409l-.21-.836h-3.56l-.191.941c0,.023-.124.379-.16.416-.259.264-.341.378-.611.132-.052-.047-.222-.513-.222-.548l-.222-.941H1.844l-.439,3.689,16.954-.602.238-3.431-3.095.345-.225.925h0ZM5.725,19.249l15.912-.713-1.196-2.056c-1.331-2.681-1.958-5.696-2.083-8.745H1.405c.168,3.917,1.818,8.647,4.32,11.514ZM18.887,22.292l-.528-2.214H4.753c-.526,0-2.397-2.935-2.655-3.566l-.833-3.753.139,8.862s17.483.671,17.483.671Z"/></svg>