<?xml version="1.0" encoding="UTF-8"?><svg id="Layer_1" xmlns="http://www.w3.org/2000/svg" viewBox="0 0 23.951 19.361"><defs><style>.cls-1{fill:#fff;}.cls-2{fill:#98e1ea;}</style></defs><path class="cls-1" d="M20.451,1.297H3.502c-1.378,0-2.5.917-2.5,2.044v12.957c0,1.127,1.122,2.044,2.5,2.044l17.514.285c1.379,0,1.935-1.202,1.935-2.329l-.372-12.98c0-1.127-.749-2.021-2.128-2.021ZM4.311,11.561v-1.161l15.57.484.228.676H4.311ZM20.108,7.305v.817H4.311l.323-.409,15.474-.704v.295Z"/><path class="cls-2" d="M20.451.48L3.35.011C-.203-.16.002,1.764.002,3.341v12.957c0,1.577,1.968,3.063,3.897,3.063l16.551-.202c1.93,0,3.5-1.284,3.5-2.861V3.341c0-1.577-1.57-2.861-3.5-2.861ZM21.016,18.627l-17.514-.285c-1.378,0-2.5-.916-2.5-2.044V3.341c0-1.127,1.122-2.044,2.5-2.044h16.949c1.379,0,2.128.894,2.128,2.021l.372,12.98c0,1.127-.556,2.329-1.935,2.329Z"/><polygon class="cls-2" points="4.311 8.122 20.108 8.122 20.108 7.305 20.108 7.01 4.634 7.714 4.311 8.122"/><polygon class="cls-2" points="4.311 10.401 4.311 10.744 4.311 11.561 20.108 11.561 19.88 10.885 4.311 10.401"/></svg>