<?xml version="1.0" encoding="UTF-8"?><svg xmlns="http://www.w3.org/2000/svg" viewBox="0 0 24 22.207"><defs><style>.cls-1{fill:#a5a5a5;}.cls-2{fill:#fff;}</style></defs><g id="Layer_1"><path class="cls-1" d="M.256,6.523v.147c.052.114.125.283.251.3.219.03.806-.082,1.032-.105.165-.017.288-.098.283-.28-.006-.185-.178-.109-.341-.123-.244-.021-.727-.16-.965-.131-.141.017-.198.068-.26.193Z"/><path class="cls-1" d="M6.418.34c-.114.052-.176.132-.193.259-.029.214.134.797.157,1.016.041.378.339.392.378.008.024-.238.137-.812.109-1.046-.017-.141-.179-.175-.304-.236h-.147Z"/><path class="cls-1" d="M9.469,8.705c-.498.693-1.335,1.023-1.413,1.984-.053.646.284,1.861-.678,1.978-.366.045-1.716.117-2.084.074-.985-.115-.314-1.33-.369-2.003-.091-1.103-1.005-1.366-1.526-2.19-1.612-2.551.475-6.004,3.481-5.759,2.743.224,4.214,3.652,2.588,5.915ZM7.52,10.764c.034-.201.054-.398.114-.594.289-.948,1.154-.813,1.607-1.595,1.312-2.267-.626-5.422-3.199-5.079-2.363.315-3.677,3.219-2.202,5.094.235.298.71.4.952.671.361.404.572.788.588,1.333l2.139.172ZM5.44,12.107c0,.121.148.215.259.23.308.042,1.249.038,1.563.002.079-.009.147-.032.197-.097.03-.039.084-.194.084-.233v-.876l-2.103.155v.819Z"/><path class="cls-1" d="M12.512,6.334c-.169-.026-1.186.128-1.329.171-.266.08-.059.314.261.358.169.023.791.214.931.172.258-.078.438-.654.136-.701Z"/><path class="cls-1" d="M10.2,3.314l.982-.931c.08-.259-.323-.361-.573-.26l-.539.682c-.136.233-.089.686.13.509Z"/><path class="cls-1" d="M2.119,11.063c.043.025.29.007.346-.022.065-.033.629-.604.7-.693.081-.099.14-.167.106-.301-.046-.182-.101-.202-.258-.095-.114.077-.889.412-.976.529-.055.074-.071.11-.062.208.004.038.122.361.144.374Z"/><path class="cls-1" d="M10.042,9.851c-.193-.024-.278.077-.144.245l.941,1.103c.264.077.401-.317.281-.595-.271-.21-.694-.508-.961-.698-.036-.026-.073-.05-.117-.056Z"/><path class="cls-1" d="M2.422,1.881c-.246-.057-.476.446-.343.657.044.07.697.722.77.77.261.17.365-.073.2-.324-.065-.098-.429-.969-.536-1.048-.031-.023-.05-.046-.091-.055Z"/><path class="cls-1" d="M4.601,6.784c.077-.083.064-.362.087-.487.14-.76.863-1.561,1.625-1.701.209-.038.445.043.445-.086,0-.263-.62-.246-.864-.184-.833.212-1.635.711-1.826,1.549-.038.167-.085.427-.055.593.037.204.454.461.589.316Z"/><path class="cls-1" d="M23.421,1.569c.225-.024.519.231.569.47.083.4-.374,1.082-.602,1.404-.308.436-.674.825-1.028,1.223.267.558.472,1.154.536,1.775.145,1.391.14,2.066-1.247,2.25-.781.104-2.611-.163-2.67.989-.03.578.536,1.023.199,1.617-.423.747-.904,1.025-2.471.319-3.075-1.385-4.568-4.83-2.562-7.558,1.603-2.18,3.665-2.998,6.69-.99.055.036.192.221.235.213.401-.373.976-.803,1.437-1.102.269-.175.595-.577.914-.611ZM23.64,2.085c-.41.011-.827.312-1.155.544-.814.577-1.52,1.194-2.134,1.975-.003.032.191.339.24.384.14.126.25.276.362.427.05.012.635-.505.719-.583.502-.466,1.039-1.046,1.434-1.605.229-.324.526-.736.535-1.142ZM17.761,2.452c-2.706.17-4.636,2.69-4.13,5.354.351,1.846,1.866,3.305,3.724,3.59.534.082,1.806.167,1.684-.674-.059-.404-.426-.536-.42-1.087.019-1.83,1.67-1.15,2.662-1.322,1.287-.223,1.414-1.023,1.204-2.181-.074-.404-.207-.831-.409-1.188-.554.548-1.178,1.023-1.859,1.405-.046.049.002.106.002.159.003,1.515-2.193,1.568-3.023.533-.1-.125-.25-.402.013-.438.149-.02.325.221.517.135.338-.152.401-1.009.873-1.26.233-.124.508.016.765.04.412-.756.974-1.416,1.575-2.027-.88-.734-2.027-1.112-3.178-1.04ZM20.835,5.7c.04-.059-.649-.627-.762-.644l-.483.482.482.482.763-.319ZM17.528,7.067c.551.409,1.544.724,2.015.139.642-.795-.347-1.779-.921-1.103-.264.311-.439.667-.83.887,0,0-.284.047-.263.077Z"/><path class="cls-1" d="M18.059,2.719c1.234-.143,1.431,1.979.258,2.066-1.182.089-1.382-1.936-.258-2.066ZM18.142,3.351c-.673.006-.539,1.162.173,1.073.691-.087.783-1.081-.173-1.073Z"/><path class="cls-1" d="M15.498,4.244c1.234-.143,1.651,1.714.478,1.802-1.182.089-1.602-1.671-.478-1.802ZM15.802,4.611c-.665.106-.497.815.173,1.073.454.175.562-1.189-.173-1.073Z"/><path class="cls-1" d="M15.24,6.773c1.737-.122,1.369,1.706.196,1.794-1.182.089-1.325-1.714-.196-1.794ZM15.261,7.132c-.611.356-.539,1.162.173,1.073.691-.087.47-1.447-.173-1.073Z"/><path class="cls-1" d="M16.86,8.753c1.013.133,1.369,1.706.196,1.794-1.182.089-1.621-1.981-.196-1.794ZM16.882,9.113c-.665.106-.492,1.343.173,1.073.736-.299.562-1.189-.173-1.073Z"/><path class="cls-1" d="M6.237,14.253c.023-.036.118-.165.153-.165l.859-.225c-.003-.167-.028-.433.164-.506.206-.079.68-.149.909-.173,1.126-.12,2.375.005,3.339.632.216.14.412.307.588.494.459-.445,1.013-.778,1.63-.958.872-.254,1.858-.555,2.748-.382.11.022.623.034.623.172v.721l.859-.327c.045,0,.161.107.165.164v8.369c-.068.114-.168.164-.298.123-.215-.069-.684-.428-.919-.511-1.422-.504-2.71-.771-4.19-.516-.173.03-.438.129-.598.132-.158.003-.444-.102-.616-.132-1.769-.305-3.544-.147-5.174.622-.121-.011-.195-.075-.243-.181v-7.353ZM12.026,20.571v-5.801c-1.067-1.2-3.108-1.456-4.593-1.151l.457,5.993c1.29-.127,2.501.172,3.698.727.151.07.289.162.439.232ZM16.804,19.912v-6.107c-.059-.055-.153-.06-.231-.075-1.396-.274-3.094-.08-4.076,1.04l-.241,6.133c1.288-.773,3.087-1.145,4.548-.991ZM7.273,14.334h-.565l-.217,6.988c1.324-.545,3.002-.882,4.429-.729l-.462-.138c-.823-.186-1.677-.172-2.515-.097-.181.016-.458.123-.606,0-.011-.009-.065-.078-.065-.083v-5.942ZM17.815,14.334h-.541v5.872c0,.013-.055.125-.07.142-.071.079-.219.063-.318.058-.973-.052-1.928-.217-2.898.068l-.385.12c1.427-.156,2.888.047,4.212.589v-6.848Z"/></g><g id="Layer_2"><path class="cls-2" d="M0,6.183v.147c.052.114.125.283.251.3.219.03.806-.082,1.032-.105.165-.017.288-.098.283-.28-.006-.185-.178-.109-.341-.123-.244-.021-.727-.16-.965-.131C.118,6.008.062,6.058,0,6.183Z"/><path class="cls-2" d="M6.162,0c-.114.052-.176.132-.193.259-.029.214.134.797.157,1.016.041.378.339.392.378.008.024-.238.137-.812.109-1.046C6.595.095,6.433.062,6.308,0h-.147Z"/><path class="cls-2" d="M9.213,8.366c-.498.693-1.335,1.023-1.413,1.984-.053.646.284,1.861-.678,1.978-.366.045-1.716.117-2.084.074-.985-.115-.314-1.33-.369-2.003-.091-1.103-1.005-1.366-1.526-2.19-1.612-2.551.475-6.004,3.481-5.759,2.743.224,4.214,3.652,2.588,5.915ZM7.263,10.425c.034-.201.054-.398.114-.594.289-.948,1.154-.813,1.607-1.595,1.312-2.267-.626-5.422-3.199-5.079-2.363.315-3.677,3.219-2.202,5.094.235.298.71.4.952.671.361.404.572.788.588,1.333l2.139.172ZM5.184,11.767c0,.121.148.215.259.23.308.042,1.249.038,1.563.002.079-.009.147-.032.197-.097.03-.039.084-.194.084-.233v-.876l-2.103.155v.819Z"/><path class="cls-2" d="M12.256,5.994c-.169-.026-1.186.128-1.329.171-.266.08-.059.314.261.358.169.023.791.214.931.172.258-.078.438-.654.136-.701Z"/><path class="cls-2" d="M9.944,2.974l.982-.931c.08-.259-.323-.361-.573-.26l-.539.682c-.136.233-.089.686.13.509Z"/><path class="cls-2" d="M1.863,10.724c.043.025.29.007.346-.022.065-.033.629-.604.7-.693.081-.099.14-.167.106-.301-.046-.182-.101-.202-.258-.095-.114.077-.889.412-.976.529-.055.074-.071.11-.062.208.004.038.122.361.144.374Z"/><path class="cls-2" d="M9.786,9.511c-.193-.024-.278.077-.144.245l.941,1.103c.264.077.401-.317.281-.595-.271-.21-.694-.508-.961-.698-.036-.026-.073-.05-.117-.056Z"/><path class="cls-2" d="M2.166,1.541c-.246-.057-.476.446-.343.657.044.07.697.722.77.77.261.17.365-.073.2-.324-.065-.098-.429-.969-.536-1.048-.031-.023-.05-.046-.091-.055Z"/><path class="cls-2" d="M4.345,6.444c.077-.083.064-.362.087-.487.14-.76.863-1.561,1.625-1.701.209-.038.445.043.445-.086,0-.263-.62-.246-.864-.184-.833.212-1.635.711-1.826,1.549-.038.167-.085.427-.055.593.037.204.454.461.589.316Z"/><path class="cls-2" d="M23.165,1.229c.225-.024.519.231.569.47.083.4-.374,1.082-.602,1.404-.308.436-.674.825-1.028,1.223.267.558.472,1.154.536,1.775.145,1.391.14,2.066-1.247,2.25-.781.104-2.611-.163-2.67.989-.03.578.536,1.023.199,1.617-.423.747-.904,1.025-2.471.319-3.075-1.385-4.568-4.83-2.562-7.558,1.603-2.18,3.665-2.998,6.69-.99.055.036.192.221.235.213.401-.373.976-.803,1.437-1.102.269-.175.595-.577.914-.611ZM23.384,1.745c-.41.011-.827.312-1.155.544-.814.577-1.52,1.194-2.134,1.975-.003.032.191.339.24.384.14.126.25.276.362.427.05.012.635-.505.719-.583.502-.466,1.039-1.046,1.434-1.605.229-.324.526-.736.535-1.142ZM17.505,2.112c-2.706.17-4.636,2.69-4.13,5.354.351,1.846,1.866,3.305,3.724,3.59.534.082,1.806.167,1.684-.674-.059-.404-.426-.536-.42-1.087.019-1.83,1.67-1.15,2.662-1.322,1.287-.223,1.414-1.023,1.204-2.181-.074-.404-.207-.831-.409-1.188-.554.548-1.178,1.023-1.859,1.405-.046.049.002.106.002.159.003,1.515-2.193,1.568-3.023.533-.1-.125-.25-.402.013-.438.149-.02.325.221.517.135.338-.152.401-1.009.873-1.26.233-.124.508.016.765.04.412-.756.974-1.416,1.575-2.027-.88-.734-2.027-1.112-3.178-1.04ZM20.579,5.36c.04-.059-.649-.627-.762-.644l-.483.482.482.482.763-.319ZM17.272,6.727c.551.409,1.544.724,2.015.139.642-.795-.347-1.779-.921-1.103-.264.311-.439.667-.83.887,0,0-.284.047-.263.077Z"/><path class="cls-2" d="M17.803,2.379c1.234-.143,1.431,1.979.258,2.066-1.182.089-1.382-1.936-.258-2.066ZM17.886,3.011c-.673.006-.539,1.162.173,1.073.691-.087.783-1.081-.173-1.073Z"/><path class="cls-2" d="M15.242,3.904c1.234-.143,1.651,1.714.478,1.802-1.182.089-1.602-1.671-.478-1.802ZM15.546,4.272c-.665.106-.497.815.173,1.073.454.175.562-1.189-.173-1.073Z"/><path class="cls-2" d="M14.984,6.433c1.737-.122,1.369,1.706.196,1.794-1.182.089-1.325-1.714-.196-1.794ZM15.005,6.792c-.611.356-.539,1.162.173,1.073.691-.087.47-1.447-.173-1.073Z"/><path class="cls-2" d="M16.604,8.414c1.013.133,1.369,1.706.196,1.794-1.182.089-1.621-1.981-.196-1.794ZM16.626,8.773c-.665.106-.492,1.343.173,1.073.736-.299.562-1.189-.173-1.073Z"/><path class="cls-2" d="M5.981,13.914c.023-.036.118-.165.153-.165l.859-.225c-.003-.167-.028-.433.164-.506.206-.079.68-.149.909-.173,1.126-.12,2.375.005,3.339.632.216.14.412.307.588.494.459-.445,1.013-.778,1.63-.958.872-.254,1.858-.555,2.748-.382.11.022.623.034.623.172v.721l.859-.327c.045,0,.161.107.165.164v8.369c-.068.114-.168.164-.298.123-.215-.069-.684-.428-.919-.511-1.422-.504-2.71-.771-4.19-.516-.173.03-.438.129-.598.132-.158.003-.444-.102-.616-.132-1.769-.305-3.544-.147-5.174.622-.121-.011-.195-.075-.243-.181v-7.353ZM11.77,20.231v-5.801c-1.067-1.2-3.108-1.456-4.593-1.151l.457,5.993c1.29-.127,2.501.172,3.698.727.151.07.289.162.439.232ZM16.548,19.572v-6.107c-.059-.055-.153-.06-.231-.075-1.396-.274-3.094-.08-4.076,1.04l-.241,6.133c1.288-.773,3.087-1.145,4.548-.991ZM7.017,13.995h-.565l-.217,6.988c1.324-.545,3.002-.882,4.429-.729l-.462-.138c-.823-.186-1.677-.172-2.515-.097-.181.016-.458.123-.606,0-.011-.009-.065-.078-.065-.083v-5.942ZM17.559,13.995h-.541v5.872c0,.013-.055.125-.07.142-.071.079-.219.063-.318.058-.973-.052-1.928-.217-2.898.068l-.385.12c1.427-.156,2.888.047,4.212.589v-6.848Z"/></g></svg>