<?xml version="1.0" encoding="UTF-8"?><svg id="Layer_1" xmlns="http://www.w3.org/2000/svg" viewBox="0 0 24 22.103"><defs><style>.cls-1{fill:#a5a5a5;}</style></defs><path class="cls-1" d="M0,6.25v.148c.052.116.126.286.254.304.222.03.814-.083,1.043-.106.167-.017.291-.099.286-.283-.006-.187-.18-.111-.345-.125-.247-.021-.735-.162-.976-.133C.12,6.072.062,6.124,0,6.25Z"/><path class="cls-1" d="M6.228,0c-.116.052-.178.134-.196.262-.029.216.135.805.159,1.027.041.382.343.396.382.008.024-.24.139-.821.11-1.058C6.666.096,6.503.062,6.376,0h-.148Z"/><path class="cls-1" d="M9.313,8.456c-.503.7-1.349,1.034-1.428,2.006-.053.653.287,1.881-.685,1.999-.37.045-1.734.118-2.107.075-.996-.116-.317-1.345-.373-2.024-.091-1.115-1.016-1.381-1.542-2.213-1.63-2.579.48-6.069,3.519-5.821,2.772.227,4.259,3.692,2.616,5.979ZM7.342,10.537c.035-.203.055-.402.116-.601.292-.958,1.167-.822,1.624-1.612,1.326-2.292-.633-5.481-3.233-5.134-2.388.318-3.717,3.253-2.226,5.148.237.302.717.404.962.678.365.408.578.796.595,1.348l2.162.173ZM5.24,11.894c0,.122.149.217.262.232.311.042,1.262.038,1.579.002.08-.009.148-.032.199-.098.031-.039.085-.196.085-.236v-.886l-2.125.157v.828Z"/><path class="cls-1" d="M12.388,6.059c-.171-.027-1.198.129-1.343.173-.269.081-.059.318.264.362.17.023.799.216.941.174.261-.078.443-.661.138-.709Z"/><path class="cls-1" d="M10.052,3.006l.993-.941c.081-.262-.326-.365-.58-.263l-.545.69c-.137.236-.09.693.131.515Z"/><path class="cls-1" d="M1.884,10.839c.043.025.293.007.35-.023.066-.034.635-.611.708-.7.081-.1.142-.169.107-.305-.047-.184-.102-.204-.261-.096-.115.078-.899.416-.987.535-.056.075-.072.111-.062.211.004.038.123.365.145.378Z"/><path class="cls-1" d="M9.892,9.614c-.195-.024-.281.078-.146.248l.951,1.115c.267.077.405-.321.284-.601-.274-.212-.701-.513-.971-.706-.036-.026-.073-.051-.119-.056Z"/><path class="cls-1" d="M2.19,1.558c-.249-.057-.481.45-.347.664.044.071.705.73.779.778.264.172.369-.074.202-.328-.066-.1-.434-.979-.541-1.059-.031-.023-.05-.046-.092-.056Z"/><path class="cls-1" d="M4.392,6.514c.078-.084.065-.366.088-.492.141-.769.872-1.578,1.642-1.72.211-.039.45.043.45-.087,0-.266-.627-.249-.873-.186-.842.215-1.653.719-1.846,1.566-.039.169-.086.432-.056.6.037.206.459.466.595.32Z"/><path class="cls-1" d="M23.415,1.242c.228-.024.525.234.575.475.084.404-.378,1.093-.608,1.419-.312.44-.681.834-1.039,1.236.269.564.477,1.167.542,1.794.146,1.406.141,2.088-1.261,2.275-.789.105-2.639-.165-2.699,1-.03.584.541,1.034.201,1.635-.427.755-.914,1.036-2.498.323-3.108-1.399-4.618-4.882-2.589-7.64,1.62-2.203,3.705-3.03,6.763-1.001.055.037.194.223.237.215.406-.377.987-.811,1.452-1.114.271-.177.601-.583.924-.617ZM23.636,1.764c-.415.011-.836.315-1.167.55-.823.583-1.537,1.207-2.157,1.996-.003.032.193.343.243.388.141.127.253.279.366.431.05.012.642-.511.726-.589.507-.471,1.05-1.057,1.449-1.622.232-.328.531-.743.541-1.154ZM17.694,2.135c-2.735.172-4.686,2.719-4.174,5.412.354,1.866,1.886,3.341,3.765,3.629.54.083,1.826.169,1.702-.682-.059-.408-.43-.542-.424-1.099.02-1.85,1.688-1.163,2.69-1.336,1.301-.226,1.43-1.034,1.217-2.204-.074-.409-.209-.84-.414-1.201-.56.554-1.191,1.034-1.879,1.42-.047.049.002.107.002.161.003,1.532-2.217,1.585-3.055.539-.101-.126-.252-.406.013-.442.15-.021.329.224.523.136.342-.153.405-1.02.882-1.274.235-.125.513.016.774.041.416-.764.985-1.431,1.592-2.049-.89-.742-2.049-1.124-3.212-1.051ZM20.801,5.418c.041-.059-.656-.633-.77-.651l-.488.487.487.487.771-.322ZM17.458,6.8c.557.413,1.56.732,2.037.141.648-.804-.351-1.799-.931-1.115-.266.314-.444.674-.839.896,0,0-.287.048-.266.078Z"/><path class="cls-1" d="M17.995,2.405c1.247-.145,1.447,2,.261,2.089-1.195.09-1.397-1.957-.261-2.089ZM18.079,3.044c-.681.006-.545,1.175.175,1.084.698-.088.792-1.093-.175-1.084Z"/><path class="cls-1" d="M15.407,3.947c1.247-.145,1.669,1.732.483,1.821-1.195.09-1.619-1.689-.483-1.821ZM15.713,4.318c-.672.107-.502.824.175,1.084.459.177.568-1.202-.175-1.084Z"/><path class="cls-1" d="M15.145,6.502c1.756-.124,1.384,1.724.198,1.813-1.195.09-1.339-1.733-.198-1.813ZM15.167,6.866c-.618.36-.545,1.175.175,1.084.698-.088.475-1.463-.175-1.084Z"/><path class="cls-1" d="M16.783,8.504c1.024.134,1.384,1.724.198,1.813-1.195.09-1.638-2.002-.198-1.813ZM16.805,8.868c-.672.107-.497,1.357.175,1.084.744-.302.568-1.202-.175-1.084Z"/><path class="cls-1" d="M6.046,14.064c.023-.036.119-.167.155-.167l.868-.227c-.003-.169-.028-.438.166-.512.209-.079.687-.15.919-.175,1.138-.121,2.401.005,3.376.639.218.142.417.311.594.5.464-.45,1.024-.787,1.648-.968.882-.256,1.878-.561,2.777-.386.112.022.629.034.629.174v.728l.868-.33c.045,0,.162.108.167.166v8.459c-.069.115-.17.166-.301.124-.217-.069-.691-.432-.929-.516-1.438-.51-2.739-.779-4.235-.522-.175.03-.442.13-.604.133-.16.003-.448-.103-.623-.133-1.788-.308-3.583-.149-5.23.628-.122-.011-.197-.076-.246-.183v-7.432ZM11.897,20.449v-5.864c-1.078-1.213-3.141-1.472-4.643-1.163l.462,6.057c1.304-.128,2.528.174,3.737.735.152.071.292.164.443.235ZM16.726,19.783v-6.173c-.059-.056-.155-.06-.234-.076-1.411-.277-3.127-.081-4.12,1.051l-.244,6.199c1.302-.781,3.12-1.157,4.597-1.001ZM7.092,14.146h-.571l-.219,7.064c1.338-.551,3.034-.892,4.477-.736l-.467-.139c-.832-.188-1.695-.174-2.542-.098-.183.016-.463.125-.613,0-.011-.009-.066-.078-.066-.084v-6.006ZM17.749,14.146h-.547v5.935c0,.013-.055.126-.071.143-.072.08-.221.064-.322.058-.984-.053-1.948-.22-2.929.069l-.389.122c1.442-.157,2.919.048,4.258.595v-6.922Z"/></svg>