<?xml version="1.0" encoding="UTF-8"?><svg id="Layer_1" xmlns="http://www.w3.org/2000/svg" viewBox="0 0 24.017 19.415"><defs><style>.cls-1{fill:#fff;}.cls-2{fill:#98e1ea;}</style></defs><path class="cls-1" d="M20.508,1.301H3.512c-1.382,0-2.507.919-2.507,2.049v12.993c0,1.13,1.125,2.049,2.507,2.049l17.562.286c1.383,0,1.94-1.205,1.94-2.335l-.373-13.016c0-1.13-.751-2.026-2.134-2.026ZM19.921,12.353v.82H4.079l.324-.41,15.517-.706v.296ZM4.323,9.593v-1.164l15.613.486.228.678H4.323ZM20.164,5.325v.82H4.323l.324-.41,15.517-.706v.296Z"/><path class="cls-2" d="M20.508.481L3.359.011C-.204-.161.002,1.768.002,3.35v12.993c0,1.582,1.973,3.071,3.908,3.071l16.597-.203c1.935,0,3.51-1.287,3.51-2.869V3.35c0-1.582-1.575-2.869-3.51-2.869ZM21.074,18.679l-17.562-.286c-1.382,0-2.507-.919-2.507-2.049V3.35c0-1.13,1.125-2.049,2.507-2.049h16.996c1.383,0,2.134.896,2.134,2.026l.373,13.016c0,1.13-.557,2.335-1.94,2.335Z"/><polygon class="cls-2" points="4.323 6.145 20.164 6.145 20.164 5.325 20.164 5.029 4.647 5.735 4.323 6.145"/><polygon class="cls-2" points="4.079 13.173 19.921 13.173 19.921 12.353 19.921 12.057 4.403 12.763 4.079 13.173"/><polygon class="cls-2" points="4.323 8.429 4.323 8.774 4.323 9.593 20.164 9.593 19.935 8.915 4.323 8.429"/></svg>