<?xml version="1.0" encoding="UTF-8"?><svg id="Layer_1" xmlns="http://www.w3.org/2000/svg" viewBox="0 0 24 23.379"><defs><style>.cls-1{fill:none;}.cls-2{fill:#fef7d6;}.cls-3{fill:#a5a5a5;}</style></defs><path class="cls-1" d="M15.242,14.251c-.07-.001-.137-.04-.205-.073.068.042.136.072.205.073Z"/><path class="cls-3" d="M23.926,6.027c-.319-1.549-1.181-1.873-2.754-1.984l-8.995-.23C10.631,2.608,10.068.205,7.89.066c-1.344-.086-3.452-.096-4.784.017C1.358.233.296.64.172,2.384l-.172,17.361c.107,1.678,1.256,3.424,2.935,3.634h18.682c1.685-.213,2.261-1.953,2.374-3.634-.046-4.571.083-9.156-.066-13.718ZM21.198,21.838l-17.854-1.047c-.645-.051-1.067-.388-1.149-1.046L1.208,3.692c.049-.541,1.366-1.302,1.894-1.417,1.539.081,3.27-.15,4.787-.014.294.026.513.153.739.333.913.731,2.035,1.416,2.944,2.071.128.092.269.151.42.192l8.759.67c.595.054.992.451,1.046,1.046l.6,14.218c-.058.649-.563,1.045-1.199,1.047Z"/><path class="cls-2" d="M20.751,5.527l-8.759-.67c-.152-.041-.292-.1-.42-.192-.909-.655-2.03-1.34-2.944-2.071-.225-.18-.445-.307-.739-.333-1.518-.135-3.248.095-4.787.014-.528.115-1.845.876-1.894,1.417l.987,16.053c.082.659.504.995,1.149,1.046l17.854,1.047c.636-.001,1.141-.398,1.199-1.047l-.6-14.218c-.054-.595-.451-.992-1.046-1.046ZM7.886,12.469c.908-1.176,2.759-3.382,3.728-4.558.387-.313,1.059.37,1.446.683.969,1.176,2.138,2.699,3.046,3.875.565.732.052,1.799-.864,1.782-.069-.001-.137-.031-.205-.073-.707-.35-1.326-2.28-1.896-2.673,0,0-.804,4.08-.255,6.628.214,1.13-3.4,1.995-2.617.467.782-1.528.662-6.909.662-6.909-.553.37-1.245,2.293-1.844,2.49-1.041.342-1.876-.835-1.2-1.71Z"/><path class="cls-3" d="M9.086,14.179c.599-.197,1.291-2.12,1.844-2.49,0,0,.121,5.382-.662,6.909-.782,1.528,2.832.663,2.617-.467-.549-2.547.255-6.628.255-6.628.57.394,1.189,2.324,1.896,2.673.068.034.136.072.205.073.915.017,1.429-1.05.864-1.782-.908-1.176-2.077-2.699-3.046-3.875-.387-.313-1.06-.996-1.446-.683-.969,1.176-2.82,3.382-3.728,4.558-.676.876.159,2.052,1.2,1.71Z"/></svg>