<?xml version="1.0" encoding="UTF-8"?><svg id="Layer_1" xmlns="http://www.w3.org/2000/svg" viewBox="0 0 24 23.792"><defs><style>.cls-1{fill:#a5a5a5;}.cls-2{fill:#fff;}</style></defs><path class="cls-1" d="M24,12c0,6.627-5.618,13.283-12,11.498C3.285,21.06,0,18.627,0,12S5.373,0,12,0c9.207,0,12,5.373,12,12Z"/><path class="cls-2" d="M10.089,20.4l.785-2.195c-2.25-.332-4.833-1.722-4.989-3.6h3.717c.235,1.135,1.096,1.839,2.367,1.839,1.525,0,2.151-.724,2.151-1.682,0-1.057-.527-1.604-2.484-2.172-3.13-.9-4.425-.692-4.425-2.589,0-1.937,1.686-4.492,3.564-4.805v-1.291l2.742-.597-.688,1.888c2.445.333,4.257,1.441,4.394,2.869l-3.376.437c-.176-.685-.548-1.565-2.113-1.565-1.389,0-1.839.802-1.839,1.506,0,.978.679.964,2.641,1.995,2.696,1.416,4.977,2.045,5.074,3.877.115,2.169-2.473,3.596-4.664,3.889v1.604l-2.859.591Z"/></svg>