<?xml version="1.0" encoding="UTF-8"?><svg id="Layer_1" xmlns="http://www.w3.org/2000/svg" viewBox="0 0 18.71 23.657"><defs><style>.cls-1{fill:#a5a5a5;}.cls-2{fill:#f9c075;}.cls-3{fill:#f7e98e;}</style></defs><path class="cls-2" d="M12.627,21.396c.165-.433.318-.872.373-1.336.251-2.097-.03-2.956-.916-4.551-.573-1.031-.729-2.08-.805-3.247-1.857.559-3.112,2.727-3.486,4.713l-1.704-1.149c-.143.469-.38.9-.53,1.367-.417,1.302-.507,2.7.059,3.972-1.993-1.177-3.457-3.211-3.822-5.519-.234-1.481.153-3.957.696-5.345.858.916,1.821,2.367,3.031,1.843.831-.36,1.472-1.174,1.455-2.108-.024-1.284-1.726-1.663-1.08-3.195.408-.969,1.638-1.289,2.383-1.822.901-.644,1.511-1.71,1.736-2.784.3.279.583.613.786.97,1.018,1.789-.448,2.929-.318,4.817.155,2.246,2.443,2.051,4.026.44.093-.094.473-.646.533-.632,3.581,3.566,1.942,11.101-2.417,13.568Z"/><path class="cls-3" d="M6.481,17.376l2.178.649c-.003-1.095.049-2.124.772-2.999.059-.071,1.311-1.749,1.356-1.704.122.628.37,1.225.678,1.781.416.752.72,2.828.87,3.623.483,2.56-2.318,4.422-4.485,2.946-1.404-.956-1.881-2.821-1.369-4.295Z"/><path class="cls-1" d="M10.11,23.601c-.414-.021-.874.135-1.263,0C-.035,20.518-1.01,17.306.694,11.663c.352-1.165.143-2.817.727-3.863.109-.024,1.994,3.727,3.561,3.05,1.126-.487.314-1.366.075-2.079-.548-1.632.04-3.311,1.409-4.307.839-.61,2.179-.694,2.7-1.746.5-1.009-1.053-1.622-1.126-2.719,0,0,4.748,2.414,4.551,4.93-.05.634-.39,1.19-.55,1.792-.186.7-.394,2.192.679,2.249.959.05,1.578-1.588,1.833-2.311.049-.038.331.208.397.261,6.352,5.023,4.289,14.526-3.446,16.461l-1.395.219ZM12.627,21.396c4.359-2.467,5.998-10.003,2.417-13.568-.06-.013-.785,1.98-.877,2.074-1.583,1.611-3.527.364-3.682-1.882-.131-1.888,1.335-3.028.318-4.817-.203-.357-.486-.691-.786-.97-.225,1.074-.834,2.14-1.736,2.784-.746.533-1.975.853-2.383,1.822-.645,1.532,1.056,1.911,1.08,3.195.018.935-.623,1.748-1.455,2.108-1.21.524-2.173-.926-3.031-1.843-.543,1.388-.93,3.864-.696,5.345.365,2.308,1.829,4.342,3.822,5.519-.566-1.272-.475-2.67-.059-3.972.149-.467.387-.899.53-1.367l1.429.93c.374-1.986,1.904-3.935,3.761-4.493.076,1.168.232,2.216.805,3.247.886,1.596,1.167,2.454.916,4.551-.056.464-.208.904-.373,1.336ZM6.481,17.376c-.512,1.475-.035,3.339,1.369,4.295,2.167,1.476,4.968-.386,4.485-2.946-.15-.794-.528-1.383-.944-2.135-.308-.556-.482-2.641-.604-3.269-.045-.045-1.297,1.633-1.356,1.704-.723.875-.775,1.905-.772,2.999l-2.178-.649Z"/></svg>