<?xml version="1.0" encoding="UTF-8"?><svg id="Layer_1" xmlns="http://www.w3.org/2000/svg" viewBox="0 0 24 23.59"><defs><style>.cls-1{fill:none;}.cls-2{fill:#fef7d6;}.cls-3{fill:#f4b7ae;}.cls-4{fill:#a5a5a5;}.cls-5{fill:#f9dac5;}.cls-6{fill:#c8bfef;}</style></defs><polygon class="cls-1" points="18.532 2.493 19.442 1.527 19.442 1.524 17.975 3.083 17.976 3.084 18.532 2.493"/><path class="cls-1" d="M1.161,11.794c0,4.809,3.19,8.88,7.552,10.189-4.362-1.308-7.552-5.381-7.552-10.189Z"/><polygon class="cls-1" points="22.166 4.178 22.169 4.176 22.101 4.176 22.166 4.178"/><path class="cls-1" d="M8.713,1.605C4.35,2.913,1.161,6.985,1.161,11.794,1.161,6.986,4.35,2.913,8.713,1.605Z"/><path class="cls-6" d="M3.859,9.412c.11-.408.262-.797.449-1.166-.186.369-.339.758-.449,1.166Z"/><polygon class="cls-6" points="17.243 3.863 17.895 3.169 17.976 3.084 17.975 3.083 17.242 3.861 17.474 5.727 17.51 6.025 17.512 6.026 17.475 5.728 17.243 3.863"/><path class="cls-6" d="M16.546,6.342c-.014-.015-.031-.026-.045-.041.014.014.028.03.042.044l.004-.004Z"/><path class="cls-6" d="M18.401,13.427c-.862,3.19-3.755,5.418-7.037,5.418-.645,0-1.292-.087-1.92-.259-1.456-.398-2.753-1.238-3.75-2.338.998,1.101,2.297,1.942,3.753,2.341.63.171,1.276.259,1.92.259,3.281,0,6.175-2.228,7.037-5.418.617-2.284.252-4.384-1.07-6.136,1.198,1.724,1.658,3.95,1.068,6.134Z"/><path class="cls-6" d="M19.626,7.149c-.096.069-.217.099-.336.081l-.671-.102c1.294,1.973,1.772,4.474,1.107,6.933-1.026,3.797-4.446,6.294-8.177,6.294-.737,0-1.485-.097-2.229-.301-4.518-1.236-7.185-5.923-5.957-10.468.013-.046.028-.091.04-.138.01-.038.018-.077.029-.116.994-3.679,4.308-6.1,7.924-6.1.714,0,1.439.094,2.16.291.034.009.067.021.1.03.051.013.102.025.153.039.986.269,1.883.704,2.672,1.266l-.137-1.099c-.017-.138.028-.275.122-.376l.687-.731c-.789-.473-1.644-.845-2.547-1.099,0,0-.001,0-.002,0-.39-.11-.792-.186-1.199-.251-.106-.016-.212-.035-.318-.049-.433-.055-.872-.091-1.32-.091-.728,0-1.44.074-2.127.216-.301.062-.597.137-.888.224C4.35,2.913,1.161,6.986,1.161,11.794s3.19,8.88,7.552,10.189c.291.087.587.162.888.224.687.142,1.398.216,2.127.216,5.826,0,10.566-4.768,10.566-10.629,0-2.002-.31-4.052-1.27-5.652l-1.397,1.007Z"/><path class="cls-5" d="M8.281,12.088c.02.149.03.299.068.446.012.046.033.086.046.131-.013-.044-.033-.087-.045-.131-.038-.146-.049-.297-.07-.446Z"/><path class="cls-5" d="M16.501,6.301c-.408-.409-.866-.772-1.369-1.078-.06-.036-.121-.07-.182-.104-.2-.114-.407-.219-.62-.314-.067-.03-.133-.061-.201-.089-.276-.114-.559-.216-.854-.297-.629-.171-1.274-.259-1.919-.259-2.862,0-5.778,1.57-7.049,4.086-.186.369-.338.758-.449,1.166-.66,2.441.17,5,1.834,6.836.998,1.1,2.295,1.94,3.75,2.338.629.172,1.276.259,1.92.259,3.282,0,6.175-2.227,7.037-5.418.59-2.184.13-4.409-1.068-6.134-.005-.006-.008-.013-.013-.02l-1.788,1.437c.337.466.594,1.002.748,1.593.006.021.009.043.015.065.007.025.015.051.022.076.638,2.46-.827,4.975-3.273,5.617-.021.005-.041.009-.062.014-.026.008-.052.016-.078.023-.399.105-.801.155-1.195.155-2.097,0-4.012-1.416-4.566-3.552-.658-2.538.236-5.231,2.759-5.893.399-.105,1.418-.057,1.812-.057,1.202,0,2.344.466,3.205,1.266v.003s1.624-1.674,1.624-1.674c-.014-.015-.028-.03-.042-.044Z"/><path class="cls-3" d="M15.426,10.676c-.12-.461-.324-.882-.592-1.25l-2.505,2.093c-.09.094-.214.14-.329.14s-.305.124-.395.036c-.182-.179.07-.336.247-.518l2.349-2.422c-.575-1.003-2.311-1.003-2.311-1.003-.31,0-.622.04-.926.12-1.805.474-2.924,2.378-2.682,4.215.02.149.032.3.07.446.012.044.032.087.045.131.465,1.547,1.875,2.62,3.49,2.62.31,0,1.273-.113,1.578-.193,1.625-.427,2.046-2.62,2.046-3.444,0-.306.005-.613-.073-.925-.004-.016-.005-.031-.009-.047h-.001Z"/><path class="cls-2" d="M19.705,4.178c-.232-.007-.422-.188-.442-.421l.179-2.231-.91.966-.556.591-.08.085-.653.694.232,1.866.037.297,1.731.261,1.027-.74.334-.24h-.001s1.563-1.128,1.563-1.128l-.065-.002-2.396.002Z"/><path class="cls-4" d="M23.98,3.626c-.057-.19-.29-.664-.487-.671l-3.66.444.435-2.978c-.016-.181-.137-.336-.307-.395-.171-.06-.361-.014-.485.119l-1.717,1.823c-1.755-1.095-3.822-1.727-6.033-1.727C7.599.241,3.517,1.94,1.492,5.237c-1.23,1.828-1.492,4.536-1.492,6.909,0,6.321,5.093,11.444,11.376,11.444,2.36,0,5.687-.674,7.503-1.912,3.277-2.037,4.333-5.732,4.333-9.884,0-2.202-.617-4.262-1.685-6.016l2.28-1.643c.16-.116.23-.32.172-.51ZM22.293,11.794c0,5.86-4.74,10.629-10.566,10.629-.728,0-1.44-.074-2.127-.216-.301-.062-.597-.137-.888-.224-4.362-1.308-7.552-5.38-7.552-10.189S4.35,2.913,8.713,1.605c.291-.087.587-.162.888-.224.687-.142,1.398-.216,2.127-.216.448,0,.887.036,1.32.091.107.013.212.032.318.049.406.064.809.141,1.199.251,0,0,.001,0,.002,0,.903.254,1.758.627,2.547,1.099l-.687.731c-.094.101-.139.238-.122.376l.137,1.099c-.788-.562-1.686-.996-2.672-1.266-.051-.014-.102-.027-.153-.039-.033-.009-.065-.021-.1-.03-.722-.198-1.447-.291-2.16-.291-3.616,0-6.93,2.421-7.924,6.1-.01.038-.018.077-.029.116-.013.046-.028.091-.04.138-1.228,4.545,1.439,9.233,5.957,10.468.745.203,1.493.301,2.229.301,3.731,0,7.151-2.497,8.177-6.294.665-2.46.187-4.96-1.107-6.933l.671.102c.118.018.239-.012.336-.081l1.397-1.007c.961,1.6,1.27,3.65,1.27,5.652ZM15.509,11.649c0,.824-.421,3.017-2.046,3.444-.305.08-1.267.193-1.578.193-1.615,0-3.025-1.073-3.49-2.62-.013-.045-.034-.086-.046-.131-.038-.147-.049-.297-.068-.446-.242-1.837.877-3.741,2.682-4.215.305-.08.616-.12.926-.12,0,0,1.736,0,2.311,1.003l-2.349,2.422c-.177.183-.429.339-.247.518.09.088.28-.036.395-.036s.239-.046.329-.14l2.505-2.093c.268.368.472.788.592,1.25h.001c.004.017.005.032.009.048.078.312.073.619.073.925ZM14.92,8.019v-.003c-.862-.8-2.004-1.266-3.206-1.266-.394,0-1.413-.048-1.812.057-2.523.662-3.418,3.355-2.759,5.893.554,2.136,2.468,3.552,4.566,3.552.394,0,.796-.05,1.195-.155.026-.007.052-.015.078-.023.021-.005.041-.009.062-.014,2.445-.642,3.911-3.157,3.273-5.617-.007-.025-.015-.051-.022-.076-.006-.022-.009-.044-.015-.065-.154-.591-.411-1.127-.748-1.593l1.788-1.437c.005.006.008.013.013.02,1.322,1.752,1.687,3.852,1.07,6.136-.862,3.19-3.757,5.418-7.037,5.418-.645,0-1.29-.088-1.92-.259-1.456-.398-2.754-1.239-3.753-2.341-1.664-1.836-2.494-4.395-1.834-6.836.11-.408.262-.797.449-1.166,1.271-2.517,4.187-4.086,7.049-4.086.645,0,1.29.088,1.919.259.295.081.578.183.854.297.068.028.134.06.201.089.213.096.42.2.62.314.061.035.122.068.182.104.502.306.961.669,1.369,1.078.014.014.031.026.045.041l-.004.004-1.622,1.674ZM22.166,4.178l-1.563,1.127h.001s-.334.242-.334.242l-1.027.74-1.731-.261h-.001s-.037-.298-.037-.298l-.232-1.866.733-.779,1.468-1.559v.003s-.179,2.231-.179,2.231c.021.232.21.414.442.421l2.396-.002h.068s-.003.002-.003.002Z"/></svg>