<?xml version="1.0" encoding="UTF-8"?><svg id="Layer_2" xmlns="http://www.w3.org/2000/svg" viewBox="0 0 24 24"><defs><style>.cls-1{fill:#4c4c4c;}</style></defs><g id="gray"><path class="cls-1" d="M23.817,9.957c-.417-2.422-1.481-4.525-3.188-6.289C18.596,1.569,16.109.385,13.209.057c-.153-.017-.306-.038-.459-.057h-.984c-.769.252-1.03.799-1.013,1.583.031,1.476.008,2.953.01,4.429,0,.133,0,.266.018.397.093.691.807,1.172,1.484,1.005.604-.148.973-.637.976-1.317.005-1.078.002-2.156.002-3.234v-.299c.221.039.404.068.586.103,5.066.979,8.433,5.856,7.554,10.942-.934,5.405-6.188,8.904-11.519,7.673C3.353,19.777.375,12.188,4.127,6.661c.849-1.25,1.943-2.229,3.252-2.981.629-.361.809-1.096.456-1.702-.348-.597-1.088-.79-1.71-.437-.278.158-.554.322-.817.503C2.508,3.974.797,6.613.183,9.958c-.081.443-.123.892-.183,1.339v1.406c.061.455.099.914.186,1.363.777,3.983,2.972,6.904,6.599,8.73,1.359.684,2.812,1.055,4.33,1.166.061.005.121.024.181.037h1.406c.447-.061.898-.103,1.341-.186,3.674-.683,6.466-2.642,8.363-5.856.922-1.562,1.427-3.263,1.555-5.075.004-.061.025-.121.038-.181v-1.406c-.06-.447-.106-.896-.183-1.34Z"/><path class="cls-1" d="M7.946,9.371l1.983,1.983c-.064.206-.109.42-.109.646,0,1.204.976,2.18,2.18,2.18s2.18-.976,2.18-2.18-.976-2.18-2.18-2.18c-.208,0-.405.038-.595.093l-2.001-2.001c-.401-.401-1.057-.401-1.458,0s-.401,1.057,0,1.458Z"/></g></svg>