<?xml version="1.0" encoding="UTF-8"?><svg id="Layer_1" xmlns="http://www.w3.org/2000/svg" viewBox="0 0 24 23.999"><defs><style>.cls-1{fill:none;}.cls-2{fill:#fef7d6;}.cls-3{fill:#f4b7ae;}.cls-4{fill:#a5a5a5;}.cls-5{fill:#f9c075;}.cls-6{fill:#c8bfef;}.cls-7{fill:#98e1ea;}.cls-8{fill:#a8e2bb;}.cls-9{fill:#cae9ef;}</style></defs><polygon class="cls-1" points="8.728 17.776 8.728 17.776 12.811 17.59 8.728 17.776"/><path class="cls-1" d="M7.887,8.528c.156-.013.297-.01.431,0-.136-.02-.278-.026-.431,0Z"/><path class="cls-1" d="M8.18,13.15l2.485.186-1.417-1.138-.349-.737-.386.103c.025.312.051.535-.019.847-.064.284-.213.479-.315.738Z"/><path class="cls-1" d="M6.612,10.811c-.044.052-.112.095-.17.143.066-.044.125-.09.17-.143Z"/><path class="cls-1" d="M3.907,11.156c.031.052.063.095.094.115-.032-.02-.063-.07-.094-.115Z"/><path class="cls-1" d="M.836,15.185c-.004-.023-.017-.06-.033-.106.012.036.029.085.033.106Z"/><path class="cls-1" d="M2.377,11.908c.006-.116.029-.23.056-.343-.028.087-.048.194-.056.343Z"/><path class="cls-1" d="M1.823,8.295c-.049.016-.096.035-.141.057.05-.024.094-.038.141-.057Z"/><path class="cls-1" d="M20.132,15.006c.077-.07.153-.139.235-.21-.081.069-.158.14-.235.21Z"/><path class="cls-1" d="M13.934,23.165c.433-.026.819-.042,1.181-.095-.391.05-.791.071-1.181.095Z"/><path class="cls-3" d="M9.808,10.637c-.051.095-.173.205-.201.269-.072.162.19.669.28.841.269.513.679,1.041,1.134,1.393l4.671.013c.686-.354,1.293-.54,2.053-.707.053-.012.086-.016.117-.068-.25-.612-1.266-1.093-1.731-1.564l1.154-.61c.118-.021.626.653.71.777l.616,1.091c.83-1.406.98-3.038.376-4.564-.353-.891-1.415-2.307-2.422-2.444-.712-.097-1.338.102-1.836.62l-.32.866h-.475v-.866c-1.933-1.868-4.009.632-4.471,2.501.629.786.843,1.522.344,2.451ZM18.041,7.333c.189.343.524,1.159.524,1.535,0,0,.248.528,0,.819-.248.291-.749-.047-.749-.047.054-1.233-.277-2.693-1.306-3.371l-.238-.467c.725.056,1.436.929,1.768,1.53Z"/><path class="cls-2" d="M18.893,13.151l-.107,1.173-.595.371c.011-.52.011-1.035-.094-1.544-1.846.226-3.475,1.543-3.972,3.35-.081.294.242,1.791.374,2.022l3.391,3.426c.064.125-.223.253-.26.374,2.113.437,4.284-.658,5.171-2.619,1.345-2.975-.695-6.317-3.907-6.553ZM16.323,15.367l.64-.151c1.656,1.272,2.291.586,3.169-.21.076-.07.154-.14.235-.21l.487.57c-1.223,1.145-3.322,1.157-4.531,0ZM22.448,17.783c.02,2.076-1.789,3.927-3.883,3.837v-.749c1.675.019,3.423-.651,3.367-2.34l.516-.749Z"/><path class="cls-9" d="M7.894,16.232l-6.442-.235c-.167,3.074,2.013,6.18,4.986,6.968,1.352.358,2.788.143,4.174.2l-1.194-.934c-1.52-1.586-2.232-3.906-1.523-5.999Z"/><path class="cls-9" d="M8.638,14.367c.05-.06.461-.412.398-.467l-8.217.161c-.014,0-.211.116-.232.142-.083.097.136.627.216.877.017.046.029.083.033.106.019.099.156.238.257.257l7.086-.079c.167-.378.193-.681.458-.997Z"/><path class="cls-5" d="M9.543,14.636c-.116-.02-.436.7-.5.807-.416.687-.26,1.528-.314,2.333l4.083-.186-3.268-2.954Z"/><path class="cls-5" d="M16.601,22.422l-2.667-3.328v4.071c.389-.023.79-.044,1.181-.095.53-.078,1.006-.238,1.486-.649Z"/><path class="cls-5" d="M10.23,21.463c-.032.182,1.097,1.206,1.286,1.29.521.231,1.097.382,1.669.413l-.222-4.071-2.733,2.369Z"/><path class="cls-5" d="M9.787,21.383l3.024-2.851h-4.083c.059.598.034,1.217.285,1.763.078.168.618,1.115.773,1.088Z"/><path class="cls-9" d="M11.441,15.434l2.457-.338c.222-.588.496-.712.878-1.197h-4.865l1.53,1.535Z"/><path class="cls-8" d="M8.275,4.424c.479-.242.913-.794.981-1.336l-1.943-.351c-.087,0-.501.144-.602.193-.485.231-1.15,1.158-1.197,1.703h2.175c.061,0,.502-.166.587-.209Z"/><path class="cls-8" d="M3.44,4.765c-.075-.028-.426-.132-.477-.132l-2.289-.382c.167.536.594,1.385,1.094,1.67.139.079.538.256.68.256h2.175c-.106-.615-.6-1.194-1.184-1.413Z"/><path class="cls-8" d="M15.81.965c-.521.243-.971.793-1.034,1.375h1.895c.143,0,.541-.096.691-.151.559-.203.607-1.594.688-2.189l-1.8.796c-.023,0-.381.142-.439.169Z"/><path class="cls-6" d="M2.204,10.799c1.404-.241,1.408-2.826-.229-2.548-.054.009-.102.028-.151.044-.047.019-.092.034-.141.057-1.039.527-.964,2.701.522,2.446Z"/><path class="cls-6" d="M4.886,10.805c1.789.206,1.725-2.792-.104-2.482-1.192.202-1.16,2.336.104,2.482Z"/><path class="cls-6" d="M7.95,11.201c2.255.239,1.855-2.456.368-2.672-.133-.011-.275-.013-.431,0-1.203.204-1.185,2.54.063,2.673Z"/><path class="cls-6" d="M5.061,11.563c.023.488.385.939.779,1.284.8.698,2.018.073,1.919-.984-.007-.072-.062-.298-.104-.34-.038-.037-.446-.179-.566-.253-.189-.118-.354-.273-.476-.459-.045.052-.104.099-.17.143-.367.296-.959.508-1.381.609Z"/><path class="cls-6" d="M4.6,12.401c.073-.205.128-.719-.033-.877-.038-.037-.446-.179-.566-.253-.031-.019-.063-.063-.094-.115-.15-.216-.283-.651-.384-.805-.147.132-.425.588-.586.706-.276.202-.428.277-.504.509-.027.112-.05.227-.056.343-.077,1.38,1.805,1.673,2.223.492Z"/><polygon class="cls-7" points="13.208 17.176 13.372 16.239 12.25 16.239 13.208 17.176"/><path class="cls-4" d="M17.817,9.641s.501.337.749.047c.248-.291,0-.819,0-.819,0-.375-.335-1.192-.524-1.535-.332-.601-1.043-1.474-1.768-1.53l.238.467c1.029.678,1.36,2.138,1.306,3.371Z"/><path class="cls-4" d="M18.565,20.872v.749c2.094.09,3.902-1.762,3.883-3.837l-.516.749c.057,1.689-1.692,2.359-3.367,2.34Z"/><path class="cls-4" d="M20.854,15.367l-.487-.57c-.082.07-.158.14-.235.21-.878.795-1.514,1.481-3.169.21l-.64.151c1.209,1.157,3.308,1.145,4.531,0Z"/><path class="cls-4" d="M23.992,17.269c-.069-.316-.116-.633-.2-.946-.543-2.016-2.774-3.713-4.872-3.923.119-.346.852-1.715.982-2.069.657-1.787.265-2.711-.83-4.261-1.034-1.463-2.606-1.993-4.342-.982v-2.35l2.269.351c.091,0,.54-.143.656-.186,1.15-.434,1.83-1.695,1.707-2.902h-1.311c-.081.595-.129,1.986-.688,2.189-.15.054-.548.151-.691.151h-1.895c.064-.582.513-1.132,1.034-1.375.058-.027.416-.169.439-.169l1.8-.796h-1.73c-1.135.122-2.419.38-2.386,2.504v2.176c-2.349-1.433-4.348,1.332-4.912,3.469-1.759-.694-1.927-.034-2.427.663-.281-.369-.395-.76-1.133-.832l.05-2.954,1.988.403c.046,0,.978-.009,1.053-.023,1.43-.284,1.648-1.636,1.544-3.065h-3.865c-.089.001-.606.209-.719.265-.782.386-.824,1.762-.889,2.642l-.607-1.059c-.168-.091-.65-.303-.82-.303H.039v.679c0,1.144,1.425,2.41,2.55,2.41l2.082-.441.161,1.416c-.352-.039-.911-.077-1.285.569-.715-.855-1.827-1.598-2.728-.863-1.274,1.039-.723,3.402,1.156,3.602-.056.318-.393.883-.331,1.203.135.696.563.459.66.698l-1.448-.235c-.165,0-.542.083-.644.23-.287.411-.262,2.031-.041,2.466.161.318.474.159.704.38-.253,4.004.107,7.576,6.859,7.966,2.032.117,4.179-.092,6.224-.002.865-.08,1.646-.324,2.411-.724.133-.07.381-.287.494-.305.176-.028.949.208,1.257.236,4.549.415,5.63-1.917,5.873-4.916.026-.316-.019-.663,0-.983ZM6.71,2.93c.102-.049.515-.193.602-.193l1.943.351c-.067.542-.502,1.093-.981,1.336-.084.043-.525.209-.587.209h-2.175c.047-.544.712-1.472,1.197-1.703ZM2.449,6.177c-.142,0-.541-.177-.68-.256-.5-.285-.927-1.134-1.094-1.67l2.289.382c.05,0,.402.104.477.132.584.218,1.078.798,1.184,1.413h-2.175ZM13.934,5.686v.866h.475l.32-.866c.498-.518,1.124-.716,1.836-.62,1.007.137,2.07,1.553,2.422,2.444.604,1.526.454,3.157-.376,4.564l-.616-1.091c-.084-.124-.592-.798-.71-.777l-1.154.61c.465.47,1.481.951,1.731,1.564-.031.051-.064.056-.117.068-.761.167-1.367.352-2.053.707l-4.671-.013c-.455-.352-.865-.88-1.134-1.393-.09-.172-.352-.679-.28-.841.028-.064.15-.174.201-.269.498-.928.284-1.665-.344-2.451.462-1.869,2.537-4.369,4.471-2.501ZM13.898,15.096l-2.457.338-1.53-1.535h4.865c-.382.485-.656.609-.878,1.197ZM1.975,8.251c1.637-.278,1.633,2.307.229,2.548-1.486.255-1.56-1.92-.522-2.446.045-.023.092-.041.141-.057.05-.016.098-.035.151-.044ZM2.433,11.565c.076-.232.228-.307.504-.509.16-.117.439-.574.586-.706.102.154.234.589.384.805.031.045.062.094.094.115.12.074.528.216.566.253.161.158.106.672.033.877-.418,1.18-2.3.888-2.223-.492.008-.149.028-.255.056-.343ZM8.513,11.565l.386-.103.349.737,1.417,1.138-2.485-.186c.101-.259.251-.454.315-.738.07-.312.044-.535.019-.847ZM8.728,18.532h4.083l-3.024,2.851c-.156.027-.696-.92-.773-1.088-.252-.546-.227-1.165-.285-1.763ZM8.728,17.776h0c.054-.805-.102-1.646.314-2.333.065-.107.384-.827.5-.807l3.268,2.954-4.083.186ZM8.318,8.529c1.487.216,1.887,2.911-.368,2.672-1.248-.132-1.267-2.469-.063-2.673.153-.026.295-.019.431,0ZM6.612,10.811c.122.186.287.341.476.459.12.074.528.216.566.253.043.042.098.267.104.34.099,1.057-1.118,1.682-1.919.984-.394-.344-.756-.796-.779-1.284.422-.102,1.014-.313,1.381-.609.058-.047.126-.091.17-.143ZM4.783,8.323c1.829-.31,1.892,2.687.104,2.482-1.264-.145-1.295-2.279-.104-2.482ZM.836,15.185c-.004-.021-.022-.07-.033-.106-.08-.25-.299-.78-.216-.877.022-.026.219-.142.232-.142l8.217-.161c.062.055-.348.408-.398.467-.265.316-.291.619-.458.997l-7.086.079c-.101-.019-.239-.159-.257-.257ZM6.439,22.965c-2.973-.787-5.153-3.894-4.986-6.968l6.442.235c-.708,2.092.003,4.413,1.523,5.999l1.194.934c-1.386-.057-2.822.158-4.174-.2ZM11.516,22.752c-.189-.084-1.318-1.107-1.286-1.29l2.733-2.369.222,4.071c-.572-.031-1.148-.182-1.669-.413ZM13.208,17.176l-.959-.936h1.123l-.164.936ZM13.934,23.165v-4.071l2.667,3.328c-.481.41-.956.571-1.486.649-.361.053-.747.069-1.181.095ZM22.8,19.703c-.887,1.962-3.057,3.056-5.171,2.619.037-.121.324-.248.26-.374l-3.391-3.426c-.132-.231-.455-1.729-.374-2.022.497-1.807,2.126-3.124,3.972-3.35.105.51.105,1.025.094,1.544l.595-.371.107-1.173c3.212.236,5.252,3.578,3.907,6.553Z"/></svg>