<?xml version="1.0" encoding="UTF-8"?><svg id="Layer_2_copy" xmlns="http://www.w3.org/2000/svg" viewBox="0 0 24.059 22.498"><defs><style>.cls-1{fill:#a5a5a5;}.cls-2{fill:#fff;}</style></defs><path class="cls-1" d="M22.773,2.815c-1.166-1.647-3.031-2.5-5.014-2.276-2.009.226-3.796,1.488-5.091,3.531-.166.226-.323.465-.474.715-1.121-2.306-2.906-3.709-5.022-3.897-2.327-.218-4.737,1.128-5.99,3.325C-.324,6.854.044,10.085,2.204,13.09c6.5,8.421,9.734,9.356,9.869,9.392.042.011.084.016.126.016.058,0,.115-.011.17-.03.267-.098,6.567-2.481,10.137-9.672,1.893-3.907,1.99-7.546.267-9.982ZM11.937,20.751c-.592-.243-3.14-1.529-7.656-6.847h5.303c.213,0,.402-.136.469-.338l.603-1.809,1.109,5.529c.041.206.208.363.416.392.023.003.046.005.069.005.183,0,.353-.101.439-.267l1.958-3.77,5.878-.393c-3.037,5.047-7.676,7.126-8.588,7.497ZM21.154,12.104l-6.579-.048h-.004c-.184,0-.353.103-.438.267l-1.8,2.764-.264-1.317-.585-4.63c-.044-.22-.23-.382-.454-.396-.23-.016-.429.125-.499.337l-.195.545c-.009.019-.022.035-.029.056l-.128.384-.878,2.459-5.912.245c-.015,0-.028.007-.043.009-.117-.144-.229-.276-.348-.425-1.799-2.412-2.169-5-1.015-7.102.941-1.714,2.755-2.811,4.595-2.811.114,0,.228.004.342.013,2.028.152,3.645,1.595,4.553,4.063.07.19.249.318.451.323.452.078,1.269-1.745,1.587-2.246,1.076-1.439,2.463-2.32,3.995-2.47,1.604-.151,3.108.541,4.019,1.867,1.346,1.962,1.204,4.915-.371,8.114Z"/><path class="cls-2" d="M22.504,2.311C21.338.664,19.473-.188,17.49.035c-2.009.226-3.796,1.488-5.091,3.531-.166.226-.323.465-.474.715C10.804,1.975,9.019.572,6.903.384,4.577.166,2.167,1.512.914,3.708-.593,6.35-.225,9.581,1.935,12.586c6.5,8.421,9.734,9.356,9.869,9.392.042.011.084.016.126.016.058,0,.115-.011.17-.03.267-.098,6.567-2.481,10.137-9.672,1.893-3.907,1.99-7.546.267-9.982ZM11.668,20.248c-.592-.243-3.14-1.529-7.656-6.847h5.303c.213,0,.402-.136.469-.338l.603-1.809,1.109,5.529c.041.206.208.363.416.392.023.003.046.005.069.005.183,0,.353-.101.439-.267l1.958-3.77,5.878-.393c-3.037,5.047-7.676,7.126-8.588,7.497ZM20.886,11.6l-6.579-.048h-.004c-.184,0-.353.103-.438.267l-1.8,2.764-.264-1.317-.585-4.63c-.044-.22-.23-.382-.454-.396-.23-.016-.429.125-.499.337l-.195.545c-.009.019-.022.035-.029.056l-.128.384-.878,2.459-5.912.245c-.015,0-.028.007-.043.009-.117-.144-.229-.276-.348-.425C.93,9.437.56,6.849,1.714,4.747c.941-1.714,2.755-2.811,4.595-2.811.114,0,.228.004.342.013,2.028.152,3.645,1.595,4.553,4.063.07.19.249.318.451.323.452.078,1.269-1.745,1.587-2.246,1.076-1.439,2.463-2.32,3.995-2.47,1.604-.151,3.108.541,4.019,1.867,1.346,1.962,1.204,4.915-.371,8.114Z"/></svg>