<?xml version="1.0" encoding="UTF-8"?><svg id="Layer_1" xmlns="http://www.w3.org/2000/svg" viewBox="0 0 24 21.917"><defs><style>.cls-1{fill:none;}.cls-2{fill:#f7e98e;}.cls-3{fill:#fff;}.cls-4{fill:#efc7c2;}.cls-5{fill:#4c4c4c;}</style></defs><path class="cls-1" d="M16.832,5.873c-.024.035-.06.07-.114.103.068-.043.099-.075.114-.103Z"/><path class="cls-1" d="M20.991,2.319c.017-.122.006-.32-.004-.401.005.042.006.211.004.401Z"/><path class="cls-1" d="M11.707,11.974c.125-.071.205-.167.248-.271-.061.113-.142.211-.248.271Z"/><path class="cls-1" d="M20.791,3.462c.009-.009.02-.053.031-.108-.026.052-.051.105-.083.157.017-.017.034-.032.051-.049Z"/><path class="cls-1" d="M5.024,8.539c.017-.061.071-.086.152-.101-.09.001-.152.025-.152.101Z"/><path class="cls-5" d="M23.989,3.716c-.113-.963-1.377-1.3-2.344-1.242.03-.943-.372-2.241-1.29-2.408C14.098-.008,7.808-.041,1.554.083.849.273.268.799.08,1.513-.081,8.161.06,14.84.009,21.499c.011.437.797.417.797.417l4.66-5.343,14.615.451c.983-.077,1.712-.75,1.895-1.711l-.511-8.504c.617-.789,2.381-1.562,2.525-2.624.015-.111.013-.356,0-.469ZM20.992,7.746v7.473c0,.018-.107.246-.131.291-.198.372-.564.499-.968.531l-14.555.01-.247.175s-3.706,4.307-4.097,4.077c-.391-.23-.185-18.867-.174-18.904.113-.353.7-.789,1.072-.81l18.188.456c.475.037.849.404.906.874.01.081.021.279.004.401-.003.283-.012.615-.022.659-.03.125-.083.25-.146.376-.011.055-.022.098-.031.108-.017.018-.034.032-.051.049-.786,1.306-3.196,2.703-5.415,4.491l-9.367.537c-.194.031-.571-.104-.781-.101-.081.015-.135.04-.152.101,0,.061.002.123.024.188.023.066.24.283.278.283h9.54c-.079.753-.388,1.273-.455,2.014-.051.559-.227,1.029.315.972.37-.039,2.34-.428,2.562-.576l3.703-4.224v.549ZM16.775,10.532l-1.637.895.353-2.18,4.973-4.612.808,1.4-4.497,4.496ZM21.999,5.308l-1.104-1.104c.408-.346.576-1.156,1.163-1.179.478-.018,1.287.383,1.287.865,0,.604-.994,1.004-1.346,1.418Z"/><path class="cls-3" d="M14.727,11.996c-.542.057-.366-.413-.315-.972.067-.741.376-1.26.455-2.014H5.327c-.038,0-.256-.217-.278-.283-.023-.065-.024-.127-.024-.188,0-.076.062-.1.152-.101.21-.003.588.132.781.101l9.367-.537c2.219-1.788,4.629-3.185,5.415-4.491.032-.053.056-.105.083-.157.063-.126.116-.251.146-.376.01-.044.02-.376.022-.659.002-.19.001-.359-.004-.401-.057-.47-.431-.837-.906-.874L1.893.588c-.372.022-.959.458-1.072.81-.012.037-.217,18.674.174,18.904.391.23,4.097-4.077,4.097-4.077l.247-.175,14.555-.01c.404-.032.77-.158.968-.531.024-.045.131-.272.131-.291V7.196l-3.703,4.224c-.221.148-2.192.537-2.562.576ZM5.392,4.635l6.245.398,4.326.276c.48.023,1.051.304.869.565-.015.028-.046.061-.114.103l-11.413.01c-.071-.037-.125-.098-.171-.166-.044-.058-.071-.114-.087-.18-.124-.385-.003-.923.345-1.005ZM11.955,11.703c-.043.104-.122.2-.248.271l-6.402.01c-.07-.037-.102-.075-.118-.114-.087-.212.533-.444.941-.541l2.532-.298,3.03-.357c.411.049.474.641.265,1.03Z"/><polygon class="cls-2" points="15.491 9.247 15.138 11.427 16.775 10.532 21.272 6.035 20.465 4.635 15.491 9.247"/><path class="cls-4" d="M22.058,3.026c-.587.022-.754.833-1.163,1.179l1.104,1.104c.352-.414,1.345-.813,1.346-1.418,0-.482-.809-.883-1.287-.865Z"/><path class="cls-5" d="M5.134,5.82c.046.069.1.129.171.166l11.413-.01c.054-.034.089-.068.114-.103.182-.261-.388-.542-.869-.565l-4.326-.276-6.245-.398c-.347.082-.469.62-.345,1.005.015.065.042.122.087.18Z"/><path class="cls-5" d="M11.691,10.673l-3.03.357-2.532.298c-.408.097-1.028.329-.941.541.016.039.048.078.118.114l6.402-.01c.106-.06.187-.158.248-.271.21-.389.147-.98-.265-1.03Z"/></svg>