<?xml version="1.0" encoding="UTF-8"?><svg id="Layer_1" xmlns="http://www.w3.org/2000/svg" viewBox="0 0 24 22.382"><defs><style>.cls-1{fill:none;}.cls-2{fill:#4c4c4c;}</style></defs><path class="cls-1" d="M7.243,18.245h4.085v-3.505h-4.085v3.505Z"/><path class="cls-1" d="M17.654,6.144c-.471-.251-.951-.484-1.428-.722-.235-.117-.471-.231-.725-.356v5.505h2.32c.013-.057.025-.083.025-.109.001-1.354.005-2.709-.006-4.063,0-.087-.1-.209-.185-.255Z"/><path class="cls-1" d="M15.504,21.183h2.331v-6.446h-2.331v6.446Z"/><path class="cls-1" d="M7.233,6.535c-.008,1.262-.006,2.523-.005,3.785,0,.08.011.159.018.248h4.082v-5.648c-1.341.448-2.657.884-3.968,1.336-.068.024-.127.183-.127.28Z"/><path class="cls-1" d="M20.581,4.35c-2.036-1.012-4.068-2.034-6.106-3.042-.131-.065-.323-.084-.463-.042-3.546,1.053-7.087,2.119-10.632,3.173-.226.067-.293.161-.293.396.007,5.347.006,10.694.006,16.042v.306h11.216c-.002-1.828-.002-5.595,0-6.961,0-.469.208-.677.674-.678,1.115-.004,2.23-.003,3.345,0,.481.001.693.215.695.691.002.756,0,1.511,0,2.267,0,.638.001,3.417,0,4.682h1.762c.004-.078.008-.133.008-.187,0-5.439,0-10.879.005-16.318,0-.177-.067-.253-.217-.327ZM12.537,18.728c-.001.493-.216.703-.713.705-.848.003-1.696,0-2.543,0-.839,0-1.677.002-2.516,0-.514-.001-.724-.208-.725-.721-.003-1.484-.003-2.968,0-4.452,0-.512.21-.718.727-.718,1.686-.002,3.373-.002,5.059,0,.496,0,.71.212.711.706.003,1.493.003,2.986,0,4.48ZM12.537,11.01c0,.543-.213.76-.749.761-1.667.002-3.335.002-5.002,0-.523,0-.746-.219-.747-.735-.002-1.677-.002-3.354,0-5.031,0-.441.12-.604.548-.747,1.683-.562,3.367-1.123,5.051-1.682.554-.184.899.069.9.661.002,1.133,0,2.267,0,3.4,0,1.124.001,2.248,0,3.372ZM19.023,11.095c0,.435-.227.671-.663.674-1.125.007-2.249.006-3.374,0-.459-.002-.675-.224-.677-.685-.004-1.152-.001-2.305-.001-3.457,0-1.134-.002-2.268,0-3.402.001-.63.407-.878.972-.595,1.112.555,2.22,1.117,3.334,1.667.281.139.411.343.41.654-.004,1.715,0,3.43-.003,5.145Z"/><path class="cls-2" d="M21.987,5.06c.513.255.995.493,1.493.741.18-.364.35-.704.519-1.046-.054-.032-.076-.047-.101-.059C20.813,3.151,17.728,1.603,14.635.072c-.175-.087-.438-.091-.631-.035-1.793.521-3.58,1.064-5.37,1.599-2.16.646-4.317,1.298-6.481,1.931-.705.206-1.424.361-2.154.544.1.395.193.765.289,1.141.552-.136,1.075-.265,1.612-.398v16.349H.169v1.178h23.555v-1.173h-1.737V5.06ZM17.835,21.183h-2.331v-6.446h2.331v6.446ZM20.794,20.996c0,.054-.005.108-.008.187h-1.762c.001-1.264,0-4.044,0-4.682,0-.756.002-1.511,0-2.267-.001-.476-.214-.689-.695-.691-1.115-.003-2.23-.003-3.345,0-.466.002-.673.209-.674.678-.003,1.367-.003,5.133,0,6.961H3.093v-.306c0-5.347.002-10.694-.006-16.042,0-.234.067-.328.293-.396,3.545-1.054,7.087-2.12,10.632-3.173.14-.041.332-.022.463.042,2.038,1.008,4.07,2.03,6.106,3.042.15.075.217.15.217.327-.005,5.439-.004,10.879-.005,16.318Z"/><path class="cls-2" d="M11.637,3.576c-1.684.559-3.367,1.12-5.051,1.682-.427.143-.547.306-.548.747-.002,1.677-.002,3.354,0,5.031,0,.516.224.734.747.735,1.667.002,3.335.002,5.002,0,.536,0,.748-.218.749-.761.002-1.124,0-2.248,0-3.372,0-1.133.002-2.267,0-3.4-.001-.592-.346-.845-.9-.661ZM11.329,10.568h-4.082c-.007-.089-.018-.168-.018-.248-.001-1.262-.004-2.523.005-3.785,0-.097.059-.256.127-.28,1.311-.452,2.627-.888,3.968-1.336v5.648Z"/><path class="cls-2" d="M11.826,13.542c-1.686-.002-3.373-.002-5.059,0-.517,0-.726.206-.727.718-.003,1.484-.003,2.968,0,4.452,0,.512.211.719.725.721.839.002,1.677,0,2.516,0,.848,0,1.696.002,2.543,0,.497-.002.712-.211.713-.705.003-1.493.003-2.986,0-4.48,0-.495-.215-.706-.711-.706ZM11.328,18.245h-4.085v-3.505h4.085v3.505Z"/><path class="cls-2" d="M18.615,5.296c-1.114-.55-2.223-1.112-3.334-1.667-.565-.282-.971-.034-.972.595-.003,1.134,0,2.268,0,3.402,0,1.152-.002,2.305.001,3.457.002.461.217.683.677.685,1.125.005,2.249.006,3.374,0,.437-.003.662-.238.663-.674.003-1.715,0-3.43.003-5.145,0-.312-.129-.516-.41-.654ZM17.821,10.57h-2.32v-5.505c.254.124.49.239.725.356.477.238.958.471,1.428.722.085.046.185.167.185.255.011,1.354.007,2.709.006,4.063,0,.026-.011.052-.025.109Z"/></svg>