<?xml version="1.0" encoding="UTF-8"?><svg id="Layer_1" xmlns="http://www.w3.org/2000/svg" viewBox="0 0 24.046 23.829"><defs><style>.cls-1{fill:#2847ef;}.cls-2{fill:#fff;}</style></defs><path class="cls-2" d="M13.992,23.705c-4.817,0-10.037-3.711-12.3-7.299C.271,14.154-.175,12.168.326,10.335,1.131,7.39,4.362,4.602,10.803,1.295,12.315.518,13.868.125,15.42.125c3.711,0,6.826,2.345,7.585,4.518,2.102,6.021.467,12.781-4.165,17.219-1.275,1.223-2.907,1.843-4.849,1.843Z"/><path class="cls-1" d="M15.421.25h0c3.656,0,6.722,2.302,7.466,4.434,2.085,5.975.463,12.682-4.133,17.087-1.252,1.2-2.855,1.809-4.763,1.809-4.774,0-9.948-3.681-12.194-7.241C.397,14.118-.045,12.165.446,10.368,1.241,7.459,4.453,4.695,10.86,1.406c1.494-.767,3.029-1.156,4.561-1.156M15.42,0c-1.458,0-3.04.345-4.675,1.184C.535,6.426-2.108,10.616,1.586,16.472c2.397,3.799,7.766,7.357,12.405,7.357,1.836,0,3.558-.558,4.936-1.878,4.493-4.306,6.41-11.004,4.196-17.349C22.396,2.517,19.36,0,15.42,0h0Z"/><path class="cls-1" d="M19.639,17.904h1.146v.774H5.243v-.777h1.142V7.113c-.354.087-.699.173-1.063.262-.063-.248-.125-.492-.19-.753.482-.121.956-.223,1.421-.359,1.427-.418,2.851-.848,4.276-1.274,1.181-.353,2.36-.712,3.543-1.055.128-.037.301-.034.416.023,2.041,1.01,4.076,2.032,6.113,3.051.016.008.031.018.066.039-.112.225-.223.45-.343.69-.329-.163-.647-.321-.985-.489v10.655ZM18.846,17.887c.002-.052.005-.087.005-.123,0-3.589,0-7.178.003-10.767,0-.117-.044-.167-.143-.216-1.344-.668-2.684-1.342-4.029-2.007-.087-.043-.213-.055-.305-.028-2.339.695-4.676,1.398-7.016,2.094-.149.044-.194.107-.193.261.005,3.528.004,7.057.004,10.585v.202h11.674Z"/><path class="cls-1" d="M13.404,8.949c0,.742,0,1.483,0,2.225,0,.358-.141.502-.494.502-1.1.001-2.2.001-3.301,0-.345,0-.493-.144-.493-.485-.002-1.106-.001-2.213,0-3.319,0-.291.079-.399.361-.493,1.111-.371,2.221-.741,3.333-1.11.366-.121.593.046.594.436.002.748,0,1.496,0,2.243ZM12.606,10.883v-3.727c-.885.295-1.753.583-2.618.881-.045.016-.084.121-.084.185-.006.832-.004,1.665-.003,2.497,0,.053.007.105.012.163h2.694Z"/><path class="cls-1" d="M11.255,16.733c-.553,0-1.107.001-1.66,0-.339,0-.478-.138-.479-.476-.002-.979-.002-1.958,0-2.938,0-.338.139-.474.48-.474,1.113-.001,2.226-.001,3.338,0,.327,0,.468.14.469.466.002.985.002,1.971,0,2.956,0,.326-.142.464-.47.465-.559.002-1.119,0-1.678,0ZM12.606,15.948v-2.313h-2.695v2.313h2.695Z"/><path class="cls-1" d="M14.572,8.942c0-.748-.001-1.497,0-2.245,0-.415.268-.579.642-.393.734.366,1.465.737,2.2,1.1.186.092.271.226.271.432-.003,1.132,0,2.263-.002,3.395,0,.287-.149.443-.438.444-.742.004-1.484.004-2.226,0-.303-.001-.445-.148-.446-.452-.002-.76,0-1.521,0-2.281ZM16.89,10.884c.009-.037.016-.055.016-.072,0-.894.004-1.787-.004-2.681,0-.058-.066-.138-.122-.168-.31-.166-.627-.32-.942-.477-.155-.077-.311-.152-.478-.235v3.632h1.531Z"/><path class="cls-1" d="M17.684,14.797c0,.493.001,2.928,0,3.421,0,.314-.141.456-.457.457-.736.002-1.471.002-2.207,0-.308-.001-.445-.139-.446-.447-.002-.997-.002-3.937,0-4.935,0-.309.137-.447.445-.448.736-.002,1.471-.002,2.207,0,.317,0,.457.142.458.456.002.499,0,.997,0,1.496ZM16.899,13.633h-1.538v4.253h1.538v-4.253Z"/></svg>