<?xml version="1.0" encoding="UTF-8"?><svg id="Layer_1" xmlns="http://www.w3.org/2000/svg" viewBox="0 0 23.997 24"><defs><style>.cls-1{fill:none;}.cls-2{fill:#fef7d6;}.cls-3{fill:#e2e2e2;}.cls-4{fill:#a5a5a5;}</style></defs><path class="cls-1" d="M15.063,17.788c.162-.136.332-.26.512-.369-.196.089-.371.193-.512.369Z"/><path class="cls-2" d="M15.575,17.419c.632-.386,1.325-.691,1.793-1.499,2.536-4.383-1.211-10.482-6.183-9.819-4.568.609-7.109,6.222-4.257,9.846.454.577,1.372.773,1.841,1.296.698.781,1.106,1.523,1.137,2.577l4.135.332c.066-.388.105-.77.221-1.149.175-.575.466-.933.801-1.215.141-.176.315-.28.512-.369ZM11.709,8.227c-1.472.271-2.871,1.819-3.141,3.289-.045.242-.019.781-.169.942-.26.28-1.067-.218-1.138-.612-.058-.32.033-.824.107-1.147.37-1.62,1.92-2.585,3.531-2.995.472-.12,1.67-.152,1.67.356,0,.249-.456.093-.86.167Z"/><path class="cls-3" d="M10.021,21.165v1.583c0,.233.285.415.5.445.595.081,2.414.074,3.021.004.153-.017.283-.062.38-.187.059-.075.163-.374.163-.451v-1.694l-4.065.301Z"/><path class="cls-4" d="M2.368,11.834c-.472-.04-1.405-.31-1.866-.254-.273.033-.382.131-.502.372v.284c.1.221.241.548.486.581.424.058,1.557-.159,1.995-.204.319-.032.557-.189.546-.541-.011-.358-.343-.212-.659-.238Z"/><path class="cls-4" d="M12.572,2.48c.047-.46.266-1.569.211-2.023-.033-.273-.347-.338-.588-.457h-.284c-.221.1-.341.255-.374.5-.056.414.259,1.54.304,1.965.079.731.655.757.731.015Z"/><path class="cls-4" d="M12.808,4.738c-5.811-.475-9.846,6.2-6.73,11.132,1.006,1.592,2.774,2.1,2.949,4.233.107,1.3-1.192,3.65.713,3.872.712.083,3.321-.057,4.029-.143,1.858-.226,1.208-2.575,1.31-3.823.152-1.858,1.769-2.497,2.732-3.836,3.142-4.374.299-11.001-5.003-11.434ZM14.086,22.559c0,.077-.105.376-.163.451-.097.125-.228.169-.38.187-.607.069-2.426.076-3.021-.004-.215-.029-.5-.212-.5-.445v-1.583l4.065-.301v1.694ZM15.063,17.788c-.335.282-.626.641-.801,1.215-.116.38-.155.761-.221,1.149l-4.135-.332c-.031-1.054-.439-1.797-1.137-2.577-.468-.524-1.387-.719-1.841-1.296-2.852-3.624-.312-9.238,4.257-9.846,4.973-.663,8.719,5.436,6.183,9.819-.468.809-1.161,1.113-1.793,1.499-.179.109-.349.233-.512.369Z"/><path class="cls-4" d="M23.692,11.587c-.327-.051-2.292.247-2.568.331-.514.154-.114.608.505.692.326.044,1.529.414,1.799.333.499-.15.848-1.264.264-1.355Z"/><path class="cls-4" d="M19.224,5.75l1.899-1.8c.154-.501-.624-.699-1.108-.503l-1.041,1.319c-.262.451-.172,1.326.251.984Z"/><path class="cls-4" d="M5.331,18.581c-.22.149-1.719.796-1.887,1.023-.107.144-.138.213-.119.403.007.073.235.698.278.723.083.048.561.013.67-.043.126-.065,1.215-1.169,1.354-1.339.156-.192.271-.322.204-.582-.09-.352-.196-.39-.5-.184Z"/><path class="cls-4" d="M19.145,18.494c-.069-.049-.14-.097-.227-.108-.373-.045-.538.149-.279.475l1.82,2.133c.51.148.775-.614.544-1.15-.525-.405-1.341-.982-1.857-1.35Z"/><path class="cls-4" d="M5.013,5.738c.504.329.706-.142.386-.627-.125-.19-.83-1.873-1.035-2.025-.059-.044-.096-.089-.176-.107-.476-.109-.921.861-.664,1.271.085.135,1.348,1.396,1.489,1.488Z"/><path class="cls-4" d="M10.899,7.704c-1.611.411-3.161,1.375-3.531,2.995-.074.323-.164.826-.107,1.147.071.393.877.892,1.138.612.149-.161.124-.7.169-.942.27-1.47,1.669-3.018,3.141-3.289.404-.074.86.082.86-.167,0-.508-1.199-.476-1.67-.356Z"/></svg>