<?xml version="1.0" encoding="UTF-8"?>
<svg id="Layer_1" xmlns="http://www.w3.org/2000/svg" version="1.1" viewBox="0 0 24.01 23.85">
  <!-- Generator: Adobe Illustrator 29.5.1, SVG Export Plug-In . SVG Version: 2.1.0 Build 141)  -->
  <defs>
    <style>
      .st0 {
        fill: #2847ef;
      }

      .st1 {
        fill: none;
        stroke: #2847ef;
        stroke-linecap: round;
        stroke-linejoin: round;
      }

      .st2 {
        fill: #fff;
      }
    </style>
  </defs>
  <path class="st2" d="M15.73,14.5c-.47,0,.27,2.2-2.36,2.33-.51.13,2.16.59,2.38,2.27h.22s.02-.07.03-.12c.05-.33.19-1.17.81-1.61.64-.46,1.62-.45,1.32-.56-.61-.22-1.47-.18-2.39-2.31Z"/>
  <path class="st2" d="M15.76,19.1s.11.45.21,0h-.21,0Z"/>
  <path class="st2" d="M15.83,9.09c.11-1.9,2.76-2.24,2.28-2.34h0s0,.01,0,.01c-2.26-.32-2.09-2.97-2.3-2.3-.34.55-.61,1.03-.92,1.44-.25.34-.62.5-1.4.86.11.48,1.01.48,1.39.85.38.38.25.59.96,1.48Z"/>
  <path class="st2" d="M14.99,11.87h0s.12-.18-.1-.34c-.23-.16-.53-.04-.82-.18-.61-.29-1.24-.56-1.79-.94-.89-.62-1.1-1.68-1.43-2.68-.07-.21-.37-1.53-.56-1.53s-.24,1.36-.3,1.54c-.13,1.05-.38,1.98-1.15,2.69-.7.63-1.77.77-2.65,1.06-.16.05-.48,0-.69.16-.21.17.08.23.08.23.37.13.73.28,1.1.4.94.32,1.78.8,2.32,1.62.41.62.68,1.34,1.01,2.01.07.15.03.45.23.45s.38-.18.38-.18c.41-1.04.49-1.95,1.34-2.77.84-.82,1.97-1.11,3.03-1.53h0Z"/>
  <path class="st1" d="M15.97,19.1h-.21"/>
  <path class="st0" d="M15.32.05C8.96-.52,1.22,3.77.07,11.27c-1.3,7.68,15.78,12.85,17.05,12.53,5.34.62,6.63-4.15,6.84-6.73C24.36,9.94,22.5,1.47,15.32.05ZM16.81,17.37c-.62.45-.76,1.29-.81,1.61,0,.05-.02.08-.03.12-.1.45-.2-.03-.21,0h0s0,0,0,0c-.22-1.68-2.88-2.15-2.38-2.27,2.63-.14,1.89-2.33,2.36-2.33.92,2.13,1.78,2.09,2.39,2.31.3.11-.68.1-1.32.56ZM10.61,16.18s-.18.18-.38.18-.16-.29-.23-.45c-.33-.68-.59-1.39-1.01-2.01-.54-.82-1.38-1.3-2.32-1.62-.37-.12-.73-.27-1.1-.4,0,0-.29-.06-.08-.23.21-.17.53-.11.69-.16.88-.29,1.95-.43,2.65-1.06.77-.7,1.02-1.64,1.15-2.69.05-.18.11-1.54.3-1.54s.48,1.32.56,1.53c.33,1,.54,2.06,1.43,2.68.55.38,1.18.65,1.79.94.29.14.59.02.82.18.23.16.1.34.1.34h0s0,.01,0,.01c-1.06.42-2.19.71-3.03,1.53-.85.82-.93,1.73-1.34,2.77ZM13.47,6.75c.78-.36,1.15-.52,1.4-.86.31-.42.59-.89.92-1.44.22-.67.05,1.98,2.3,2.3h0c.49.1-2.17.43-2.28,2.33-.71-.88-.58-1.1-.96-1.48-.39-.37-1.28-.38-1.39-.85Z"/>
</svg>