<?xml version="1.0" encoding="UTF-8"?><svg id="Layer_1" xmlns="http://www.w3.org/2000/svg" viewBox="0 0 23.93 23.44"><defs><style>.cls-1{fill:none;}.cls-2{fill:#2847ef;}.cls-3{fill:#fff;}</style></defs><path class="cls-1" d="M9.871,16.153c-.069-.13-.17-.321-.293-.549.139.308.249.531.293.549Z"/><path class="cls-3" d="M23.795,12.021C22.736,6.101,18.65,0,12.021,0S0,5.392,0,12.021s7.457,10.469,11.837,11.266c6.522,1.188,13.126-4.741,11.959-11.266ZM17.442,21.461c-.862.346-1.772.582-2.684.701C5.157,22.978-2.052,12.175,2.236,6.249,4.331,3.354,6.992,1.058,10.531.582c.504-.068,4.732-.223,6.733,1.367,2.396,1.902,5.017,7.158,5.31,10.197.381,3.276.248,7.056-5.133,9.315Z"/><path class="cls-3" d="M14.192,7.876c.04.041.079.104.117.176.012.024.027.049.036.074.202.424.376,1.138.483,1.138.451-1.799,2.185-1.888,2.088-1.91-.105-.024-.189-.052-.282-.078-1.344-.373-1.519-.932-1.807-1.612-.158.294-.264.619-.449.872-.035.053-.071.101-.107.137-.273.272-1.027.564-1.034.568.01.005.685.366.955.635Z"/><path class="cls-3" d="M13.644,12.024c.08-.255-.8-.494-1.532-.716-.372-.113-.708-.222-.854-.326-.479-.345-.825-1.094-1.069-1.738-.222-.586-.36-1.085-.426-1.1-.229-.231-.694,1.87-1.493,2.619-.701.647-2.464,1.022-2.384,1.259s2.428,1.137,2.899,1.871c.177.275.532,1.132.794,1.711.122.228.224.418.293.549.002.001.008.012.01.011.105-.016.545-2.076,1.257-2.779.669-.668,2.494-1.215,2.506-1.361Z"/><path class="cls-3" d="M16.633,16.715c.021-.149-.521-.077-1.09-.447-.209-.135-.392-.468-.526-.708-.085-.153-.15-.268-.187-.268-.043,0-.086.375-.294.723-.053.094-.115.185-.194.262-.053.052-.125.091-.203.124-.171.094-.364.169-.528.228-.145.052-.257.101-.276.165-.017.058.05.113.155.177.195.117.527.265.73.524.414.529.567,1.311.662,1.196.024-.029.279-.666.694-1.142.415-.476,1.036-.683,1.057-.833Z"/><path class="cls-2" d="M17.265,1.949c-2.002-1.59-6.23-1.434-6.733-1.367-3.54.475-6.201,2.771-8.296,5.667-4.287,5.926,2.921,16.729,12.522,15.913.912-.119,1.822-.355,2.684-.701,5.381-2.259,5.514-6.04,5.133-9.315-.292-3.039-2.914-8.295-5.31-10.197ZM14.22,17.495c-.203-.259-.534-.406-.73-.524-.105-.063-.173-.118-.155-.177.019-.064.131-.113.276-.165.164-.059.357-.134.528-.228.078-.033.15-.071.203-.124.079-.077.14-.168.194-.262.208-.348.251-.723.294-.723.037,0,.102.116.187.268.133.24.317.572.526.708.57.37,1.112.298,1.09.447-.021.149-.642.357-1.057.833-.415.476-.67,1.113-.694,1.142-.095.116-.248-.667-.662-1.196ZM9.871,16.153c-.044-.018-.154-.24-.293-.549-.261-.579-.616-1.436-.794-1.711-.471-.733-2.819-1.633-2.899-1.871s1.683-.612,2.384-1.259c.799-.749,1.264-2.85,1.493-2.619.066.014.204.513.426,1.1.244.644.59,1.393,1.069,1.738.146.104.482.213.854.326.731.222,1.612.461,1.532.716-.013.146-1.838.693-2.506,1.361-.712.703-1.152,2.763-1.257,2.779-.002,0-.008-.01-.01-.011ZM14.378,6.537c.185-.253.291-.578.449-.872.288.679.463,1.238,1.807,1.612.093.026.177.053.282.078.097.022-1.637.11-2.088,1.91-.108,0-.282-.714-.483-1.138-.009-.025-.024-.049-.036-.074-.038-.072-.077-.135-.117-.176-.27-.269-.945-.629-.955-.635.007-.004.761-.296,1.034-.568.036-.036.072-.083.107-.137Z"/></svg>