<?xml version="1.0" encoding="UTF-8"?><svg id="Layer_1" xmlns="http://www.w3.org/2000/svg" viewBox="0 0 24.061 23.568"><defs><style>.cls-1{fill:none;}.cls-2{fill:#2847ef;}.cls-3{fill:#fff;}.cls-4{fill:#4c4c4c;}</style></defs><path class="cls-1" d="M9.63,15.69c.14.31.25.533.294.552-.069-.131-.171-.322-.294-.552Z"/><path class="cls-1" d="M15.14,14.598s-.113-.817-.256-.817c.136,0,.256.817.256.817Z"/><path class="cls-1" d="M14.422,8.171c-.009-.025-.024-.05-.036-.074.012.023.024.049.036.074Z"/><path class="cls-1" d="M14.216,16.491c.078-.033.151-.072.204-.125-.053.052-.133.085-.204.125Z"/><path class="cls-1" d="M14.884,13.781c-.143,0-.224.827-.224.827,0,0,.088-.827.224-.827Z"/><path class="cls-1" d="M14.42,16.367c.079-.078.141-.169.195-.264-.055.092-.113.184-.195.264Z"/><path class="cls-4" d="M23.925,12.086C22.86,6.134,18.751,0,12.086,0S0,5.422,0,12.086s7.498,10.526,11.901,11.328c6.557,1.194,13.198-4.767,12.024-11.328ZM17.537,21.578c-.866.348-1.781.585-2.698.705C5.185,23.103-2.063,12.242,2.248,6.283,4.354,3.372,7.03,1.063,10.589.585c.506-.068,4.757-.224,6.77,1.374,2.409,1.913,5.045,7.197,5.339,10.253.383,3.293.249,7.095-5.161,9.366Z"/><path class="cls-3" d="M14.386,8.096c.012.024.027.049.036.074.203.427.378,1.144.486,1.144.454-1.809,2.197-1.898,2.1-1.92-.106-.024-.19-.052-.284-.078-1.352-.375-1.527-.937-1.817-1.62-.159.295-.265.622-.452.876-.035.054-.071.101-.107.137-.274.274-1.033.567-1.04.571.01.005.688.368.96.638.04.041.079.105.117.177Z"/><path class="cls-3" d="M9.935,16.253c.106-.016.548-2.087,1.264-2.794.672-.672,2.507-1.222,2.52-1.369.081-.257-.805-.496-1.54-.72-.374-.114-.712-.223-.859-.328-.481-.347-.829-1.1-1.074-1.747-.223-.589-.362-1.091-.428-1.106-.231-.232-.698,1.88-1.501,2.633-.705.65-2.478,1.027-2.397,1.266s2.441,1.144,2.915,1.881c.178.277.535,1.138.798,1.72.123.229.225.421.294.552.002.001.008.012.01.011Z"/><path class="cls-3" d="M15.099,15.645c-.086-.154-.151-.27-.188-.27-.043,0-.087.377-.295.727-.054.094-.116.186-.195.264-.054.053-.126.091-.204.125-.172.095-.366.17-.531.229-.146.052-.258.102-.277.166-.018.059.05.114.156.177.196.118.53.266.734.527.417.532.57,1.319.666,1.202.024-.029.28-.67.698-1.149.417-.479,1.041-.687,1.063-.837.021-.15-.523-.078-1.096-.45-.21-.136-.394-.471-.528-.712Z"/><path class="cls-2" d="M17.359,1.96c-2.013-1.599-6.264-1.442-6.77-1.374-3.559.478-6.234,2.786-8.341,5.698-4.311,5.958,2.937,16.82,12.591,16,.917-.12,1.832-.357,2.698-.705,5.41-2.271,5.544-6.073,5.161-9.366-.294-3.055-2.93-8.34-5.339-10.253ZM14.148,6.382c.318-.332.818-1.916.901-1.93s.219.663.219.663c.282,1.041,1.101,1.701,2.09,2.002.331.134.517.302,0,.483-2.278.802-2.156,2.558-2.264,2.558s-.529-.874-.622-1.043c-.185-.334-.233-.488-.56-.844-.054-.059-.14-.12-.237-.183-.489-.314-1.387-.648-1.358-.811.035-.195.77.057,1.83-.896ZM11.551,13.813c-.638.63-1.075,2.889-1.479,2.889s-1.402-2.062-1.66-2.462c-.371-1.133-3.338-1.988-3.227-2.354.112-.366,2.332-.848,2.964-1.43.719-.675,1.279-2.95,1.556-2.969s1.038,2.641,1.839,3.219c.398.285,2.784.77,2.877,1.099.086.306-1.953,1.264-2.719,1.877-.051.044-.113.094-.151.132ZM17.201,17.116c-1.109.351-1.328,1.05-2.117,2.643-.118.239-.354-.916-.904-1.696-.413-.586-1.094-.805-1.538-.918,0,0-.899-.053-.839-.212.06-.159.824-.268.824-.268,1.106-.359,2.014-.591,2.035-2.058,0,0,.08-.827.224-.827s.256.817.256.817c.349,1.111,1,1.759,2.05,2.038,0,0,.897.065.832.221s-.821.259-.821.259Z"/><path class="cls-4" d="M13.676,8.089c.097.062.183.124.237.183.326.357.375.51.56.844.093.169.515,1.043.622,1.043s-.014-1.757,2.264-2.558c.517-.182.331-.349,0-.483-.989-.301-1.808-.962-2.09-2.002,0,0-.136-.677-.219-.663s-.584,1.598-.901,1.93c-1.059.953-1.795.701-1.83.896-.029.163.869.497,1.358.811ZM14.349,6.71c.036-.036.072-.084.107-.137.186-.254.293-.581.452-.876.289.683.465,1.245,1.817,1.62.094.026.178.054.284.078.097.022-1.646.111-2.1,1.92-.108,0-.283-.718-.486-1.144-.012-.025-.024-.051-.036-.074-.038-.072-.077-.136-.117-.177-.271-.27-.95-.633-.96-.638.007-.004.765-.297,1.04-.571Z"/><path class="cls-4" d="M17.19,16.636c-1.05-.279-1.701-.927-2.05-2.038,0,0-.12-.817-.256-.817s-.224.827-.224.827c-.02,1.467-.929,1.698-2.035,2.058,0,0-.764.109-.824.268-.06.159.839.212.839.212.444.112,1.124.332,1.538.918.55.78.786,1.935.904,1.696.789-1.593,1.008-2.292,2.117-2.643,0,0,.756-.104.821-.259s-.832-.221-.832-.221ZM15.661,17.644c-.417.479-.674,1.119-.698,1.149-.095.116-.249-.671-.666-1.202-.204-.26-.537-.408-.734-.527-.106-.064-.174-.119-.156-.177.019-.064.131-.114.277-.166.165-.059.359-.134.531-.229.071-.039.151-.072.204-.125.082-.08.14-.172.195-.264.209-.35.252-.727.295-.727.037,0,.103.116.188.27.134.241.319.576.528.712.573.372,1.118.299,1.096.45-.021.15-.645.358-1.063.837Z"/><path class="cls-4" d="M14.42,11.805c-.093-.329-2.479-.814-2.877-1.099-.802-.578-1.563-3.239-1.839-3.219s-.836,2.294-1.556,2.969c-.632.583-2.852,1.064-2.964,1.43-.112.366,2.855,1.221,3.227,2.354.258.399,1.255,2.462,1.66,2.462s.841-2.259,1.479-2.889c.038-.038.1-.088.151-.132.766-.613,2.805-1.571,2.719-1.877ZM9.63,15.69c-.263-.582-.62-1.443-.798-1.72-.474-.737-2.834-1.642-2.915-1.881s1.692-.615,2.397-1.266c.803-.753,1.271-2.865,1.501-2.633.067.014.205.516.428,1.106.245.647.593,1.4,1.074,1.747.146.105.485.214.859.328.735.223,1.621.463,1.54.72-.013.147-1.848.697-2.52,1.369-.716.707-1.158,2.778-1.264,2.794-.002,0-.008-.01-.01-.011-.044-.018-.154-.242-.294-.552Z"/></svg>