<?xml version="1.0" encoding="UTF-8"?><svg id="Layer_1" xmlns="http://www.w3.org/2000/svg" viewBox="0 0 24.03 11.954"><defs><style>.cls-1{fill:#c8bfef;}</style></defs><path class="cls-1" d="M18.386,8.654c.107.445.937.799.43,1.238-1.001.869-3.371,1.702-4.68,1.931-2.803.492-7.022-.405-8.748-2.706-.601-.802-1.691-1.674-1.065-1.885.279-.094.167.259.364.439.906.828,3.52,2.898,4.701,3.242,2.735.797,5.611.388,8.089-.977.11-.061,1.177-.231,1.166-.311-.186-.191-.82-.556-.959-.782-.165-.268-1.484-.878-.218-1.249.229-.067.444.169.638.259.377.175,1.543.467,1.927.292.147-.067.562-.477.709-.614,1.682-1.576,4.319-4.922.927-6.273-1.792-.714-3.899.91-5.468,1.649-1.531.721-3.093.654-4.793.582-.2.802-.501,1.976-2.005,2.653-.274.123-.514.251-.62-.08-.143-.448.359-1.553.433-2.014-1.09.284-3.175,2.287-4.126,2.821-.216.122-.963.502-1.172.458-.191-.04-.243.159-.182-.029.079-.246.397-.263.592-.356,1.412-.675,3.181-3.635,4.817-3.361.902.151.29.897.271,1.393-.002.055.126.487.23.52.509-.653.927-1.664,1.54-2.217,1.189-.054,2.363-.071,3.504-.456,2.739-.926,3.355-4.871,8.417-1.449,2.39,1.615-.412,4.698-1.928,6.176-.236.23-.816.81-1.068.953-.389.22-1.295.287-1.72.153Z"/><path class="cls-1" d="M19.267,3.884c.1.299-.449.649-.669.82-4.39,3.424-10.096,4.586-15.291,2.595l.351.717c.311.83-.038,1.714-.156,1.6-.234-.226-.203-.571-.268-.795-.161-.561-.733-2.012-1.212-2.338-.571-.388-1.351-.381-1.878-.816-.3-.248-.092-1.233.274-1.146l1.469,1.407c.646-.013,1.277-.017,1.782-.419.224-.178.413-.618.793-.7,1.069-.231-.428.969-.703,1.155-.248.168-.473.242-.728.369-.037.019-.734-.008-.691.051,10.194,4.652,15.525-2.873,16.683-2.825.17-.033.186.153.244.325Z"/></svg>