<?xml version="1.0" encoding="UTF-8"?><svg id="Layer_1" xmlns="http://www.w3.org/2000/svg" viewBox="0 0 19.66 23.926"><defs><style>.cls-1{fill:#f9c075;}.cls-2{fill:#4c4c4c;}</style></defs><path class="cls-1" d="M8.838.378c4.007-1.553,9.068,1.831,8.748,7.368-.188,3.248-3.236,7.254-5.137,9.816-.606.817-1.368,1.881-2.056,2.608-.636.672-1.375.006-2.2-.443-.881-.48-2.435-3.783-3.04-4.599-1.911-2.577-3.286-4.47-3.108-7.745.194-3.551,2.299-5.264,6.793-7.005ZM9.155,3.782c-3.53-.476-3.481,3.888-1.927,5.737,1.292,1.538,2.358,1.777,4.885-.239,2.065-1.647-.345-5.146-2.958-5.499Z"/><path class="cls-2" d="M1.804,20.411c1.205,1.268,6.049,1.615,7.751,1.699,4.19.207,6.14.314,8.045-1.145.951-.729.413-1.852-.518-2.474-.71-.475-1.54-.186-2.253-.51-.811-.368-.863-1.048.329-1.627.383-.186,1.824.663,2.253.876,3.565,1.765,2.449,3.963-.277,5.339-3.855,1.945-9.72,1.924-15.105-.871-2.546-1.322-2.748-3.073-.312-4.449.421-.238.959-1.129,1.389-1.141.909-.025,2.072,1.473,1.225,1.872-.698.329-1.349.409-2.051.879-.628.42-1.133.863-.477,1.553Z"/></svg>