<?xml version="1.0" encoding="UTF-8"?><svg id="Layer_1" xmlns="http://www.w3.org/2000/svg" viewBox="0 0 23.918 20.756"><defs><style>.cls-1{fill:none;}.cls-2{fill:#a5a5a5;}.cls-3{fill:#f7e98e;}.cls-4{fill:#fff;}</style></defs><path class="cls-1" d="M18.772,12.304c-.375-.045-.56.2-.948-.038.388.238.571.063.948.038Z"/><path class="cls-1" d="M8.833,19.349c-.823-.286-1.435-.635-1.879-1.013.387.437,1.056.726,1.879,1.013Z"/><path class="cls-1" d="M7.428,5.868c.349-.073.661-.124.953-.162-.317.022-.635.066-.953.162Z"/><path class="cls-1" d="M5.53,12.75c-.385-.55-.671-1.07-.886-1.565.174.555.462,1.089.886,1.565Z"/><path class="cls-1" d="M22.854,16.937s-.003.009-.005.013c.002-.004.003-.008.005-.013Z"/><path class="cls-1" d="M19.782,19.279c1.456-.335,2.484-1.175,2.98-2.161-.537,1.002-1.609,1.846-2.98,2.161Z"/><path class="cls-2" d="M1.952,13.567c-.15.027-1.54.264-1.687.387-.137.114-.176.226-.265.368v.376c.185.368.472.656.905.547.198-.05,1.325-.76,1.483-.902.538-.483.318-.913-.436-.776Z"/><path class="cls-2" d="M1.777,6.254c.696.105,1.131-.276.636-.76-.108-.105-1.23-1.378-1.378-1.422-.434-.129-.864.66-1.035,1.046v.376c.112.133.452.022.599.146.143.12,1.036.594,1.178.615Z"/><path class="cls-4" d="M22.761,17.118c.028-.056.063-.111.088-.168.002-.004.003-.009.005-.013.583-1.362.154-2.957-1.594-3.897-.647-.348-1.462-.613-2.488-.736-.377.025-.56.2-.948-.038-.309-.189-.347-.643-.489-.966-.672-1.521-2.29-2.432-3.94-2.271-1.831.179-3.956,1.911-4.055,3.755-.029.529.278,1.422-.501,1.564-.519.095-.225-.175-.809.059-1.976.791-2.5,2.321-1.076,3.929.445.378,1.056.726,1.879,1.013,3.647-.048,7.312.088,10.948-.07,1.371-.315,2.443-1.16,2.98-2.161Z"/><path class="cls-2" d="M23.738,14.23c-.924-3.307-3.278-3.054-5.507-2.957-.849-1.964-1.266-4.321-4.444-3.674-1.751-3.898-4.706-5.931-9.635-1.068-2.342,2.311-1.934,5.432,1.946,7.654-1.569,2.521-2.357,4.77,2.597,6.571l10.234-.667c3.213-.288,5.69-2.706,4.809-5.859ZM5.53,12.75c-.424-.475-.712-1.01-.886-1.565-1.248-2.869.209-4.778,2.785-5.317.318-.096.636-.14.953-.162,2.506-.329,3.068.58,3.946,2.135-.479.099-.945.331-1.355.591-1.16.736-2.049,1.997-2.326,3.352-.031.153-.115,1.031-.16,1.061-.473.056-.94.201-1.363.419-.159.082-.417.337-.573.298-.198-.049-.885-.618-1.021-.813ZM19.782,19.279c-3.637.158-7.302.022-10.948.07-.823-.286-1.492-.576-1.879-1.013-1.425-1.608-.901-3.138,1.076-3.929.584-.234.29.036.809-.059.779-.142.472-1.035.501-1.564.1-1.845,2.225-3.577,4.055-3.755,1.65-.161,3.268.749,3.94,2.271.143.323.18.776.489.966.388.238.573-.007.948.038,1.026.123,1.841.388,2.488.736,1.748.941,2.176,2.535,1.594,3.897-.002.004-.003.009-.005.013-.025.057-.06.112-.088.168-.496.986-1.524,1.826-2.98,2.161Z"/><path class="cls-2" d="M8.891,2.195c.061-.289.516-1.201.483-1.515-.046-.435-.419-.741-.856-.669-.232.038-.566.509-.614.744-.055.269.027,1.18.062,1.476.089.739.757.753.924-.036Z"/><path class="cls-2" d="M15.394,6.721c.208-.07,1.206-.061,1.397-.205.631-.478.456-1.461-.304-1.339-.189.03-1.261.651-1.456.796-.736.544-.461,1.025.364.749Z"/><path class="cls-3" d="M7.123,13.265c.423-.218.89-.363,1.363-.419.044-.03.128-.908.16-1.061.277-1.355,1.165-2.617,2.326-3.352.41-.26.876-.492,1.355-.591-.878-1.555-1.44-2.464-3.946-2.135-.292.038-.604.089-.953.162-2.576.539-4.033,2.448-2.785,5.317.215.495.501,1.015.886,1.565.136.195.823.764,1.021.813.155.038.413-.216.573-.298Z"/></svg>