<?xml version="1.0" encoding="UTF-8"?><svg id="Layer_1" xmlns="http://www.w3.org/2000/svg" viewBox="0 0 23.678 24.029"><defs><style>.cls-1{fill:#2847ef;}.cls-2{fill:#fff;}</style></defs><path class="cls-2" d="M10.049,23.903c-4.101,0-6.939-3.696-9.491-12.359-1.033-3.506-.043-6.133.97-7.719C2.895,1.683,4.893.518,6.266.313c.835-.125,1.682-.188,2.517-.188,5.569,0,10.704,2.743,13.733,7.336,1.121,1.7,1.334,3.786.616,6.033-1.244,3.894-5.276,8.026-9.381,9.615-1.38.534-2.592.794-3.703.794Z"/><path class="cls-1" d="M8.784.25h0c5.527,0,10.622,2.722,13.629,7.28,1.099,1.667,1.307,3.716.601,5.926-1.233,3.86-5.234,7.96-9.307,9.536-1.366.529-2.562.786-3.657.786-4.036,0-6.838-3.669-9.372-12.27-1.02-3.461-.043-6.052.956-7.617C2.98,1.783,4.94.637,6.285.436c.828-.124,1.669-.186,2.499-.186M8.783,0c-.834,0-1.681.062-2.535.189C3.223.64-1.456,5.148.438,11.579c2.527,8.577,5.326,12.449,9.612,12.449,1.137,0,2.379-.273,3.747-.802,5.911-2.288,12.488-10.278,8.824-15.834C19.664,2.909,14.515,0,8.783,0h0Z"/><path class="cls-1" d="M15.133,12.433s-6.844.959-8.457.539c-.37-.016-1.036-.471-1.046-.8-.011-.346.297-1.526.654-1.526l8.348.61c-.331-.521-2.266-1.379-2.507-1.7-.396-.528.043-2.084.676-1.94.124.028.502.293.604.378.759.632,3.036,2.368,3.597,3.341.33.572.411.838,0,1.355-.84,1.059-3.114,2.16-3.989,3.237-.93.132-1.177-.688-1.075-1.433.081-.592,2.841-1.532,3.195-2.062Z"/></svg>