<?xml version="1.0" encoding="UTF-8"?><svg id="Layer_1" xmlns="http://www.w3.org/2000/svg" viewBox="0 0 23.171 23.269"><defs><style>.cls-1{fill:none;}.cls-2{fill:#fef7d6;}.cls-3{fill:#fce0c3;}.cls-4{fill:#f7e98e;}.cls-5{fill:#fff;}.cls-6{fill:#ddede3;}.cls-7{fill:#a8e2bb;}.cls-8{fill:#efc7c2;}.cls-9{fill:#4c4c4c;}.cls-10{fill:#4c4c4c;}</style></defs><path class="cls-1" d="M11.157,13.951c-.476-.034-.966-.268-1.436-.725.478.464.964.696,1.436.725Z"/><path class="cls-1" d="M11.769,7.322c-2.461-.218-4.483,1.59-4.745,3.858.265-2.235,2.281-3.972,4.745-3.858Z"/><path class="cls-10" d="M21.212,7.521l1.651-.639c.183-.166-.196-.752-.427-.822-.058-.017-.113-.015-.172-.008-.121.016-.779.82-1.274.995-.464.164-.222.488.223.474Z"/><path class="cls-10" d="M1.732,16.12c-.073.022-1.317.333-1.368.39-.252.276.076.925.409.834.347-.095.403-.618,1.324-.867.299-.075.031-.476-.365-.357Z"/><path class="cls-10" d="M6.003,18.376c-.176.556-.794.839-.857,1.012-.05.138-.04.27.064.383.158.172.639.244.784.074.114-.134.495-1.264.531-1.409.088-.353-.394-.467-.523-.058Z"/><path class="cls-10" d="M16.534,4.94c.273-.082.729-.81.943-1.064.094-.419-.477-.821-.827-.615-.151.351-.165.796-.553,1.568-.118.235.191.185.436.112Z"/><path class="cls-10" d="M11.401,19.003c-.112-.034-.2.159-.215.277-.091.71-.686,1.057-.639,1.319.086.473,1.004.513,1.07.091.037-.235.037-1.157,0-1.391-.016-.103-.115-.265-.217-.296Z"/><path class="cls-10" d="M11.716,3.981c.03-.23.033-1.278-.012-1.482-.027-.121-.183-.244-.3-.254-.245-.021-.606.067-.626.288-.024.264.48,1.097.417,1.437-.068.373.472.386.521.012Z"/><path class="cls-5" d="M18.518,14.861c1.398-.886,2.137-2.037,3.249-3.24-.992-1.003-1.946-2.04-3.101-2.861-1.96-1.393-4.297-2.199-6.709-2.323-1.437-.073-3.049.147-4.422.579-2.645.833-4.836,2.571-6.572,4.685,1.086,1.124,2.161,2.229,3.474,3.094,4.102,2.699,9.933,2.694,14.081.066ZM7.138,12.791c-.142-.553-.174-1.095-.113-1.612.261-2.268,2.284-4.076,4.745-3.858,4.302.199,5.083,4.099,3.194,6.844-2.107,3.064-6.905,2.21-7.826-1.375Z"/><polygon class="cls-3" points="18.662 18.663 18.065 21.509 22.612 22.327 21.444 18.155 18.662 18.663"/><path class="cls-2" d="M7.077,6.406c.797-.25,1.431-.428,2.262-.542l-3.862-3.876-1.516,1.805,3.116,2.612Z"/><polygon class="cls-4" points="16.114 16.754 13.669 17.364 17.44 21.088 18.131 18.793 16.114 16.754"/><path class="cls-8" d="M1.627,4.753l3.476-3.171C2.649-.052.013,2.273,1.627,4.753Z"/><polygon class="cls-4" points="6.127 6.795 3.583 4.192 2.15 5.826 3.961 7.887 6.127 6.795"/><polygon class="cls-2" points="16.643 16.491 18.906 18.162 20.978 17.55 18.807 15.32 16.643 16.491"/><path class="cls-7" d="M14.964,14.166c1.888-2.745,1.108-6.645-3.194-6.844-2.464-.114-4.48,1.623-4.745,3.858-.061.516-.029,1.059.113,1.612.92,3.585,5.718,4.439,7.826,1.375ZM9.494,14.811c-3.34-1.963-1.669-7.207,2.416-6.746,1.375.155,2.634,1.329,2.982,2.651.836,3.177-2.562,5.761-5.398,4.095Z"/><path class="cls-6" d="M14.893,10.716c-.348-1.322-1.608-2.496-2.982-2.651-4.085-.461-5.756,4.783-2.416,6.746,2.836,1.667,6.234-.918,5.398-4.095ZM13.519,12.009c-.078.282-.215.554-.392.805-.051.076-.113.144-.172.214-.041.049-.078.1-.122.146-.008.008-.017.016-.026.024-.092.096-.188.19-.29.274-.417.346-.882.513-1.36.479-.472-.028-.958-.261-1.436-.725-1.123-1.09-.795-2.459.346-3.282,1.08-.779,1.815-.599,2.718.133.732.593.912,1.286.735,1.932Z"/><path class="cls-7" d="M10.067,9.945c-1.14.823-1.468,2.192-.346,3.282.471.457.96.69,1.436.725.478.034.943-.133,1.36-.479.102-.085.198-.178.29-.274.008-.008.017-.016.026-.024.044-.047.081-.097.122-.146.06-.07.121-.137.172-.214.177-.251.314-.524.392-.805.178-.646-.003-1.339-.735-1.932-.903-.732-1.638-.912-2.718-.133ZM11.096,13.07c-.106-.017-.205-.044-.296-.079-1.784-.516-1.18-2.742.528-2.725.111,0,.228.011.351.033,1.963.35,1.364,3.077-.583,2.771Z"/><path class="cls-9" d="M11.679,10.298c-.124-.022-.241-.033-.351-.033-1.707-.017-2.312,2.209-.528,2.725.091.036.19.062.296.079,1.947.306,2.545-2.421.583-2.771Z"/><path class="cls-10" d="M22.037,17.539l-2.535-2.79c1.183-.885,2.045-1.882,3.108-2.899.088-.144.06-.344-.049-.468-1.338-1.346-2.269-3.075-3.902-4.077-2.459-1.51-5.556-1.714-8.434-1.603L5.637,1.117C5.14.723,4.509.081,3.869.02,2.139-.148.811.744.314,3.101c-.243,1.155,1.853,3.604,3.205,5.161-1.292.922-2.365,2.111-3.424,3.28-.047.139-.155.865-.053.976,1.02,1,2.103,1.489,3.249,2.351,2.733,2.056,5.831,2.994,9.238,2.679l4.921,4.352,5.449,1.369c.213-.065.303-.26.263-.475l-1.125-5.255ZM20.978,17.55l-2.072.612-2.263-1.672,2.163-1.17,2.171,2.23ZM9.339,5.864c-.831.114-1.465.292-2.262.542l-3.116-2.612,1.516-1.805,3.862,3.876ZM5.103,1.582l-3.476,3.171C.013,2.273,2.649-.052,5.103,1.582ZM2.15,5.826l1.433-1.635,2.544,2.603-2.166,1.092-1.811-2.061ZM.962,11.701c1.736-2.114,3.927-3.852,6.572-4.685,1.372-.432,2.984-.653,4.422-.579,2.412.123,4.749.93,6.709,2.323,1.155.821,2.11,1.858,3.101,2.861-1.112,1.203-1.85,2.354-3.249,3.24-4.149,2.628-9.979,2.633-14.081-.066-1.313-.864-2.388-1.969-3.474-3.094ZM17.44,21.088l-3.771-3.724,2.445-.61,2.018,2.039-.692,2.295ZM18.065,21.509l.596-2.846,2.782-.507,1.168,4.172-4.546-.818Z"/></svg>