<?xml version="1.0" encoding="UTF-8"?><svg id="Layer_1" xmlns="http://www.w3.org/2000/svg" viewBox="0 0 23.937 24.01"><defs><style>.cls-1{fill:none;}.cls-2{fill:#fef7d6;}.cls-3{fill:#2847ef;}.cls-4{fill:#f7e98e;}.cls-5{fill:#4c4c4c;}</style></defs><path class="cls-1" d="M11.127,15.242c-.068.049-.135.104-.203.134-.006.003-.01.021-.016.027.066-.044.13-.083.199-.139.008-.006.012-.015.02-.022Z"/><path class="cls-1" d="M10.806,16.087c-.008.563.04,1.397.11,2.281l-.11-2.281Z"/><path class="cls-2" d="M11.334,22.523c.169.111.46.186.948.256.652.093,1.35.172,2.088.281.813.121,1.798.243,2.45.204,1.003-.059,1.439-.452,1.666-1.503.354-1.643.581-3.883.768-5.401-.089-.367-.517-.727-.889-.727h-3.587l-1.221.344.249-1.579c.094-.387.22-.76.343-1.121.117-.343.227-.667.298-.972.113-.481.074-.758-.152-1.096-.168-.251-.714-.755-.853-.777-.167.368-.3.874-.441,1.408-.282,1.071-1.08,2.832-1.874,3.402-.008.006-.012.016-.02.022-.069.056-.133.095-.199.139-.065.066-.098.308-.103.683l.11,2.281c.155,1.958.418,4.155.418,4.155Z"/><path class="cls-5" d="M18.649,14.412l-4.163.696c.169-.698.256-1.771.418-2.464.164-.702.111-1.274-.295-1.881-.314-.468-.623-1.242-1.169-1.242-.31,0-.607.137-.831.479-.625,1.26-.476,3.75-1.581,4.657-.224.184-.464.271-.696.429l.002,7.859c.459.581,1.17.788,1.887.832.674.041,1.486.061,2.3.061.829,0,1.85.207,2.536.167,1.512-.088,2.084-1.084,2.394-2.519.358-1.662.89-3.68,1.095-5.362-.089-.907-.992-1.712-1.898-1.712ZM10.806,16.087c.005-.375.038-.617.103-.683.006-.006.009-.024.016-.027.067-.03.135-.086.203-.134.794-.571,1.592-2.331,1.874-3.402.141-.534.274-1.04.441-1.408.14.022.685.525.853.777.227.338.265.615.152,1.096-.071.305-.181.629-.298.972-.123.361-.25.734-.343,1.121l-.249,1.579,1.221-.344h3.587c.372,0,.8.36.889.727-.187,1.518-.414,3.759-.768,5.401-.227,1.051-.663,1.445-1.666,1.503-.653.038-1.637-.084-2.45-.204-.738-.109-1.436-.189-2.088-.281-.488-.069-.779-.145-.948-.256,0,0-.263-2.196-.418-4.155-.07-.885-.118-1.719-.11-2.281Z"/><path class="cls-3" d="M7.876,15.141c-.148-.247-.81-.034-1.318-.034-.597,0-.951-.27-1.281.036s-.46,7.544-.245,7.86c.215.316,2.658.114,2.884-.015.227-.129.107-7.601-.041-7.848Z"/><path class="cls-5" d="M8.599,13.977c-.331-.039-1.37.131-2.04.131-.661,0-1.319.021-1.637.068-.341.05-.611.263-.645.621l.022,8.745c.099.253.297.423.568.463l3.537-.018c.283-.095.462-.319.515-.61l.32-8.916c-.106-.286-.338-.448-.641-.484ZM5.033,23.004c-.215-.316-.085-7.555.245-7.86s.684-.036,1.281-.036c.508,0,1.17-.214,1.318.034s.267,7.719.041,7.848c-.227.129-2.669.331-2.884.015Z"/><path class="cls-4" d="M6.465,5.926c-.016-.126-.364-.079-.497-.104-.371-.071-.859-.042-1.156-.184l-.15-.072-.119-.117c-.258-.254-.302-.686-.495-1.043-.059-.108-.102-.403-.226-.403s-.182.319-.247.435c-.176.32-.434.881-.621,1.107l-.184.223-.274.09c-.329.108-1.327-.042-1.321.072.006.113.048.159.142.26.233.252.78.68.892.785.236.128.168.461.16.53-.008.069-.094.785-.136,1.109-.017.134-.02.354.073.317.093-.037,1.032-.436,1.032-.436,0,0,.318-.152.498-.143s.444.143.444.143c0,0,.552.133.867.351.314.218.287-.042.272-.15-.033-.247-.067-.502-.078-.75-.007-.154-.016-.344.028-.559l.037-.181.099-.156c.146-.231.358-.46.603-.726.097-.105.374-.273.358-.399Z"/><path class="cls-5" d="M5.735,10.18c.19,0,.442-.676.448-.835.018-.46.049-.841.029-1.319-.005-.106.062-.339.137-.44.284-.449,1.341-1.324,1.341-1.838.001-.885-2.184-.349-2.771-.631-.438-.431-.368-2.353-1.099-2.352-.102,0-.21.028-.327.091-.43.233-.388,1.629-.723,2.034-.578.19-1.678.501-2.243.706-.599.218-.657.26-.329.714.324.449,1.192.543,1.499,1.017.008.605-.587,1.681-.516,2.267.04.334.361.586.69.586.04,0,.08-.004.12-.011,0,0,1.501-1.276,1.659-1.263s1.974,1.263,1.974,1.263c.034.008.072.012.111.012ZM5.405,7.207l-.037.181c-.044.216-.035.406-.028.559.011.249.045.504.078.75.014.108.042.368-.272.15-.314-.218-.867-.351-.867-.351,0,0-.265-.135-.444-.143s-.498.143-.498.143c0,0-.938.399-1.032.436-.093.037-.091-.183-.073-.317.042-.324.128-1.041.136-1.109.008-.069.076-.402-.16-.53-.112-.106-.659-.534-.892-.785-.094-.102-.136-.147-.142-.26-.006-.113.992.036,1.321-.072l.274-.09.184-.223c.187-.226.445-.787.621-1.107.064-.117.122-.435.247-.435s.168.295.226.403c.193.356.236.788.495,1.043l.119.117.15.072c.297.142.785.114,1.156.184.133.025.481-.022.497.104.016.126-.261.294-.358.399-.245.265-.457.495-.603.726l-.099.156Z"/><path class="cls-4" d="M21.63,8.737c.093.037.091-.183.073-.317-.042-.324-.128-1.041-.136-1.109-.008-.069-.076-.402.16-.53.112-.106.659-.534.892-.785.094-.102.136-.147.142-.26.006-.113-.992.036-1.321-.072l-.274-.09-.184-.223c-.187-.226-.445-.787-.621-1.107-.064-.117-.122-.435-.247-.435s-.168.295-.226.403c-.193.356-.236.788-.495,1.043l-.119.117-.15.072c-.297.142-.785.114-1.156.184-.133.025-.481-.022-.497.104-.016.126.261.294.358.399.245.265.457.495.603.726l.099.156.037.181c.044.216.035.406.028.559-.011.249-.045.504-.078.75-.014.108-.042.368.272.15.314-.218.867-.351.867-.351,0,0,.265-.135.444-.143s.498.143.498.143c0,0,.938.399,1.032.436Z"/><path class="cls-5" d="M23.409,5.4c-.565-.206-1.665-.517-2.243-.706-.335-.405-.293-1.801-.723-2.034-.116-.063-.225-.091-.327-.091-.732,0-.662,1.922-1.099,2.352-.587.282-2.772-.254-2.771.631,0,.514,1.057,1.389,1.341,1.838.075.1.142.333.137.44-.021.478.011.859.029,1.319.006.159.258.835.448.835.039,0,.077-.004.111-.012,0,0,1.816-1.25,1.974-1.263s1.659,1.263,1.659,1.263c.04.008.08.011.12.011.329,0,.65-.251.69-.586.071-.587-.524-1.662-.516-2.267.306-.474,1.174-.567,1.499-1.017.328-.454.271-.496-.329-.714ZM19.657,8.301s-.552.133-.867.351c-.314.218-.287-.042-.272-.15.033-.247.067-.502.078-.75.007-.154.016-.344-.028-.559l-.037-.181-.099-.156c-.146-.231-.358-.46-.603-.726-.097-.105-.374-.273-.358-.399.016-.126.364-.079.497-.104.371-.071.859-.042,1.156-.184l.15-.072.119-.117c.258-.254.302-.686.495-1.043.059-.108.102-.403.226-.403s.182.319.247.435c.176.32.434.881.621,1.107l.184.223.274.09c.329.108,1.327-.042,1.321.072-.006.113-.048.159-.142.26-.233.252-.78.68-.892.785-.236.128-.168.461-.16.53.008.069.094.785.136,1.109.017.134.02.354-.073.317-.093-.037-1.032-.436-1.032-.436,0,0-.318-.152-.498-.143s-.444.143-.444.143Z"/><path class="cls-4" d="M13.321,6.405c.314.218.287-.042.272-.15-.033-.247-.108-.823-.119-1.072-.007-.154-.016-.344.028-.559l.037-.181.099-.156c.146-.231.358-.46.603-.726.097-.105.374-.273.358-.399-.016-.126-.364-.079-.497-.104-.371-.071-.859-.042-1.156-.184l-.15-.072-.119-.117c-.258-.254-.302-.686-.495-1.043-.059-.108-.102-.403-.226-.403s-.182.319-.247.435c-.176.32-.434.881-.621,1.107l-.184.223-.274.09c-.329.108-1.327-.042-1.321.072.006.113.048.159.142.26.233.252.78.68.892.785.236.128.168.461.16.53-.008.069-.094.785-.136,1.109-.017.134-.02.354.073.317.093-.037,1.032-.436,1.032-.436,0,0,.318-.152.498-.143s.444.143.444.143c0,0,.593.454.908.673Z"/><path class="cls-5" d="M13.315,7.308c.096.108.443.145.554.108s.442-.676.448-.835c.018-.46.049-.841.029-1.319-.005-.106.062-.339.137-.44.284-.449,1.341-1.324,1.341-1.838.001-.885-1.732-.264-2.32-.546C13.066,2.007,12.686,0,11.954,0,11.852,0,11.743.028,11.627.091c-.43.233-.634,1.613-.969,2.018-.578.19-1.431.516-1.997.722-.599.218-.657.26-.329.714.324.449,1.192.543,1.499,1.017.008.605-.587,1.681-.516,2.267.04.334.361.586.69.586.04,0,.08-.004.12-.011,0,0,1.838-1.379,1.996-1.366.158.013,1.097,1.163,1.194,1.271ZM11.472,5.732s-.938.399-1.032.436c-.093.037-.091-.183-.073-.317.042-.324.128-1.041.136-1.109.008-.069.076-.402-.16-.53-.112-.106-.659-.534-.892-.785-.094-.102-.136-.147-.142-.26-.006-.113.992.036,1.321-.072l.274-.09.184-.223c.187-.226.445-.787.621-1.107.064-.117.122-.435.247-.435s.168.295.226.403c.193.356.236.788.495,1.043l.119.117.15.072c.297.142.785.114,1.156.184.133.025.481-.022.497.104.016.126-.261.294-.358.399-.245.265-.457.495-.603.726l-.099.156-.037.181c-.044.216-.035.406-.028.559.011.249.086.825.119,1.072.014.108.042.368-.272.15-.314-.218-.908-.673-.908-.673,0,0-.265-.135-.444-.143s-.498.143-.498.143Z"/></svg>