<?xml version="1.0" encoding="UTF-8"?><svg id="Layer_1" xmlns="http://www.w3.org/2000/svg" viewBox="0 0 22.237 23.687"><defs><style>.cls-1{fill:none;}.cls-2{fill:#dfe9ef;}.cls-3{fill:#ff8736;}.cls-4{fill:#3e4347;}.cls-5{fill:#b0bdc6;}.cls-6{fill:#ffce31;}</style></defs><path class="cls-1" d="M11.352,2.966c-2.657,0-5.421,1.525-5.883,3.66l10.941.467c-.91-2.368-2.212-4.127-5.058-4.127Z"/><polygon class="cls-6" points="22.124 10.463 22.124 10.463 22.237 11.087 22.124 10.463"/><path class="cls-6" d="M.467,10.463l-.467,11c0,.88,1.163,2.224,2.022,2.224l18.299-.593c.858,0,1.616-.975,1.616-1.856l.3-10.152L.467,10.463ZM9.519,21.463l1.41-5.177c-.41-.309-1.233-.753-1.233-1.315,0-.937.776-1.448,1.655-1.696,1.405-.396,1.656.759,1.656,1.696,0,.561-.267,1.058-.677,1.367l.694,4.537-3.505.588Z"/><path class="cls-3" d="M22.124,10.463l-.362-1.992c0-.88-.221-1.195-1.079-1.195l-.877-.037c.015.249.027.502.033.762.475.17.785.423.785.71,0,.512-.362,1.205-2.148.926-.821-.128-2.148-.415-2.148-.926,0-.213.174-.407.454-.563-.118-.362-.241-.714-.372-1.054l-10.941-.467c-.092.424-.09.872.019,1.338.536.168.888.439.888.747,0,.512-1.716,1.205-2.902,1.205s-1.394-.694-1.394-1.205c0-.296.328-.556.829-.726.061-.496.186-.98.357-1.453l-1.245-.053c-.859,0-1.555.713-1.555,1.593v2.39h0l21.771.624-.114-.624Z"/><path class="cls-4" d="M4.228,9.236c-.8,0-1.374-.235-1.374-.525,0-.245.025-.486.055-.726-.501.17-.829.43-.829.726,0,.512.207,1.205,1.394,1.205s2.902-.694,2.902-1.205c0-.308-.352-.579-.888-.747.058.245.135.493.257.747.125.261-.717.525-1.517.525Z"/><polygon class="cls-4" points="18.476 8.711 18.476 8.711 18.476 9.236 18.476 8.711"/><path class="cls-4" d="M18.476,9.236c-.801,0-1.431-.248-1.517-.525-.058-.19-.118-.378-.178-.563-.28.156-.454.35-.454.563,0,.512,1.327.798,2.148.926,1.786.279,2.148-.415,2.148-.926,0-.287-.309-.54-.785-.71.006.233.01.468.01.71,0,.29-.573.525-1.373.525Z"/><path class="cls-2" d="M2.854,8.711c0,.29.573.525,1.374.525v-.525h0c.274-4.06,3.364-7.272,7.124-7.272s6.851,3.212,7.124,7.272h0v.525c.8,0,1.373-.235,1.373-.525,0-.243-.005-.477-.01-.71-.006-.26-.018-.514-.033-.762C19.564,3.306,18.078.857,11.352.004c-2.168-.132-6.714,2.743-8.086,6.528-.171.472-.296.956-.357,1.453-.03.24-.055.481-.055.726Z"/><path class="cls-5" d="M18.476,9.236v-.525c-.274-4.06-3.364-7.272-7.125-7.272s-6.851,3.212-7.124,7.272h0v.525c.8,0,1.642-.264,1.517-.525-.122-.254-.199-.502-.257-.747-.11-.465-.111-.913-.019-1.338.462-2.135,3.226-3.66,5.883-3.66,2.846,0,4.148,1.759,5.058,4.127.131.34.254.692.372,1.054.06.186.12.373.178.563.085.277.716.525,1.517.525Z"/><path class="cls-4" d="M13.007,14.971c0-.937-.251-2.092-1.656-1.696-.88.248-1.655.759-1.655,1.696,0,.562.823,1.006,1.233,1.315l-1.41,5.177,3.505-.588-.694-4.537c.41-.309.677-.805.677-1.367Z"/></svg>