<?xml version="1.0" encoding="UTF-8"?><svg id="sidebar_popout_1_thought" xmlns="http://www.w3.org/2000/svg" viewBox="0 0 22.621 22.743"><defs><style>.cls-1{fill:#fff;}</style></defs><g id="Layer_1_copy"><g id="Thought_Bubble"><path class="cls-1" d="M21.22,8.264c-.026-.318-.113-.65-.146-.969l-.398-1.136c-.548-1.223-2.17-1.427-3.841-1.648C16.129,2.478,14.174.121,12.33.01c-.252-.015-.505.015-.755-.01l-.886.174c-.22.063-.531.204-.747.305-1.029.482-2.532,2.218-2.495,4.695-.74-.664-2.354-1.032-3.139-.884-7.815,1.476-3.674,9.152,1.984,8.815.33-.02,1.336-.475,1.664-.466,2.317,3.234,6.436,4.88,7.433.61.275-.01.723.462,1.014.605,2.667,1.3,5.097-2.219,4.817-5.59ZM8.161,12.146c-.267-.183-2.868.067-3.549-.146-.939-.294-2.456-1.398-2.739-2.505-.322-1.259-.131-2.256.695-3.115.812-.844,3.423-1.004,4.691-.552,0,0,.233.13.529-.016s.713-2.009,1.155-2.584c1.061-1.382,2.038-1.476,3.007-1.634.914-.147,2.211.522,2.991,1.137.95.75.735,2.572,1.096,2.557l.36-.015c1.154-.049,2.691.661,3.282,1.41,1.989,2.521.162,7.492-2.951,6.44-.332-.112-1.464-1.009-1.695-.986s-1.097,2.586-1.824,2.8c-2.386.704-4.78-2.61-5.047-2.793Z"/><path class="cls-1" d="M6.794,20.095c-1.085,0-1.93-.809-2.094-2.044-.156-1.173.161-2.652,1.231-3.014s2.024.411,2.496,1.017c.564.722.239,2.063-.133,2.947-.311.739-.475.993-1.25,1.08-.084.009-.168.014-.25.014ZM5.691,17.919c.028.215.18,1.536,1.202,1.42.526-.059.819-.663.939-.947.234-.557.315-1.397-.031-1.84-.247-.315-.673-.53-1.191-.257s-.997,1.04-.919,1.623Z"/><path class="cls-1" d="M3.267,22.743c-.525,0-1.428-.015-1.43-1.013-.004-1.834,2.271-2.864,2.649-2.383.459.585,1.033,2.125.73,2.838-.252.594-1.424.559-1.949.559ZM2.622,21.175c.073,1.607,1.255,1.223,1.801.408.878-1.31-1.884-2.236-1.801-.408Z"/><path class="cls-1" d="M10.525,11.677l.943-6.194c-.471.035-.988.128-1.38.119l.06-.613c1.893-.731,1.051-1.239,1.746-1.645l2.1.332v8.356l-3.469-.355Z"/></g></g></svg>