<?xml version="1.0" encoding="UTF-8"?><svg id="Layer_2" xmlns="http://www.w3.org/2000/svg" viewBox="0 0 22.012 24.086"><defs><style>.cls-1{fill:#fff;}</style></defs><g id="Layer_1_copy"><path class="cls-1" d="M22.012,23.567c-.148.304-.29.484-.621.52H.582c-.519-.079-.765-.732-.427-1.177.039-.052.313-.237.342-.237h1.293l-.456-5.011c.049-.335.266-.593.58-.635.535-.072,2.573.781,3.108.853.105.014.312.112.387.188.033.034.192.333.192.354l-.398,4.251h1.718l-.613-5.912c0-.021.159-.32.192-.354.057-.058.269-.171.348-.184.866.065,2.042-.982,2.893-.89.131.014.332.09.429.189.033.034.192.333.192.354v6.797h1.29l-.628-9.346c0-.021.159-.32.192-.354.057-.058.269-.171.348-.184.866.065,2.485-.135,3.336-.044.131.014.332.09.429.189.033.034.192.333.192.354l-.425,9.384h1.714v-14.088c0-.021.159-.32.192-.354.057-.058.269-.171.348-.184.866.065,2.405-.126,3.256-.034.317.034.517.222.611.554l-1.283,14.106h1.583c.017,0,.276.16.302.187.092.094.098.242.192.33v.376Z"/><path class="cls-1" d="M21.072,0c.235.11.33.254.403.534l.537,4.311v.329c-.225.716-1.437.351-1.674-.352-.245-.729.067-1.29-.177-2.022-.017-.05-.02-.113-.084-.119-.247.49-.529.97-.825,1.426-3.536,5.442-9.891,9.894-15.968,10.845-.678.106-2.2.322-2.821.184-.641-.143-.572-.788.275-.881.441-.048.953-.006,1.418-.048,3.857-.345,7.724-2.791,10.823-5.251,2.403-1.907,4.542-4.298,6.065-7.098-.015-.052-.099-.017-.139-.011-.711.111-.812.072-1.538.227-.839.179-1.968-.219-1.329-.823l4.73-1.25h.301Z"/></g></svg>