<?xml version="1.0" encoding="UTF-8"?><svg id="Layer_1" xmlns="http://www.w3.org/2000/svg" viewBox="0 0 19.223 23.917"><defs><style>.cls-1{fill:none;}.cls-2{fill:#f9c075;}.cls-3{fill:#fce0c3;}.cls-4{fill:#4c4c4c;}</style></defs><path class="cls-1" d="M16.715,11.114l-2.171.168v1.457c.054-.578,1.861-1.147,2.171-1.625Z"/><path class="cls-1" d="M16.668,9.623c-.31-.478-2.07-1.264-2.124-1.843v1.762l2.124.081Z"/><path class="cls-3" d="M14.544,12.739v-1.457l-3.413.264c-.326,0-.86-.944-.867-1.261-.008-.337.321-.882.672-.882l3.608.138v-1.762s-.002-.004-.003-.006c0-.006.003-.011.003-.017v-2.603c-.347.055-.711-.038-.905-.337-.027-.042-.128-.806-.128-.828l.59-2.116L2.452,1.131l6.747,4.293c.049.057.214.323.214.374v13.011h4.275l.013-1.972c0-.022.109-.25.136-.292.171-.263.44-.51.707-.664v-3.117c0-.007-.003-.013-.003-.019,0-.002.002-.004.003-.006Z"/><path class="cls-3" d="M7.703,6.412c.063.243.128,1.05.186,2.168-.027-1.17-.085-1.989-.186-2.168Z"/><path class="cls-4" d="M13.837,16.546c-.027.042-.136.269-.136.292l-.013,1.972h-4.275V5.798c0-.051-.165-.317-.214-.374L2.452,1.131l11.648.742-.59,2.116c0,.022.101.786.128.828.194.299.558.392.905.337.391-.062.761-.315.841-.705-.085-1.155.731-2.546.579-3.667-.046-.336-.882-.675-1.204-.758l-13.976-.024C.404.035.101.315.022.681c.004,5.854-.072,11.723.038,17.569l.274.367,7.795,5.189c.328.212,1.013.099,1.283-.175.056-.057.239-.346.239-.403l-.274-3.133,5.354.423c.282,0,1.215-.25,1.253-.527.152-1.121-.683-2.767-.598-3.922-.088-.431-.463-.406-.841-.188-.267.154-.536.401-.707.664ZM1.185,17.88c-.469-.563-.006-15.422.534-15.422s5.687,2.808,5.985,3.954c.102.18.159.999.186,2.168.216,4.168.329,12.705-.186,12.9-.654.247-6.049-3.037-6.518-3.6Z"/><path class="cls-4" d="M19.154,9.576c-.67-.907-1.946-1.827-2.674-2.74-.602-.465-1.969.169-1.936.921,0,.006-.003.011-.003.017,0,.002.002.004.003.006.054.579,1.814,1.365,2.124,1.843l-2.124-.081-3.608-.138c-.352,0-.68.545-.672.882.008.316.542,1.261.867,1.261l3.413-.264,2.171-.168c-.31.478-2.117,1.047-2.171,1.625,0,.002-.002.004-.003.006,0,.007.003.013.003.019-.032.751,1.194,1.383,1.795.919.728-.914,1.622-1.98,2.293-2.888.257-.347.778-.873.522-1.219Z"/><path class="cls-2" d="M7.89,8.581c-.058-1.119-.124-1.926-.186-2.168-.297-1.147-5.445-3.954-5.985-3.954s-1.003,14.859-.534,15.422c.469.563,5.865,3.847,6.518,3.6.515-.195.403-8.732.186-12.9Z"/></svg>