<?xml version="1.0" encoding="UTF-8"?><svg xmlns="http://www.w3.org/2000/svg" viewBox="0 0 24.014 21.08"><defs><style>.cls-1{fill:#a5a5a5;}.cls-2{fill:#fff;}</style></defs><g id="Layer_1"><path class="cls-1" d="M24.014,8.108v1.15c-.08.397-.116.8-.206,1.196-.226.99-.68,1.913-1.254,2.743l1.357,4.28c.097.513-1.339.457-1.847.326l-3.252-1.626c-.834.354-1.715.58-2.616.692-7.426,3.766-7.91,3.462-11.467,1.953-1.448.697-1.942,1.619-3.412,2.256-.458.034-.811-.35-.754-.802l1.365-4.319c-3.778-5.318.225-12.161,6.357-12.747C16.538-1.491,23.46-.367,23.971,8.035l.043.073ZM22.627,16.248l-1.54-3.189c.034-.362.312-.584.491-.879,3.178-5.265-1.353-10.737-7.014-10.417-1.472.083-2.879.609-4.116,1.38-.009.068.124.068.174.078.675.125,1.259.205,1.919.427,4.819,1.623,7.399,6.898,4.897,11.543.525-.06,1.089-.56,1.622-.449l3.567,1.507ZM1.491,19.457l3.97-1.964c.415-.066,1.024.301,1.446.434,3.42,1.078,7.46-.151,9.267-3.333,2.694-4.745-1.376-10.407-6.394-10.691C4.156,3.585-.273,7.919,2.887,14.91c.138.305.502.561.508.908l-1.904,3.638Z"/><path class="cls-1" d="M6.521,10.329c1.607-.014,1.214,1.592.353,1.769-.901.185-1.239-1.761-.353-1.769Z"/><path class="cls-1" d="M12.091,10.74c.912-.187,1.959,1.018.301,1.358-.912.188-1.164-1.181-.301-1.358Z"/><path class="cls-1" d="M9.734,10.513c.931.009.761,1.408-.101,1.585-.901.185-1.414-1.601.101-1.585Z"/></g><g id="Layer_1_copy"><path class="cls-2" d="M23.555,7.655v1.15c-.08.397-.116.8-.206,1.196-.226.99-.68,1.913-1.254,2.743l1.357,4.28c.097.513-1.339.457-1.847.326l-3.252-1.626c-.834.354-1.715.58-2.616.692-7.426,3.766-7.91,3.462-11.467,1.953-1.448.697-1.942,1.619-3.412,2.256-.458.034-.811-.35-.754-.802l1.365-4.319c-3.778-5.318.225-12.161,6.357-12.747C16.078-1.945,23.001-.82,23.512,7.582l.043.073ZM22.168,15.794l-1.54-3.189c.034-.362.312-.584.491-.879,3.178-5.265-1.353-10.737-7.014-10.417-1.472.083-2.879.609-4.116,1.38-.009.068.124.068.174.078.675.125,1.259.205,1.919.427,4.819,1.623,7.399,6.898,4.897,11.543.525-.06,1.089-.56,1.622-.449l3.567,1.507ZM1.032,19.003l3.97-1.964c.415-.066,1.024.301,1.446.434,3.42,1.078,7.46-.151,9.267-3.333,2.694-4.745-1.376-10.407-6.394-10.691C3.697,3.131-.732,7.466,2.428,14.457c.138.305.502.561.508.908l-1.904,3.638Z"/><path class="cls-2" d="M6.062,9.876c1.607-.014,1.214,1.592.353,1.769-.901.185-1.239-1.761-.353-1.769Z"/><path class="cls-2" d="M11.632,10.287c.912-.187,1.959,1.018.301,1.358-.912.188-1.164-1.181-.301-1.358Z"/><path class="cls-2" d="M9.275,10.06c.931.009.761,1.408-.101,1.585-.901.185-1.414-1.601.101-1.585Z"/></g></svg>