<?xml version="1.0" encoding="UTF-8"?><svg id="Layer_1" xmlns="http://www.w3.org/2000/svg" viewBox="0 0 24 24.038"><defs><style>.cls-1{fill:none;}.cls-2{fill:#f4b7ae;}.cls-3{fill:#f9c075;}.cls-4{fill:#e6e1f4;}.cls-5{fill:#c8bfef;}.cls-6{fill:#cae9ef;}.cls-7{fill:#4c4c4c;}</style></defs><path class="cls-1" d="M11.918,11.425c.068-.065.134-.1.199-.132-.067.028-.134.068-.199.132Z"/><path class="cls-1" d="M16.124,8.378c.288.121.64.172,1.046.116-.395.055-.749.004-1.046-.116Z"/><path class="cls-1" d="M17.491,5.72c-.181-.061-.389-.078-.632-.026.242-.035.451-.022.632.026Z"/><path class="cls-1" d="M16.859,4.755c.129.005.252.029.371.061-.122-.037-.245-.061-.371-.061Z"/><path class="cls-1" d="M22.212,5.002c.012-.04.027-.089.039-.131-.021.068-.043.136-.064.202.037-.003.012-.031.025-.071Z"/><path class="cls-1" d="M22.089.773c.049-.013.1-.028.148-.04-.049.012-.099.027-.148.04Z"/><path class="cls-1" d="M22.521.671c.086-.019.174-.04.258-.055-.085.015-.172.036-.258.055Z"/><path class="cls-7" d="M4.557,20.764c.184-.222.363-.418.196-.715-.167-.297-.999-.197-1.24.021l-3.16,3.603c-.247.336-.143.171.209.366h.281c.337-.341.711-.652,1.056-.985.666-.644,2.087-1.598,2.658-2.29Z"/><path class="cls-7" d="M6.837,19.96l-2.714,3.257c-.247.336-.506.47-.155.665h.281c.337-.341,3.005-2.32,3.576-3.012.184-.222.363-.418.196-.715-.167-.297-.944-.413-1.185-.195Z"/><path class="cls-7" d="M.641,19.423l3.32-2.661c.434-.507-.178-1.699-.687-1.277l-3.274,3.952v.282c.195.352.305-.049.641-.296Z"/><path class="cls-7" d="M10.646,18.98c-.079.011-.165.053-.225.106l-.982,1.978c-.217.451.013.639.447.366l1.449-1.459c.188-.365-.282-1.05-.688-.991Z"/><path class="cls-7" d="M3.257,14.79c.111-.073,1.395-1.365,1.448-1.459.224-.395-.206-1.143-.654-1.04-.285.066-.706,1.534-1.017,1.771-.239.466-.224,1.021.223.728Z"/><path class="cls-4" d="M9.049,9.765l.085.871,4.301,4.287c.128.035.857-.363,1.029-.455,3.376-1.796,6.171-5.044,7.442-8.693l-4.02-3.607c-4.004,1.365-7.073,3.811-8.836,7.597ZM12.589,12.097c-.589.137-1.103-.256-.67-.672.065-.064.132-.103.199-.132.589-.285,1.022.676.471.803ZM14.587,9.765c-.053.131-.543.919-.674,1.007-.467.313-.793.291-.742-.556.012-.198.774-.872.967-.91.404-.079.604.076.448.459ZM17.22,9.437c-4.377-.442-3.504-4.796-.361-4.682.126,0,.25.024.371.061,2.05.55,2.618,4.886-.01,4.621Z"/><path class="cls-2" d="M10.308,6.643c-2.415-1.475-4.361,1.268-4.731,3.404.868-.368,1.912-.622,2.811-.235.504-1.131,1.198-2.169,1.921-3.169Z"/><path class="cls-2" d="M14.198,15.635c.394.897.125,1.948-.234,2.816,2.127-.373,4.928-2.894,3.454-5.321-.999.724-2.092,1.999-3.22,2.504Z"/><path class="cls-3" d="M7.239,14.469c-1.314.746-1.523,2.636-1.71,4.029,1.232-.171,2.665-.443,3.44-1.507.118-.163.463-.658.38-.84l-1.581-1.857c-.144-.067-.392.097-.529.174Z"/><path class="cls-5" d="M8.061,13.316c-.018.168.088.296.185.418.363.455,1.61,1.717,2.062,2.066.141.109.246.18.434.154.556-.078,1.648-.585,2.21-.697l-4.329-3.754-.561,1.813Z"/><path class="cls-6" d="M16.858,5.694c-2.01.429-1.943,2.178-.735,2.684.297.12.651.17,1.046.116,1.357-.188,1.439-2.399.321-2.774-.181-.048-.391-.061-.632-.026Z"/><path class="cls-2" d="M22.521.671c-.095.02-.188.038-.284.062-.049.012-.099.027-.148.04-1.07.287-2.19.76-3.158,1.011l3.21,3.286c.023.003.036.004.046.003.021-.066.043-.134.064-.202.393-1.292.908-3.008,1.039-4.323-.167.013-.338.037-.511.068-.084.015-.172.037-.258.055Z"/><path class="cls-7" d="M16.859,4.755c-3.143-.114-4.016,4.24.361,4.682,2.628.265,2.06-4.07.01-4.621-.119-.032-.242-.057-.371-.061ZM17.491,5.72c1.118.375,1.036,2.586-.321,2.774-.406.056-.758.005-1.046-.116-1.208-.506-1.275-2.255.735-2.684.243-.052.452-.034.632.026Z"/><path class="cls-7" d="M14.139,9.306c-.194.038-.955.713-.967.91-.051.847.275.868.742.556.131-.088.62-.876.674-1.007.156-.383-.044-.538-.448-.459Z"/><path class="cls-7" d="M12.118,11.293c-.065.032-.131.066-.199.132-.432.416.082.808.67.672.551-.128.118-1.088-.471-.803Z"/><path class="cls-7" d="M23.992.445c-.028-.242-.138-.327-.329-.445h-.515l-.074.043c-4.55.419-9.199,2.212-12.137,5.822-3.491-2.401-4.598.295-5.582,2.873-.227.595-.455,1.42-.48,2.054-.017.426-.336.841.207.755.158-.025.578-.444.792-.569.385-.225,1.036-.629,1.479-.696,1.349-.204.59.371.273,1.278-.248.71-.614,1.547-.429,2.29-1.579.73-2.166,2.18-2.496,3.794-.068.331.213,1.435.269,1.72.032.159.159.299.316.34.274.072.804-.315,1.136-.383,1.599-.331,2.731-1.351,3.456-2.917.742.186,1.867.24,2.577-.006.664-.23,1.061-.663.994.433-.027.448-.189.937-.413,1.323-.202.347-.835.36-.368.747.272.226,1.041.583,1.393.514,2.977-.578,5.655-3.647,3.808-6.87,3.29-2.682,5.401-6.399,5.977-10.557.053-.384.189-1.197.148-1.544ZM5.576,10.047c.37-2.136,2.316-4.879,4.731-3.404-.723,1-1.416,2.039-1.921,3.169-.899-.387-1.943-.133-2.811.235ZM8.969,16.992c-.775,1.064-2.209,1.336-3.44,1.507.187-1.393.396-3.283,1.71-4.029.136-.077.385-.241.529-.174l1.581,1.857c.084.181-.261.677-.38.84ZM10.742,15.954c-.188.026-.293-.045-.434-.154-.452-.349-1.699-1.611-2.062-2.066-.097-.122-.203-.25-.185-.418l.561-1.813,4.329,3.754c-.562.112-1.653.619-2.21.697ZM13.964,18.451c.359-.868.628-1.919.234-2.816,1.128-.505,2.222-1.78,3.22-2.504,1.473,2.427-1.327,4.948-3.454,5.321ZM14.464,14.469c-.172.091-.9.49-1.029.455l-4.301-4.287-.085-.871c1.763-3.786,4.832-6.232,8.836-7.597l4.02,3.607c-1.271,3.649-4.065,6.897-7.442,8.693ZM22.251,4.871c-.013.041-.027.09-.039.131-.012.04.012.068-.025.071-.01,0-.023,0-.046-.003l-3.21-3.286c.968-.251,2.088-.724,3.158-1.011.049-.013.099-.028.148-.04.096-.024.19-.042.284-.062.086-.019.173-.04.258-.055.173-.031.344-.055.511-.068-.131,1.315-.646,3.031-1.039,4.323Z"/></svg>