<?xml version="1.0" encoding="UTF-8"?><svg id="Layer_1" xmlns="http://www.w3.org/2000/svg" viewBox="0 0 23.867 21.377"><defs><style>.cls-1{fill:#fef7d6;}.cls-2{fill:#98e1ea;}.cls-3{fill:#4c4c4c;}</style></defs><path class="cls-3" d="M3.899,7.626c.227-.208.104-.496-.113-.654-.534-.388-1.062-.458-1.623-.83-.493-.058-1.133.517-.716.819.529.383,2.374.738,2.453.665Z"/><path class="cls-3" d="M20.345,16.659c-.409-.069-.68.07-.337.316l2.075,1.461c.436.079.506-.778.146-1.075l-1.885-.702Z"/><path class="cls-3" d="M16.498,3.964c.207.227.281.092.439-.126.384-.531.678-1.296,1.049-1.853.057-.494-.971-.274-1.273.144-.382.53.068.908-.306,1.463-.049.105.019.293.091.372Z"/><path class="cls-3" d="M22.025,5.718c-.123-.028-.221-.018-.338.027-.22.085-1.658.926-1.824,1.073-.362.322-.045.507.404.348.497-.402,1.46-.136,1.914-.538.226-.2.132-.846-.155-.911Z"/><path class="cls-3" d="M1.225,18.045c.096.114.768.267.906.212.379-.25,1.745-.86,1.948-1.19.217-.352.085-.408-.295-.291-.22.067-1.64.539-1.892.71-.24.162-.914.265-.666.56Z"/><path class="cls-3" d="M5.762,1.709c-.114.097-.143.333-.088.472.321.353.54.975.87,1.179.352.217.988.648.872.267-.047-.153-.747-1.861-.872-2.013-.152-.184-.584-.072-.781.095Z"/><path class="cls-3" d="M11.89.01c-.329-.069-.471.217-.497.498-.038.404-.054,1.6.013,1.973.087.484.471-.01.525-.43.089-.687.458-.893.524-1.601-.021-.113-.457-.416-.565-.439Z"/><path class="cls-3" d="M23.45,11.21c-.316-.057-1.676.451-1.992.508-.429.077-.138.348.273.516h1.896c.415-.173.248-.948-.177-1.024Z"/><path class="cls-3" d="M2.577,11.762l-2.354-.009c-.437.197-.176.877.279.941.38.053,1.554-.513,1.933-.566.434-.061.532-.125.141-.366Z"/><path class="cls-1" d="M15.771,11.398c-.22.202-1.077.088-1.41.11-1.399.094-2.365.19-2.483,1.587-.024.279.097.851-.148,1.012-.255.168-.189.424-.235.132-.091-.58.083-1.333.191-1.907-.482-.021-.931-.813-1.166-1.219-.662.519-1.546.383-2.113-.213-.53.56-1.384.65-2.024.174-.312,1.826-1.243,4.619.267,6.02h8.417c.449-1.759,2.282-2.169,2.457-4.109.047-.527-.058-2.35-.218-2.826-.205-.612-.908-1.066-1.516-1.189-.552-.112-3.026-.432-3.527-.287-.97.281-1.058,2.328,0,2.423.936.084,1.987-.075,2.935.008.284.063.783.092.573.285Z"/><path class="cls-2" d="M14.628,17.796v3.148l-7.287-.344-.22-3.106,7.507.301Z"/><path class="cls-1" d="M9.047,7.175c-.168.155-.237.413-.257.637-.054.596-.066,1.925.005,2.508.126,1.043,1.425,1.024,1.576.139.078-.458.072-2.313.007-2.789-.088-.646-.845-.942-1.33-.495Z"/><path class="cls-1" d="M7.303,7.652c-.446-.036-.795.362-.833.786-.036.412-.055,1.69.023,2.06.18.853,1.441.8,1.525-.073.039-.404.059-1.859-.013-2.216-.059-.288-.419-.534-.703-.557Z"/><path class="cls-1" d="M11.153,9.141c.096-.063.112-.211.193-.314.338-.433.781-.638,1.323-.696.057-.039.042-1.216.016-1.372-.108-.645-.996-.846-1.388-.302-.034.047-.144.256-.144.291v2.393Z"/><path class="cls-1" d="M13.47,8.125h1.593s0-.749,0-.749c0-.063-.118-.342-.167-.413-.268-.387-.797-.445-1.153-.136-.079.069-.273.367-.273.452v.846Z"/><path class="cls-1" d="M11.201,10.543c-.079-.013-.035.067-.048.12-.279,1.148.531,1.669,1.109.823-.448-.209-.88-.446-1.061-.943Z"/><path class="cls-3" d="M13.209,6.629c.636-.507,1.681-.854,2.216-.245.454.517.082,1.24.074,1.886,1.419.235,2.551,1.058,2.7,2.491.151,1.455.307,2.919-.677,4.108-.646.78-2.034,1.468-2.124,2.514-.098,1.144-.132,2.227-.262,3.346-.019.165.181.558.025.623l-8.185.024c-.175.008-.244-.871-.31-1.034l-.099-2.763c-.512-.617-.936-1.272-1.125-2.065-.414-1.743.236-3.388.255-5.091.007-.697.313-2.194.581-2.774.395-.852,1.289-.533,2.055,0,.385-.942,1.275-1.701,2.143-1.217.378-1.308,2.09-.982,2.731.196ZM11.347,8.827c.338-.433.781-.638,1.323-.696.057-.039.042-1.216.016-1.372-.108-.645-.996-.846-1.388-.302-.034.047-.144.256-.144.291v2.393c.096-.063.112-.211.193-.314ZM15.062,8.125v-.749c0-.063-.118-.342-.167-.413-.268-.387-.797-.445-1.153-.136-.079.069-.273.367-.273.452v.846s1.593,0,1.593,0ZM8.789,7.812c-.054.596-.066,1.925.005,2.508.126,1.043,1.425,1.024,1.576.139.078-.458.072-2.313.007-2.789-.088-.646-.845-.942-1.33-.495-.168.155-.237.413-.257.637ZM6.47,8.438c-.036.412-.055,1.69.023,2.06.18.853,1.441.8,1.525-.073.039-.404.059-1.859-.013-2.216-.059-.288-.419-.534-.703-.557-.446-.036-.795.362-.833.786ZM14.361,11.508c-1.399.094-2.196.441-2.314,1.838-.024.279.097.851-.148,1.012-.255.168-.358.173-.404-.119-.091-.58.083-1.333.191-1.907-.482-.021-.931-.813-1.166-1.219-.867,1.077-1.546.383-2.113-.213-.623,1.256-1.384.65-2.024.174-.312,1.826-1.243,4.619.267,6.02h8.417c.449-1.759,2.282-2.169,2.457-4.109.047-.527-.058-2.35-.218-2.826-.205-.612-.908-1.066-1.516-1.189-.552-.112-3.026-.432-3.527-.287-.97.281-.865,2.298.193,2.392.936.084,2.173-.217,3.132,0,.284.063.394.131.184.324-.22.202-1.077.088-1.41.11ZM11.197,11.279c-.034.673.734.756,1.066.207-.448-.209-.88-.446-1.061-.943-.079-.013-.001.681-.004.735ZM7.341,20.601l7.287.344v-3.148l-7.507-.301.22,3.106Z"/></svg>