<?xml version="1.0" encoding="UTF-8"?><svg id="Layer_1" xmlns="http://www.w3.org/2000/svg" viewBox="0 0 23.911 21.632"><defs><style>.cls-1{fill:none;}.cls-2{fill:#a5a5a5;}.cls-3{fill:#e6e1f4;}.cls-4{fill:#c8bfef;}</style></defs><path class="cls-1" d="M19.54.742c.69.533,1.118,1.237,1.782,1.971.621.687,1.264,1.396,1.888,1.904.308.391.276.671-.128,1.153-.556.661-1.245,1.301-1.912,1.921-.623.58-1.1,1.262-1.627,1.867.005-.004.01-.004.015-.008.528-.606,1.006-1.29,1.63-1.871.667-.62,1.356-1.26,1.912-1.921.404-.482.436-.763.128-1.153-.624-.508-1.267-1.218-1.888-1.904-.664-.734-1.091-1.437-1.782-1.971-.4-.307-1.033-.249-1.248-.038-.001,0-.002.002-.003.003.226-.203.839-.256,1.233.046Z"/><path class="cls-1" d="M21.523,14.881c.02-.027.026-.064.044-.092-.022.033-.039.072-.062.104-.115.157-.337.375-.592.556.262-.183.491-.407.609-.568Z"/><path class="cls-1" d="M3.727,4.393h16.737l-.01-.012H3.745c-.508,0-1.031.214-1.502.547.466-.326.982-.535,1.484-.535Z"/><path class="cls-1" d="M2.388,6.751c-.02.027-.026.064-.044.092.022-.033.039-.072.062-.104.115-.157.337-.375.591-.556-.262.183-.491.407-.609.568Z"/><path class="cls-1" d="M4.371,20.89c-.69-.533-1.118-1.237-1.782-1.971-.621-.687-1.264-1.396-1.888-1.904-.308-.391-.276-.671.128-1.153.556-.661,1.245-1.301,1.912-1.921.623-.58,1.1-1.262,1.627-1.867-.005.004-.01.004-.015.008-.528.606-1.006,1.29-1.63,1.87-.667.62-1.356,1.26-1.912,1.921-.404.482-.436.763-.128,1.153.624.508,1.267,1.218,1.888,1.904.664.734,1.091,1.437,1.782,1.971.4.307,1.033.249,1.248.038,0,0,.002-.002.003-.003-.226.203-.839.256-1.233-.046Z"/><path class="cls-1" d="M20.184,17.239H3.447l.01.012h16.71c.508,0,1.031-.214,1.502-.547-.466.326-.982.535-1.484.535Z"/><path class="cls-3" d="M3.727,4.393c-.502,0-1.018.209-1.484.535-.779.551-1.415,1.429-1.603,2.207-.172.708-.164,3.074-.088,3.936.04.451.396.615.688.618.322-.02.327-.357.376-.795.043-.382.022-.862,0-1.37-.045-1,.24-1.966.728-2.681.018-.028.024-.065.044-.092.118-.161.347-.385.609-.568.259-.184.551-.329.801-.329l17.028-.243-.328.649c-.326.409-.734.785-1.129,1.147-.382.351-.743.683-1.032,1.04-.375.463-.247.874-.022,1.085.241.229.829.377,1.228.026.527-.605,1.004-1.288,1.627-1.867.667-.62,1.356-1.26,1.912-1.921.404-.482.436-.763.128-1.153-.624-.508-1.267-1.218-1.888-1.904-.664-.734-1.091-1.437-1.782-1.971-.394-.302-1.008-.249-1.233-.046-.221.219-.328.593-.071.941l2.246,2.744h-.027l.01.012H3.727Z"/><path class="cls-2" d="M.928,12.624c.519-.127,1.103-.938,1.186-1.675.047-.421.025-.92.002-1.448-.043-.964.268-1.887.693-2.467.208-.285.799-.878,1.042-.878l15.993.336c-.226.234-.531.482-.773.706-.379.348-.81.549-1.122.935-.55.679-.86,1.081.023,1.764.436.337,1.122.52,1.774-.081.53-.606,1.167-1.198,1.782-1.77.678-.63,1.33-.953,1.906-1.637.394-.469.766-1.377.149-2.151-.633-.523-1.263-1.219-1.872-1.892-.679-.75-1.381-1.526-2.106-2.086-.614-.474-1.229-.268-1.646.056-1.089.849-.498,1.096-.102,1.626l1.899,1.919H3.745c-2.834.209-3.239,1.686-3.591,3.136C-.05,7.859-.015,10.336.054,11.114c.064.729.468,1.609.874,1.51ZM20.455,4.381h.027l-2.246-2.744c-.258-.348-.151-.722.071-.941.001-.001.002-.003.003-.003.216-.211.848-.269,1.248.038.69.533,1.118,1.237,1.782,1.971.621.687,1.264,1.396,1.888,1.904.308.391.276.671-.128,1.153-.556.661-1.245,1.301-1.912,1.921-.624.581-1.101,1.265-1.63,1.871-.005.004-.01.004-.015.008-.399.351-.987.203-1.228-.026-.225-.211-.353-.622.022-1.085.289-.357.65-.689,1.032-1.04.395-.363.803-.738,1.129-1.147l.328-.649-17.028.243c-.25,0-.542.145-.801.329-.254.181-.476.399-.591.556-.023.032-.04.071-.062.104-.487.715-.772,1.681-.728,2.681.022.508.044.987,0,1.37-.049.438-.054.776-.376.795-.292-.003-.648-.167-.688-.618-.076-.862-.084-3.227.088-3.936.188-.778.824-1.656,1.603-2.207.471-.333.993-.547,1.502-.547h16.71Z"/><path class="cls-4" d="M20.184,17.239c.502,0,1.018-.209,1.484-.535.779-.551,1.415-1.429,1.603-2.207.172-.708.164-3.074.088-3.936-.04-.451-.396-.615-.688-.618-.322.02-.327.357-.376.795-.043.382-.022.862,0,1.37.045,1-.24,1.966-.727,2.681-.018.028-.025.065-.044.092-.118.161-.348.385-.609.568-.259.184-.551.329-.801.329l-17.028.243.328-.649c.326-.409.734-.785,1.129-1.147.382-.351.743-.683,1.032-1.04.375-.463.247-.874.022-1.085-.241-.229-.829-.377-1.229-.026-.527.605-1.004,1.288-1.627,1.867-.667.62-1.356,1.26-1.912,1.921-.404.482-.436.763-.128,1.153.624.508,1.267,1.218,1.888,1.904.664.734,1.091,1.437,1.782,1.971.394.302,1.008.249,1.233.046.222-.219.328-.593.071-.941l-2.246-2.744h.027l-.01-.012h16.737Z"/><path class="cls-2" d="M22.983,9.008c-.519.127-1.103.938-1.186,1.675-.047.421-.025.92-.002,1.448.043.964-.268,1.887-.693,2.467-.208.285-.799.878-1.042.878l-15.993-.336c.226-.234.531-.482.773-.706.379-.348.81-.549,1.122-.935.55-.679.86-1.081-.023-1.764-.436-.337-1.122-.52-1.774.081-.53.606-1.167,1.198-1.782,1.77-.678.63-1.33.953-1.906,1.637-.394.469-.766,1.376-.149,2.151.633.523,1.263,1.219,1.872,1.892.679.75,1.381,1.526,2.106,2.086.614.474,1.229.268,1.646-.056,1.089-.849.498-1.096.102-1.626l-1.899-1.919h16.012c2.834-.209,3.239-1.686,3.591-3.136.204-.842.168-3.319.1-4.098-.064-.729-.468-1.609-.874-1.51ZM3.457,17.251h-.027l2.246,2.744c.258.348.151.722-.071.941,0,0-.002.002-.003.003-.216.211-.848.269-1.248-.038-.69-.533-1.118-1.237-1.782-1.971-.621-.687-1.264-1.396-1.888-1.904-.308-.391-.276-.671.128-1.153.556-.661,1.245-1.301,1.912-1.921.624-.581,1.101-1.265,1.63-1.87.005-.004.01-.004.015-.008.399-.351.987-.203,1.229.026.225.211.353.622-.022,1.085-.289.357-.65.689-1.032,1.04-.395.363-.803.738-1.129,1.147l-.328.649,17.028-.243c.25,0,.542-.145.801-.329.254-.181.476-.399.592-.556.023-.032.04-.071.062-.104.487-.715.772-1.681.727-2.681-.022-.508-.044-.987,0-1.37.049-.438.054-.776.376-.795.292.003.648.167.688.618.076.862.084,3.227-.088,3.936-.188.778-.824,1.656-1.603,2.207-.471.333-.993.547-1.502.547H3.457Z"/></svg>