<?xml version="1.0" encoding="UTF-8"?><svg id="Layer_1" xmlns="http://www.w3.org/2000/svg" viewBox="0 0 24.016 18.96"><defs><style>.cls-1{fill:none;}.cls-2{fill:#a5a5a5;}.cls-3{fill:#fff;}.cls-4{fill:#98e1ea;}.cls-5{fill:#cae9ef;}</style></defs><path class="cls-1" d="M14.394,14.547c-.446-.596-1.075-.201-1.585-.038.523-.116,1.139-.557,1.585.038Z"/><path class="cls-3" d="M19.524,8.869c-.569-.206-2.135.267-1.5-.912.213-.395-.041-.94-.136-1.42-.586-2.973-3.347-5.05-6.368-4.802-2.176.179-3.966.98-4.727,3.026-.38,1.021.122,2.129-.108,2.426-.236.306-.816-.185-1.831.103C-.334,8.765-.179,17.175,6.472,17.172l11.759.968c4.552-.328,5.567-7.723,1.294-9.27ZM13.802,16.859c-2.956.873-6.312-2.403-6.771-5.453-.445-.046-1.106.732-1.494.479-.41-.267-.496-.832-.217-1.232.175-.25,1.651-1.729,1.901-1.905.312-.219.776.314,1.091.535l1.892,1.467c.202.389.088.895-.281,1.135-.042.027-.27.136-.292.136l-1.246-.653c.527,1.81,2.558,3.553,4.423,3.139.51-.163,1.139-.557,1.585.038.081.108.134.21.17.307.324.802-.132,1.82-.761,2.005ZM18.653,11.725c-.241.317-1.541,1.639-1.846,1.853-.312.219-.677-.305-.992-.525l-1.991-1.476c-.202-.389-.088-.895.281-1.135.042-.027.27-.136.292-.136l1.094.537.104.051c-.489-1.651-2.156-3.17-3.868-3.12-.17.005-.339.007-.509.045-.559.124-1.136.57-1.606-.071-.59-.805-.414-2.141.272-2.344,2.959-.873,6.638,2.327,7.101,5.38.576.041,1.458-.671,1.786-.033.183.356.115.668-.119.975Z"/><path class="cls-2" d="M22.745,9.183c-.793-1.03-2.654-.932-3.869-1.365C19.914,3.39,15.645-.293,11.414.018c-3.203.236-5.703,3.602-5.591,6.153C2.226,7.508-1.281,10.949.46,14.449c2.655,5.338,3.375,4.293,6.062,4.443,3.874.216,7.945-.169,11.84,0,4.782-.329,7.362-5.842,4.383-9.708ZM18.231,18.14l-11.759-.968c-6.651.003-6.806-8.407-1.617-9.881,1.015-.288,1.595.203,1.831-.103.229-.297-.272-1.405.108-2.426.761-2.046,2.55-2.847,4.727-3.026,3.021-.248,5.781,1.829,6.368,4.802.095.48.349,1.025.136,1.42-.636,1.179.931.706,1.5.912,4.273,1.548,3.258,8.943-1.294,9.27Z"/><path class="cls-4" d="M14.394,14.547c-.446-.596-1.063-.154-1.585-.038-1.866.414-3.897-1.329-4.423-3.139l1.246.653c.022,0,.25-.109.292-.136.368-.24.483-.746.281-1.135l-1.892-1.467c-.315-.221-.779-.754-1.091-.535-.25.175-1.726,1.654-1.901,1.905-.279.4-.192.965.217,1.232.388.253,1.05-.525,1.494-.479.459,3.05,3.814,6.326,6.771,5.453.629-.186,1.086-1.203.761-2.005-.035-.097-.089-.199-.17-.307Z"/><path class="cls-5" d="M16.986,10.783c-.463-3.053-4.142-6.254-7.101-5.38-.686.202-.862,1.538-.272,2.344.47.641,1.047.195,1.606.071.169-.038.339-.04.509-.045,1.711-.05,3.379,1.469,3.868,3.12l-.104-.051-1.094-.537c-.022,0-.25.109-.292.136-.368.24-.483.746-.281,1.135l1.991,1.476c.315.221.68.745.992.525.305-.214,1.605-1.536,1.846-1.853.234-.307.302-.619.119-.975-.328-.638-1.21.074-1.786.033Z"/></svg>