<?xml version="1.0" encoding="UTF-8"?><svg id="Layer_1" xmlns="http://www.w3.org/2000/svg" viewBox="0 0 18.865 24.141"><defs><style>.cls-1{fill:none;}.cls-2{fill:#647a87;}.cls-3{fill:#d0d0d0;}.cls-4{fill:#3e4347;}.cls-5{fill:#fff;}.cls-6{fill:#d2d3d5;}.cls-7{fill:#ed4c5c;}.cls-8{fill:#4e5c66;}</style></defs><path class="cls-1" d="M10.989,2.637c0-.888-.721-1.958-1.607-1.994-1.661-.068-1.607.72-1.607,1.607,0,.583.313,1.088.778,1.37l-.113-1.39c1.04-.992,1.886-.573,1.886,0l-.097,1.492c.456-.169.761-.508.761-1.085Z"/><path class="cls-3" d="M8.699,4.358c.042.016.082.033.125.047v-.06l-.125.013Z"/><path class="cls-3" d="M7.774,2.25c0-.888-.054-1.675,1.607-1.607.887.036,1.607,1.107,1.607,1.994,0,.576-.306.915-.761,1.085l-.031.479-.346.036-.018.199c.985-.283,1.608-1.464,1.608-2.549,0-1.243-.817-1.887-2.059-1.887s-2.25,1.007-2.25,2.25c0,.762.617,1.697,1.478,2.075l-.057-.705c-.464-.282-.778-.787-.778-1.37Z"/><path class="cls-8" d="M9.754,5.322l.078-.886.018-.199-1.026.108v.792c.186.034.371.059.558.114.127.021.247.049.373.072Z"/><path class="cls-2" d="M9.85,4.237l.346-.036.031-.479.097-1.492c0-.573-.846-.992-1.886,0l.113,1.39.057.705.003.042.086-.009.125-.013,1.026-.108Z"/><path class="cls-8" d="M2.979,7.406l-.351-.576-.932,1.223.411.41c.272-.374.561-.73.873-1.057Z"/><path class="cls-2" d="M2.968,6.383l-.609-1.137c-.231-.231-.902-.053-1.133.177L.18,6.47c-.231.231-.244.964-.013,1.195l1.327.653.202-.265.932-1.223.34-.447Z"/><path class="cls-8" d="M16.489,8.631l.547-.547-1.114-1.114-.612.612c.431.321.824.671,1.179,1.049Z"/><path class="cls-2" d="M17.147,8.194l1.436-.889c.231-.231.404-.88.173-1.111l-1.219-.772c-.231-.231-1.05-.237-1.281-.006l-.719,1.169.384.384,1.114,1.114.111.111Z"/><path class="cls-2" d="M15.31,7.582c-1.462-1.09-3.342-1.851-5.556-2.26-.125-.023-.245-.051-.373-.072-.186-.055-.372-.08-.558-.114-2.155-.39-4.242.588-5.845,2.27-.312.327-.601.683-.873,1.057C.82,10.231.006,12.461.006,14.625.006,19.803,4.317,25.075,9.382,24c7.82-1.659,9.375-4.197,9.375-9.375,0-2.441-.814-4.449-2.268-5.994-.355-.378-.749-.728-1.179-1.049ZM9.382,22.75c-6.398-.897-8.125-3.638-8.125-8.125s1.122-7.5,8.125-8.125c4.487,0,7.874,3.645,8.125,8.125.308,5.496-3.681,8.748-8.125,8.125Z"/><path class="cls-6" d="M9.382,6.5C2.378,7.125,1.256,10.138,1.256,14.625s1.727,7.228,8.125,8.125c4.444.623,8.433-2.629,8.125-8.125-.251-4.48-3.638-8.125-8.125-8.125ZM9.382,22.125c-4.091-1.213-7.5-3.358-7.5-7.5,0-3.986,3.112-7.237,7.038-7.477l-.026-.42c1.867,0,3.67.767,5.091,1.984,1.76,1.372,2.897,3.508,2.897,5.913,0,.262-.014.521-.04.776-.02.193-.054.384-.087.576-.009.05-.013.101-.023.151-.708,3.648-3.856,7.032-7.349,5.997Z"/><path class="cls-5" d="M16.841,15.401c-.02.195-.053.386-.087.576.034-.192.068-.384.087-.576Z"/><path class="cls-5" d="M13.687,18.889s0,0,0,0c-.114.241-2.685-2.06-3.919-3.184-.124.042-.255.04-.387-.023-.822-.392-1.058-.474-1.058-1.058,0-.561.441-1.01.993-1.045l-.398-6.432c-3.926.24-7.038,3.491-7.038,7.477,0,4.142,3.409,6.287,7.5,7.5,3.493,1.035,6.641-2.348,7.349-5.997-.296,1.456-1.014,2.758-2.021,3.774l-1.023-1.013ZM3.719,10.958l.757.529v.458l-1.181-.529.424-.458ZM3.734,18.356l-.439-.521.77-.446.41.373-.742.593ZM4.622,14.89h-2.115v-.528h2.115v.528ZM6.174,20.711l-.524-.462.595-.718.171.387-.242.793ZM6.283,9.456l-.568-.653.45-.423.537,1.075h-.419ZM9.118,21.501v-1.598l.528-.518.294,2.116h-.822ZM12.59,20.713l-.529-.916.412-.011.576.663-.458.264Z"/><path class="cls-5" d="M16.882,14.625c0-2.405-1.137-4.54-2.897-5.913,1.733,1.483,2.897,3.638,2.897,5.913Z"/><path class="cls-7" d="M16.841,15.401c.026-.255.04-.514.04-.776,0-2.275-1.164-4.429-2.897-5.913-1.422-1.217-3.225-1.984-5.091-1.984l.026.42.398,6.432c.023-.001.042-.013.065-.013,1.058,0,1.058.474,1.058,1.058,0,.098-.02.2-.047.301,1.072,1.156,3.41,3.717,3.295,3.964l1.023,1.013c1.006-1.016,1.724-2.318,2.021-3.774.01-.049.014-.101.023-.151.035-.19.067-.381.087-.576ZM15.331,10.839l.137.578-.916.529-.14-.242.919-.864ZM9.529,9.547l-.411.319v-2.116l.822.444-.411,1.353ZM12.384,9.293l-.323.162.529-.916h.458l-.664.753ZM15.202,18.292l-.666-.716.014-.27,1.032.683-.38.304ZM16.257,14.89h-2.115l.319-.528,1.796-.284v.812Z"/><polygon class="cls-4" points="9.118 9.866 9.529 9.547 9.94 8.194 9.118 7.75 9.118 9.866"/><polygon class="cls-4" points="9.118 19.903 9.118 21.501 9.94 21.501 9.646 19.385 9.118 19.903"/><rect class="cls-4" x="2.507" y="14.361" width="2.115" height=".528"/><polygon class="cls-4" points="14.141 14.89 16.257 14.89 16.257 14.077 14.461 14.361 14.141 14.89"/><polygon class="cls-4" points="5.715 8.803 6.283 9.456 6.702 9.455 6.166 8.38 5.715 8.803"/><polygon class="cls-4" points="4.476 11.487 3.719 10.958 3.295 11.416 4.476 11.945 4.476 11.487"/><polygon class="cls-4" points="3.295 17.835 3.734 18.356 4.476 17.763 4.066 17.39 3.295 17.835"/><polygon class="cls-4" points="5.65 20.249 6.174 20.711 6.416 19.918 6.245 19.531 5.65 20.249"/><polygon class="cls-4" points="12.061 19.797 12.59 20.713 13.048 20.449 12.473 19.786 12.061 19.797"/><polygon class="cls-4" points="14.536 17.575 15.202 18.292 15.582 17.988 14.55 17.305 14.536 17.575"/><polygon class="cls-4" points="15.469 11.416 15.331 10.839 14.413 11.703 14.553 11.945 15.469 11.416"/><polygon class="cls-4" points="12.061 9.456 12.384 9.293 13.048 8.54 12.591 8.54 12.061 9.456"/><path class="cls-4" d="M8.324,14.625c0,.584.236.666,1.058,1.058.132.063.263.065.387.023,1.233,1.124,3.804,3.424,3.919,3.184,0,0,0,0,0,0,.115-.246-2.223-2.808-3.295-3.964.027-.101.047-.202.047-.301,0-.584,0-1.058-1.058-1.058-.023,0-.042.012-.065.013-.552.035-.993.483-.993,1.045Z"/></svg>