<?xml version="1.0" encoding="UTF-8"?><svg xmlns="http://www.w3.org/2000/svg" viewBox="0 0 24.017 19.415"><defs><style>.cls-1{fill:#fff;}.cls-2{fill:#98e1ea;}</style></defs><g id="Layer_1"><path class="cls-2" d="M20.508.481L3.359.011C-.204-.161.002,1.768.002,3.35v12.993c0,1.582,1.973,3.071,3.908,3.071l16.597-.203c1.935,0,3.51-1.287,3.51-2.869V3.35c0-1.582-1.575-2.869-3.51-2.869ZM21.074,18.679l-17.562-.286c-1.382,0-2.507-.919-2.507-2.049V3.35c0-1.13,1.125-2.049,2.507-2.049h16.996c1.383,0,2.134.896,2.134,2.026l.373,13.016c0,1.13-.557,2.335-1.94,2.335Z"/></g><g id="very_detailed"><rect class="cls-1" x="1.005" y="1.301" width="22.297" height="17.378" rx="2" ry="2"/><path class="cls-2" d="M20.508.481L3.359.011C-.204-.161.002,1.768.002,3.35v12.993c0,1.582,1.973,3.071,3.908,3.071l16.597-.203c1.935,0,3.51-1.287,3.51-2.869V3.35c0-1.582-1.575-2.869-3.51-2.869ZM21.074,18.679l-17.562-.286c-1.382,0-2.507-.919-2.507-2.049V3.35c0-1.13,1.125-2.049,2.507-2.049h16.996c1.383,0,2.134.896,2.134,2.026l.373,13.016c0,1.13-.557,2.335-1.94,2.335Z"/><polygon class="cls-2" points="4.323 5.145 20.164 5.145 20.164 4.325 20.164 4.029 4.647 4.735 4.323 5.145"/><polygon class="cls-2" points="4.079 12.173 19.921 12.173 19.921 11.353 19.921 11.057 4.403 11.763 4.079 12.173"/><polygon class="cls-2" points="4.323 7.429 4.323 7.774 4.323 8.593 20.164 8.593 19.935 7.915 4.323 7.429"/><polygon class="cls-2" points="4.079 14.637 4.079 14.981 4.079 15.8 19.921 15.8 19.692 15.123 4.079 14.637"/></g></svg>